%TF.GenerationSoftware,KiCad,Pcbnew,8.0.3*%
%TF.CreationDate,2024-11-08T10:21:23-08:00*%
%TF.ProjectId,return,72657475-726e-42e6-9b69-6361645f7063,rev?*%
%TF.SameCoordinates,Original*%
%TF.FileFunction,Legend,Bot*%
%TF.FilePolarity,Positive*%
%FSLAX46Y46*%
G04 Gerber Fmt 4.6, Leading zero omitted, Abs format (unit mm)*
G04 Created by KiCad (PCBNEW 8.0.3) date 2024-11-08 10:21:23*
%MOMM*%
%LPD*%
G01*
G04 APERTURE LIST*
%ADD10C,0.150000*%
%ADD11C,0.100000*%
%ADD12C,0.120000*%
G04 APERTURE END LIST*
D10*
X195456069Y-5573239D02*
X194456069Y-5573239D01*
X194456069Y-5573239D02*
X194456069Y-5811334D01*
X194456069Y-5811334D02*
X194503688Y-5954191D01*
X194503688Y-5954191D02*
X194598926Y-6049429D01*
X194598926Y-6049429D02*
X194694164Y-6097048D01*
X194694164Y-6097048D02*
X194884640Y-6144667D01*
X194884640Y-6144667D02*
X195027497Y-6144667D01*
X195027497Y-6144667D02*
X195217973Y-6097048D01*
X195217973Y-6097048D02*
X195313211Y-6049429D01*
X195313211Y-6049429D02*
X195408450Y-5954191D01*
X195408450Y-5954191D02*
X195456069Y-5811334D01*
X195456069Y-5811334D02*
X195456069Y-5573239D01*
X195456069Y-7097048D02*
X195456069Y-6525620D01*
X195456069Y-6811334D02*
X194456069Y-6811334D01*
X194456069Y-6811334D02*
X194598926Y-6716096D01*
X194598926Y-6716096D02*
X194694164Y-6620858D01*
X194694164Y-6620858D02*
X194741783Y-6525620D01*
X194456069Y-7430382D02*
X194456069Y-8049429D01*
X194456069Y-8049429D02*
X194837021Y-7716096D01*
X194837021Y-7716096D02*
X194837021Y-7858953D01*
X194837021Y-7858953D02*
X194884640Y-7954191D01*
X194884640Y-7954191D02*
X194932259Y-8001810D01*
X194932259Y-8001810D02*
X195027497Y-8049429D01*
X195027497Y-8049429D02*
X195265592Y-8049429D01*
X195265592Y-8049429D02*
X195360830Y-8001810D01*
X195360830Y-8001810D02*
X195408450Y-7954191D01*
X195408450Y-7954191D02*
X195456069Y-7858953D01*
X195456069Y-7858953D02*
X195456069Y-7573239D01*
X195456069Y-7573239D02*
X195408450Y-7478001D01*
X195408450Y-7478001D02*
X195360830Y-7430382D01*
X195136069Y-10335620D02*
X194136069Y-10335620D01*
X195136069Y-10907048D02*
X194564640Y-10478477D01*
X194136069Y-10907048D02*
X194707497Y-10335620D01*
X24006069Y-5573180D02*
X23006069Y-5573180D01*
X23006069Y-5573180D02*
X23006069Y-5811275D01*
X23006069Y-5811275D02*
X23053688Y-5954132D01*
X23053688Y-5954132D02*
X23148926Y-6049370D01*
X23148926Y-6049370D02*
X23244164Y-6096989D01*
X23244164Y-6096989D02*
X23434640Y-6144608D01*
X23434640Y-6144608D02*
X23577497Y-6144608D01*
X23577497Y-6144608D02*
X23767973Y-6096989D01*
X23767973Y-6096989D02*
X23863211Y-6049370D01*
X23863211Y-6049370D02*
X23958450Y-5954132D01*
X23958450Y-5954132D02*
X24006069Y-5811275D01*
X24006069Y-5811275D02*
X24006069Y-5573180D01*
X23101307Y-6525561D02*
X23053688Y-6573180D01*
X23053688Y-6573180D02*
X23006069Y-6668418D01*
X23006069Y-6668418D02*
X23006069Y-6906513D01*
X23006069Y-6906513D02*
X23053688Y-7001751D01*
X23053688Y-7001751D02*
X23101307Y-7049370D01*
X23101307Y-7049370D02*
X23196545Y-7096989D01*
X23196545Y-7096989D02*
X23291783Y-7096989D01*
X23291783Y-7096989D02*
X23434640Y-7049370D01*
X23434640Y-7049370D02*
X24006069Y-6477942D01*
X24006069Y-6477942D02*
X24006069Y-7096989D01*
X23686069Y-9859370D02*
X22686069Y-9859370D01*
X23686069Y-10430798D02*
X23114640Y-10002227D01*
X22686069Y-10430798D02*
X23257497Y-9859370D01*
X4956069Y-24623239D02*
X3956069Y-24623239D01*
X3956069Y-24623239D02*
X3956069Y-24861334D01*
X3956069Y-24861334D02*
X4003688Y-25004191D01*
X4003688Y-25004191D02*
X4098926Y-25099429D01*
X4098926Y-25099429D02*
X4194164Y-25147048D01*
X4194164Y-25147048D02*
X4384640Y-25194667D01*
X4384640Y-25194667D02*
X4527497Y-25194667D01*
X4527497Y-25194667D02*
X4717973Y-25147048D01*
X4717973Y-25147048D02*
X4813211Y-25099429D01*
X4813211Y-25099429D02*
X4908450Y-25004191D01*
X4908450Y-25004191D02*
X4956069Y-24861334D01*
X4956069Y-24861334D02*
X4956069Y-24623239D01*
X4956069Y-26147048D02*
X4956069Y-25575620D01*
X4956069Y-25861334D02*
X3956069Y-25861334D01*
X3956069Y-25861334D02*
X4098926Y-25766096D01*
X4098926Y-25766096D02*
X4194164Y-25670858D01*
X4194164Y-25670858D02*
X4241783Y-25575620D01*
X3956069Y-26480382D02*
X3956069Y-27147048D01*
X3956069Y-27147048D02*
X4956069Y-26718477D01*
X4636069Y-29385620D02*
X3636069Y-29385620D01*
X4636069Y-29957048D02*
X4064640Y-29528477D01*
X3636069Y-29957048D02*
X4207497Y-29385620D01*
X157356069Y-67485739D02*
X156356069Y-67485739D01*
X156356069Y-67485739D02*
X156356069Y-67723834D01*
X156356069Y-67723834D02*
X156403688Y-67866691D01*
X156403688Y-67866691D02*
X156498926Y-67961929D01*
X156498926Y-67961929D02*
X156594164Y-68009548D01*
X156594164Y-68009548D02*
X156784640Y-68057167D01*
X156784640Y-68057167D02*
X156927497Y-68057167D01*
X156927497Y-68057167D02*
X157117973Y-68009548D01*
X157117973Y-68009548D02*
X157213211Y-67961929D01*
X157213211Y-67961929D02*
X157308450Y-67866691D01*
X157308450Y-67866691D02*
X157356069Y-67723834D01*
X157356069Y-67723834D02*
X157356069Y-67485739D01*
X156689402Y-68914310D02*
X157356069Y-68914310D01*
X156308450Y-68676215D02*
X157022735Y-68438120D01*
X157022735Y-68438120D02*
X157022735Y-69057167D01*
X156451307Y-69390501D02*
X156403688Y-69438120D01*
X156403688Y-69438120D02*
X156356069Y-69533358D01*
X156356069Y-69533358D02*
X156356069Y-69771453D01*
X156356069Y-69771453D02*
X156403688Y-69866691D01*
X156403688Y-69866691D02*
X156451307Y-69914310D01*
X156451307Y-69914310D02*
X156546545Y-69961929D01*
X156546545Y-69961929D02*
X156641783Y-69961929D01*
X156641783Y-69961929D02*
X156784640Y-69914310D01*
X156784640Y-69914310D02*
X157356069Y-69342882D01*
X157356069Y-69342882D02*
X157356069Y-69961929D01*
X157036069Y-72248120D02*
X156036069Y-72248120D01*
X157036069Y-72819548D02*
X156464640Y-72390977D01*
X156036069Y-72819548D02*
X156607497Y-72248120D01*
X233556069Y-53198239D02*
X232556069Y-53198239D01*
X232556069Y-53198239D02*
X232556069Y-53436334D01*
X232556069Y-53436334D02*
X232603688Y-53579191D01*
X232603688Y-53579191D02*
X232698926Y-53674429D01*
X232698926Y-53674429D02*
X232794164Y-53722048D01*
X232794164Y-53722048D02*
X232984640Y-53769667D01*
X232984640Y-53769667D02*
X233127497Y-53769667D01*
X233127497Y-53769667D02*
X233317973Y-53722048D01*
X233317973Y-53722048D02*
X233413211Y-53674429D01*
X233413211Y-53674429D02*
X233508450Y-53579191D01*
X233508450Y-53579191D02*
X233556069Y-53436334D01*
X233556069Y-53436334D02*
X233556069Y-53198239D01*
X232556069Y-54674429D02*
X232556069Y-54198239D01*
X232556069Y-54198239D02*
X233032259Y-54150620D01*
X233032259Y-54150620D02*
X232984640Y-54198239D01*
X232984640Y-54198239D02*
X232937021Y-54293477D01*
X232937021Y-54293477D02*
X232937021Y-54531572D01*
X232937021Y-54531572D02*
X232984640Y-54626810D01*
X232984640Y-54626810D02*
X233032259Y-54674429D01*
X233032259Y-54674429D02*
X233127497Y-54722048D01*
X233127497Y-54722048D02*
X233365592Y-54722048D01*
X233365592Y-54722048D02*
X233460830Y-54674429D01*
X233460830Y-54674429D02*
X233508450Y-54626810D01*
X233508450Y-54626810D02*
X233556069Y-54531572D01*
X233556069Y-54531572D02*
X233556069Y-54293477D01*
X233556069Y-54293477D02*
X233508450Y-54198239D01*
X233508450Y-54198239D02*
X233460830Y-54150620D01*
X232556069Y-55055382D02*
X232556069Y-55674429D01*
X232556069Y-55674429D02*
X232937021Y-55341096D01*
X232937021Y-55341096D02*
X232937021Y-55483953D01*
X232937021Y-55483953D02*
X232984640Y-55579191D01*
X232984640Y-55579191D02*
X233032259Y-55626810D01*
X233032259Y-55626810D02*
X233127497Y-55674429D01*
X233127497Y-55674429D02*
X233365592Y-55674429D01*
X233365592Y-55674429D02*
X233460830Y-55626810D01*
X233460830Y-55626810D02*
X233508450Y-55579191D01*
X233508450Y-55579191D02*
X233556069Y-55483953D01*
X233556069Y-55483953D02*
X233556069Y-55198239D01*
X233556069Y-55198239D02*
X233508450Y-55103001D01*
X233508450Y-55103001D02*
X233460830Y-55055382D01*
X233236069Y-57960620D02*
X232236069Y-57960620D01*
X233236069Y-58532048D02*
X232664640Y-58103477D01*
X232236069Y-58532048D02*
X232807497Y-57960620D01*
X252606069Y-62246989D02*
X251606069Y-62246989D01*
X251606069Y-62246989D02*
X251606069Y-62485084D01*
X251606069Y-62485084D02*
X251653688Y-62627941D01*
X251653688Y-62627941D02*
X251748926Y-62723179D01*
X251748926Y-62723179D02*
X251844164Y-62770798D01*
X251844164Y-62770798D02*
X252034640Y-62818417D01*
X252034640Y-62818417D02*
X252177497Y-62818417D01*
X252177497Y-62818417D02*
X252367973Y-62770798D01*
X252367973Y-62770798D02*
X252463211Y-62723179D01*
X252463211Y-62723179D02*
X252558450Y-62627941D01*
X252558450Y-62627941D02*
X252606069Y-62485084D01*
X252606069Y-62485084D02*
X252606069Y-62246989D01*
X251701307Y-63199370D02*
X251653688Y-63246989D01*
X251653688Y-63246989D02*
X251606069Y-63342227D01*
X251606069Y-63342227D02*
X251606069Y-63580322D01*
X251606069Y-63580322D02*
X251653688Y-63675560D01*
X251653688Y-63675560D02*
X251701307Y-63723179D01*
X251701307Y-63723179D02*
X251796545Y-63770798D01*
X251796545Y-63770798D02*
X251891783Y-63770798D01*
X251891783Y-63770798D02*
X252034640Y-63723179D01*
X252034640Y-63723179D02*
X252606069Y-63151751D01*
X252606069Y-63151751D02*
X252606069Y-63770798D01*
X251606069Y-64104132D02*
X251606069Y-64723179D01*
X251606069Y-64723179D02*
X251987021Y-64389846D01*
X251987021Y-64389846D02*
X251987021Y-64532703D01*
X251987021Y-64532703D02*
X252034640Y-64627941D01*
X252034640Y-64627941D02*
X252082259Y-64675560D01*
X252082259Y-64675560D02*
X252177497Y-64723179D01*
X252177497Y-64723179D02*
X252415592Y-64723179D01*
X252415592Y-64723179D02*
X252510830Y-64675560D01*
X252510830Y-64675560D02*
X252558450Y-64627941D01*
X252558450Y-64627941D02*
X252606069Y-64532703D01*
X252606069Y-64532703D02*
X252606069Y-64246989D01*
X252606069Y-64246989D02*
X252558450Y-64151751D01*
X252558450Y-64151751D02*
X252510830Y-64104132D01*
X252286069Y-67009370D02*
X251286069Y-67009370D01*
X252286069Y-67580798D02*
X251714640Y-67152227D01*
X251286069Y-67580798D02*
X251857497Y-67009370D01*
X176406069Y-48435739D02*
X175406069Y-48435739D01*
X175406069Y-48435739D02*
X175406069Y-48673834D01*
X175406069Y-48673834D02*
X175453688Y-48816691D01*
X175453688Y-48816691D02*
X175548926Y-48911929D01*
X175548926Y-48911929D02*
X175644164Y-48959548D01*
X175644164Y-48959548D02*
X175834640Y-49007167D01*
X175834640Y-49007167D02*
X175977497Y-49007167D01*
X175977497Y-49007167D02*
X176167973Y-48959548D01*
X176167973Y-48959548D02*
X176263211Y-48911929D01*
X176263211Y-48911929D02*
X176358450Y-48816691D01*
X176358450Y-48816691D02*
X176406069Y-48673834D01*
X176406069Y-48673834D02*
X176406069Y-48435739D01*
X175739402Y-49864310D02*
X176406069Y-49864310D01*
X175358450Y-49626215D02*
X176072735Y-49388120D01*
X176072735Y-49388120D02*
X176072735Y-50007167D01*
X175739402Y-50816691D02*
X176406069Y-50816691D01*
X175358450Y-50578596D02*
X176072735Y-50340501D01*
X176072735Y-50340501D02*
X176072735Y-50959548D01*
X176086069Y-53198120D02*
X175086069Y-53198120D01*
X176086069Y-53769548D02*
X175514640Y-53340977D01*
X175086069Y-53769548D02*
X175657497Y-53198120D01*
X24006069Y-53198239D02*
X23006069Y-53198239D01*
X23006069Y-53198239D02*
X23006069Y-53436334D01*
X23006069Y-53436334D02*
X23053688Y-53579191D01*
X23053688Y-53579191D02*
X23148926Y-53674429D01*
X23148926Y-53674429D02*
X23244164Y-53722048D01*
X23244164Y-53722048D02*
X23434640Y-53769667D01*
X23434640Y-53769667D02*
X23577497Y-53769667D01*
X23577497Y-53769667D02*
X23767973Y-53722048D01*
X23767973Y-53722048D02*
X23863211Y-53674429D01*
X23863211Y-53674429D02*
X23958450Y-53579191D01*
X23958450Y-53579191D02*
X24006069Y-53436334D01*
X24006069Y-53436334D02*
X24006069Y-53198239D01*
X23101307Y-54150620D02*
X23053688Y-54198239D01*
X23053688Y-54198239D02*
X23006069Y-54293477D01*
X23006069Y-54293477D02*
X23006069Y-54531572D01*
X23006069Y-54531572D02*
X23053688Y-54626810D01*
X23053688Y-54626810D02*
X23101307Y-54674429D01*
X23101307Y-54674429D02*
X23196545Y-54722048D01*
X23196545Y-54722048D02*
X23291783Y-54722048D01*
X23291783Y-54722048D02*
X23434640Y-54674429D01*
X23434640Y-54674429D02*
X24006069Y-54103001D01*
X24006069Y-54103001D02*
X24006069Y-54722048D01*
X23006069Y-55579191D02*
X23006069Y-55388715D01*
X23006069Y-55388715D02*
X23053688Y-55293477D01*
X23053688Y-55293477D02*
X23101307Y-55245858D01*
X23101307Y-55245858D02*
X23244164Y-55150620D01*
X23244164Y-55150620D02*
X23434640Y-55103001D01*
X23434640Y-55103001D02*
X23815592Y-55103001D01*
X23815592Y-55103001D02*
X23910830Y-55150620D01*
X23910830Y-55150620D02*
X23958450Y-55198239D01*
X23958450Y-55198239D02*
X24006069Y-55293477D01*
X24006069Y-55293477D02*
X24006069Y-55483953D01*
X24006069Y-55483953D02*
X23958450Y-55579191D01*
X23958450Y-55579191D02*
X23910830Y-55626810D01*
X23910830Y-55626810D02*
X23815592Y-55674429D01*
X23815592Y-55674429D02*
X23577497Y-55674429D01*
X23577497Y-55674429D02*
X23482259Y-55626810D01*
X23482259Y-55626810D02*
X23434640Y-55579191D01*
X23434640Y-55579191D02*
X23387021Y-55483953D01*
X23387021Y-55483953D02*
X23387021Y-55293477D01*
X23387021Y-55293477D02*
X23434640Y-55198239D01*
X23434640Y-55198239D02*
X23482259Y-55150620D01*
X23482259Y-55150620D02*
X23577497Y-55103001D01*
X23686069Y-57960620D02*
X22686069Y-57960620D01*
X23686069Y-58532048D02*
X23114640Y-58103477D01*
X22686069Y-58532048D02*
X23257497Y-57960620D01*
X176406069Y-67485739D02*
X175406069Y-67485739D01*
X175406069Y-67485739D02*
X175406069Y-67723834D01*
X175406069Y-67723834D02*
X175453688Y-67866691D01*
X175453688Y-67866691D02*
X175548926Y-67961929D01*
X175548926Y-67961929D02*
X175644164Y-68009548D01*
X175644164Y-68009548D02*
X175834640Y-68057167D01*
X175834640Y-68057167D02*
X175977497Y-68057167D01*
X175977497Y-68057167D02*
X176167973Y-68009548D01*
X176167973Y-68009548D02*
X176263211Y-67961929D01*
X176263211Y-67961929D02*
X176358450Y-67866691D01*
X176358450Y-67866691D02*
X176406069Y-67723834D01*
X176406069Y-67723834D02*
X176406069Y-67485739D01*
X175739402Y-68914310D02*
X176406069Y-68914310D01*
X175358450Y-68676215D02*
X176072735Y-68438120D01*
X176072735Y-68438120D02*
X176072735Y-69057167D01*
X175406069Y-69914310D02*
X175406069Y-69438120D01*
X175406069Y-69438120D02*
X175882259Y-69390501D01*
X175882259Y-69390501D02*
X175834640Y-69438120D01*
X175834640Y-69438120D02*
X175787021Y-69533358D01*
X175787021Y-69533358D02*
X175787021Y-69771453D01*
X175787021Y-69771453D02*
X175834640Y-69866691D01*
X175834640Y-69866691D02*
X175882259Y-69914310D01*
X175882259Y-69914310D02*
X175977497Y-69961929D01*
X175977497Y-69961929D02*
X176215592Y-69961929D01*
X176215592Y-69961929D02*
X176310830Y-69914310D01*
X176310830Y-69914310D02*
X176358450Y-69866691D01*
X176358450Y-69866691D02*
X176406069Y-69771453D01*
X176406069Y-69771453D02*
X176406069Y-69533358D01*
X176406069Y-69533358D02*
X176358450Y-69438120D01*
X176358450Y-69438120D02*
X176310830Y-69390501D01*
X176086069Y-72248120D02*
X175086069Y-72248120D01*
X176086069Y-72819548D02*
X175514640Y-72390977D01*
X175086069Y-72819548D02*
X175657497Y-72248120D01*
X81156069Y-29385739D02*
X80156069Y-29385739D01*
X80156069Y-29385739D02*
X80156069Y-29623834D01*
X80156069Y-29623834D02*
X80203688Y-29766691D01*
X80203688Y-29766691D02*
X80298926Y-29861929D01*
X80298926Y-29861929D02*
X80394164Y-29909548D01*
X80394164Y-29909548D02*
X80584640Y-29957167D01*
X80584640Y-29957167D02*
X80727497Y-29957167D01*
X80727497Y-29957167D02*
X80917973Y-29909548D01*
X80917973Y-29909548D02*
X81013211Y-29861929D01*
X81013211Y-29861929D02*
X81108450Y-29766691D01*
X81108450Y-29766691D02*
X81156069Y-29623834D01*
X81156069Y-29623834D02*
X81156069Y-29385739D01*
X80156069Y-30290501D02*
X80156069Y-30909548D01*
X80156069Y-30909548D02*
X80537021Y-30576215D01*
X80537021Y-30576215D02*
X80537021Y-30719072D01*
X80537021Y-30719072D02*
X80584640Y-30814310D01*
X80584640Y-30814310D02*
X80632259Y-30861929D01*
X80632259Y-30861929D02*
X80727497Y-30909548D01*
X80727497Y-30909548D02*
X80965592Y-30909548D01*
X80965592Y-30909548D02*
X81060830Y-30861929D01*
X81060830Y-30861929D02*
X81108450Y-30814310D01*
X81108450Y-30814310D02*
X81156069Y-30719072D01*
X81156069Y-30719072D02*
X81156069Y-30433358D01*
X81156069Y-30433358D02*
X81108450Y-30338120D01*
X81108450Y-30338120D02*
X81060830Y-30290501D01*
X80489402Y-31766691D02*
X81156069Y-31766691D01*
X80108450Y-31528596D02*
X80822735Y-31290501D01*
X80822735Y-31290501D02*
X80822735Y-31909548D01*
X80836069Y-34148120D02*
X79836069Y-34148120D01*
X80836069Y-34719548D02*
X80264640Y-34290977D01*
X79836069Y-34719548D02*
X80407497Y-34148120D01*
X252606069Y-81773239D02*
X251606069Y-81773239D01*
X251606069Y-81773239D02*
X251606069Y-82011334D01*
X251606069Y-82011334D02*
X251653688Y-82154191D01*
X251653688Y-82154191D02*
X251748926Y-82249429D01*
X251748926Y-82249429D02*
X251844164Y-82297048D01*
X251844164Y-82297048D02*
X252034640Y-82344667D01*
X252034640Y-82344667D02*
X252177497Y-82344667D01*
X252177497Y-82344667D02*
X252367973Y-82297048D01*
X252367973Y-82297048D02*
X252463211Y-82249429D01*
X252463211Y-82249429D02*
X252558450Y-82154191D01*
X252558450Y-82154191D02*
X252606069Y-82011334D01*
X252606069Y-82011334D02*
X252606069Y-81773239D01*
X251701307Y-82725620D02*
X251653688Y-82773239D01*
X251653688Y-82773239D02*
X251606069Y-82868477D01*
X251606069Y-82868477D02*
X251606069Y-83106572D01*
X251606069Y-83106572D02*
X251653688Y-83201810D01*
X251653688Y-83201810D02*
X251701307Y-83249429D01*
X251701307Y-83249429D02*
X251796545Y-83297048D01*
X251796545Y-83297048D02*
X251891783Y-83297048D01*
X251891783Y-83297048D02*
X252034640Y-83249429D01*
X252034640Y-83249429D02*
X252606069Y-82678001D01*
X252606069Y-82678001D02*
X252606069Y-83297048D01*
X251939402Y-84154191D02*
X252606069Y-84154191D01*
X251558450Y-83916096D02*
X252272735Y-83678001D01*
X252272735Y-83678001D02*
X252272735Y-84297048D01*
X252286069Y-86535620D02*
X251286069Y-86535620D01*
X252286069Y-87107048D02*
X251714640Y-86678477D01*
X251286069Y-87107048D02*
X251857497Y-86535620D01*
X43056069Y-29385739D02*
X42056069Y-29385739D01*
X42056069Y-29385739D02*
X42056069Y-29623834D01*
X42056069Y-29623834D02*
X42103688Y-29766691D01*
X42103688Y-29766691D02*
X42198926Y-29861929D01*
X42198926Y-29861929D02*
X42294164Y-29909548D01*
X42294164Y-29909548D02*
X42484640Y-29957167D01*
X42484640Y-29957167D02*
X42627497Y-29957167D01*
X42627497Y-29957167D02*
X42817973Y-29909548D01*
X42817973Y-29909548D02*
X42913211Y-29861929D01*
X42913211Y-29861929D02*
X43008450Y-29766691D01*
X43008450Y-29766691D02*
X43056069Y-29623834D01*
X43056069Y-29623834D02*
X43056069Y-29385739D01*
X42151307Y-30338120D02*
X42103688Y-30385739D01*
X42103688Y-30385739D02*
X42056069Y-30480977D01*
X42056069Y-30480977D02*
X42056069Y-30719072D01*
X42056069Y-30719072D02*
X42103688Y-30814310D01*
X42103688Y-30814310D02*
X42151307Y-30861929D01*
X42151307Y-30861929D02*
X42246545Y-30909548D01*
X42246545Y-30909548D02*
X42341783Y-30909548D01*
X42341783Y-30909548D02*
X42484640Y-30861929D01*
X42484640Y-30861929D02*
X43056069Y-30290501D01*
X43056069Y-30290501D02*
X43056069Y-30909548D01*
X42484640Y-31480977D02*
X42437021Y-31385739D01*
X42437021Y-31385739D02*
X42389402Y-31338120D01*
X42389402Y-31338120D02*
X42294164Y-31290501D01*
X42294164Y-31290501D02*
X42246545Y-31290501D01*
X42246545Y-31290501D02*
X42151307Y-31338120D01*
X42151307Y-31338120D02*
X42103688Y-31385739D01*
X42103688Y-31385739D02*
X42056069Y-31480977D01*
X42056069Y-31480977D02*
X42056069Y-31671453D01*
X42056069Y-31671453D02*
X42103688Y-31766691D01*
X42103688Y-31766691D02*
X42151307Y-31814310D01*
X42151307Y-31814310D02*
X42246545Y-31861929D01*
X42246545Y-31861929D02*
X42294164Y-31861929D01*
X42294164Y-31861929D02*
X42389402Y-31814310D01*
X42389402Y-31814310D02*
X42437021Y-31766691D01*
X42437021Y-31766691D02*
X42484640Y-31671453D01*
X42484640Y-31671453D02*
X42484640Y-31480977D01*
X42484640Y-31480977D02*
X42532259Y-31385739D01*
X42532259Y-31385739D02*
X42579878Y-31338120D01*
X42579878Y-31338120D02*
X42675116Y-31290501D01*
X42675116Y-31290501D02*
X42865592Y-31290501D01*
X42865592Y-31290501D02*
X42960830Y-31338120D01*
X42960830Y-31338120D02*
X43008450Y-31385739D01*
X43008450Y-31385739D02*
X43056069Y-31480977D01*
X43056069Y-31480977D02*
X43056069Y-31671453D01*
X43056069Y-31671453D02*
X43008450Y-31766691D01*
X43008450Y-31766691D02*
X42960830Y-31814310D01*
X42960830Y-31814310D02*
X42865592Y-31861929D01*
X42865592Y-31861929D02*
X42675116Y-31861929D01*
X42675116Y-31861929D02*
X42579878Y-31814310D01*
X42579878Y-31814310D02*
X42532259Y-31766691D01*
X42532259Y-31766691D02*
X42484640Y-31671453D01*
X42736069Y-34148120D02*
X41736069Y-34148120D01*
X42736069Y-34719548D02*
X42164640Y-34290977D01*
X41736069Y-34719548D02*
X42307497Y-34148120D01*
X100206069Y-67485739D02*
X99206069Y-67485739D01*
X99206069Y-67485739D02*
X99206069Y-67723834D01*
X99206069Y-67723834D02*
X99253688Y-67866691D01*
X99253688Y-67866691D02*
X99348926Y-67961929D01*
X99348926Y-67961929D02*
X99444164Y-68009548D01*
X99444164Y-68009548D02*
X99634640Y-68057167D01*
X99634640Y-68057167D02*
X99777497Y-68057167D01*
X99777497Y-68057167D02*
X99967973Y-68009548D01*
X99967973Y-68009548D02*
X100063211Y-67961929D01*
X100063211Y-67961929D02*
X100158450Y-67866691D01*
X100158450Y-67866691D02*
X100206069Y-67723834D01*
X100206069Y-67723834D02*
X100206069Y-67485739D01*
X99206069Y-68390501D02*
X99206069Y-69009548D01*
X99206069Y-69009548D02*
X99587021Y-68676215D01*
X99587021Y-68676215D02*
X99587021Y-68819072D01*
X99587021Y-68819072D02*
X99634640Y-68914310D01*
X99634640Y-68914310D02*
X99682259Y-68961929D01*
X99682259Y-68961929D02*
X99777497Y-69009548D01*
X99777497Y-69009548D02*
X100015592Y-69009548D01*
X100015592Y-69009548D02*
X100110830Y-68961929D01*
X100110830Y-68961929D02*
X100158450Y-68914310D01*
X100158450Y-68914310D02*
X100206069Y-68819072D01*
X100206069Y-68819072D02*
X100206069Y-68533358D01*
X100206069Y-68533358D02*
X100158450Y-68438120D01*
X100158450Y-68438120D02*
X100110830Y-68390501D01*
X100206069Y-69485739D02*
X100206069Y-69676215D01*
X100206069Y-69676215D02*
X100158450Y-69771453D01*
X100158450Y-69771453D02*
X100110830Y-69819072D01*
X100110830Y-69819072D02*
X99967973Y-69914310D01*
X99967973Y-69914310D02*
X99777497Y-69961929D01*
X99777497Y-69961929D02*
X99396545Y-69961929D01*
X99396545Y-69961929D02*
X99301307Y-69914310D01*
X99301307Y-69914310D02*
X99253688Y-69866691D01*
X99253688Y-69866691D02*
X99206069Y-69771453D01*
X99206069Y-69771453D02*
X99206069Y-69580977D01*
X99206069Y-69580977D02*
X99253688Y-69485739D01*
X99253688Y-69485739D02*
X99301307Y-69438120D01*
X99301307Y-69438120D02*
X99396545Y-69390501D01*
X99396545Y-69390501D02*
X99634640Y-69390501D01*
X99634640Y-69390501D02*
X99729878Y-69438120D01*
X99729878Y-69438120D02*
X99777497Y-69485739D01*
X99777497Y-69485739D02*
X99825116Y-69580977D01*
X99825116Y-69580977D02*
X99825116Y-69771453D01*
X99825116Y-69771453D02*
X99777497Y-69866691D01*
X99777497Y-69866691D02*
X99729878Y-69914310D01*
X99729878Y-69914310D02*
X99634640Y-69961929D01*
X99886069Y-72248120D02*
X98886069Y-72248120D01*
X99886069Y-72819548D02*
X99314640Y-72390977D01*
X98886069Y-72819548D02*
X99457497Y-72248120D01*
X157356069Y-48435739D02*
X156356069Y-48435739D01*
X156356069Y-48435739D02*
X156356069Y-48673834D01*
X156356069Y-48673834D02*
X156403688Y-48816691D01*
X156403688Y-48816691D02*
X156498926Y-48911929D01*
X156498926Y-48911929D02*
X156594164Y-48959548D01*
X156594164Y-48959548D02*
X156784640Y-49007167D01*
X156784640Y-49007167D02*
X156927497Y-49007167D01*
X156927497Y-49007167D02*
X157117973Y-48959548D01*
X157117973Y-48959548D02*
X157213211Y-48911929D01*
X157213211Y-48911929D02*
X157308450Y-48816691D01*
X157308450Y-48816691D02*
X157356069Y-48673834D01*
X157356069Y-48673834D02*
X157356069Y-48435739D01*
X156689402Y-49864310D02*
X157356069Y-49864310D01*
X156308450Y-49626215D02*
X157022735Y-49388120D01*
X157022735Y-49388120D02*
X157022735Y-50007167D01*
X157356069Y-50911929D02*
X157356069Y-50340501D01*
X157356069Y-50626215D02*
X156356069Y-50626215D01*
X156356069Y-50626215D02*
X156498926Y-50530977D01*
X156498926Y-50530977D02*
X156594164Y-50435739D01*
X156594164Y-50435739D02*
X156641783Y-50340501D01*
X157036069Y-53198120D02*
X156036069Y-53198120D01*
X157036069Y-53769548D02*
X156464640Y-53340977D01*
X156036069Y-53769548D02*
X156607497Y-53198120D01*
X64487319Y-86535739D02*
X63487319Y-86535739D01*
X63487319Y-86535739D02*
X63487319Y-86773834D01*
X63487319Y-86773834D02*
X63534938Y-86916691D01*
X63534938Y-86916691D02*
X63630176Y-87011929D01*
X63630176Y-87011929D02*
X63725414Y-87059548D01*
X63725414Y-87059548D02*
X63915890Y-87107167D01*
X63915890Y-87107167D02*
X64058747Y-87107167D01*
X64058747Y-87107167D02*
X64249223Y-87059548D01*
X64249223Y-87059548D02*
X64344461Y-87011929D01*
X64344461Y-87011929D02*
X64439700Y-86916691D01*
X64439700Y-86916691D02*
X64487319Y-86773834D01*
X64487319Y-86773834D02*
X64487319Y-86535739D01*
X63487319Y-88011929D02*
X63487319Y-87535739D01*
X63487319Y-87535739D02*
X63963509Y-87488120D01*
X63963509Y-87488120D02*
X63915890Y-87535739D01*
X63915890Y-87535739D02*
X63868271Y-87630977D01*
X63868271Y-87630977D02*
X63868271Y-87869072D01*
X63868271Y-87869072D02*
X63915890Y-87964310D01*
X63915890Y-87964310D02*
X63963509Y-88011929D01*
X63963509Y-88011929D02*
X64058747Y-88059548D01*
X64058747Y-88059548D02*
X64296842Y-88059548D01*
X64296842Y-88059548D02*
X64392080Y-88011929D01*
X64392080Y-88011929D02*
X64439700Y-87964310D01*
X64439700Y-87964310D02*
X64487319Y-87869072D01*
X64487319Y-87869072D02*
X64487319Y-87630977D01*
X64487319Y-87630977D02*
X64439700Y-87535739D01*
X64439700Y-87535739D02*
X64392080Y-87488120D01*
X63487319Y-88916691D02*
X63487319Y-88726215D01*
X63487319Y-88726215D02*
X63534938Y-88630977D01*
X63534938Y-88630977D02*
X63582557Y-88583358D01*
X63582557Y-88583358D02*
X63725414Y-88488120D01*
X63725414Y-88488120D02*
X63915890Y-88440501D01*
X63915890Y-88440501D02*
X64296842Y-88440501D01*
X64296842Y-88440501D02*
X64392080Y-88488120D01*
X64392080Y-88488120D02*
X64439700Y-88535739D01*
X64439700Y-88535739D02*
X64487319Y-88630977D01*
X64487319Y-88630977D02*
X64487319Y-88821453D01*
X64487319Y-88821453D02*
X64439700Y-88916691D01*
X64439700Y-88916691D02*
X64392080Y-88964310D01*
X64392080Y-88964310D02*
X64296842Y-89011929D01*
X64296842Y-89011929D02*
X64058747Y-89011929D01*
X64058747Y-89011929D02*
X63963509Y-88964310D01*
X63963509Y-88964310D02*
X63915890Y-88916691D01*
X63915890Y-88916691D02*
X63868271Y-88821453D01*
X63868271Y-88821453D02*
X63868271Y-88630977D01*
X63868271Y-88630977D02*
X63915890Y-88535739D01*
X63915890Y-88535739D02*
X63963509Y-88488120D01*
X63963509Y-88488120D02*
X64058747Y-88440501D01*
X64167319Y-91298120D02*
X63167319Y-91298120D01*
X64167319Y-91869548D02*
X63595890Y-91440977D01*
X63167319Y-91869548D02*
X63738747Y-91298120D01*
X81156069Y-6049430D02*
X80156069Y-6049430D01*
X80156069Y-6049430D02*
X80156069Y-6287525D01*
X80156069Y-6287525D02*
X80203688Y-6430382D01*
X80203688Y-6430382D02*
X80298926Y-6525620D01*
X80298926Y-6525620D02*
X80394164Y-6573239D01*
X80394164Y-6573239D02*
X80584640Y-6620858D01*
X80584640Y-6620858D02*
X80727497Y-6620858D01*
X80727497Y-6620858D02*
X80917973Y-6573239D01*
X80917973Y-6573239D02*
X81013211Y-6525620D01*
X81013211Y-6525620D02*
X81108450Y-6430382D01*
X81108450Y-6430382D02*
X81156069Y-6287525D01*
X81156069Y-6287525D02*
X81156069Y-6049430D01*
X80156069Y-6954192D02*
X80156069Y-7620858D01*
X80156069Y-7620858D02*
X81156069Y-7192287D01*
X80836069Y-10335620D02*
X79836069Y-10335620D01*
X80836069Y-10907048D02*
X80264640Y-10478477D01*
X79836069Y-10907048D02*
X80407497Y-10335620D01*
X62106069Y-5573180D02*
X61106069Y-5573180D01*
X61106069Y-5573180D02*
X61106069Y-5811275D01*
X61106069Y-5811275D02*
X61153688Y-5954132D01*
X61153688Y-5954132D02*
X61248926Y-6049370D01*
X61248926Y-6049370D02*
X61344164Y-6096989D01*
X61344164Y-6096989D02*
X61534640Y-6144608D01*
X61534640Y-6144608D02*
X61677497Y-6144608D01*
X61677497Y-6144608D02*
X61867973Y-6096989D01*
X61867973Y-6096989D02*
X61963211Y-6049370D01*
X61963211Y-6049370D02*
X62058450Y-5954132D01*
X62058450Y-5954132D02*
X62106069Y-5811275D01*
X62106069Y-5811275D02*
X62106069Y-5573180D01*
X61106069Y-7001751D02*
X61106069Y-6811275D01*
X61106069Y-6811275D02*
X61153688Y-6716037D01*
X61153688Y-6716037D02*
X61201307Y-6668418D01*
X61201307Y-6668418D02*
X61344164Y-6573180D01*
X61344164Y-6573180D02*
X61534640Y-6525561D01*
X61534640Y-6525561D02*
X61915592Y-6525561D01*
X61915592Y-6525561D02*
X62010830Y-6573180D01*
X62010830Y-6573180D02*
X62058450Y-6620799D01*
X62058450Y-6620799D02*
X62106069Y-6716037D01*
X62106069Y-6716037D02*
X62106069Y-6906513D01*
X62106069Y-6906513D02*
X62058450Y-7001751D01*
X62058450Y-7001751D02*
X62010830Y-7049370D01*
X62010830Y-7049370D02*
X61915592Y-7096989D01*
X61915592Y-7096989D02*
X61677497Y-7096989D01*
X61677497Y-7096989D02*
X61582259Y-7049370D01*
X61582259Y-7049370D02*
X61534640Y-7001751D01*
X61534640Y-7001751D02*
X61487021Y-6906513D01*
X61487021Y-6906513D02*
X61487021Y-6716037D01*
X61487021Y-6716037D02*
X61534640Y-6620799D01*
X61534640Y-6620799D02*
X61582259Y-6573180D01*
X61582259Y-6573180D02*
X61677497Y-6525561D01*
X61786069Y-9859370D02*
X60786069Y-9859370D01*
X61786069Y-10430798D02*
X61214640Y-10002227D01*
X60786069Y-10430798D02*
X61357497Y-9859370D01*
X100206069Y-29385739D02*
X99206069Y-29385739D01*
X99206069Y-29385739D02*
X99206069Y-29623834D01*
X99206069Y-29623834D02*
X99253688Y-29766691D01*
X99253688Y-29766691D02*
X99348926Y-29861929D01*
X99348926Y-29861929D02*
X99444164Y-29909548D01*
X99444164Y-29909548D02*
X99634640Y-29957167D01*
X99634640Y-29957167D02*
X99777497Y-29957167D01*
X99777497Y-29957167D02*
X99967973Y-29909548D01*
X99967973Y-29909548D02*
X100063211Y-29861929D01*
X100063211Y-29861929D02*
X100158450Y-29766691D01*
X100158450Y-29766691D02*
X100206069Y-29623834D01*
X100206069Y-29623834D02*
X100206069Y-29385739D01*
X99206069Y-30290501D02*
X99206069Y-30909548D01*
X99206069Y-30909548D02*
X99587021Y-30576215D01*
X99587021Y-30576215D02*
X99587021Y-30719072D01*
X99587021Y-30719072D02*
X99634640Y-30814310D01*
X99634640Y-30814310D02*
X99682259Y-30861929D01*
X99682259Y-30861929D02*
X99777497Y-30909548D01*
X99777497Y-30909548D02*
X100015592Y-30909548D01*
X100015592Y-30909548D02*
X100110830Y-30861929D01*
X100110830Y-30861929D02*
X100158450Y-30814310D01*
X100158450Y-30814310D02*
X100206069Y-30719072D01*
X100206069Y-30719072D02*
X100206069Y-30433358D01*
X100206069Y-30433358D02*
X100158450Y-30338120D01*
X100158450Y-30338120D02*
X100110830Y-30290501D01*
X99206069Y-31242882D02*
X99206069Y-31909548D01*
X99206069Y-31909548D02*
X100206069Y-31480977D01*
X99886069Y-34148120D02*
X98886069Y-34148120D01*
X99886069Y-34719548D02*
X99314640Y-34290977D01*
X98886069Y-34719548D02*
X99457497Y-34148120D01*
X214506069Y-5573239D02*
X213506069Y-5573239D01*
X213506069Y-5573239D02*
X213506069Y-5811334D01*
X213506069Y-5811334D02*
X213553688Y-5954191D01*
X213553688Y-5954191D02*
X213648926Y-6049429D01*
X213648926Y-6049429D02*
X213744164Y-6097048D01*
X213744164Y-6097048D02*
X213934640Y-6144667D01*
X213934640Y-6144667D02*
X214077497Y-6144667D01*
X214077497Y-6144667D02*
X214267973Y-6097048D01*
X214267973Y-6097048D02*
X214363211Y-6049429D01*
X214363211Y-6049429D02*
X214458450Y-5954191D01*
X214458450Y-5954191D02*
X214506069Y-5811334D01*
X214506069Y-5811334D02*
X214506069Y-5573239D01*
X214506069Y-7097048D02*
X214506069Y-6525620D01*
X214506069Y-6811334D02*
X213506069Y-6811334D01*
X213506069Y-6811334D02*
X213648926Y-6716096D01*
X213648926Y-6716096D02*
X213744164Y-6620858D01*
X213744164Y-6620858D02*
X213791783Y-6525620D01*
X213839402Y-7954191D02*
X214506069Y-7954191D01*
X213458450Y-7716096D02*
X214172735Y-7478001D01*
X214172735Y-7478001D02*
X214172735Y-8097048D01*
X214186069Y-10335620D02*
X213186069Y-10335620D01*
X214186069Y-10907048D02*
X213614640Y-10478477D01*
X213186069Y-10907048D02*
X213757497Y-10335620D01*
X100206069Y-48435739D02*
X99206069Y-48435739D01*
X99206069Y-48435739D02*
X99206069Y-48673834D01*
X99206069Y-48673834D02*
X99253688Y-48816691D01*
X99253688Y-48816691D02*
X99348926Y-48911929D01*
X99348926Y-48911929D02*
X99444164Y-48959548D01*
X99444164Y-48959548D02*
X99634640Y-49007167D01*
X99634640Y-49007167D02*
X99777497Y-49007167D01*
X99777497Y-49007167D02*
X99967973Y-48959548D01*
X99967973Y-48959548D02*
X100063211Y-48911929D01*
X100063211Y-48911929D02*
X100158450Y-48816691D01*
X100158450Y-48816691D02*
X100206069Y-48673834D01*
X100206069Y-48673834D02*
X100206069Y-48435739D01*
X99206069Y-49340501D02*
X99206069Y-49959548D01*
X99206069Y-49959548D02*
X99587021Y-49626215D01*
X99587021Y-49626215D02*
X99587021Y-49769072D01*
X99587021Y-49769072D02*
X99634640Y-49864310D01*
X99634640Y-49864310D02*
X99682259Y-49911929D01*
X99682259Y-49911929D02*
X99777497Y-49959548D01*
X99777497Y-49959548D02*
X100015592Y-49959548D01*
X100015592Y-49959548D02*
X100110830Y-49911929D01*
X100110830Y-49911929D02*
X100158450Y-49864310D01*
X100158450Y-49864310D02*
X100206069Y-49769072D01*
X100206069Y-49769072D02*
X100206069Y-49483358D01*
X100206069Y-49483358D02*
X100158450Y-49388120D01*
X100158450Y-49388120D02*
X100110830Y-49340501D01*
X99634640Y-50530977D02*
X99587021Y-50435739D01*
X99587021Y-50435739D02*
X99539402Y-50388120D01*
X99539402Y-50388120D02*
X99444164Y-50340501D01*
X99444164Y-50340501D02*
X99396545Y-50340501D01*
X99396545Y-50340501D02*
X99301307Y-50388120D01*
X99301307Y-50388120D02*
X99253688Y-50435739D01*
X99253688Y-50435739D02*
X99206069Y-50530977D01*
X99206069Y-50530977D02*
X99206069Y-50721453D01*
X99206069Y-50721453D02*
X99253688Y-50816691D01*
X99253688Y-50816691D02*
X99301307Y-50864310D01*
X99301307Y-50864310D02*
X99396545Y-50911929D01*
X99396545Y-50911929D02*
X99444164Y-50911929D01*
X99444164Y-50911929D02*
X99539402Y-50864310D01*
X99539402Y-50864310D02*
X99587021Y-50816691D01*
X99587021Y-50816691D02*
X99634640Y-50721453D01*
X99634640Y-50721453D02*
X99634640Y-50530977D01*
X99634640Y-50530977D02*
X99682259Y-50435739D01*
X99682259Y-50435739D02*
X99729878Y-50388120D01*
X99729878Y-50388120D02*
X99825116Y-50340501D01*
X99825116Y-50340501D02*
X100015592Y-50340501D01*
X100015592Y-50340501D02*
X100110830Y-50388120D01*
X100110830Y-50388120D02*
X100158450Y-50435739D01*
X100158450Y-50435739D02*
X100206069Y-50530977D01*
X100206069Y-50530977D02*
X100206069Y-50721453D01*
X100206069Y-50721453D02*
X100158450Y-50816691D01*
X100158450Y-50816691D02*
X100110830Y-50864310D01*
X100110830Y-50864310D02*
X100015592Y-50911929D01*
X100015592Y-50911929D02*
X99825116Y-50911929D01*
X99825116Y-50911929D02*
X99729878Y-50864310D01*
X99729878Y-50864310D02*
X99682259Y-50816691D01*
X99682259Y-50816691D02*
X99634640Y-50721453D01*
X99886069Y-53198120D02*
X98886069Y-53198120D01*
X99886069Y-53769548D02*
X99314640Y-53340977D01*
X98886069Y-53769548D02*
X99457497Y-53198120D01*
X24006069Y-34148239D02*
X23006069Y-34148239D01*
X23006069Y-34148239D02*
X23006069Y-34386334D01*
X23006069Y-34386334D02*
X23053688Y-34529191D01*
X23053688Y-34529191D02*
X23148926Y-34624429D01*
X23148926Y-34624429D02*
X23244164Y-34672048D01*
X23244164Y-34672048D02*
X23434640Y-34719667D01*
X23434640Y-34719667D02*
X23577497Y-34719667D01*
X23577497Y-34719667D02*
X23767973Y-34672048D01*
X23767973Y-34672048D02*
X23863211Y-34624429D01*
X23863211Y-34624429D02*
X23958450Y-34529191D01*
X23958450Y-34529191D02*
X24006069Y-34386334D01*
X24006069Y-34386334D02*
X24006069Y-34148239D01*
X23101307Y-35100620D02*
X23053688Y-35148239D01*
X23053688Y-35148239D02*
X23006069Y-35243477D01*
X23006069Y-35243477D02*
X23006069Y-35481572D01*
X23006069Y-35481572D02*
X23053688Y-35576810D01*
X23053688Y-35576810D02*
X23101307Y-35624429D01*
X23101307Y-35624429D02*
X23196545Y-35672048D01*
X23196545Y-35672048D02*
X23291783Y-35672048D01*
X23291783Y-35672048D02*
X23434640Y-35624429D01*
X23434640Y-35624429D02*
X24006069Y-35053001D01*
X24006069Y-35053001D02*
X24006069Y-35672048D01*
X23006069Y-36576810D02*
X23006069Y-36100620D01*
X23006069Y-36100620D02*
X23482259Y-36053001D01*
X23482259Y-36053001D02*
X23434640Y-36100620D01*
X23434640Y-36100620D02*
X23387021Y-36195858D01*
X23387021Y-36195858D02*
X23387021Y-36433953D01*
X23387021Y-36433953D02*
X23434640Y-36529191D01*
X23434640Y-36529191D02*
X23482259Y-36576810D01*
X23482259Y-36576810D02*
X23577497Y-36624429D01*
X23577497Y-36624429D02*
X23815592Y-36624429D01*
X23815592Y-36624429D02*
X23910830Y-36576810D01*
X23910830Y-36576810D02*
X23958450Y-36529191D01*
X23958450Y-36529191D02*
X24006069Y-36433953D01*
X24006069Y-36433953D02*
X24006069Y-36195858D01*
X24006069Y-36195858D02*
X23958450Y-36100620D01*
X23958450Y-36100620D02*
X23910830Y-36053001D01*
X23686069Y-38910620D02*
X22686069Y-38910620D01*
X23686069Y-39482048D02*
X23114640Y-39053477D01*
X22686069Y-39482048D02*
X23257497Y-38910620D01*
X171647269Y-86535739D02*
X170647269Y-86535739D01*
X170647269Y-86535739D02*
X170647269Y-86773834D01*
X170647269Y-86773834D02*
X170694888Y-86916691D01*
X170694888Y-86916691D02*
X170790126Y-87011929D01*
X170790126Y-87011929D02*
X170885364Y-87059548D01*
X170885364Y-87059548D02*
X171075840Y-87107167D01*
X171075840Y-87107167D02*
X171218697Y-87107167D01*
X171218697Y-87107167D02*
X171409173Y-87059548D01*
X171409173Y-87059548D02*
X171504411Y-87011929D01*
X171504411Y-87011929D02*
X171599650Y-86916691D01*
X171599650Y-86916691D02*
X171647269Y-86773834D01*
X171647269Y-86773834D02*
X171647269Y-86535739D01*
X170647269Y-88011929D02*
X170647269Y-87535739D01*
X170647269Y-87535739D02*
X171123459Y-87488120D01*
X171123459Y-87488120D02*
X171075840Y-87535739D01*
X171075840Y-87535739D02*
X171028221Y-87630977D01*
X171028221Y-87630977D02*
X171028221Y-87869072D01*
X171028221Y-87869072D02*
X171075840Y-87964310D01*
X171075840Y-87964310D02*
X171123459Y-88011929D01*
X171123459Y-88011929D02*
X171218697Y-88059548D01*
X171218697Y-88059548D02*
X171456792Y-88059548D01*
X171456792Y-88059548D02*
X171552030Y-88011929D01*
X171552030Y-88011929D02*
X171599650Y-87964310D01*
X171599650Y-87964310D02*
X171647269Y-87869072D01*
X171647269Y-87869072D02*
X171647269Y-87630977D01*
X171647269Y-87630977D02*
X171599650Y-87535739D01*
X171599650Y-87535739D02*
X171552030Y-87488120D01*
X171647269Y-88535739D02*
X171647269Y-88726215D01*
X171647269Y-88726215D02*
X171599650Y-88821453D01*
X171599650Y-88821453D02*
X171552030Y-88869072D01*
X171552030Y-88869072D02*
X171409173Y-88964310D01*
X171409173Y-88964310D02*
X171218697Y-89011929D01*
X171218697Y-89011929D02*
X170837745Y-89011929D01*
X170837745Y-89011929D02*
X170742507Y-88964310D01*
X170742507Y-88964310D02*
X170694888Y-88916691D01*
X170694888Y-88916691D02*
X170647269Y-88821453D01*
X170647269Y-88821453D02*
X170647269Y-88630977D01*
X170647269Y-88630977D02*
X170694888Y-88535739D01*
X170694888Y-88535739D02*
X170742507Y-88488120D01*
X170742507Y-88488120D02*
X170837745Y-88440501D01*
X170837745Y-88440501D02*
X171075840Y-88440501D01*
X171075840Y-88440501D02*
X171171078Y-88488120D01*
X171171078Y-88488120D02*
X171218697Y-88535739D01*
X171218697Y-88535739D02*
X171266316Y-88630977D01*
X171266316Y-88630977D02*
X171266316Y-88821453D01*
X171266316Y-88821453D02*
X171218697Y-88916691D01*
X171218697Y-88916691D02*
X171171078Y-88964310D01*
X171171078Y-88964310D02*
X171075840Y-89011929D01*
X171327269Y-91298120D02*
X170327269Y-91298120D01*
X171327269Y-91869548D02*
X170755840Y-91440977D01*
X170327269Y-91869548D02*
X170898697Y-91298120D01*
X88299819Y-86535739D02*
X87299819Y-86535739D01*
X87299819Y-86535739D02*
X87299819Y-86773834D01*
X87299819Y-86773834D02*
X87347438Y-86916691D01*
X87347438Y-86916691D02*
X87442676Y-87011929D01*
X87442676Y-87011929D02*
X87537914Y-87059548D01*
X87537914Y-87059548D02*
X87728390Y-87107167D01*
X87728390Y-87107167D02*
X87871247Y-87107167D01*
X87871247Y-87107167D02*
X88061723Y-87059548D01*
X88061723Y-87059548D02*
X88156961Y-87011929D01*
X88156961Y-87011929D02*
X88252200Y-86916691D01*
X88252200Y-86916691D02*
X88299819Y-86773834D01*
X88299819Y-86773834D02*
X88299819Y-86535739D01*
X87299819Y-88011929D02*
X87299819Y-87535739D01*
X87299819Y-87535739D02*
X87776009Y-87488120D01*
X87776009Y-87488120D02*
X87728390Y-87535739D01*
X87728390Y-87535739D02*
X87680771Y-87630977D01*
X87680771Y-87630977D02*
X87680771Y-87869072D01*
X87680771Y-87869072D02*
X87728390Y-87964310D01*
X87728390Y-87964310D02*
X87776009Y-88011929D01*
X87776009Y-88011929D02*
X87871247Y-88059548D01*
X87871247Y-88059548D02*
X88109342Y-88059548D01*
X88109342Y-88059548D02*
X88204580Y-88011929D01*
X88204580Y-88011929D02*
X88252200Y-87964310D01*
X88252200Y-87964310D02*
X88299819Y-87869072D01*
X88299819Y-87869072D02*
X88299819Y-87630977D01*
X88299819Y-87630977D02*
X88252200Y-87535739D01*
X88252200Y-87535739D02*
X88204580Y-87488120D01*
X87299819Y-88392882D02*
X87299819Y-89059548D01*
X87299819Y-89059548D02*
X88299819Y-88630977D01*
X87979819Y-91298120D02*
X86979819Y-91298120D01*
X87979819Y-91869548D02*
X87408390Y-91440977D01*
X86979819Y-91869548D02*
X87551247Y-91298120D01*
X43056069Y-5573180D02*
X42056069Y-5573180D01*
X42056069Y-5573180D02*
X42056069Y-5811275D01*
X42056069Y-5811275D02*
X42103688Y-5954132D01*
X42103688Y-5954132D02*
X42198926Y-6049370D01*
X42198926Y-6049370D02*
X42294164Y-6096989D01*
X42294164Y-6096989D02*
X42484640Y-6144608D01*
X42484640Y-6144608D02*
X42627497Y-6144608D01*
X42627497Y-6144608D02*
X42817973Y-6096989D01*
X42817973Y-6096989D02*
X42913211Y-6049370D01*
X42913211Y-6049370D02*
X43008450Y-5954132D01*
X43008450Y-5954132D02*
X43056069Y-5811275D01*
X43056069Y-5811275D02*
X43056069Y-5573180D01*
X42056069Y-7049370D02*
X42056069Y-6573180D01*
X42056069Y-6573180D02*
X42532259Y-6525561D01*
X42532259Y-6525561D02*
X42484640Y-6573180D01*
X42484640Y-6573180D02*
X42437021Y-6668418D01*
X42437021Y-6668418D02*
X42437021Y-6906513D01*
X42437021Y-6906513D02*
X42484640Y-7001751D01*
X42484640Y-7001751D02*
X42532259Y-7049370D01*
X42532259Y-7049370D02*
X42627497Y-7096989D01*
X42627497Y-7096989D02*
X42865592Y-7096989D01*
X42865592Y-7096989D02*
X42960830Y-7049370D01*
X42960830Y-7049370D02*
X43008450Y-7001751D01*
X43008450Y-7001751D02*
X43056069Y-6906513D01*
X43056069Y-6906513D02*
X43056069Y-6668418D01*
X43056069Y-6668418D02*
X43008450Y-6573180D01*
X43008450Y-6573180D02*
X42960830Y-6525561D01*
X42736069Y-9859370D02*
X41736069Y-9859370D01*
X42736069Y-10430798D02*
X42164640Y-10002227D01*
X41736069Y-10430798D02*
X42307497Y-9859370D01*
X214506069Y-29385739D02*
X213506069Y-29385739D01*
X213506069Y-29385739D02*
X213506069Y-29623834D01*
X213506069Y-29623834D02*
X213553688Y-29766691D01*
X213553688Y-29766691D02*
X213648926Y-29861929D01*
X213648926Y-29861929D02*
X213744164Y-29909548D01*
X213744164Y-29909548D02*
X213934640Y-29957167D01*
X213934640Y-29957167D02*
X214077497Y-29957167D01*
X214077497Y-29957167D02*
X214267973Y-29909548D01*
X214267973Y-29909548D02*
X214363211Y-29861929D01*
X214363211Y-29861929D02*
X214458450Y-29766691D01*
X214458450Y-29766691D02*
X214506069Y-29623834D01*
X214506069Y-29623834D02*
X214506069Y-29385739D01*
X213839402Y-30814310D02*
X214506069Y-30814310D01*
X213458450Y-30576215D02*
X214172735Y-30338120D01*
X214172735Y-30338120D02*
X214172735Y-30957167D01*
X214506069Y-31385739D02*
X214506069Y-31576215D01*
X214506069Y-31576215D02*
X214458450Y-31671453D01*
X214458450Y-31671453D02*
X214410830Y-31719072D01*
X214410830Y-31719072D02*
X214267973Y-31814310D01*
X214267973Y-31814310D02*
X214077497Y-31861929D01*
X214077497Y-31861929D02*
X213696545Y-31861929D01*
X213696545Y-31861929D02*
X213601307Y-31814310D01*
X213601307Y-31814310D02*
X213553688Y-31766691D01*
X213553688Y-31766691D02*
X213506069Y-31671453D01*
X213506069Y-31671453D02*
X213506069Y-31480977D01*
X213506069Y-31480977D02*
X213553688Y-31385739D01*
X213553688Y-31385739D02*
X213601307Y-31338120D01*
X213601307Y-31338120D02*
X213696545Y-31290501D01*
X213696545Y-31290501D02*
X213934640Y-31290501D01*
X213934640Y-31290501D02*
X214029878Y-31338120D01*
X214029878Y-31338120D02*
X214077497Y-31385739D01*
X214077497Y-31385739D02*
X214125116Y-31480977D01*
X214125116Y-31480977D02*
X214125116Y-31671453D01*
X214125116Y-31671453D02*
X214077497Y-31766691D01*
X214077497Y-31766691D02*
X214029878Y-31814310D01*
X214029878Y-31814310D02*
X213934640Y-31861929D01*
X214186069Y-34148120D02*
X213186069Y-34148120D01*
X214186069Y-34719548D02*
X213614640Y-34290977D01*
X213186069Y-34719548D02*
X213757497Y-34148120D01*
X233556069Y-72248239D02*
X232556069Y-72248239D01*
X232556069Y-72248239D02*
X232556069Y-72486334D01*
X232556069Y-72486334D02*
X232603688Y-72629191D01*
X232603688Y-72629191D02*
X232698926Y-72724429D01*
X232698926Y-72724429D02*
X232794164Y-72772048D01*
X232794164Y-72772048D02*
X232984640Y-72819667D01*
X232984640Y-72819667D02*
X233127497Y-72819667D01*
X233127497Y-72819667D02*
X233317973Y-72772048D01*
X233317973Y-72772048D02*
X233413211Y-72724429D01*
X233413211Y-72724429D02*
X233508450Y-72629191D01*
X233508450Y-72629191D02*
X233556069Y-72486334D01*
X233556069Y-72486334D02*
X233556069Y-72248239D01*
X232556069Y-73724429D02*
X232556069Y-73248239D01*
X232556069Y-73248239D02*
X233032259Y-73200620D01*
X233032259Y-73200620D02*
X232984640Y-73248239D01*
X232984640Y-73248239D02*
X232937021Y-73343477D01*
X232937021Y-73343477D02*
X232937021Y-73581572D01*
X232937021Y-73581572D02*
X232984640Y-73676810D01*
X232984640Y-73676810D02*
X233032259Y-73724429D01*
X233032259Y-73724429D02*
X233127497Y-73772048D01*
X233127497Y-73772048D02*
X233365592Y-73772048D01*
X233365592Y-73772048D02*
X233460830Y-73724429D01*
X233460830Y-73724429D02*
X233508450Y-73676810D01*
X233508450Y-73676810D02*
X233556069Y-73581572D01*
X233556069Y-73581572D02*
X233556069Y-73343477D01*
X233556069Y-73343477D02*
X233508450Y-73248239D01*
X233508450Y-73248239D02*
X233460830Y-73200620D01*
X232889402Y-74629191D02*
X233556069Y-74629191D01*
X232508450Y-74391096D02*
X233222735Y-74153001D01*
X233222735Y-74153001D02*
X233222735Y-74772048D01*
X233236069Y-77010620D02*
X232236069Y-77010620D01*
X233236069Y-77582048D02*
X232664640Y-77153477D01*
X232236069Y-77582048D02*
X232807497Y-77010620D01*
X214506069Y-86535739D02*
X213506069Y-86535739D01*
X213506069Y-86535739D02*
X213506069Y-86773834D01*
X213506069Y-86773834D02*
X213553688Y-86916691D01*
X213553688Y-86916691D02*
X213648926Y-87011929D01*
X213648926Y-87011929D02*
X213744164Y-87059548D01*
X213744164Y-87059548D02*
X213934640Y-87107167D01*
X213934640Y-87107167D02*
X214077497Y-87107167D01*
X214077497Y-87107167D02*
X214267973Y-87059548D01*
X214267973Y-87059548D02*
X214363211Y-87011929D01*
X214363211Y-87011929D02*
X214458450Y-86916691D01*
X214458450Y-86916691D02*
X214506069Y-86773834D01*
X214506069Y-86773834D02*
X214506069Y-86535739D01*
X213506069Y-87964310D02*
X213506069Y-87773834D01*
X213506069Y-87773834D02*
X213553688Y-87678596D01*
X213553688Y-87678596D02*
X213601307Y-87630977D01*
X213601307Y-87630977D02*
X213744164Y-87535739D01*
X213744164Y-87535739D02*
X213934640Y-87488120D01*
X213934640Y-87488120D02*
X214315592Y-87488120D01*
X214315592Y-87488120D02*
X214410830Y-87535739D01*
X214410830Y-87535739D02*
X214458450Y-87583358D01*
X214458450Y-87583358D02*
X214506069Y-87678596D01*
X214506069Y-87678596D02*
X214506069Y-87869072D01*
X214506069Y-87869072D02*
X214458450Y-87964310D01*
X214458450Y-87964310D02*
X214410830Y-88011929D01*
X214410830Y-88011929D02*
X214315592Y-88059548D01*
X214315592Y-88059548D02*
X214077497Y-88059548D01*
X214077497Y-88059548D02*
X213982259Y-88011929D01*
X213982259Y-88011929D02*
X213934640Y-87964310D01*
X213934640Y-87964310D02*
X213887021Y-87869072D01*
X213887021Y-87869072D02*
X213887021Y-87678596D01*
X213887021Y-87678596D02*
X213934640Y-87583358D01*
X213934640Y-87583358D02*
X213982259Y-87535739D01*
X213982259Y-87535739D02*
X214077497Y-87488120D01*
X214506069Y-89011929D02*
X214506069Y-88440501D01*
X214506069Y-88726215D02*
X213506069Y-88726215D01*
X213506069Y-88726215D02*
X213648926Y-88630977D01*
X213648926Y-88630977D02*
X213744164Y-88535739D01*
X213744164Y-88535739D02*
X213791783Y-88440501D01*
X214186069Y-91298120D02*
X213186069Y-91298120D01*
X214186069Y-91869548D02*
X213614640Y-91440977D01*
X213186069Y-91869548D02*
X213757497Y-91298120D01*
X157356069Y-29385739D02*
X156356069Y-29385739D01*
X156356069Y-29385739D02*
X156356069Y-29623834D01*
X156356069Y-29623834D02*
X156403688Y-29766691D01*
X156403688Y-29766691D02*
X156498926Y-29861929D01*
X156498926Y-29861929D02*
X156594164Y-29909548D01*
X156594164Y-29909548D02*
X156784640Y-29957167D01*
X156784640Y-29957167D02*
X156927497Y-29957167D01*
X156927497Y-29957167D02*
X157117973Y-29909548D01*
X157117973Y-29909548D02*
X157213211Y-29861929D01*
X157213211Y-29861929D02*
X157308450Y-29766691D01*
X157308450Y-29766691D02*
X157356069Y-29623834D01*
X157356069Y-29623834D02*
X157356069Y-29385739D01*
X156689402Y-30814310D02*
X157356069Y-30814310D01*
X156308450Y-30576215D02*
X157022735Y-30338120D01*
X157022735Y-30338120D02*
X157022735Y-30957167D01*
X156356069Y-31528596D02*
X156356069Y-31623834D01*
X156356069Y-31623834D02*
X156403688Y-31719072D01*
X156403688Y-31719072D02*
X156451307Y-31766691D01*
X156451307Y-31766691D02*
X156546545Y-31814310D01*
X156546545Y-31814310D02*
X156737021Y-31861929D01*
X156737021Y-31861929D02*
X156975116Y-31861929D01*
X156975116Y-31861929D02*
X157165592Y-31814310D01*
X157165592Y-31814310D02*
X157260830Y-31766691D01*
X157260830Y-31766691D02*
X157308450Y-31719072D01*
X157308450Y-31719072D02*
X157356069Y-31623834D01*
X157356069Y-31623834D02*
X157356069Y-31528596D01*
X157356069Y-31528596D02*
X157308450Y-31433358D01*
X157308450Y-31433358D02*
X157260830Y-31385739D01*
X157260830Y-31385739D02*
X157165592Y-31338120D01*
X157165592Y-31338120D02*
X156975116Y-31290501D01*
X156975116Y-31290501D02*
X156737021Y-31290501D01*
X156737021Y-31290501D02*
X156546545Y-31338120D01*
X156546545Y-31338120D02*
X156451307Y-31385739D01*
X156451307Y-31385739D02*
X156403688Y-31433358D01*
X156403688Y-31433358D02*
X156356069Y-31528596D01*
X157036069Y-34148120D02*
X156036069Y-34148120D01*
X157036069Y-34719548D02*
X156464640Y-34290977D01*
X156036069Y-34719548D02*
X156607497Y-34148120D01*
X4956069Y-81773239D02*
X3956069Y-81773239D01*
X3956069Y-81773239D02*
X3956069Y-82011334D01*
X3956069Y-82011334D02*
X4003688Y-82154191D01*
X4003688Y-82154191D02*
X4098926Y-82249429D01*
X4098926Y-82249429D02*
X4194164Y-82297048D01*
X4194164Y-82297048D02*
X4384640Y-82344667D01*
X4384640Y-82344667D02*
X4527497Y-82344667D01*
X4527497Y-82344667D02*
X4717973Y-82297048D01*
X4717973Y-82297048D02*
X4813211Y-82249429D01*
X4813211Y-82249429D02*
X4908450Y-82154191D01*
X4908450Y-82154191D02*
X4956069Y-82011334D01*
X4956069Y-82011334D02*
X4956069Y-81773239D01*
X4051307Y-82725620D02*
X4003688Y-82773239D01*
X4003688Y-82773239D02*
X3956069Y-82868477D01*
X3956069Y-82868477D02*
X3956069Y-83106572D01*
X3956069Y-83106572D02*
X4003688Y-83201810D01*
X4003688Y-83201810D02*
X4051307Y-83249429D01*
X4051307Y-83249429D02*
X4146545Y-83297048D01*
X4146545Y-83297048D02*
X4241783Y-83297048D01*
X4241783Y-83297048D02*
X4384640Y-83249429D01*
X4384640Y-83249429D02*
X4956069Y-82678001D01*
X4956069Y-82678001D02*
X4956069Y-83297048D01*
X3956069Y-83916096D02*
X3956069Y-84011334D01*
X3956069Y-84011334D02*
X4003688Y-84106572D01*
X4003688Y-84106572D02*
X4051307Y-84154191D01*
X4051307Y-84154191D02*
X4146545Y-84201810D01*
X4146545Y-84201810D02*
X4337021Y-84249429D01*
X4337021Y-84249429D02*
X4575116Y-84249429D01*
X4575116Y-84249429D02*
X4765592Y-84201810D01*
X4765592Y-84201810D02*
X4860830Y-84154191D01*
X4860830Y-84154191D02*
X4908450Y-84106572D01*
X4908450Y-84106572D02*
X4956069Y-84011334D01*
X4956069Y-84011334D02*
X4956069Y-83916096D01*
X4956069Y-83916096D02*
X4908450Y-83820858D01*
X4908450Y-83820858D02*
X4860830Y-83773239D01*
X4860830Y-83773239D02*
X4765592Y-83725620D01*
X4765592Y-83725620D02*
X4575116Y-83678001D01*
X4575116Y-83678001D02*
X4337021Y-83678001D01*
X4337021Y-83678001D02*
X4146545Y-83725620D01*
X4146545Y-83725620D02*
X4051307Y-83773239D01*
X4051307Y-83773239D02*
X4003688Y-83820858D01*
X4003688Y-83820858D02*
X3956069Y-83916096D01*
X4636069Y-86535620D02*
X3636069Y-86535620D01*
X4636069Y-87107048D02*
X4064640Y-86678477D01*
X3636069Y-87107048D02*
X4207497Y-86535620D01*
X157356069Y-5573239D02*
X156356069Y-5573239D01*
X156356069Y-5573239D02*
X156356069Y-5811334D01*
X156356069Y-5811334D02*
X156403688Y-5954191D01*
X156403688Y-5954191D02*
X156498926Y-6049429D01*
X156498926Y-6049429D02*
X156594164Y-6097048D01*
X156594164Y-6097048D02*
X156784640Y-6144667D01*
X156784640Y-6144667D02*
X156927497Y-6144667D01*
X156927497Y-6144667D02*
X157117973Y-6097048D01*
X157117973Y-6097048D02*
X157213211Y-6049429D01*
X157213211Y-6049429D02*
X157308450Y-5954191D01*
X157308450Y-5954191D02*
X157356069Y-5811334D01*
X157356069Y-5811334D02*
X157356069Y-5573239D01*
X157356069Y-7097048D02*
X157356069Y-6525620D01*
X157356069Y-6811334D02*
X156356069Y-6811334D01*
X156356069Y-6811334D02*
X156498926Y-6716096D01*
X156498926Y-6716096D02*
X156594164Y-6620858D01*
X156594164Y-6620858D02*
X156641783Y-6525620D01*
X157356069Y-8049429D02*
X157356069Y-7478001D01*
X157356069Y-7763715D02*
X156356069Y-7763715D01*
X156356069Y-7763715D02*
X156498926Y-7668477D01*
X156498926Y-7668477D02*
X156594164Y-7573239D01*
X156594164Y-7573239D02*
X156641783Y-7478001D01*
X157036069Y-10335620D02*
X156036069Y-10335620D01*
X157036069Y-10907048D02*
X156464640Y-10478477D01*
X156036069Y-10907048D02*
X156607497Y-10335620D01*
X4955719Y-5573180D02*
X3955719Y-5573180D01*
X3955719Y-5573180D02*
X3955719Y-5811275D01*
X3955719Y-5811275D02*
X4003338Y-5954132D01*
X4003338Y-5954132D02*
X4098576Y-6049370D01*
X4098576Y-6049370D02*
X4193814Y-6096989D01*
X4193814Y-6096989D02*
X4384290Y-6144608D01*
X4384290Y-6144608D02*
X4527147Y-6144608D01*
X4527147Y-6144608D02*
X4717623Y-6096989D01*
X4717623Y-6096989D02*
X4812861Y-6049370D01*
X4812861Y-6049370D02*
X4908100Y-5954132D01*
X4908100Y-5954132D02*
X4955719Y-5811275D01*
X4955719Y-5811275D02*
X4955719Y-5573180D01*
X4955719Y-7096989D02*
X4955719Y-6525561D01*
X4955719Y-6811275D02*
X3955719Y-6811275D01*
X3955719Y-6811275D02*
X4098576Y-6716037D01*
X4098576Y-6716037D02*
X4193814Y-6620799D01*
X4193814Y-6620799D02*
X4241433Y-6525561D01*
X4635719Y-9859370D02*
X3635719Y-9859370D01*
X4635719Y-10430798D02*
X4064290Y-10002227D01*
X3635719Y-10430798D02*
X4207147Y-9859370D01*
X4956069Y-62723239D02*
X3956069Y-62723239D01*
X3956069Y-62723239D02*
X3956069Y-62961334D01*
X3956069Y-62961334D02*
X4003688Y-63104191D01*
X4003688Y-63104191D02*
X4098926Y-63199429D01*
X4098926Y-63199429D02*
X4194164Y-63247048D01*
X4194164Y-63247048D02*
X4384640Y-63294667D01*
X4384640Y-63294667D02*
X4527497Y-63294667D01*
X4527497Y-63294667D02*
X4717973Y-63247048D01*
X4717973Y-63247048D02*
X4813211Y-63199429D01*
X4813211Y-63199429D02*
X4908450Y-63104191D01*
X4908450Y-63104191D02*
X4956069Y-62961334D01*
X4956069Y-62961334D02*
X4956069Y-62723239D01*
X4956069Y-64247048D02*
X4956069Y-63675620D01*
X4956069Y-63961334D02*
X3956069Y-63961334D01*
X3956069Y-63961334D02*
X4098926Y-63866096D01*
X4098926Y-63866096D02*
X4194164Y-63770858D01*
X4194164Y-63770858D02*
X4241783Y-63675620D01*
X4956069Y-64723239D02*
X4956069Y-64913715D01*
X4956069Y-64913715D02*
X4908450Y-65008953D01*
X4908450Y-65008953D02*
X4860830Y-65056572D01*
X4860830Y-65056572D02*
X4717973Y-65151810D01*
X4717973Y-65151810D02*
X4527497Y-65199429D01*
X4527497Y-65199429D02*
X4146545Y-65199429D01*
X4146545Y-65199429D02*
X4051307Y-65151810D01*
X4051307Y-65151810D02*
X4003688Y-65104191D01*
X4003688Y-65104191D02*
X3956069Y-65008953D01*
X3956069Y-65008953D02*
X3956069Y-64818477D01*
X3956069Y-64818477D02*
X4003688Y-64723239D01*
X4003688Y-64723239D02*
X4051307Y-64675620D01*
X4051307Y-64675620D02*
X4146545Y-64628001D01*
X4146545Y-64628001D02*
X4384640Y-64628001D01*
X4384640Y-64628001D02*
X4479878Y-64675620D01*
X4479878Y-64675620D02*
X4527497Y-64723239D01*
X4527497Y-64723239D02*
X4575116Y-64818477D01*
X4575116Y-64818477D02*
X4575116Y-65008953D01*
X4575116Y-65008953D02*
X4527497Y-65104191D01*
X4527497Y-65104191D02*
X4479878Y-65151810D01*
X4479878Y-65151810D02*
X4384640Y-65199429D01*
X4636069Y-67485620D02*
X3636069Y-67485620D01*
X4636069Y-68057048D02*
X4064640Y-67628477D01*
X3636069Y-68057048D02*
X4207497Y-67485620D01*
X214506069Y-48435739D02*
X213506069Y-48435739D01*
X213506069Y-48435739D02*
X213506069Y-48673834D01*
X213506069Y-48673834D02*
X213553688Y-48816691D01*
X213553688Y-48816691D02*
X213648926Y-48911929D01*
X213648926Y-48911929D02*
X213744164Y-48959548D01*
X213744164Y-48959548D02*
X213934640Y-49007167D01*
X213934640Y-49007167D02*
X214077497Y-49007167D01*
X214077497Y-49007167D02*
X214267973Y-48959548D01*
X214267973Y-48959548D02*
X214363211Y-48911929D01*
X214363211Y-48911929D02*
X214458450Y-48816691D01*
X214458450Y-48816691D02*
X214506069Y-48673834D01*
X214506069Y-48673834D02*
X214506069Y-48435739D01*
X213506069Y-49911929D02*
X213506069Y-49435739D01*
X213506069Y-49435739D02*
X213982259Y-49388120D01*
X213982259Y-49388120D02*
X213934640Y-49435739D01*
X213934640Y-49435739D02*
X213887021Y-49530977D01*
X213887021Y-49530977D02*
X213887021Y-49769072D01*
X213887021Y-49769072D02*
X213934640Y-49864310D01*
X213934640Y-49864310D02*
X213982259Y-49911929D01*
X213982259Y-49911929D02*
X214077497Y-49959548D01*
X214077497Y-49959548D02*
X214315592Y-49959548D01*
X214315592Y-49959548D02*
X214410830Y-49911929D01*
X214410830Y-49911929D02*
X214458450Y-49864310D01*
X214458450Y-49864310D02*
X214506069Y-49769072D01*
X214506069Y-49769072D02*
X214506069Y-49530977D01*
X214506069Y-49530977D02*
X214458450Y-49435739D01*
X214458450Y-49435739D02*
X214410830Y-49388120D01*
X213506069Y-50578596D02*
X213506069Y-50673834D01*
X213506069Y-50673834D02*
X213553688Y-50769072D01*
X213553688Y-50769072D02*
X213601307Y-50816691D01*
X213601307Y-50816691D02*
X213696545Y-50864310D01*
X213696545Y-50864310D02*
X213887021Y-50911929D01*
X213887021Y-50911929D02*
X214125116Y-50911929D01*
X214125116Y-50911929D02*
X214315592Y-50864310D01*
X214315592Y-50864310D02*
X214410830Y-50816691D01*
X214410830Y-50816691D02*
X214458450Y-50769072D01*
X214458450Y-50769072D02*
X214506069Y-50673834D01*
X214506069Y-50673834D02*
X214506069Y-50578596D01*
X214506069Y-50578596D02*
X214458450Y-50483358D01*
X214458450Y-50483358D02*
X214410830Y-50435739D01*
X214410830Y-50435739D02*
X214315592Y-50388120D01*
X214315592Y-50388120D02*
X214125116Y-50340501D01*
X214125116Y-50340501D02*
X213887021Y-50340501D01*
X213887021Y-50340501D02*
X213696545Y-50388120D01*
X213696545Y-50388120D02*
X213601307Y-50435739D01*
X213601307Y-50435739D02*
X213553688Y-50483358D01*
X213553688Y-50483358D02*
X213506069Y-50578596D01*
X214186069Y-53198120D02*
X213186069Y-53198120D01*
X214186069Y-53769548D02*
X213614640Y-53340977D01*
X213186069Y-53769548D02*
X213757497Y-53198120D01*
X119256069Y-6049430D02*
X118256069Y-6049430D01*
X118256069Y-6049430D02*
X118256069Y-6287525D01*
X118256069Y-6287525D02*
X118303688Y-6430382D01*
X118303688Y-6430382D02*
X118398926Y-6525620D01*
X118398926Y-6525620D02*
X118494164Y-6573239D01*
X118494164Y-6573239D02*
X118684640Y-6620858D01*
X118684640Y-6620858D02*
X118827497Y-6620858D01*
X118827497Y-6620858D02*
X119017973Y-6573239D01*
X119017973Y-6573239D02*
X119113211Y-6525620D01*
X119113211Y-6525620D02*
X119208450Y-6430382D01*
X119208450Y-6430382D02*
X119256069Y-6287525D01*
X119256069Y-6287525D02*
X119256069Y-6049430D01*
X119256069Y-7097049D02*
X119256069Y-7287525D01*
X119256069Y-7287525D02*
X119208450Y-7382763D01*
X119208450Y-7382763D02*
X119160830Y-7430382D01*
X119160830Y-7430382D02*
X119017973Y-7525620D01*
X119017973Y-7525620D02*
X118827497Y-7573239D01*
X118827497Y-7573239D02*
X118446545Y-7573239D01*
X118446545Y-7573239D02*
X118351307Y-7525620D01*
X118351307Y-7525620D02*
X118303688Y-7478001D01*
X118303688Y-7478001D02*
X118256069Y-7382763D01*
X118256069Y-7382763D02*
X118256069Y-7192287D01*
X118256069Y-7192287D02*
X118303688Y-7097049D01*
X118303688Y-7097049D02*
X118351307Y-7049430D01*
X118351307Y-7049430D02*
X118446545Y-7001811D01*
X118446545Y-7001811D02*
X118684640Y-7001811D01*
X118684640Y-7001811D02*
X118779878Y-7049430D01*
X118779878Y-7049430D02*
X118827497Y-7097049D01*
X118827497Y-7097049D02*
X118875116Y-7192287D01*
X118875116Y-7192287D02*
X118875116Y-7382763D01*
X118875116Y-7382763D02*
X118827497Y-7478001D01*
X118827497Y-7478001D02*
X118779878Y-7525620D01*
X118779878Y-7525620D02*
X118684640Y-7573239D01*
X118936069Y-10335620D02*
X117936069Y-10335620D01*
X118936069Y-10907048D02*
X118364640Y-10478477D01*
X117936069Y-10907048D02*
X118507497Y-10335620D01*
X100206069Y-6049430D02*
X99206069Y-6049430D01*
X99206069Y-6049430D02*
X99206069Y-6287525D01*
X99206069Y-6287525D02*
X99253688Y-6430382D01*
X99253688Y-6430382D02*
X99348926Y-6525620D01*
X99348926Y-6525620D02*
X99444164Y-6573239D01*
X99444164Y-6573239D02*
X99634640Y-6620858D01*
X99634640Y-6620858D02*
X99777497Y-6620858D01*
X99777497Y-6620858D02*
X99967973Y-6573239D01*
X99967973Y-6573239D02*
X100063211Y-6525620D01*
X100063211Y-6525620D02*
X100158450Y-6430382D01*
X100158450Y-6430382D02*
X100206069Y-6287525D01*
X100206069Y-6287525D02*
X100206069Y-6049430D01*
X99634640Y-7192287D02*
X99587021Y-7097049D01*
X99587021Y-7097049D02*
X99539402Y-7049430D01*
X99539402Y-7049430D02*
X99444164Y-7001811D01*
X99444164Y-7001811D02*
X99396545Y-7001811D01*
X99396545Y-7001811D02*
X99301307Y-7049430D01*
X99301307Y-7049430D02*
X99253688Y-7097049D01*
X99253688Y-7097049D02*
X99206069Y-7192287D01*
X99206069Y-7192287D02*
X99206069Y-7382763D01*
X99206069Y-7382763D02*
X99253688Y-7478001D01*
X99253688Y-7478001D02*
X99301307Y-7525620D01*
X99301307Y-7525620D02*
X99396545Y-7573239D01*
X99396545Y-7573239D02*
X99444164Y-7573239D01*
X99444164Y-7573239D02*
X99539402Y-7525620D01*
X99539402Y-7525620D02*
X99587021Y-7478001D01*
X99587021Y-7478001D02*
X99634640Y-7382763D01*
X99634640Y-7382763D02*
X99634640Y-7192287D01*
X99634640Y-7192287D02*
X99682259Y-7097049D01*
X99682259Y-7097049D02*
X99729878Y-7049430D01*
X99729878Y-7049430D02*
X99825116Y-7001811D01*
X99825116Y-7001811D02*
X100015592Y-7001811D01*
X100015592Y-7001811D02*
X100110830Y-7049430D01*
X100110830Y-7049430D02*
X100158450Y-7097049D01*
X100158450Y-7097049D02*
X100206069Y-7192287D01*
X100206069Y-7192287D02*
X100206069Y-7382763D01*
X100206069Y-7382763D02*
X100158450Y-7478001D01*
X100158450Y-7478001D02*
X100110830Y-7525620D01*
X100110830Y-7525620D02*
X100015592Y-7573239D01*
X100015592Y-7573239D02*
X99825116Y-7573239D01*
X99825116Y-7573239D02*
X99729878Y-7525620D01*
X99729878Y-7525620D02*
X99682259Y-7478001D01*
X99682259Y-7478001D02*
X99634640Y-7382763D01*
X99886069Y-10335620D02*
X98886069Y-10335620D01*
X99886069Y-10907048D02*
X99314640Y-10478477D01*
X98886069Y-10907048D02*
X99457497Y-10335620D01*
X24006069Y-72248239D02*
X23006069Y-72248239D01*
X23006069Y-72248239D02*
X23006069Y-72486334D01*
X23006069Y-72486334D02*
X23053688Y-72629191D01*
X23053688Y-72629191D02*
X23148926Y-72724429D01*
X23148926Y-72724429D02*
X23244164Y-72772048D01*
X23244164Y-72772048D02*
X23434640Y-72819667D01*
X23434640Y-72819667D02*
X23577497Y-72819667D01*
X23577497Y-72819667D02*
X23767973Y-72772048D01*
X23767973Y-72772048D02*
X23863211Y-72724429D01*
X23863211Y-72724429D02*
X23958450Y-72629191D01*
X23958450Y-72629191D02*
X24006069Y-72486334D01*
X24006069Y-72486334D02*
X24006069Y-72248239D01*
X23101307Y-73200620D02*
X23053688Y-73248239D01*
X23053688Y-73248239D02*
X23006069Y-73343477D01*
X23006069Y-73343477D02*
X23006069Y-73581572D01*
X23006069Y-73581572D02*
X23053688Y-73676810D01*
X23053688Y-73676810D02*
X23101307Y-73724429D01*
X23101307Y-73724429D02*
X23196545Y-73772048D01*
X23196545Y-73772048D02*
X23291783Y-73772048D01*
X23291783Y-73772048D02*
X23434640Y-73724429D01*
X23434640Y-73724429D02*
X24006069Y-73153001D01*
X24006069Y-73153001D02*
X24006069Y-73772048D01*
X23006069Y-74105382D02*
X23006069Y-74772048D01*
X23006069Y-74772048D02*
X24006069Y-74343477D01*
X23686069Y-77010620D02*
X22686069Y-77010620D01*
X23686069Y-77582048D02*
X23114640Y-77153477D01*
X22686069Y-77582048D02*
X23257497Y-77010620D01*
X62106069Y-62723239D02*
X61106069Y-62723239D01*
X61106069Y-62723239D02*
X61106069Y-62961334D01*
X61106069Y-62961334D02*
X61153688Y-63104191D01*
X61153688Y-63104191D02*
X61248926Y-63199429D01*
X61248926Y-63199429D02*
X61344164Y-63247048D01*
X61344164Y-63247048D02*
X61534640Y-63294667D01*
X61534640Y-63294667D02*
X61677497Y-63294667D01*
X61677497Y-63294667D02*
X61867973Y-63247048D01*
X61867973Y-63247048D02*
X61963211Y-63199429D01*
X61963211Y-63199429D02*
X62058450Y-63104191D01*
X62058450Y-63104191D02*
X62106069Y-62961334D01*
X62106069Y-62961334D02*
X62106069Y-62723239D01*
X61106069Y-63628001D02*
X61106069Y-64247048D01*
X61106069Y-64247048D02*
X61487021Y-63913715D01*
X61487021Y-63913715D02*
X61487021Y-64056572D01*
X61487021Y-64056572D02*
X61534640Y-64151810D01*
X61534640Y-64151810D02*
X61582259Y-64199429D01*
X61582259Y-64199429D02*
X61677497Y-64247048D01*
X61677497Y-64247048D02*
X61915592Y-64247048D01*
X61915592Y-64247048D02*
X62010830Y-64199429D01*
X62010830Y-64199429D02*
X62058450Y-64151810D01*
X62058450Y-64151810D02*
X62106069Y-64056572D01*
X62106069Y-64056572D02*
X62106069Y-63770858D01*
X62106069Y-63770858D02*
X62058450Y-63675620D01*
X62058450Y-63675620D02*
X62010830Y-63628001D01*
X61106069Y-64580382D02*
X61106069Y-65199429D01*
X61106069Y-65199429D02*
X61487021Y-64866096D01*
X61487021Y-64866096D02*
X61487021Y-65008953D01*
X61487021Y-65008953D02*
X61534640Y-65104191D01*
X61534640Y-65104191D02*
X61582259Y-65151810D01*
X61582259Y-65151810D02*
X61677497Y-65199429D01*
X61677497Y-65199429D02*
X61915592Y-65199429D01*
X61915592Y-65199429D02*
X62010830Y-65151810D01*
X62010830Y-65151810D02*
X62058450Y-65104191D01*
X62058450Y-65104191D02*
X62106069Y-65008953D01*
X62106069Y-65008953D02*
X62106069Y-64723239D01*
X62106069Y-64723239D02*
X62058450Y-64628001D01*
X62058450Y-64628001D02*
X62010830Y-64580382D01*
X61786069Y-67485620D02*
X60786069Y-67485620D01*
X61786069Y-68057048D02*
X61214640Y-67628477D01*
X60786069Y-68057048D02*
X61357497Y-67485620D01*
X43056069Y-67485739D02*
X42056069Y-67485739D01*
X42056069Y-67485739D02*
X42056069Y-67723834D01*
X42056069Y-67723834D02*
X42103688Y-67866691D01*
X42103688Y-67866691D02*
X42198926Y-67961929D01*
X42198926Y-67961929D02*
X42294164Y-68009548D01*
X42294164Y-68009548D02*
X42484640Y-68057167D01*
X42484640Y-68057167D02*
X42627497Y-68057167D01*
X42627497Y-68057167D02*
X42817973Y-68009548D01*
X42817973Y-68009548D02*
X42913211Y-67961929D01*
X42913211Y-67961929D02*
X43008450Y-67866691D01*
X43008450Y-67866691D02*
X43056069Y-67723834D01*
X43056069Y-67723834D02*
X43056069Y-67485739D01*
X42056069Y-68390501D02*
X42056069Y-69009548D01*
X42056069Y-69009548D02*
X42437021Y-68676215D01*
X42437021Y-68676215D02*
X42437021Y-68819072D01*
X42437021Y-68819072D02*
X42484640Y-68914310D01*
X42484640Y-68914310D02*
X42532259Y-68961929D01*
X42532259Y-68961929D02*
X42627497Y-69009548D01*
X42627497Y-69009548D02*
X42865592Y-69009548D01*
X42865592Y-69009548D02*
X42960830Y-68961929D01*
X42960830Y-68961929D02*
X43008450Y-68914310D01*
X43008450Y-68914310D02*
X43056069Y-68819072D01*
X43056069Y-68819072D02*
X43056069Y-68533358D01*
X43056069Y-68533358D02*
X43008450Y-68438120D01*
X43008450Y-68438120D02*
X42960830Y-68390501D01*
X42056069Y-69628596D02*
X42056069Y-69723834D01*
X42056069Y-69723834D02*
X42103688Y-69819072D01*
X42103688Y-69819072D02*
X42151307Y-69866691D01*
X42151307Y-69866691D02*
X42246545Y-69914310D01*
X42246545Y-69914310D02*
X42437021Y-69961929D01*
X42437021Y-69961929D02*
X42675116Y-69961929D01*
X42675116Y-69961929D02*
X42865592Y-69914310D01*
X42865592Y-69914310D02*
X42960830Y-69866691D01*
X42960830Y-69866691D02*
X43008450Y-69819072D01*
X43008450Y-69819072D02*
X43056069Y-69723834D01*
X43056069Y-69723834D02*
X43056069Y-69628596D01*
X43056069Y-69628596D02*
X43008450Y-69533358D01*
X43008450Y-69533358D02*
X42960830Y-69485739D01*
X42960830Y-69485739D02*
X42865592Y-69438120D01*
X42865592Y-69438120D02*
X42675116Y-69390501D01*
X42675116Y-69390501D02*
X42437021Y-69390501D01*
X42437021Y-69390501D02*
X42246545Y-69438120D01*
X42246545Y-69438120D02*
X42151307Y-69485739D01*
X42151307Y-69485739D02*
X42103688Y-69533358D01*
X42103688Y-69533358D02*
X42056069Y-69628596D01*
X42736069Y-72248120D02*
X41736069Y-72248120D01*
X42736069Y-72819548D02*
X42164640Y-72390977D01*
X41736069Y-72819548D02*
X42307497Y-72248120D01*
X233556069Y-5573239D02*
X232556069Y-5573239D01*
X232556069Y-5573239D02*
X232556069Y-5811334D01*
X232556069Y-5811334D02*
X232603688Y-5954191D01*
X232603688Y-5954191D02*
X232698926Y-6049429D01*
X232698926Y-6049429D02*
X232794164Y-6097048D01*
X232794164Y-6097048D02*
X232984640Y-6144667D01*
X232984640Y-6144667D02*
X233127497Y-6144667D01*
X233127497Y-6144667D02*
X233317973Y-6097048D01*
X233317973Y-6097048D02*
X233413211Y-6049429D01*
X233413211Y-6049429D02*
X233508450Y-5954191D01*
X233508450Y-5954191D02*
X233556069Y-5811334D01*
X233556069Y-5811334D02*
X233556069Y-5573239D01*
X233556069Y-7097048D02*
X233556069Y-6525620D01*
X233556069Y-6811334D02*
X232556069Y-6811334D01*
X232556069Y-6811334D02*
X232698926Y-6716096D01*
X232698926Y-6716096D02*
X232794164Y-6620858D01*
X232794164Y-6620858D02*
X232841783Y-6525620D01*
X232556069Y-8001810D02*
X232556069Y-7525620D01*
X232556069Y-7525620D02*
X233032259Y-7478001D01*
X233032259Y-7478001D02*
X232984640Y-7525620D01*
X232984640Y-7525620D02*
X232937021Y-7620858D01*
X232937021Y-7620858D02*
X232937021Y-7858953D01*
X232937021Y-7858953D02*
X232984640Y-7954191D01*
X232984640Y-7954191D02*
X233032259Y-8001810D01*
X233032259Y-8001810D02*
X233127497Y-8049429D01*
X233127497Y-8049429D02*
X233365592Y-8049429D01*
X233365592Y-8049429D02*
X233460830Y-8001810D01*
X233460830Y-8001810D02*
X233508450Y-7954191D01*
X233508450Y-7954191D02*
X233556069Y-7858953D01*
X233556069Y-7858953D02*
X233556069Y-7620858D01*
X233556069Y-7620858D02*
X233508450Y-7525620D01*
X233508450Y-7525620D02*
X233460830Y-7478001D01*
X233236069Y-10335620D02*
X232236069Y-10335620D01*
X233236069Y-10907048D02*
X232664640Y-10478477D01*
X232236069Y-10907048D02*
X232807497Y-10335620D01*
X233556069Y-34148239D02*
X232556069Y-34148239D01*
X232556069Y-34148239D02*
X232556069Y-34386334D01*
X232556069Y-34386334D02*
X232603688Y-34529191D01*
X232603688Y-34529191D02*
X232698926Y-34624429D01*
X232698926Y-34624429D02*
X232794164Y-34672048D01*
X232794164Y-34672048D02*
X232984640Y-34719667D01*
X232984640Y-34719667D02*
X233127497Y-34719667D01*
X233127497Y-34719667D02*
X233317973Y-34672048D01*
X233317973Y-34672048D02*
X233413211Y-34624429D01*
X233413211Y-34624429D02*
X233508450Y-34529191D01*
X233508450Y-34529191D02*
X233556069Y-34386334D01*
X233556069Y-34386334D02*
X233556069Y-34148239D01*
X232556069Y-35624429D02*
X232556069Y-35148239D01*
X232556069Y-35148239D02*
X233032259Y-35100620D01*
X233032259Y-35100620D02*
X232984640Y-35148239D01*
X232984640Y-35148239D02*
X232937021Y-35243477D01*
X232937021Y-35243477D02*
X232937021Y-35481572D01*
X232937021Y-35481572D02*
X232984640Y-35576810D01*
X232984640Y-35576810D02*
X233032259Y-35624429D01*
X233032259Y-35624429D02*
X233127497Y-35672048D01*
X233127497Y-35672048D02*
X233365592Y-35672048D01*
X233365592Y-35672048D02*
X233460830Y-35624429D01*
X233460830Y-35624429D02*
X233508450Y-35576810D01*
X233508450Y-35576810D02*
X233556069Y-35481572D01*
X233556069Y-35481572D02*
X233556069Y-35243477D01*
X233556069Y-35243477D02*
X233508450Y-35148239D01*
X233508450Y-35148239D02*
X233460830Y-35100620D01*
X232651307Y-36053001D02*
X232603688Y-36100620D01*
X232603688Y-36100620D02*
X232556069Y-36195858D01*
X232556069Y-36195858D02*
X232556069Y-36433953D01*
X232556069Y-36433953D02*
X232603688Y-36529191D01*
X232603688Y-36529191D02*
X232651307Y-36576810D01*
X232651307Y-36576810D02*
X232746545Y-36624429D01*
X232746545Y-36624429D02*
X232841783Y-36624429D01*
X232841783Y-36624429D02*
X232984640Y-36576810D01*
X232984640Y-36576810D02*
X233556069Y-36005382D01*
X233556069Y-36005382D02*
X233556069Y-36624429D01*
X233236069Y-38910620D02*
X232236069Y-38910620D01*
X233236069Y-39482048D02*
X232664640Y-39053477D01*
X232236069Y-39482048D02*
X232807497Y-38910620D01*
X252606069Y-5573239D02*
X251606069Y-5573239D01*
X251606069Y-5573239D02*
X251606069Y-5811334D01*
X251606069Y-5811334D02*
X251653688Y-5954191D01*
X251653688Y-5954191D02*
X251748926Y-6049429D01*
X251748926Y-6049429D02*
X251844164Y-6097048D01*
X251844164Y-6097048D02*
X252034640Y-6144667D01*
X252034640Y-6144667D02*
X252177497Y-6144667D01*
X252177497Y-6144667D02*
X252367973Y-6097048D01*
X252367973Y-6097048D02*
X252463211Y-6049429D01*
X252463211Y-6049429D02*
X252558450Y-5954191D01*
X252558450Y-5954191D02*
X252606069Y-5811334D01*
X252606069Y-5811334D02*
X252606069Y-5573239D01*
X252606069Y-7097048D02*
X252606069Y-6525620D01*
X252606069Y-6811334D02*
X251606069Y-6811334D01*
X251606069Y-6811334D02*
X251748926Y-6716096D01*
X251748926Y-6716096D02*
X251844164Y-6620858D01*
X251844164Y-6620858D02*
X251891783Y-6525620D01*
X251606069Y-7954191D02*
X251606069Y-7763715D01*
X251606069Y-7763715D02*
X251653688Y-7668477D01*
X251653688Y-7668477D02*
X251701307Y-7620858D01*
X251701307Y-7620858D02*
X251844164Y-7525620D01*
X251844164Y-7525620D02*
X252034640Y-7478001D01*
X252034640Y-7478001D02*
X252415592Y-7478001D01*
X252415592Y-7478001D02*
X252510830Y-7525620D01*
X252510830Y-7525620D02*
X252558450Y-7573239D01*
X252558450Y-7573239D02*
X252606069Y-7668477D01*
X252606069Y-7668477D02*
X252606069Y-7858953D01*
X252606069Y-7858953D02*
X252558450Y-7954191D01*
X252558450Y-7954191D02*
X252510830Y-8001810D01*
X252510830Y-8001810D02*
X252415592Y-8049429D01*
X252415592Y-8049429D02*
X252177497Y-8049429D01*
X252177497Y-8049429D02*
X252082259Y-8001810D01*
X252082259Y-8001810D02*
X252034640Y-7954191D01*
X252034640Y-7954191D02*
X251987021Y-7858953D01*
X251987021Y-7858953D02*
X251987021Y-7668477D01*
X251987021Y-7668477D02*
X252034640Y-7573239D01*
X252034640Y-7573239D02*
X252082259Y-7525620D01*
X252082259Y-7525620D02*
X252177497Y-7478001D01*
X252286069Y-10335620D02*
X251286069Y-10335620D01*
X252286069Y-10907048D02*
X251714640Y-10478477D01*
X251286069Y-10907048D02*
X251857497Y-10335620D01*
X62106069Y-24623239D02*
X61106069Y-24623239D01*
X61106069Y-24623239D02*
X61106069Y-24861334D01*
X61106069Y-24861334D02*
X61153688Y-25004191D01*
X61153688Y-25004191D02*
X61248926Y-25099429D01*
X61248926Y-25099429D02*
X61344164Y-25147048D01*
X61344164Y-25147048D02*
X61534640Y-25194667D01*
X61534640Y-25194667D02*
X61677497Y-25194667D01*
X61677497Y-25194667D02*
X61867973Y-25147048D01*
X61867973Y-25147048D02*
X61963211Y-25099429D01*
X61963211Y-25099429D02*
X62058450Y-25004191D01*
X62058450Y-25004191D02*
X62106069Y-24861334D01*
X62106069Y-24861334D02*
X62106069Y-24623239D01*
X61106069Y-25528001D02*
X61106069Y-26147048D01*
X61106069Y-26147048D02*
X61487021Y-25813715D01*
X61487021Y-25813715D02*
X61487021Y-25956572D01*
X61487021Y-25956572D02*
X61534640Y-26051810D01*
X61534640Y-26051810D02*
X61582259Y-26099429D01*
X61582259Y-26099429D02*
X61677497Y-26147048D01*
X61677497Y-26147048D02*
X61915592Y-26147048D01*
X61915592Y-26147048D02*
X62010830Y-26099429D01*
X62010830Y-26099429D02*
X62058450Y-26051810D01*
X62058450Y-26051810D02*
X62106069Y-25956572D01*
X62106069Y-25956572D02*
X62106069Y-25670858D01*
X62106069Y-25670858D02*
X62058450Y-25575620D01*
X62058450Y-25575620D02*
X62010830Y-25528001D01*
X62106069Y-27099429D02*
X62106069Y-26528001D01*
X62106069Y-26813715D02*
X61106069Y-26813715D01*
X61106069Y-26813715D02*
X61248926Y-26718477D01*
X61248926Y-26718477D02*
X61344164Y-26623239D01*
X61344164Y-26623239D02*
X61391783Y-26528001D01*
X61786069Y-29385620D02*
X60786069Y-29385620D01*
X61786069Y-29957048D02*
X61214640Y-29528477D01*
X60786069Y-29957048D02*
X61357497Y-29385620D01*
X176406069Y-29385739D02*
X175406069Y-29385739D01*
X175406069Y-29385739D02*
X175406069Y-29623834D01*
X175406069Y-29623834D02*
X175453688Y-29766691D01*
X175453688Y-29766691D02*
X175548926Y-29861929D01*
X175548926Y-29861929D02*
X175644164Y-29909548D01*
X175644164Y-29909548D02*
X175834640Y-29957167D01*
X175834640Y-29957167D02*
X175977497Y-29957167D01*
X175977497Y-29957167D02*
X176167973Y-29909548D01*
X176167973Y-29909548D02*
X176263211Y-29861929D01*
X176263211Y-29861929D02*
X176358450Y-29766691D01*
X176358450Y-29766691D02*
X176406069Y-29623834D01*
X176406069Y-29623834D02*
X176406069Y-29385739D01*
X175739402Y-30814310D02*
X176406069Y-30814310D01*
X175358450Y-30576215D02*
X176072735Y-30338120D01*
X176072735Y-30338120D02*
X176072735Y-30957167D01*
X175406069Y-31242882D02*
X175406069Y-31861929D01*
X175406069Y-31861929D02*
X175787021Y-31528596D01*
X175787021Y-31528596D02*
X175787021Y-31671453D01*
X175787021Y-31671453D02*
X175834640Y-31766691D01*
X175834640Y-31766691D02*
X175882259Y-31814310D01*
X175882259Y-31814310D02*
X175977497Y-31861929D01*
X175977497Y-31861929D02*
X176215592Y-31861929D01*
X176215592Y-31861929D02*
X176310830Y-31814310D01*
X176310830Y-31814310D02*
X176358450Y-31766691D01*
X176358450Y-31766691D02*
X176406069Y-31671453D01*
X176406069Y-31671453D02*
X176406069Y-31385739D01*
X176406069Y-31385739D02*
X176358450Y-31290501D01*
X176358450Y-31290501D02*
X176310830Y-31242882D01*
X176086069Y-34148120D02*
X175086069Y-34148120D01*
X176086069Y-34719548D02*
X175514640Y-34290977D01*
X175086069Y-34719548D02*
X175657497Y-34148120D01*
X81156069Y-67485739D02*
X80156069Y-67485739D01*
X80156069Y-67485739D02*
X80156069Y-67723834D01*
X80156069Y-67723834D02*
X80203688Y-67866691D01*
X80203688Y-67866691D02*
X80298926Y-67961929D01*
X80298926Y-67961929D02*
X80394164Y-68009548D01*
X80394164Y-68009548D02*
X80584640Y-68057167D01*
X80584640Y-68057167D02*
X80727497Y-68057167D01*
X80727497Y-68057167D02*
X80917973Y-68009548D01*
X80917973Y-68009548D02*
X81013211Y-67961929D01*
X81013211Y-67961929D02*
X81108450Y-67866691D01*
X81108450Y-67866691D02*
X81156069Y-67723834D01*
X81156069Y-67723834D02*
X81156069Y-67485739D01*
X80156069Y-68390501D02*
X80156069Y-69009548D01*
X80156069Y-69009548D02*
X80537021Y-68676215D01*
X80537021Y-68676215D02*
X80537021Y-68819072D01*
X80537021Y-68819072D02*
X80584640Y-68914310D01*
X80584640Y-68914310D02*
X80632259Y-68961929D01*
X80632259Y-68961929D02*
X80727497Y-69009548D01*
X80727497Y-69009548D02*
X80965592Y-69009548D01*
X80965592Y-69009548D02*
X81060830Y-68961929D01*
X81060830Y-68961929D02*
X81108450Y-68914310D01*
X81108450Y-68914310D02*
X81156069Y-68819072D01*
X81156069Y-68819072D02*
X81156069Y-68533358D01*
X81156069Y-68533358D02*
X81108450Y-68438120D01*
X81108450Y-68438120D02*
X81060830Y-68390501D01*
X80156069Y-69866691D02*
X80156069Y-69676215D01*
X80156069Y-69676215D02*
X80203688Y-69580977D01*
X80203688Y-69580977D02*
X80251307Y-69533358D01*
X80251307Y-69533358D02*
X80394164Y-69438120D01*
X80394164Y-69438120D02*
X80584640Y-69390501D01*
X80584640Y-69390501D02*
X80965592Y-69390501D01*
X80965592Y-69390501D02*
X81060830Y-69438120D01*
X81060830Y-69438120D02*
X81108450Y-69485739D01*
X81108450Y-69485739D02*
X81156069Y-69580977D01*
X81156069Y-69580977D02*
X81156069Y-69771453D01*
X81156069Y-69771453D02*
X81108450Y-69866691D01*
X81108450Y-69866691D02*
X81060830Y-69914310D01*
X81060830Y-69914310D02*
X80965592Y-69961929D01*
X80965592Y-69961929D02*
X80727497Y-69961929D01*
X80727497Y-69961929D02*
X80632259Y-69914310D01*
X80632259Y-69914310D02*
X80584640Y-69866691D01*
X80584640Y-69866691D02*
X80537021Y-69771453D01*
X80537021Y-69771453D02*
X80537021Y-69580977D01*
X80537021Y-69580977D02*
X80584640Y-69485739D01*
X80584640Y-69485739D02*
X80632259Y-69438120D01*
X80632259Y-69438120D02*
X80727497Y-69390501D01*
X80836069Y-72248120D02*
X79836069Y-72248120D01*
X80836069Y-72819548D02*
X80264640Y-72390977D01*
X79836069Y-72819548D02*
X80407497Y-72248120D01*
X62106069Y-43673239D02*
X61106069Y-43673239D01*
X61106069Y-43673239D02*
X61106069Y-43911334D01*
X61106069Y-43911334D02*
X61153688Y-44054191D01*
X61153688Y-44054191D02*
X61248926Y-44149429D01*
X61248926Y-44149429D02*
X61344164Y-44197048D01*
X61344164Y-44197048D02*
X61534640Y-44244667D01*
X61534640Y-44244667D02*
X61677497Y-44244667D01*
X61677497Y-44244667D02*
X61867973Y-44197048D01*
X61867973Y-44197048D02*
X61963211Y-44149429D01*
X61963211Y-44149429D02*
X62058450Y-44054191D01*
X62058450Y-44054191D02*
X62106069Y-43911334D01*
X62106069Y-43911334D02*
X62106069Y-43673239D01*
X61106069Y-44578001D02*
X61106069Y-45197048D01*
X61106069Y-45197048D02*
X61487021Y-44863715D01*
X61487021Y-44863715D02*
X61487021Y-45006572D01*
X61487021Y-45006572D02*
X61534640Y-45101810D01*
X61534640Y-45101810D02*
X61582259Y-45149429D01*
X61582259Y-45149429D02*
X61677497Y-45197048D01*
X61677497Y-45197048D02*
X61915592Y-45197048D01*
X61915592Y-45197048D02*
X62010830Y-45149429D01*
X62010830Y-45149429D02*
X62058450Y-45101810D01*
X62058450Y-45101810D02*
X62106069Y-45006572D01*
X62106069Y-45006572D02*
X62106069Y-44720858D01*
X62106069Y-44720858D02*
X62058450Y-44625620D01*
X62058450Y-44625620D02*
X62010830Y-44578001D01*
X61201307Y-45578001D02*
X61153688Y-45625620D01*
X61153688Y-45625620D02*
X61106069Y-45720858D01*
X61106069Y-45720858D02*
X61106069Y-45958953D01*
X61106069Y-45958953D02*
X61153688Y-46054191D01*
X61153688Y-46054191D02*
X61201307Y-46101810D01*
X61201307Y-46101810D02*
X61296545Y-46149429D01*
X61296545Y-46149429D02*
X61391783Y-46149429D01*
X61391783Y-46149429D02*
X61534640Y-46101810D01*
X61534640Y-46101810D02*
X62106069Y-45530382D01*
X62106069Y-45530382D02*
X62106069Y-46149429D01*
X61786069Y-48435620D02*
X60786069Y-48435620D01*
X61786069Y-49007048D02*
X61214640Y-48578477D01*
X60786069Y-49007048D02*
X61357497Y-48435620D01*
X81156069Y-48435739D02*
X80156069Y-48435739D01*
X80156069Y-48435739D02*
X80156069Y-48673834D01*
X80156069Y-48673834D02*
X80203688Y-48816691D01*
X80203688Y-48816691D02*
X80298926Y-48911929D01*
X80298926Y-48911929D02*
X80394164Y-48959548D01*
X80394164Y-48959548D02*
X80584640Y-49007167D01*
X80584640Y-49007167D02*
X80727497Y-49007167D01*
X80727497Y-49007167D02*
X80917973Y-48959548D01*
X80917973Y-48959548D02*
X81013211Y-48911929D01*
X81013211Y-48911929D02*
X81108450Y-48816691D01*
X81108450Y-48816691D02*
X81156069Y-48673834D01*
X81156069Y-48673834D02*
X81156069Y-48435739D01*
X80156069Y-49340501D02*
X80156069Y-49959548D01*
X80156069Y-49959548D02*
X80537021Y-49626215D01*
X80537021Y-49626215D02*
X80537021Y-49769072D01*
X80537021Y-49769072D02*
X80584640Y-49864310D01*
X80584640Y-49864310D02*
X80632259Y-49911929D01*
X80632259Y-49911929D02*
X80727497Y-49959548D01*
X80727497Y-49959548D02*
X80965592Y-49959548D01*
X80965592Y-49959548D02*
X81060830Y-49911929D01*
X81060830Y-49911929D02*
X81108450Y-49864310D01*
X81108450Y-49864310D02*
X81156069Y-49769072D01*
X81156069Y-49769072D02*
X81156069Y-49483358D01*
X81156069Y-49483358D02*
X81108450Y-49388120D01*
X81108450Y-49388120D02*
X81060830Y-49340501D01*
X80156069Y-50864310D02*
X80156069Y-50388120D01*
X80156069Y-50388120D02*
X80632259Y-50340501D01*
X80632259Y-50340501D02*
X80584640Y-50388120D01*
X80584640Y-50388120D02*
X80537021Y-50483358D01*
X80537021Y-50483358D02*
X80537021Y-50721453D01*
X80537021Y-50721453D02*
X80584640Y-50816691D01*
X80584640Y-50816691D02*
X80632259Y-50864310D01*
X80632259Y-50864310D02*
X80727497Y-50911929D01*
X80727497Y-50911929D02*
X80965592Y-50911929D01*
X80965592Y-50911929D02*
X81060830Y-50864310D01*
X81060830Y-50864310D02*
X81108450Y-50816691D01*
X81108450Y-50816691D02*
X81156069Y-50721453D01*
X81156069Y-50721453D02*
X81156069Y-50483358D01*
X81156069Y-50483358D02*
X81108450Y-50388120D01*
X81108450Y-50388120D02*
X81060830Y-50340501D01*
X80836069Y-53198120D02*
X79836069Y-53198120D01*
X80836069Y-53769548D02*
X80264640Y-53340977D01*
X79836069Y-53769548D02*
X80407497Y-53198120D01*
X2836119Y-42244439D02*
X1836119Y-42244439D01*
X1836119Y-42244439D02*
X1836119Y-42482534D01*
X1836119Y-42482534D02*
X1883738Y-42625391D01*
X1883738Y-42625391D02*
X1978976Y-42720629D01*
X1978976Y-42720629D02*
X2074214Y-42768248D01*
X2074214Y-42768248D02*
X2264690Y-42815867D01*
X2264690Y-42815867D02*
X2407547Y-42815867D01*
X2407547Y-42815867D02*
X2598023Y-42768248D01*
X2598023Y-42768248D02*
X2693261Y-42720629D01*
X2693261Y-42720629D02*
X2788500Y-42625391D01*
X2788500Y-42625391D02*
X2836119Y-42482534D01*
X2836119Y-42482534D02*
X2836119Y-42244439D01*
X2836119Y-43768248D02*
X2836119Y-43196820D01*
X2836119Y-43482534D02*
X1836119Y-43482534D01*
X1836119Y-43482534D02*
X1978976Y-43387296D01*
X1978976Y-43387296D02*
X2074214Y-43292058D01*
X2074214Y-43292058D02*
X2121833Y-43196820D01*
X2264690Y-44339677D02*
X2217071Y-44244439D01*
X2217071Y-44244439D02*
X2169452Y-44196820D01*
X2169452Y-44196820D02*
X2074214Y-44149201D01*
X2074214Y-44149201D02*
X2026595Y-44149201D01*
X2026595Y-44149201D02*
X1931357Y-44196820D01*
X1931357Y-44196820D02*
X1883738Y-44244439D01*
X1883738Y-44244439D02*
X1836119Y-44339677D01*
X1836119Y-44339677D02*
X1836119Y-44530153D01*
X1836119Y-44530153D02*
X1883738Y-44625391D01*
X1883738Y-44625391D02*
X1931357Y-44673010D01*
X1931357Y-44673010D02*
X2026595Y-44720629D01*
X2026595Y-44720629D02*
X2074214Y-44720629D01*
X2074214Y-44720629D02*
X2169452Y-44673010D01*
X2169452Y-44673010D02*
X2217071Y-44625391D01*
X2217071Y-44625391D02*
X2264690Y-44530153D01*
X2264690Y-44530153D02*
X2264690Y-44339677D01*
X2264690Y-44339677D02*
X2312309Y-44244439D01*
X2312309Y-44244439D02*
X2359928Y-44196820D01*
X2359928Y-44196820D02*
X2455166Y-44149201D01*
X2455166Y-44149201D02*
X2645642Y-44149201D01*
X2645642Y-44149201D02*
X2740880Y-44196820D01*
X2740880Y-44196820D02*
X2788500Y-44244439D01*
X2788500Y-44244439D02*
X2836119Y-44339677D01*
X2836119Y-44339677D02*
X2836119Y-44530153D01*
X2836119Y-44530153D02*
X2788500Y-44625391D01*
X2788500Y-44625391D02*
X2740880Y-44673010D01*
X2740880Y-44673010D02*
X2645642Y-44720629D01*
X2645642Y-44720629D02*
X2455166Y-44720629D01*
X2455166Y-44720629D02*
X2359928Y-44673010D01*
X2359928Y-44673010D02*
X2312309Y-44625391D01*
X2312309Y-44625391D02*
X2264690Y-44530153D01*
X4636069Y-47006870D02*
X3636069Y-47006870D01*
X4636069Y-47578298D02*
X4064640Y-47149727D01*
X3636069Y-47578298D02*
X4207497Y-47006870D01*
X195456069Y-43673239D02*
X194456069Y-43673239D01*
X194456069Y-43673239D02*
X194456069Y-43911334D01*
X194456069Y-43911334D02*
X194503688Y-44054191D01*
X194503688Y-44054191D02*
X194598926Y-44149429D01*
X194598926Y-44149429D02*
X194694164Y-44197048D01*
X194694164Y-44197048D02*
X194884640Y-44244667D01*
X194884640Y-44244667D02*
X195027497Y-44244667D01*
X195027497Y-44244667D02*
X195217973Y-44197048D01*
X195217973Y-44197048D02*
X195313211Y-44149429D01*
X195313211Y-44149429D02*
X195408450Y-44054191D01*
X195408450Y-44054191D02*
X195456069Y-43911334D01*
X195456069Y-43911334D02*
X195456069Y-43673239D01*
X194789402Y-45101810D02*
X195456069Y-45101810D01*
X194408450Y-44863715D02*
X195122735Y-44625620D01*
X195122735Y-44625620D02*
X195122735Y-45244667D01*
X194456069Y-45530382D02*
X194456069Y-46197048D01*
X194456069Y-46197048D02*
X195456069Y-45768477D01*
X195136069Y-48435620D02*
X194136069Y-48435620D01*
X195136069Y-49007048D02*
X194564640Y-48578477D01*
X194136069Y-49007048D02*
X194707497Y-48435620D01*
X252606069Y-24623239D02*
X251606069Y-24623239D01*
X251606069Y-24623239D02*
X251606069Y-24861334D01*
X251606069Y-24861334D02*
X251653688Y-25004191D01*
X251653688Y-25004191D02*
X251748926Y-25099429D01*
X251748926Y-25099429D02*
X251844164Y-25147048D01*
X251844164Y-25147048D02*
X252034640Y-25194667D01*
X252034640Y-25194667D02*
X252177497Y-25194667D01*
X252177497Y-25194667D02*
X252367973Y-25147048D01*
X252367973Y-25147048D02*
X252463211Y-25099429D01*
X252463211Y-25099429D02*
X252558450Y-25004191D01*
X252558450Y-25004191D02*
X252606069Y-24861334D01*
X252606069Y-24861334D02*
X252606069Y-24623239D01*
X251701307Y-25575620D02*
X251653688Y-25623239D01*
X251653688Y-25623239D02*
X251606069Y-25718477D01*
X251606069Y-25718477D02*
X251606069Y-25956572D01*
X251606069Y-25956572D02*
X251653688Y-26051810D01*
X251653688Y-26051810D02*
X251701307Y-26099429D01*
X251701307Y-26099429D02*
X251796545Y-26147048D01*
X251796545Y-26147048D02*
X251891783Y-26147048D01*
X251891783Y-26147048D02*
X252034640Y-26099429D01*
X252034640Y-26099429D02*
X252606069Y-25528001D01*
X252606069Y-25528001D02*
X252606069Y-26147048D01*
X252606069Y-27099429D02*
X252606069Y-26528001D01*
X252606069Y-26813715D02*
X251606069Y-26813715D01*
X251606069Y-26813715D02*
X251748926Y-26718477D01*
X251748926Y-26718477D02*
X251844164Y-26623239D01*
X251844164Y-26623239D02*
X251891783Y-26528001D01*
X252286069Y-29385620D02*
X251286069Y-29385620D01*
X252286069Y-29957048D02*
X251714640Y-29528477D01*
X251286069Y-29957048D02*
X251857497Y-29385620D01*
X138306069Y-5573239D02*
X137306069Y-5573239D01*
X137306069Y-5573239D02*
X137306069Y-5811334D01*
X137306069Y-5811334D02*
X137353688Y-5954191D01*
X137353688Y-5954191D02*
X137448926Y-6049429D01*
X137448926Y-6049429D02*
X137544164Y-6097048D01*
X137544164Y-6097048D02*
X137734640Y-6144667D01*
X137734640Y-6144667D02*
X137877497Y-6144667D01*
X137877497Y-6144667D02*
X138067973Y-6097048D01*
X138067973Y-6097048D02*
X138163211Y-6049429D01*
X138163211Y-6049429D02*
X138258450Y-5954191D01*
X138258450Y-5954191D02*
X138306069Y-5811334D01*
X138306069Y-5811334D02*
X138306069Y-5573239D01*
X138306069Y-7097048D02*
X138306069Y-6525620D01*
X138306069Y-6811334D02*
X137306069Y-6811334D01*
X137306069Y-6811334D02*
X137448926Y-6716096D01*
X137448926Y-6716096D02*
X137544164Y-6620858D01*
X137544164Y-6620858D02*
X137591783Y-6525620D01*
X137306069Y-7716096D02*
X137306069Y-7811334D01*
X137306069Y-7811334D02*
X137353688Y-7906572D01*
X137353688Y-7906572D02*
X137401307Y-7954191D01*
X137401307Y-7954191D02*
X137496545Y-8001810D01*
X137496545Y-8001810D02*
X137687021Y-8049429D01*
X137687021Y-8049429D02*
X137925116Y-8049429D01*
X137925116Y-8049429D02*
X138115592Y-8001810D01*
X138115592Y-8001810D02*
X138210830Y-7954191D01*
X138210830Y-7954191D02*
X138258450Y-7906572D01*
X138258450Y-7906572D02*
X138306069Y-7811334D01*
X138306069Y-7811334D02*
X138306069Y-7716096D01*
X138306069Y-7716096D02*
X138258450Y-7620858D01*
X138258450Y-7620858D02*
X138210830Y-7573239D01*
X138210830Y-7573239D02*
X138115592Y-7525620D01*
X138115592Y-7525620D02*
X137925116Y-7478001D01*
X137925116Y-7478001D02*
X137687021Y-7478001D01*
X137687021Y-7478001D02*
X137496545Y-7525620D01*
X137496545Y-7525620D02*
X137401307Y-7573239D01*
X137401307Y-7573239D02*
X137353688Y-7620858D01*
X137353688Y-7620858D02*
X137306069Y-7716096D01*
X137986069Y-10335620D02*
X136986069Y-10335620D01*
X137986069Y-10907048D02*
X137414640Y-10478477D01*
X136986069Y-10907048D02*
X137557497Y-10335620D01*
X176406069Y-5573239D02*
X175406069Y-5573239D01*
X175406069Y-5573239D02*
X175406069Y-5811334D01*
X175406069Y-5811334D02*
X175453688Y-5954191D01*
X175453688Y-5954191D02*
X175548926Y-6049429D01*
X175548926Y-6049429D02*
X175644164Y-6097048D01*
X175644164Y-6097048D02*
X175834640Y-6144667D01*
X175834640Y-6144667D02*
X175977497Y-6144667D01*
X175977497Y-6144667D02*
X176167973Y-6097048D01*
X176167973Y-6097048D02*
X176263211Y-6049429D01*
X176263211Y-6049429D02*
X176358450Y-5954191D01*
X176358450Y-5954191D02*
X176406069Y-5811334D01*
X176406069Y-5811334D02*
X176406069Y-5573239D01*
X176406069Y-7097048D02*
X176406069Y-6525620D01*
X176406069Y-6811334D02*
X175406069Y-6811334D01*
X175406069Y-6811334D02*
X175548926Y-6716096D01*
X175548926Y-6716096D02*
X175644164Y-6620858D01*
X175644164Y-6620858D02*
X175691783Y-6525620D01*
X175501307Y-7478001D02*
X175453688Y-7525620D01*
X175453688Y-7525620D02*
X175406069Y-7620858D01*
X175406069Y-7620858D02*
X175406069Y-7858953D01*
X175406069Y-7858953D02*
X175453688Y-7954191D01*
X175453688Y-7954191D02*
X175501307Y-8001810D01*
X175501307Y-8001810D02*
X175596545Y-8049429D01*
X175596545Y-8049429D02*
X175691783Y-8049429D01*
X175691783Y-8049429D02*
X175834640Y-8001810D01*
X175834640Y-8001810D02*
X176406069Y-7430382D01*
X176406069Y-7430382D02*
X176406069Y-8049429D01*
X176086069Y-10335620D02*
X175086069Y-10335620D01*
X176086069Y-10907048D02*
X175514640Y-10478477D01*
X175086069Y-10907048D02*
X175657497Y-10335620D01*
X43056069Y-48435739D02*
X42056069Y-48435739D01*
X42056069Y-48435739D02*
X42056069Y-48673834D01*
X42056069Y-48673834D02*
X42103688Y-48816691D01*
X42103688Y-48816691D02*
X42198926Y-48911929D01*
X42198926Y-48911929D02*
X42294164Y-48959548D01*
X42294164Y-48959548D02*
X42484640Y-49007167D01*
X42484640Y-49007167D02*
X42627497Y-49007167D01*
X42627497Y-49007167D02*
X42817973Y-48959548D01*
X42817973Y-48959548D02*
X42913211Y-48911929D01*
X42913211Y-48911929D02*
X43008450Y-48816691D01*
X43008450Y-48816691D02*
X43056069Y-48673834D01*
X43056069Y-48673834D02*
X43056069Y-48435739D01*
X42151307Y-49388120D02*
X42103688Y-49435739D01*
X42103688Y-49435739D02*
X42056069Y-49530977D01*
X42056069Y-49530977D02*
X42056069Y-49769072D01*
X42056069Y-49769072D02*
X42103688Y-49864310D01*
X42103688Y-49864310D02*
X42151307Y-49911929D01*
X42151307Y-49911929D02*
X42246545Y-49959548D01*
X42246545Y-49959548D02*
X42341783Y-49959548D01*
X42341783Y-49959548D02*
X42484640Y-49911929D01*
X42484640Y-49911929D02*
X43056069Y-49340501D01*
X43056069Y-49340501D02*
X43056069Y-49959548D01*
X43056069Y-50435739D02*
X43056069Y-50626215D01*
X43056069Y-50626215D02*
X43008450Y-50721453D01*
X43008450Y-50721453D02*
X42960830Y-50769072D01*
X42960830Y-50769072D02*
X42817973Y-50864310D01*
X42817973Y-50864310D02*
X42627497Y-50911929D01*
X42627497Y-50911929D02*
X42246545Y-50911929D01*
X42246545Y-50911929D02*
X42151307Y-50864310D01*
X42151307Y-50864310D02*
X42103688Y-50816691D01*
X42103688Y-50816691D02*
X42056069Y-50721453D01*
X42056069Y-50721453D02*
X42056069Y-50530977D01*
X42056069Y-50530977D02*
X42103688Y-50435739D01*
X42103688Y-50435739D02*
X42151307Y-50388120D01*
X42151307Y-50388120D02*
X42246545Y-50340501D01*
X42246545Y-50340501D02*
X42484640Y-50340501D01*
X42484640Y-50340501D02*
X42579878Y-50388120D01*
X42579878Y-50388120D02*
X42627497Y-50435739D01*
X42627497Y-50435739D02*
X42675116Y-50530977D01*
X42675116Y-50530977D02*
X42675116Y-50721453D01*
X42675116Y-50721453D02*
X42627497Y-50816691D01*
X42627497Y-50816691D02*
X42579878Y-50864310D01*
X42579878Y-50864310D02*
X42484640Y-50911929D01*
X42736069Y-53198120D02*
X41736069Y-53198120D01*
X42736069Y-53769548D02*
X42164640Y-53340977D01*
X41736069Y-53769548D02*
X42307497Y-53198120D01*
X195456069Y-62723239D02*
X194456069Y-62723239D01*
X194456069Y-62723239D02*
X194456069Y-62961334D01*
X194456069Y-62961334D02*
X194503688Y-63104191D01*
X194503688Y-63104191D02*
X194598926Y-63199429D01*
X194598926Y-63199429D02*
X194694164Y-63247048D01*
X194694164Y-63247048D02*
X194884640Y-63294667D01*
X194884640Y-63294667D02*
X195027497Y-63294667D01*
X195027497Y-63294667D02*
X195217973Y-63247048D01*
X195217973Y-63247048D02*
X195313211Y-63199429D01*
X195313211Y-63199429D02*
X195408450Y-63104191D01*
X195408450Y-63104191D02*
X195456069Y-62961334D01*
X195456069Y-62961334D02*
X195456069Y-62723239D01*
X194789402Y-64151810D02*
X195456069Y-64151810D01*
X194408450Y-63913715D02*
X195122735Y-63675620D01*
X195122735Y-63675620D02*
X195122735Y-64294667D01*
X194884640Y-64818477D02*
X194837021Y-64723239D01*
X194837021Y-64723239D02*
X194789402Y-64675620D01*
X194789402Y-64675620D02*
X194694164Y-64628001D01*
X194694164Y-64628001D02*
X194646545Y-64628001D01*
X194646545Y-64628001D02*
X194551307Y-64675620D01*
X194551307Y-64675620D02*
X194503688Y-64723239D01*
X194503688Y-64723239D02*
X194456069Y-64818477D01*
X194456069Y-64818477D02*
X194456069Y-65008953D01*
X194456069Y-65008953D02*
X194503688Y-65104191D01*
X194503688Y-65104191D02*
X194551307Y-65151810D01*
X194551307Y-65151810D02*
X194646545Y-65199429D01*
X194646545Y-65199429D02*
X194694164Y-65199429D01*
X194694164Y-65199429D02*
X194789402Y-65151810D01*
X194789402Y-65151810D02*
X194837021Y-65104191D01*
X194837021Y-65104191D02*
X194884640Y-65008953D01*
X194884640Y-65008953D02*
X194884640Y-64818477D01*
X194884640Y-64818477D02*
X194932259Y-64723239D01*
X194932259Y-64723239D02*
X194979878Y-64675620D01*
X194979878Y-64675620D02*
X195075116Y-64628001D01*
X195075116Y-64628001D02*
X195265592Y-64628001D01*
X195265592Y-64628001D02*
X195360830Y-64675620D01*
X195360830Y-64675620D02*
X195408450Y-64723239D01*
X195408450Y-64723239D02*
X195456069Y-64818477D01*
X195456069Y-64818477D02*
X195456069Y-65008953D01*
X195456069Y-65008953D02*
X195408450Y-65104191D01*
X195408450Y-65104191D02*
X195360830Y-65151810D01*
X195360830Y-65151810D02*
X195265592Y-65199429D01*
X195265592Y-65199429D02*
X195075116Y-65199429D01*
X195075116Y-65199429D02*
X194979878Y-65151810D01*
X194979878Y-65151810D02*
X194932259Y-65104191D01*
X194932259Y-65104191D02*
X194884640Y-65008953D01*
X195136069Y-67485620D02*
X194136069Y-67485620D01*
X195136069Y-68057048D02*
X194564640Y-67628477D01*
X194136069Y-68057048D02*
X194707497Y-67485620D01*
X43056069Y-86535739D02*
X42056069Y-86535739D01*
X42056069Y-86535739D02*
X42056069Y-86773834D01*
X42056069Y-86773834D02*
X42103688Y-86916691D01*
X42103688Y-86916691D02*
X42198926Y-87011929D01*
X42198926Y-87011929D02*
X42294164Y-87059548D01*
X42294164Y-87059548D02*
X42484640Y-87107167D01*
X42484640Y-87107167D02*
X42627497Y-87107167D01*
X42627497Y-87107167D02*
X42817973Y-87059548D01*
X42817973Y-87059548D02*
X42913211Y-87011929D01*
X42913211Y-87011929D02*
X43008450Y-86916691D01*
X43008450Y-86916691D02*
X43056069Y-86773834D01*
X43056069Y-86773834D02*
X43056069Y-86535739D01*
X42056069Y-88011929D02*
X42056069Y-87535739D01*
X42056069Y-87535739D02*
X42532259Y-87488120D01*
X42532259Y-87488120D02*
X42484640Y-87535739D01*
X42484640Y-87535739D02*
X42437021Y-87630977D01*
X42437021Y-87630977D02*
X42437021Y-87869072D01*
X42437021Y-87869072D02*
X42484640Y-87964310D01*
X42484640Y-87964310D02*
X42532259Y-88011929D01*
X42532259Y-88011929D02*
X42627497Y-88059548D01*
X42627497Y-88059548D02*
X42865592Y-88059548D01*
X42865592Y-88059548D02*
X42960830Y-88011929D01*
X42960830Y-88011929D02*
X43008450Y-87964310D01*
X43008450Y-87964310D02*
X43056069Y-87869072D01*
X43056069Y-87869072D02*
X43056069Y-87630977D01*
X43056069Y-87630977D02*
X43008450Y-87535739D01*
X43008450Y-87535739D02*
X42960830Y-87488120D01*
X42056069Y-88964310D02*
X42056069Y-88488120D01*
X42056069Y-88488120D02*
X42532259Y-88440501D01*
X42532259Y-88440501D02*
X42484640Y-88488120D01*
X42484640Y-88488120D02*
X42437021Y-88583358D01*
X42437021Y-88583358D02*
X42437021Y-88821453D01*
X42437021Y-88821453D02*
X42484640Y-88916691D01*
X42484640Y-88916691D02*
X42532259Y-88964310D01*
X42532259Y-88964310D02*
X42627497Y-89011929D01*
X42627497Y-89011929D02*
X42865592Y-89011929D01*
X42865592Y-89011929D02*
X42960830Y-88964310D01*
X42960830Y-88964310D02*
X43008450Y-88916691D01*
X43008450Y-88916691D02*
X43056069Y-88821453D01*
X43056069Y-88821453D02*
X43056069Y-88583358D01*
X43056069Y-88583358D02*
X43008450Y-88488120D01*
X43008450Y-88488120D02*
X42960830Y-88440501D01*
X42736069Y-91298120D02*
X41736069Y-91298120D01*
X42736069Y-91869548D02*
X42164640Y-91440977D01*
X41736069Y-91869548D02*
X42307497Y-91298120D01*
X193078769Y-86537439D02*
X192078769Y-86537439D01*
X192078769Y-86537439D02*
X192078769Y-86775534D01*
X192078769Y-86775534D02*
X192126388Y-86918391D01*
X192126388Y-86918391D02*
X192221626Y-87013629D01*
X192221626Y-87013629D02*
X192316864Y-87061248D01*
X192316864Y-87061248D02*
X192507340Y-87108867D01*
X192507340Y-87108867D02*
X192650197Y-87108867D01*
X192650197Y-87108867D02*
X192840673Y-87061248D01*
X192840673Y-87061248D02*
X192935911Y-87013629D01*
X192935911Y-87013629D02*
X193031150Y-86918391D01*
X193031150Y-86918391D02*
X193078769Y-86775534D01*
X193078769Y-86775534D02*
X193078769Y-86537439D01*
X192078769Y-87966010D02*
X192078769Y-87775534D01*
X192078769Y-87775534D02*
X192126388Y-87680296D01*
X192126388Y-87680296D02*
X192174007Y-87632677D01*
X192174007Y-87632677D02*
X192316864Y-87537439D01*
X192316864Y-87537439D02*
X192507340Y-87489820D01*
X192507340Y-87489820D02*
X192888292Y-87489820D01*
X192888292Y-87489820D02*
X192983530Y-87537439D01*
X192983530Y-87537439D02*
X193031150Y-87585058D01*
X193031150Y-87585058D02*
X193078769Y-87680296D01*
X193078769Y-87680296D02*
X193078769Y-87870772D01*
X193078769Y-87870772D02*
X193031150Y-87966010D01*
X193031150Y-87966010D02*
X192983530Y-88013629D01*
X192983530Y-88013629D02*
X192888292Y-88061248D01*
X192888292Y-88061248D02*
X192650197Y-88061248D01*
X192650197Y-88061248D02*
X192554959Y-88013629D01*
X192554959Y-88013629D02*
X192507340Y-87966010D01*
X192507340Y-87966010D02*
X192459721Y-87870772D01*
X192459721Y-87870772D02*
X192459721Y-87680296D01*
X192459721Y-87680296D02*
X192507340Y-87585058D01*
X192507340Y-87585058D02*
X192554959Y-87537439D01*
X192554959Y-87537439D02*
X192650197Y-87489820D01*
X192078769Y-88680296D02*
X192078769Y-88775534D01*
X192078769Y-88775534D02*
X192126388Y-88870772D01*
X192126388Y-88870772D02*
X192174007Y-88918391D01*
X192174007Y-88918391D02*
X192269245Y-88966010D01*
X192269245Y-88966010D02*
X192459721Y-89013629D01*
X192459721Y-89013629D02*
X192697816Y-89013629D01*
X192697816Y-89013629D02*
X192888292Y-88966010D01*
X192888292Y-88966010D02*
X192983530Y-88918391D01*
X192983530Y-88918391D02*
X193031150Y-88870772D01*
X193031150Y-88870772D02*
X193078769Y-88775534D01*
X193078769Y-88775534D02*
X193078769Y-88680296D01*
X193078769Y-88680296D02*
X193031150Y-88585058D01*
X193031150Y-88585058D02*
X192983530Y-88537439D01*
X192983530Y-88537439D02*
X192888292Y-88489820D01*
X192888292Y-88489820D02*
X192697816Y-88442201D01*
X192697816Y-88442201D02*
X192459721Y-88442201D01*
X192459721Y-88442201D02*
X192269245Y-88489820D01*
X192269245Y-88489820D02*
X192174007Y-88537439D01*
X192174007Y-88537439D02*
X192126388Y-88585058D01*
X192126388Y-88585058D02*
X192078769Y-88680296D01*
X192758769Y-91299820D02*
X191758769Y-91299820D01*
X192758769Y-91871248D02*
X192187340Y-91442677D01*
X191758769Y-91871248D02*
X192330197Y-91299820D01*
X195456069Y-24623239D02*
X194456069Y-24623239D01*
X194456069Y-24623239D02*
X194456069Y-24861334D01*
X194456069Y-24861334D02*
X194503688Y-25004191D01*
X194503688Y-25004191D02*
X194598926Y-25099429D01*
X194598926Y-25099429D02*
X194694164Y-25147048D01*
X194694164Y-25147048D02*
X194884640Y-25194667D01*
X194884640Y-25194667D02*
X195027497Y-25194667D01*
X195027497Y-25194667D02*
X195217973Y-25147048D01*
X195217973Y-25147048D02*
X195313211Y-25099429D01*
X195313211Y-25099429D02*
X195408450Y-25004191D01*
X195408450Y-25004191D02*
X195456069Y-24861334D01*
X195456069Y-24861334D02*
X195456069Y-24623239D01*
X194789402Y-26051810D02*
X195456069Y-26051810D01*
X194408450Y-25813715D02*
X195122735Y-25575620D01*
X195122735Y-25575620D02*
X195122735Y-26194667D01*
X194456069Y-27004191D02*
X194456069Y-26813715D01*
X194456069Y-26813715D02*
X194503688Y-26718477D01*
X194503688Y-26718477D02*
X194551307Y-26670858D01*
X194551307Y-26670858D02*
X194694164Y-26575620D01*
X194694164Y-26575620D02*
X194884640Y-26528001D01*
X194884640Y-26528001D02*
X195265592Y-26528001D01*
X195265592Y-26528001D02*
X195360830Y-26575620D01*
X195360830Y-26575620D02*
X195408450Y-26623239D01*
X195408450Y-26623239D02*
X195456069Y-26718477D01*
X195456069Y-26718477D02*
X195456069Y-26908953D01*
X195456069Y-26908953D02*
X195408450Y-27004191D01*
X195408450Y-27004191D02*
X195360830Y-27051810D01*
X195360830Y-27051810D02*
X195265592Y-27099429D01*
X195265592Y-27099429D02*
X195027497Y-27099429D01*
X195027497Y-27099429D02*
X194932259Y-27051810D01*
X194932259Y-27051810D02*
X194884640Y-27004191D01*
X194884640Y-27004191D02*
X194837021Y-26908953D01*
X194837021Y-26908953D02*
X194837021Y-26718477D01*
X194837021Y-26718477D02*
X194884640Y-26623239D01*
X194884640Y-26623239D02*
X194932259Y-26575620D01*
X194932259Y-26575620D02*
X195027497Y-26528001D01*
X195136069Y-29385620D02*
X194136069Y-29385620D01*
X195136069Y-29957048D02*
X194564640Y-29528477D01*
X194136069Y-29957048D02*
X194707497Y-29385620D01*
X214506069Y-67485739D02*
X213506069Y-67485739D01*
X213506069Y-67485739D02*
X213506069Y-67723834D01*
X213506069Y-67723834D02*
X213553688Y-67866691D01*
X213553688Y-67866691D02*
X213648926Y-67961929D01*
X213648926Y-67961929D02*
X213744164Y-68009548D01*
X213744164Y-68009548D02*
X213934640Y-68057167D01*
X213934640Y-68057167D02*
X214077497Y-68057167D01*
X214077497Y-68057167D02*
X214267973Y-68009548D01*
X214267973Y-68009548D02*
X214363211Y-67961929D01*
X214363211Y-67961929D02*
X214458450Y-67866691D01*
X214458450Y-67866691D02*
X214506069Y-67723834D01*
X214506069Y-67723834D02*
X214506069Y-67485739D01*
X213506069Y-68961929D02*
X213506069Y-68485739D01*
X213506069Y-68485739D02*
X213982259Y-68438120D01*
X213982259Y-68438120D02*
X213934640Y-68485739D01*
X213934640Y-68485739D02*
X213887021Y-68580977D01*
X213887021Y-68580977D02*
X213887021Y-68819072D01*
X213887021Y-68819072D02*
X213934640Y-68914310D01*
X213934640Y-68914310D02*
X213982259Y-68961929D01*
X213982259Y-68961929D02*
X214077497Y-69009548D01*
X214077497Y-69009548D02*
X214315592Y-69009548D01*
X214315592Y-69009548D02*
X214410830Y-68961929D01*
X214410830Y-68961929D02*
X214458450Y-68914310D01*
X214458450Y-68914310D02*
X214506069Y-68819072D01*
X214506069Y-68819072D02*
X214506069Y-68580977D01*
X214506069Y-68580977D02*
X214458450Y-68485739D01*
X214458450Y-68485739D02*
X214410830Y-68438120D01*
X214506069Y-69961929D02*
X214506069Y-69390501D01*
X214506069Y-69676215D02*
X213506069Y-69676215D01*
X213506069Y-69676215D02*
X213648926Y-69580977D01*
X213648926Y-69580977D02*
X213744164Y-69485739D01*
X213744164Y-69485739D02*
X213791783Y-69390501D01*
X214186069Y-72248120D02*
X213186069Y-72248120D01*
X214186069Y-72819548D02*
X213614640Y-72390977D01*
X213186069Y-72819548D02*
X213757497Y-72248120D01*
X128781069Y-86535739D02*
X127781069Y-86535739D01*
X127781069Y-86535739D02*
X127781069Y-86773834D01*
X127781069Y-86773834D02*
X127828688Y-86916691D01*
X127828688Y-86916691D02*
X127923926Y-87011929D01*
X127923926Y-87011929D02*
X128019164Y-87059548D01*
X128019164Y-87059548D02*
X128209640Y-87107167D01*
X128209640Y-87107167D02*
X128352497Y-87107167D01*
X128352497Y-87107167D02*
X128542973Y-87059548D01*
X128542973Y-87059548D02*
X128638211Y-87011929D01*
X128638211Y-87011929D02*
X128733450Y-86916691D01*
X128733450Y-86916691D02*
X128781069Y-86773834D01*
X128781069Y-86773834D02*
X128781069Y-86535739D01*
X127781069Y-88011929D02*
X127781069Y-87535739D01*
X127781069Y-87535739D02*
X128257259Y-87488120D01*
X128257259Y-87488120D02*
X128209640Y-87535739D01*
X128209640Y-87535739D02*
X128162021Y-87630977D01*
X128162021Y-87630977D02*
X128162021Y-87869072D01*
X128162021Y-87869072D02*
X128209640Y-87964310D01*
X128209640Y-87964310D02*
X128257259Y-88011929D01*
X128257259Y-88011929D02*
X128352497Y-88059548D01*
X128352497Y-88059548D02*
X128590592Y-88059548D01*
X128590592Y-88059548D02*
X128685830Y-88011929D01*
X128685830Y-88011929D02*
X128733450Y-87964310D01*
X128733450Y-87964310D02*
X128781069Y-87869072D01*
X128781069Y-87869072D02*
X128781069Y-87630977D01*
X128781069Y-87630977D02*
X128733450Y-87535739D01*
X128733450Y-87535739D02*
X128685830Y-87488120D01*
X128209640Y-88630977D02*
X128162021Y-88535739D01*
X128162021Y-88535739D02*
X128114402Y-88488120D01*
X128114402Y-88488120D02*
X128019164Y-88440501D01*
X128019164Y-88440501D02*
X127971545Y-88440501D01*
X127971545Y-88440501D02*
X127876307Y-88488120D01*
X127876307Y-88488120D02*
X127828688Y-88535739D01*
X127828688Y-88535739D02*
X127781069Y-88630977D01*
X127781069Y-88630977D02*
X127781069Y-88821453D01*
X127781069Y-88821453D02*
X127828688Y-88916691D01*
X127828688Y-88916691D02*
X127876307Y-88964310D01*
X127876307Y-88964310D02*
X127971545Y-89011929D01*
X127971545Y-89011929D02*
X128019164Y-89011929D01*
X128019164Y-89011929D02*
X128114402Y-88964310D01*
X128114402Y-88964310D02*
X128162021Y-88916691D01*
X128162021Y-88916691D02*
X128209640Y-88821453D01*
X128209640Y-88821453D02*
X128209640Y-88630977D01*
X128209640Y-88630977D02*
X128257259Y-88535739D01*
X128257259Y-88535739D02*
X128304878Y-88488120D01*
X128304878Y-88488120D02*
X128400116Y-88440501D01*
X128400116Y-88440501D02*
X128590592Y-88440501D01*
X128590592Y-88440501D02*
X128685830Y-88488120D01*
X128685830Y-88488120D02*
X128733450Y-88535739D01*
X128733450Y-88535739D02*
X128781069Y-88630977D01*
X128781069Y-88630977D02*
X128781069Y-88821453D01*
X128781069Y-88821453D02*
X128733450Y-88916691D01*
X128733450Y-88916691D02*
X128685830Y-88964310D01*
X128685830Y-88964310D02*
X128590592Y-89011929D01*
X128590592Y-89011929D02*
X128400116Y-89011929D01*
X128400116Y-89011929D02*
X128304878Y-88964310D01*
X128304878Y-88964310D02*
X128257259Y-88916691D01*
X128257259Y-88916691D02*
X128209640Y-88821453D01*
X128461069Y-91298120D02*
X127461069Y-91298120D01*
X128461069Y-91869548D02*
X127889640Y-91440977D01*
X127461069Y-91869548D02*
X128032497Y-91298120D01*
X252606069Y-43673239D02*
X251606069Y-43673239D01*
X251606069Y-43673239D02*
X251606069Y-43911334D01*
X251606069Y-43911334D02*
X251653688Y-44054191D01*
X251653688Y-44054191D02*
X251748926Y-44149429D01*
X251748926Y-44149429D02*
X251844164Y-44197048D01*
X251844164Y-44197048D02*
X252034640Y-44244667D01*
X252034640Y-44244667D02*
X252177497Y-44244667D01*
X252177497Y-44244667D02*
X252367973Y-44197048D01*
X252367973Y-44197048D02*
X252463211Y-44149429D01*
X252463211Y-44149429D02*
X252558450Y-44054191D01*
X252558450Y-44054191D02*
X252606069Y-43911334D01*
X252606069Y-43911334D02*
X252606069Y-43673239D01*
X251701307Y-44625620D02*
X251653688Y-44673239D01*
X251653688Y-44673239D02*
X251606069Y-44768477D01*
X251606069Y-44768477D02*
X251606069Y-45006572D01*
X251606069Y-45006572D02*
X251653688Y-45101810D01*
X251653688Y-45101810D02*
X251701307Y-45149429D01*
X251701307Y-45149429D02*
X251796545Y-45197048D01*
X251796545Y-45197048D02*
X251891783Y-45197048D01*
X251891783Y-45197048D02*
X252034640Y-45149429D01*
X252034640Y-45149429D02*
X252606069Y-44578001D01*
X252606069Y-44578001D02*
X252606069Y-45197048D01*
X251701307Y-45578001D02*
X251653688Y-45625620D01*
X251653688Y-45625620D02*
X251606069Y-45720858D01*
X251606069Y-45720858D02*
X251606069Y-45958953D01*
X251606069Y-45958953D02*
X251653688Y-46054191D01*
X251653688Y-46054191D02*
X251701307Y-46101810D01*
X251701307Y-46101810D02*
X251796545Y-46149429D01*
X251796545Y-46149429D02*
X251891783Y-46149429D01*
X251891783Y-46149429D02*
X252034640Y-46101810D01*
X252034640Y-46101810D02*
X252606069Y-45530382D01*
X252606069Y-45530382D02*
X252606069Y-46149429D01*
X252286069Y-48435620D02*
X251286069Y-48435620D01*
X252286069Y-49007048D02*
X251714640Y-48578477D01*
X251286069Y-49007048D02*
X251857497Y-48435620D01*
D11*
%TO.C,LED59*%
X235930000Y-61109125D02*
X235330000Y-61109125D01*
X235930000Y-60509125D01*
X235930000Y-61109125D01*
G36*
X235930000Y-61109125D02*
G01*
X235330000Y-61109125D01*
X235930000Y-60509125D01*
X235930000Y-61109125D01*
G37*
%TO.C,LED0*%
X259380400Y-16728450D02*
X259380400Y-16128450D01*
X259980400Y-16128450D01*
X259380400Y-16728450D01*
G36*
X259380400Y-16728450D02*
G01*
X259380400Y-16128450D01*
X259980400Y-16128450D01*
X259380400Y-16728450D01*
G37*
%TO.C,LED34*%
X102577200Y-75396925D02*
X101977200Y-75396925D01*
X102577200Y-74796925D01*
X102577200Y-75396925D01*
G36*
X102577200Y-75396925D02*
G01*
X101977200Y-75396925D01*
X102577200Y-74796925D01*
X102577200Y-75396925D01*
G37*
%TO.C,LED63*%
X240330000Y-45458725D02*
X240330000Y-44858725D01*
X240930000Y-44858725D01*
X240330000Y-45458725D01*
G36*
X240330000Y-45458725D02*
G01*
X240330000Y-44858725D01*
X240930000Y-44858725D01*
X240330000Y-45458725D01*
G37*
%TO.C,LED39*%
X49826000Y-97847325D02*
X49826000Y-97247325D01*
X50426000Y-97247325D01*
X49826000Y-97847325D01*
G36*
X49826000Y-97847325D02*
G01*
X49826000Y-97247325D01*
X50426000Y-97247325D01*
X49826000Y-97847325D01*
G37*
%TO.C,LED31*%
X45426000Y-75396925D02*
X44826000Y-75396925D01*
X45426000Y-74796925D01*
X45426000Y-75396925D01*
G36*
X45426000Y-75396925D02*
G01*
X44826000Y-75396925D01*
X45426000Y-74796925D01*
X45426000Y-75396925D01*
G37*
%TO.C,LED30*%
X26375600Y-80159525D02*
X25775600Y-80159525D01*
X26375600Y-79559525D01*
X26375600Y-80159525D01*
G36*
X26375600Y-80159525D02*
G01*
X25775600Y-80159525D01*
X26375600Y-79559525D01*
X26375600Y-80159525D01*
G37*
%TO.C,LED20*%
X102577200Y-37296125D02*
X101977200Y-37296125D01*
X102577200Y-36696125D01*
X102577200Y-37296125D01*
G36*
X102577200Y-37296125D02*
G01*
X101977200Y-37296125D01*
X102577200Y-36696125D01*
X102577200Y-37296125D01*
G37*
%TO.C,LED40*%
X11725200Y-93084725D02*
X11725200Y-92484725D01*
X12325200Y-92484725D01*
X11725200Y-93084725D01*
G36*
X11725200Y-93084725D02*
G01*
X11725200Y-92484725D01*
X12325200Y-92484725D01*
X11725200Y-93084725D01*
G37*
%TO.C,LED32*%
X64476400Y-70634325D02*
X63876400Y-70634325D01*
X64476400Y-70034325D01*
X64476400Y-70634325D01*
G36*
X64476400Y-70634325D02*
G01*
X63876400Y-70634325D01*
X64476400Y-70034325D01*
X64476400Y-70634325D01*
G37*
%TO.C,LED48*%
X221279600Y-78796925D02*
X221279600Y-78196925D01*
X221879600Y-78196925D01*
X221279600Y-78796925D01*
G36*
X221279600Y-78796925D02*
G01*
X221279600Y-78196925D01*
X221879600Y-78196925D01*
X221279600Y-78796925D01*
G37*
%TO.C,LED45*%
X254980400Y-89684725D02*
X254380400Y-89684725D01*
X254980400Y-89084725D01*
X254980400Y-89684725D01*
G36*
X254980400Y-89684725D02*
G01*
X254380400Y-89684725D01*
X254980400Y-89084725D01*
X254980400Y-89684725D01*
G37*
%TO.C,LED37*%
X95070700Y-97847325D02*
X95070700Y-97247325D01*
X95670700Y-97247325D01*
X95070700Y-97847325D01*
G36*
X95070700Y-97847325D02*
G01*
X95070700Y-97247325D01*
X95670700Y-97247325D01*
X95070700Y-97847325D01*
G37*
%TO.C,LED67*%
X202229200Y-35933525D02*
X202229200Y-35333525D01*
X202829200Y-35333525D01*
X202229200Y-35933525D01*
G36*
X202229200Y-35933525D02*
G01*
X202229200Y-35333525D01*
X202829200Y-35333525D01*
X202229200Y-35933525D01*
G37*
%TO.C,LED43*%
X195447900Y-94447325D02*
X194847900Y-94447325D01*
X195447900Y-93847325D01*
X195447900Y-94447325D01*
G36*
X195447900Y-94447325D02*
G01*
X194847900Y-94447325D01*
X195447900Y-93847325D01*
X195447900Y-94447325D01*
G37*
%TO.C,LED13*%
X30775600Y-16883125D02*
X30775600Y-16283125D01*
X31375600Y-16283125D01*
X30775600Y-16883125D01*
G36*
X30775600Y-16883125D02*
G01*
X30775600Y-16283125D01*
X31375600Y-16283125D01*
X30775600Y-16883125D01*
G37*
%TO.C,LED11*%
X68876400Y-16728450D02*
X68876400Y-16128450D01*
X69476400Y-16128450D01*
X68876400Y-16728450D01*
G36*
X68876400Y-16728450D02*
G01*
X68876400Y-16128450D01*
X69476400Y-16128450D01*
X68876400Y-16728450D01*
G37*
%TO.C,LED61*%
X259380400Y-35933525D02*
X259380400Y-35333525D01*
X259980400Y-35333525D01*
X259380400Y-35933525D01*
G36*
X259380400Y-35933525D02*
G01*
X259380400Y-35333525D01*
X259980400Y-35333525D01*
X259380400Y-35933525D01*
G37*
%TO.C,LED4*%
X202229200Y-16728450D02*
X202229200Y-16128450D01*
X202829200Y-16128450D01*
X202229200Y-16728450D01*
G36*
X202229200Y-16728450D02*
G01*
X202229200Y-16128450D01*
X202829200Y-16128450D01*
X202229200Y-16728450D01*
G37*
%TO.C,LED23*%
X106977200Y-59746525D02*
X106977200Y-59146525D01*
X107577200Y-59146525D01*
X106977200Y-59746525D01*
G36*
X106977200Y-59746525D02*
G01*
X106977200Y-59146525D01*
X107577200Y-59146525D01*
X106977200Y-59746525D01*
G37*
%TO.C,LED29*%
X7325200Y-70634325D02*
X6725200Y-70634325D01*
X7325200Y-70034325D01*
X7325200Y-70634325D01*
G36*
X7325200Y-70634325D02*
G01*
X6725200Y-70634325D01*
X7325200Y-70034325D01*
X7325200Y-70634325D01*
G37*
%TO.C,LED17*%
X45426000Y-37296125D02*
X44826000Y-37296125D01*
X45426000Y-36696125D01*
X45426000Y-37296125D01*
G36*
X45426000Y-37296125D02*
G01*
X44826000Y-37296125D01*
X45426000Y-36696125D01*
X45426000Y-37296125D01*
G37*
%TO.C,LED53*%
X164128400Y-78796925D02*
X164128400Y-78196925D01*
X164728400Y-78196925D01*
X164128400Y-78796925D01*
G36*
X164128400Y-78796925D02*
G01*
X164128400Y-78196925D01*
X164728400Y-78196925D01*
X164128400Y-78796925D01*
G37*
%TO.C,LED51*%
X202229200Y-74034325D02*
X202229200Y-73434325D01*
X202829200Y-73434325D01*
X202229200Y-74034325D01*
G36*
X202229200Y-74034325D02*
G01*
X202229200Y-73434325D01*
X202829200Y-73434325D01*
X202229200Y-74034325D01*
G37*
%TO.C,LED7*%
X145078000Y-16728450D02*
X145078000Y-16128450D01*
X145678000Y-16128450D01*
X145078000Y-16728450D01*
G36*
X145078000Y-16728450D02*
G01*
X145078000Y-16128450D01*
X145678000Y-16128450D01*
X145078000Y-16728450D01*
G37*
%TO.C,LED19*%
X83526800Y-37296125D02*
X82926800Y-37296125D01*
X83526800Y-36696125D01*
X83526800Y-37296125D01*
G36*
X83526800Y-37296125D02*
G01*
X82926800Y-37296125D01*
X83526800Y-36696125D01*
X83526800Y-37296125D01*
G37*
%TO.C,LED26*%
X49826000Y-59746525D02*
X49826000Y-59146525D01*
X50426000Y-59146525D01*
X49826000Y-59746525D01*
G36*
X49826000Y-59746525D02*
G01*
X49826000Y-59146525D01*
X50426000Y-59146525D01*
X49826000Y-59746525D01*
G37*
%TO.C,LED57*%
X216879600Y-56346525D02*
X216279600Y-56346525D01*
X216879600Y-55746525D01*
X216879600Y-56346525D01*
G36*
X216879600Y-56346525D02*
G01*
X216279600Y-56346525D01*
X216879600Y-55746525D01*
X216879600Y-56346525D01*
G37*
%TO.C,LED47*%
X240330000Y-83559525D02*
X240330000Y-82959525D01*
X240930000Y-82959525D01*
X240330000Y-83559525D01*
G36*
X240330000Y-83559525D02*
G01*
X240330000Y-82959525D01*
X240930000Y-82959525D01*
X240330000Y-83559525D01*
G37*
%TO.C,LED54*%
X159728400Y-56346525D02*
X159128400Y-56346525D01*
X159728400Y-55746525D01*
X159728400Y-56346525D01*
G36*
X159728400Y-56346525D02*
G01*
X159128400Y-56346525D01*
X159728400Y-55746525D01*
X159728400Y-56346525D01*
G37*
%TO.C,LED3*%
X221279600Y-16728450D02*
X221279600Y-16128450D01*
X221879600Y-16128450D01*
X221279600Y-16728450D01*
G36*
X221279600Y-16728450D02*
G01*
X221279600Y-16128450D01*
X221879600Y-16128450D01*
X221279600Y-16728450D01*
G37*
%TO.C,LED10*%
X87926800Y-16728450D02*
X87926800Y-16128450D01*
X88526800Y-16128450D01*
X87926800Y-16728450D01*
G36*
X87926800Y-16728450D02*
G01*
X87926800Y-16128450D01*
X88526800Y-16128450D01*
X87926800Y-16728450D01*
G37*
%TO.C,LED66*%
X221279600Y-40696125D02*
X221279600Y-40096125D01*
X221879600Y-40096125D01*
X221279600Y-40696125D01*
G36*
X221279600Y-40696125D02*
G01*
X221279600Y-40096125D01*
X221879600Y-40096125D01*
X221279600Y-40696125D01*
G37*
%TO.C,LED70*%
X164128400Y-40696125D02*
X164128400Y-40096125D01*
X164728400Y-40096125D01*
X164128400Y-40696125D01*
G36*
X164128400Y-40696125D02*
G01*
X164128400Y-40096125D01*
X164728400Y-40096125D01*
X164128400Y-40696125D01*
G37*
%TO.C,LED46*%
X259380400Y-75224975D02*
X259380400Y-74624975D01*
X259980400Y-74624975D01*
X259380400Y-75224975D01*
G36*
X259380400Y-75224975D02*
G01*
X259380400Y-74624975D01*
X259980400Y-74624975D01*
X259380400Y-75224975D01*
G37*
%TO.C,LED9*%
X106977200Y-16728450D02*
X106977200Y-16128450D01*
X107577200Y-16128450D01*
X106977200Y-16728450D01*
G36*
X106977200Y-16728450D02*
G01*
X106977200Y-16128450D01*
X107577200Y-16128450D01*
X106977200Y-16728450D01*
G37*
%TO.C,LED2*%
X240330000Y-16728450D02*
X240330000Y-16128450D01*
X240930000Y-16128450D01*
X240330000Y-16728450D01*
G36*
X240330000Y-16728450D02*
G01*
X240330000Y-16128450D01*
X240930000Y-16128450D01*
X240330000Y-16728450D01*
G37*
%TO.C,LED27*%
X30775600Y-64509125D02*
X30775600Y-63909125D01*
X31375600Y-63909125D01*
X30775600Y-64509125D01*
G36*
X30775600Y-64509125D02*
G01*
X30775600Y-63909125D01*
X31375600Y-63909125D01*
X30775600Y-64509125D01*
G37*
%TO.C,LED42*%
X174016200Y-94447325D02*
X173416200Y-94447325D01*
X174016200Y-93847325D01*
X174016200Y-94447325D01*
G36*
X174016200Y-94447325D02*
G01*
X173416200Y-94447325D01*
X174016200Y-93847325D01*
X174016200Y-94447325D01*
G37*
%TO.C,LED5*%
X183178800Y-16728450D02*
X183178800Y-16128450D01*
X183778800Y-16128450D01*
X183178800Y-16728450D01*
G36*
X183178800Y-16728450D02*
G01*
X183178800Y-16128450D01*
X183778800Y-16128450D01*
X183178800Y-16728450D01*
G37*
%TO.C,LED41*%
X131152800Y-94447325D02*
X130552800Y-94447325D01*
X131152800Y-93847325D01*
X131152800Y-94447325D01*
G36*
X131152800Y-94447325D02*
G01*
X130552800Y-94447325D01*
X131152800Y-93847325D01*
X131152800Y-94447325D01*
G37*
%TO.C,LED16*%
X26375600Y-42058725D02*
X25775600Y-42058725D01*
X26375600Y-41458725D01*
X26375600Y-42058725D01*
G36*
X26375600Y-42058725D02*
G01*
X25775600Y-42058725D01*
X26375600Y-41458725D01*
X26375600Y-42058725D01*
G37*
%TO.C,LED55*%
X178778800Y-56346525D02*
X178178800Y-56346525D01*
X178778800Y-55746525D01*
X178778800Y-56346525D01*
G36*
X178778800Y-56346525D02*
G01*
X178178800Y-56346525D01*
X178778800Y-55746525D01*
X178778800Y-56346525D01*
G37*
%TO.C,LED15*%
X7325200Y-32533525D02*
X6725200Y-32533525D01*
X7325200Y-31933525D01*
X7325200Y-32533525D01*
G36*
X7325200Y-32533525D02*
G01*
X6725200Y-32533525D01*
X7325200Y-31933525D01*
X7325200Y-32533525D01*
G37*
%TO.C,LED60*%
X254980400Y-51583925D02*
X254380400Y-51583925D01*
X254980400Y-50983925D01*
X254980400Y-51583925D01*
G36*
X254980400Y-51583925D02*
G01*
X254380400Y-51583925D01*
X254980400Y-50983925D01*
X254980400Y-51583925D01*
G37*
%TO.C,LED12*%
X49826000Y-16728450D02*
X49826000Y-16128450D01*
X50426000Y-16128450D01*
X49826000Y-16728450D01*
G36*
X49826000Y-16728450D02*
G01*
X49826000Y-16128450D01*
X50426000Y-16128450D01*
X49826000Y-16728450D01*
G37*
%TO.C,LED28*%
X11725200Y-54983925D02*
X11725200Y-54383925D01*
X12325200Y-54383925D01*
X11725200Y-54983925D01*
G36*
X11725200Y-54983925D02*
G01*
X11725200Y-54383925D01*
X12325200Y-54383925D01*
X11725200Y-54983925D01*
G37*
%TO.C,LED38*%
X71257700Y-97847325D02*
X71257700Y-97247325D01*
X71857700Y-97247325D01*
X71257700Y-97847325D01*
G36*
X71257700Y-97847325D02*
G01*
X71257700Y-97247325D01*
X71857700Y-97247325D01*
X71257700Y-97847325D01*
G37*
%TO.C,LED24*%
X87926800Y-59746525D02*
X87926800Y-59146525D01*
X88526800Y-59146525D01*
X87926800Y-59746525D01*
G36*
X87926800Y-59746525D02*
G01*
X87926800Y-59146525D01*
X88526800Y-59146525D01*
X87926800Y-59746525D01*
G37*
%TO.C,LED44*%
X216879600Y-94447325D02*
X216279600Y-94447325D01*
X216879600Y-93847325D01*
X216879600Y-94447325D01*
G36*
X216879600Y-94447325D02*
G01*
X216279600Y-94447325D01*
X216879600Y-93847325D01*
X216879600Y-94447325D01*
G37*
%TO.C,LED52*%
X183178800Y-78796925D02*
X183178800Y-78196925D01*
X183778800Y-78196925D01*
X183178800Y-78796925D01*
G36*
X183178800Y-78796925D02*
G01*
X183178800Y-78196925D01*
X183778800Y-78196925D01*
X183178800Y-78796925D01*
G37*
%TO.C,LED14*%
X11725200Y-16883125D02*
X11725200Y-16283125D01*
X12325200Y-16283125D01*
X11725200Y-16883125D01*
G36*
X11725200Y-16883125D02*
G01*
X11725200Y-16283125D01*
X12325200Y-16283125D01*
X11725200Y-16883125D01*
G37*
%TO.C,LED56*%
X197829200Y-51583925D02*
X197229200Y-51583925D01*
X197829200Y-50983925D01*
X197829200Y-51583925D01*
G36*
X197829200Y-51583925D02*
G01*
X197229200Y-51583925D01*
X197829200Y-50983925D01*
X197829200Y-51583925D01*
G37*
%TO.C,LED6*%
X164128400Y-16728450D02*
X164128400Y-16128450D01*
X164728400Y-16128450D01*
X164128400Y-16728450D01*
G36*
X164128400Y-16728450D02*
G01*
X164128400Y-16128450D01*
X164728400Y-16128450D01*
X164128400Y-16728450D01*
G37*
%TO.C,LED25*%
X68876400Y-54983925D02*
X68876400Y-54383925D01*
X69476400Y-54383925D01*
X68876400Y-54983925D01*
G36*
X68876400Y-54983925D02*
G01*
X68876400Y-54383925D01*
X69476400Y-54383925D01*
X68876400Y-54983925D01*
G37*
%TO.C,LED68*%
X183178800Y-40696125D02*
X183178800Y-40096125D01*
X183778800Y-40096125D01*
X183178800Y-40696125D01*
G36*
X183178800Y-40696125D02*
G01*
X183178800Y-40096125D01*
X183778800Y-40096125D01*
X183178800Y-40696125D01*
G37*
%TO.C,LED33*%
X83526800Y-75396925D02*
X82926800Y-75396925D01*
X83526800Y-74796925D01*
X83526800Y-75396925D01*
G36*
X83526800Y-75396925D02*
G01*
X82926800Y-75396925D01*
X83526800Y-74796925D01*
X83526800Y-75396925D01*
G37*
%TO.C,LED8*%
X126027600Y-16728450D02*
X126027600Y-16128450D01*
X126627600Y-16128450D01*
X126027600Y-16728450D01*
G36*
X126027600Y-16728450D02*
G01*
X126027600Y-16128450D01*
X126627600Y-16128450D01*
X126027600Y-16728450D01*
G37*
%TO.C,LED18*%
X64476400Y-32533525D02*
X63876400Y-32533525D01*
X64476400Y-31933525D01*
X64476400Y-32533525D01*
G36*
X64476400Y-32533525D02*
G01*
X63876400Y-32533525D01*
X64476400Y-31933525D01*
X64476400Y-32533525D01*
G37*
D12*
%TO.C,D13*%
X191761250Y-4667525D02*
X191761250Y-8907525D01*
X191761250Y-8067525D02*
X194001250Y-8067525D01*
X191761250Y-8187525D02*
X194001250Y-8187525D01*
X191761250Y-8307525D02*
X194001250Y-8307525D01*
X191761250Y-8907525D02*
X194001250Y-8907525D01*
X192881250Y-4667525D02*
X192881250Y-4017525D01*
X192881250Y-8907525D02*
X192881250Y-9557525D01*
X194001250Y-4667525D02*
X191761250Y-4667525D01*
X194001250Y-8907525D02*
X194001250Y-4667525D01*
%TO.C,D2*%
X20311250Y-4191275D02*
X20311250Y-8431275D01*
X20311250Y-7591275D02*
X22551250Y-7591275D01*
X20311250Y-7711275D02*
X22551250Y-7711275D01*
X20311250Y-7831275D02*
X22551250Y-7831275D01*
X20311250Y-8431275D02*
X22551250Y-8431275D01*
X21431250Y-4191275D02*
X21431250Y-3541275D01*
X21431250Y-8431275D02*
X21431250Y-9081275D01*
X22551250Y-4191275D02*
X20311250Y-4191275D01*
X22551250Y-8431275D02*
X22551250Y-4191275D01*
%TO.C,D17*%
X1261250Y-23717525D02*
X1261250Y-27957525D01*
X1261250Y-27117525D02*
X3501250Y-27117525D01*
X1261250Y-27237525D02*
X3501250Y-27237525D01*
X1261250Y-27357525D02*
X3501250Y-27357525D01*
X1261250Y-27957525D02*
X3501250Y-27957525D01*
X2381250Y-23717525D02*
X2381250Y-23067525D01*
X2381250Y-27957525D02*
X2381250Y-28607525D01*
X3501250Y-23717525D02*
X1261250Y-23717525D01*
X3501250Y-27957525D02*
X3501250Y-23717525D01*
%TO.C,D42*%
X153661250Y-66580025D02*
X153661250Y-70820025D01*
X153661250Y-69980025D02*
X155901250Y-69980025D01*
X153661250Y-70100025D02*
X155901250Y-70100025D01*
X153661250Y-70220025D02*
X155901250Y-70220025D01*
X153661250Y-70820025D02*
X155901250Y-70820025D01*
X154781250Y-66580025D02*
X154781250Y-65930025D01*
X154781250Y-70820025D02*
X154781250Y-71470025D01*
X155901250Y-66580025D02*
X153661250Y-66580025D01*
X155901250Y-70820025D02*
X155901250Y-66580025D01*
%TO.C,D53*%
X229861250Y-52292525D02*
X229861250Y-56532525D01*
X229861250Y-55692525D02*
X232101250Y-55692525D01*
X229861250Y-55812525D02*
X232101250Y-55812525D01*
X229861250Y-55932525D02*
X232101250Y-55932525D01*
X229861250Y-56532525D02*
X232101250Y-56532525D01*
X230981250Y-52292525D02*
X230981250Y-51642525D01*
X230981250Y-56532525D02*
X230981250Y-57182525D01*
X232101250Y-52292525D02*
X229861250Y-52292525D01*
X232101250Y-56532525D02*
X232101250Y-52292525D01*
%TO.C,D23*%
X248911250Y-61341275D02*
X248911250Y-65581275D01*
X248911250Y-64741275D02*
X251151250Y-64741275D01*
X248911250Y-64861275D02*
X251151250Y-64861275D01*
X248911250Y-64981275D02*
X251151250Y-64981275D01*
X248911250Y-65581275D02*
X251151250Y-65581275D01*
X250031250Y-61341275D02*
X250031250Y-60691275D01*
X250031250Y-65581275D02*
X250031250Y-66231275D01*
X251151250Y-61341275D02*
X248911250Y-61341275D01*
X251151250Y-65581275D02*
X251151250Y-61341275D01*
%TO.C,D44*%
X172711250Y-47530025D02*
X172711250Y-51770025D01*
X172711250Y-50930025D02*
X174951250Y-50930025D01*
X172711250Y-51050025D02*
X174951250Y-51050025D01*
X172711250Y-51170025D02*
X174951250Y-51170025D01*
X172711250Y-51770025D02*
X174951250Y-51770025D01*
X173831250Y-47530025D02*
X173831250Y-46880025D01*
X173831250Y-51770025D02*
X173831250Y-52420025D01*
X174951250Y-47530025D02*
X172711250Y-47530025D01*
X174951250Y-51770025D02*
X174951250Y-47530025D01*
%TO.C,D26*%
X20311250Y-52292525D02*
X20311250Y-56532525D01*
X20311250Y-55692525D02*
X22551250Y-55692525D01*
X20311250Y-55812525D02*
X22551250Y-55812525D01*
X20311250Y-55932525D02*
X22551250Y-55932525D01*
X20311250Y-56532525D02*
X22551250Y-56532525D01*
X21431250Y-52292525D02*
X21431250Y-51642525D01*
X21431250Y-56532525D02*
X21431250Y-57182525D01*
X22551250Y-52292525D02*
X20311250Y-52292525D01*
X22551250Y-56532525D02*
X22551250Y-52292525D01*
%TO.C,D45*%
X172711250Y-66580025D02*
X172711250Y-70820025D01*
X172711250Y-69980025D02*
X174951250Y-69980025D01*
X172711250Y-70100025D02*
X174951250Y-70100025D01*
X172711250Y-70220025D02*
X174951250Y-70220025D01*
X172711250Y-70820025D02*
X174951250Y-70820025D01*
X173831250Y-66580025D02*
X173831250Y-65930025D01*
X173831250Y-70820025D02*
X173831250Y-71470025D01*
X174951250Y-66580025D02*
X172711250Y-66580025D01*
X174951250Y-70820025D02*
X174951250Y-66580025D01*
%TO.C,D34*%
X77461250Y-28480025D02*
X77461250Y-32720025D01*
X77461250Y-31880025D02*
X79701250Y-31880025D01*
X77461250Y-32000025D02*
X79701250Y-32000025D01*
X77461250Y-32120025D02*
X79701250Y-32120025D01*
X77461250Y-32720025D02*
X79701250Y-32720025D01*
X78581250Y-28480025D02*
X78581250Y-27830025D01*
X78581250Y-32720025D02*
X78581250Y-33370025D01*
X79701250Y-28480025D02*
X77461250Y-28480025D01*
X79701250Y-32720025D02*
X79701250Y-28480025D01*
%TO.C,D24*%
X248911250Y-80867525D02*
X248911250Y-85107525D01*
X248911250Y-84267525D02*
X251151250Y-84267525D01*
X248911250Y-84387525D02*
X251151250Y-84387525D01*
X248911250Y-84507525D02*
X251151250Y-84507525D01*
X248911250Y-85107525D02*
X251151250Y-85107525D01*
X250031250Y-80867525D02*
X250031250Y-80217525D01*
X250031250Y-85107525D02*
X250031250Y-85757525D01*
X251151250Y-80867525D02*
X248911250Y-80867525D01*
X251151250Y-85107525D02*
X251151250Y-80867525D01*
%TO.C,D28*%
X39361250Y-28480025D02*
X39361250Y-32720025D01*
X39361250Y-31880025D02*
X41601250Y-31880025D01*
X39361250Y-32000025D02*
X41601250Y-32000025D01*
X39361250Y-32120025D02*
X41601250Y-32120025D01*
X39361250Y-32720025D02*
X41601250Y-32720025D01*
X40481250Y-28480025D02*
X40481250Y-27830025D01*
X40481250Y-32720025D02*
X40481250Y-33370025D01*
X41601250Y-28480025D02*
X39361250Y-28480025D01*
X41601250Y-32720025D02*
X41601250Y-28480025D01*
%TO.C,D39*%
X96511250Y-66580025D02*
X96511250Y-70820025D01*
X96511250Y-69980025D02*
X98751250Y-69980025D01*
X96511250Y-70100025D02*
X98751250Y-70100025D01*
X96511250Y-70220025D02*
X98751250Y-70220025D01*
X96511250Y-70820025D02*
X98751250Y-70820025D01*
X97631250Y-66580025D02*
X97631250Y-65930025D01*
X97631250Y-70820025D02*
X97631250Y-71470025D01*
X98751250Y-66580025D02*
X96511250Y-66580025D01*
X98751250Y-70820025D02*
X98751250Y-66580025D01*
%TO.C,D41*%
X153661250Y-47530025D02*
X153661250Y-51770025D01*
X153661250Y-50930025D02*
X155901250Y-50930025D01*
X153661250Y-51050025D02*
X155901250Y-51050025D01*
X153661250Y-51170025D02*
X155901250Y-51170025D01*
X153661250Y-51770025D02*
X155901250Y-51770025D01*
X154781250Y-47530025D02*
X154781250Y-46880025D01*
X154781250Y-51770025D02*
X154781250Y-52420025D01*
X155901250Y-47530025D02*
X153661250Y-47530025D01*
X155901250Y-51770025D02*
X155901250Y-47530025D01*
%TO.C,D56*%
X60792500Y-85630025D02*
X60792500Y-89870025D01*
X60792500Y-89030025D02*
X63032500Y-89030025D01*
X60792500Y-89150025D02*
X63032500Y-89150025D01*
X60792500Y-89270025D02*
X63032500Y-89270025D01*
X60792500Y-89870025D02*
X63032500Y-89870025D01*
X61912500Y-85630025D02*
X61912500Y-84980025D01*
X61912500Y-89870025D02*
X61912500Y-90520025D01*
X63032500Y-85630025D02*
X60792500Y-85630025D01*
X63032500Y-89870025D02*
X63032500Y-85630025D01*
%TO.C,D7*%
X77461250Y-4667525D02*
X77461250Y-8907525D01*
X77461250Y-8067525D02*
X79701250Y-8067525D01*
X77461250Y-8187525D02*
X79701250Y-8187525D01*
X77461250Y-8307525D02*
X79701250Y-8307525D01*
X77461250Y-8907525D02*
X79701250Y-8907525D01*
X78581250Y-4667525D02*
X78581250Y-4017525D01*
X78581250Y-8907525D02*
X78581250Y-9557525D01*
X79701250Y-4667525D02*
X77461250Y-4667525D01*
X79701250Y-8907525D02*
X79701250Y-4667525D01*
%TO.C,D6*%
X58411250Y-4191275D02*
X58411250Y-8431275D01*
X58411250Y-7591275D02*
X60651250Y-7591275D01*
X58411250Y-7711275D02*
X60651250Y-7711275D01*
X58411250Y-7831275D02*
X60651250Y-7831275D01*
X58411250Y-8431275D02*
X60651250Y-8431275D01*
X59531250Y-4191275D02*
X59531250Y-3541275D01*
X59531250Y-8431275D02*
X59531250Y-9081275D01*
X60651250Y-4191275D02*
X58411250Y-4191275D01*
X60651250Y-8431275D02*
X60651250Y-4191275D01*
%TO.C,D37*%
X96511250Y-28480025D02*
X96511250Y-32720025D01*
X96511250Y-31880025D02*
X98751250Y-31880025D01*
X96511250Y-32000025D02*
X98751250Y-32000025D01*
X96511250Y-32120025D02*
X98751250Y-32120025D01*
X96511250Y-32720025D02*
X98751250Y-32720025D01*
X97631250Y-28480025D02*
X97631250Y-27830025D01*
X97631250Y-32720025D02*
X97631250Y-33370025D01*
X98751250Y-28480025D02*
X96511250Y-28480025D01*
X98751250Y-32720025D02*
X98751250Y-28480025D01*
%TO.C,D14*%
X210811250Y-4667525D02*
X210811250Y-8907525D01*
X210811250Y-8067525D02*
X213051250Y-8067525D01*
X210811250Y-8187525D02*
X213051250Y-8187525D01*
X210811250Y-8307525D02*
X213051250Y-8307525D01*
X210811250Y-8907525D02*
X213051250Y-8907525D01*
X211931250Y-4667525D02*
X211931250Y-4017525D01*
X211931250Y-8907525D02*
X211931250Y-9557525D01*
X213051250Y-4667525D02*
X210811250Y-4667525D01*
X213051250Y-8907525D02*
X213051250Y-4667525D01*
%TO.C,D38*%
X96511250Y-47530025D02*
X96511250Y-51770025D01*
X96511250Y-50930025D02*
X98751250Y-50930025D01*
X96511250Y-51050025D02*
X98751250Y-51050025D01*
X96511250Y-51170025D02*
X98751250Y-51170025D01*
X96511250Y-51770025D02*
X98751250Y-51770025D01*
X97631250Y-47530025D02*
X97631250Y-46880025D01*
X97631250Y-51770025D02*
X97631250Y-52420025D01*
X98751250Y-47530025D02*
X96511250Y-47530025D01*
X98751250Y-51770025D02*
X98751250Y-47530025D01*
%TO.C,D25*%
X20311250Y-33242525D02*
X20311250Y-37482525D01*
X20311250Y-36642525D02*
X22551250Y-36642525D01*
X20311250Y-36762525D02*
X22551250Y-36762525D01*
X20311250Y-36882525D02*
X22551250Y-36882525D01*
X20311250Y-37482525D02*
X22551250Y-37482525D01*
X21431250Y-33242525D02*
X21431250Y-32592525D01*
X21431250Y-37482525D02*
X21431250Y-38132525D01*
X22551250Y-33242525D02*
X20311250Y-33242525D01*
X22551250Y-37482525D02*
X22551250Y-33242525D01*
%TO.C,D59*%
X167952450Y-85630025D02*
X167952450Y-89870025D01*
X167952450Y-89030025D02*
X170192450Y-89030025D01*
X167952450Y-89150025D02*
X170192450Y-89150025D01*
X167952450Y-89270025D02*
X170192450Y-89270025D01*
X167952450Y-89870025D02*
X170192450Y-89870025D01*
X169072450Y-85630025D02*
X169072450Y-84980025D01*
X169072450Y-89870025D02*
X169072450Y-90520025D01*
X170192450Y-85630025D02*
X167952450Y-85630025D01*
X170192450Y-89870025D02*
X170192450Y-85630025D01*
%TO.C,D57*%
X84605000Y-85630025D02*
X84605000Y-89870025D01*
X84605000Y-89030025D02*
X86845000Y-89030025D01*
X84605000Y-89150025D02*
X86845000Y-89150025D01*
X84605000Y-89270025D02*
X86845000Y-89270025D01*
X84605000Y-89870025D02*
X86845000Y-89870025D01*
X85725000Y-85630025D02*
X85725000Y-84980025D01*
X85725000Y-89870025D02*
X85725000Y-90520025D01*
X86845000Y-85630025D02*
X84605000Y-85630025D01*
X86845000Y-89870025D02*
X86845000Y-85630025D01*
%TO.C,D5*%
X39361250Y-4191275D02*
X39361250Y-8431275D01*
X39361250Y-7591275D02*
X41601250Y-7591275D01*
X39361250Y-7711275D02*
X41601250Y-7711275D01*
X39361250Y-7831275D02*
X41601250Y-7831275D01*
X39361250Y-8431275D02*
X41601250Y-8431275D01*
X40481250Y-4191275D02*
X40481250Y-3541275D01*
X40481250Y-8431275D02*
X40481250Y-9081275D01*
X41601250Y-4191275D02*
X39361250Y-4191275D01*
X41601250Y-8431275D02*
X41601250Y-4191275D01*
%TO.C,D49*%
X210811250Y-28480025D02*
X210811250Y-32720025D01*
X210811250Y-31880025D02*
X213051250Y-31880025D01*
X210811250Y-32000025D02*
X213051250Y-32000025D01*
X210811250Y-32120025D02*
X213051250Y-32120025D01*
X210811250Y-32720025D02*
X213051250Y-32720025D01*
X211931250Y-28480025D02*
X211931250Y-27830025D01*
X211931250Y-32720025D02*
X211931250Y-33370025D01*
X213051250Y-28480025D02*
X210811250Y-28480025D01*
X213051250Y-32720025D02*
X213051250Y-28480025D01*
%TO.C,D54*%
X229861250Y-71342525D02*
X229861250Y-75582525D01*
X229861250Y-74742525D02*
X232101250Y-74742525D01*
X229861250Y-74862525D02*
X232101250Y-74862525D01*
X229861250Y-74982525D02*
X232101250Y-74982525D01*
X229861250Y-75582525D02*
X232101250Y-75582525D01*
X230981250Y-71342525D02*
X230981250Y-70692525D01*
X230981250Y-75582525D02*
X230981250Y-76232525D01*
X232101250Y-71342525D02*
X229861250Y-71342525D01*
X232101250Y-75582525D02*
X232101250Y-71342525D01*
%TO.C,D61*%
X210811250Y-85630025D02*
X210811250Y-89870025D01*
X210811250Y-89030025D02*
X213051250Y-89030025D01*
X210811250Y-89150025D02*
X213051250Y-89150025D01*
X210811250Y-89270025D02*
X213051250Y-89270025D01*
X210811250Y-89870025D02*
X213051250Y-89870025D01*
X211931250Y-85630025D02*
X211931250Y-84980025D01*
X211931250Y-89870025D02*
X211931250Y-90520025D01*
X213051250Y-85630025D02*
X210811250Y-85630025D01*
X213051250Y-89870025D02*
X213051250Y-85630025D01*
%TO.C,D40*%
X153661250Y-28480025D02*
X153661250Y-32720025D01*
X153661250Y-31880025D02*
X155901250Y-31880025D01*
X153661250Y-32000025D02*
X155901250Y-32000025D01*
X153661250Y-32120025D02*
X155901250Y-32120025D01*
X153661250Y-32720025D02*
X155901250Y-32720025D01*
X154781250Y-28480025D02*
X154781250Y-27830025D01*
X154781250Y-32720025D02*
X154781250Y-33370025D01*
X155901250Y-28480025D02*
X153661250Y-28480025D01*
X155901250Y-32720025D02*
X155901250Y-28480025D01*
%TO.C,D20*%
X1261250Y-80867525D02*
X1261250Y-85107525D01*
X1261250Y-84267525D02*
X3501250Y-84267525D01*
X1261250Y-84387525D02*
X3501250Y-84387525D01*
X1261250Y-84507525D02*
X3501250Y-84507525D01*
X1261250Y-85107525D02*
X3501250Y-85107525D01*
X2381250Y-80867525D02*
X2381250Y-80217525D01*
X2381250Y-85107525D02*
X2381250Y-85757525D01*
X3501250Y-80867525D02*
X1261250Y-80867525D01*
X3501250Y-85107525D02*
X3501250Y-80867525D01*
%TO.C,D11*%
X153661250Y-4667525D02*
X153661250Y-8907525D01*
X153661250Y-8067525D02*
X155901250Y-8067525D01*
X153661250Y-8187525D02*
X155901250Y-8187525D01*
X153661250Y-8307525D02*
X155901250Y-8307525D01*
X153661250Y-8907525D02*
X155901250Y-8907525D01*
X154781250Y-4667525D02*
X154781250Y-4017525D01*
X154781250Y-8907525D02*
X154781250Y-9557525D01*
X155901250Y-4667525D02*
X153661250Y-4667525D01*
X155901250Y-8907525D02*
X155901250Y-4667525D01*
%TO.C,D1*%
X1260900Y-4191275D02*
X1260900Y-8431275D01*
X1260900Y-7591275D02*
X3500900Y-7591275D01*
X1260900Y-7711275D02*
X3500900Y-7711275D01*
X1260900Y-7831275D02*
X3500900Y-7831275D01*
X1260900Y-8431275D02*
X3500900Y-8431275D01*
X2380900Y-4191275D02*
X2380900Y-3541275D01*
X2380900Y-8431275D02*
X2380900Y-9081275D01*
X3500900Y-4191275D02*
X1260900Y-4191275D01*
X3500900Y-8431275D02*
X3500900Y-4191275D01*
%TO.C,D19*%
X1261250Y-61817525D02*
X1261250Y-66057525D01*
X1261250Y-65217525D02*
X3501250Y-65217525D01*
X1261250Y-65337525D02*
X3501250Y-65337525D01*
X1261250Y-65457525D02*
X3501250Y-65457525D01*
X1261250Y-66057525D02*
X3501250Y-66057525D01*
X2381250Y-61817525D02*
X2381250Y-61167525D01*
X2381250Y-66057525D02*
X2381250Y-66707525D01*
X3501250Y-61817525D02*
X1261250Y-61817525D01*
X3501250Y-66057525D02*
X3501250Y-61817525D01*
%TO.C,D50*%
X210811250Y-47530025D02*
X210811250Y-51770025D01*
X210811250Y-50930025D02*
X213051250Y-50930025D01*
X210811250Y-51050025D02*
X213051250Y-51050025D01*
X210811250Y-51170025D02*
X213051250Y-51170025D01*
X210811250Y-51770025D02*
X213051250Y-51770025D01*
X211931250Y-47530025D02*
X211931250Y-46880025D01*
X211931250Y-51770025D02*
X211931250Y-52420025D01*
X213051250Y-47530025D02*
X210811250Y-47530025D01*
X213051250Y-51770025D02*
X213051250Y-47530025D01*
%TO.C,D9*%
X115561250Y-4667525D02*
X115561250Y-8907525D01*
X115561250Y-8067525D02*
X117801250Y-8067525D01*
X115561250Y-8187525D02*
X117801250Y-8187525D01*
X115561250Y-8307525D02*
X117801250Y-8307525D01*
X115561250Y-8907525D02*
X117801250Y-8907525D01*
X116681250Y-4667525D02*
X116681250Y-4017525D01*
X116681250Y-8907525D02*
X116681250Y-9557525D01*
X117801250Y-4667525D02*
X115561250Y-4667525D01*
X117801250Y-8907525D02*
X117801250Y-4667525D01*
%TO.C,D8*%
X96511250Y-4667525D02*
X96511250Y-8907525D01*
X96511250Y-8067525D02*
X98751250Y-8067525D01*
X96511250Y-8187525D02*
X98751250Y-8187525D01*
X96511250Y-8307525D02*
X98751250Y-8307525D01*
X96511250Y-8907525D02*
X98751250Y-8907525D01*
X97631250Y-4667525D02*
X97631250Y-4017525D01*
X97631250Y-8907525D02*
X97631250Y-9557525D01*
X98751250Y-4667525D02*
X96511250Y-4667525D01*
X98751250Y-8907525D02*
X98751250Y-4667525D01*
%TO.C,D27*%
X20311250Y-71342525D02*
X20311250Y-75582525D01*
X20311250Y-74742525D02*
X22551250Y-74742525D01*
X20311250Y-74862525D02*
X22551250Y-74862525D01*
X20311250Y-74982525D02*
X22551250Y-74982525D01*
X20311250Y-75582525D02*
X22551250Y-75582525D01*
X21431250Y-71342525D02*
X21431250Y-70692525D01*
X21431250Y-75582525D02*
X21431250Y-76232525D01*
X22551250Y-71342525D02*
X20311250Y-71342525D01*
X22551250Y-75582525D02*
X22551250Y-71342525D01*
%TO.C,D33*%
X58411250Y-61817525D02*
X58411250Y-66057525D01*
X58411250Y-65217525D02*
X60651250Y-65217525D01*
X58411250Y-65337525D02*
X60651250Y-65337525D01*
X58411250Y-65457525D02*
X60651250Y-65457525D01*
X58411250Y-66057525D02*
X60651250Y-66057525D01*
X59531250Y-61817525D02*
X59531250Y-61167525D01*
X59531250Y-66057525D02*
X59531250Y-66707525D01*
X60651250Y-61817525D02*
X58411250Y-61817525D01*
X60651250Y-66057525D02*
X60651250Y-61817525D01*
%TO.C,D30*%
X39361250Y-66580025D02*
X39361250Y-70820025D01*
X39361250Y-69980025D02*
X41601250Y-69980025D01*
X39361250Y-70100025D02*
X41601250Y-70100025D01*
X39361250Y-70220025D02*
X41601250Y-70220025D01*
X39361250Y-70820025D02*
X41601250Y-70820025D01*
X40481250Y-66580025D02*
X40481250Y-65930025D01*
X40481250Y-70820025D02*
X40481250Y-71470025D01*
X41601250Y-66580025D02*
X39361250Y-66580025D01*
X41601250Y-70820025D02*
X41601250Y-66580025D01*
%TO.C,D15*%
X229861250Y-4667525D02*
X229861250Y-8907525D01*
X229861250Y-8067525D02*
X232101250Y-8067525D01*
X229861250Y-8187525D02*
X232101250Y-8187525D01*
X229861250Y-8307525D02*
X232101250Y-8307525D01*
X229861250Y-8907525D02*
X232101250Y-8907525D01*
X230981250Y-4667525D02*
X230981250Y-4017525D01*
X230981250Y-8907525D02*
X230981250Y-9557525D01*
X232101250Y-4667525D02*
X229861250Y-4667525D01*
X232101250Y-8907525D02*
X232101250Y-4667525D01*
%TO.C,D52*%
X229861250Y-33242525D02*
X229861250Y-37482525D01*
X229861250Y-36642525D02*
X232101250Y-36642525D01*
X229861250Y-36762525D02*
X232101250Y-36762525D01*
X229861250Y-36882525D02*
X232101250Y-36882525D01*
X229861250Y-37482525D02*
X232101250Y-37482525D01*
X230981250Y-33242525D02*
X230981250Y-32592525D01*
X230981250Y-37482525D02*
X230981250Y-38132525D01*
X232101250Y-33242525D02*
X229861250Y-33242525D01*
X232101250Y-37482525D02*
X232101250Y-33242525D01*
%TO.C,D16*%
X248911250Y-4667525D02*
X248911250Y-8907525D01*
X248911250Y-8067525D02*
X251151250Y-8067525D01*
X248911250Y-8187525D02*
X251151250Y-8187525D01*
X248911250Y-8307525D02*
X251151250Y-8307525D01*
X248911250Y-8907525D02*
X251151250Y-8907525D01*
X250031250Y-4667525D02*
X250031250Y-4017525D01*
X250031250Y-8907525D02*
X250031250Y-9557525D01*
X251151250Y-4667525D02*
X248911250Y-4667525D01*
X251151250Y-8907525D02*
X251151250Y-4667525D01*
%TO.C,D31*%
X58411250Y-23717525D02*
X58411250Y-27957525D01*
X58411250Y-27117525D02*
X60651250Y-27117525D01*
X58411250Y-27237525D02*
X60651250Y-27237525D01*
X58411250Y-27357525D02*
X60651250Y-27357525D01*
X58411250Y-27957525D02*
X60651250Y-27957525D01*
X59531250Y-23717525D02*
X59531250Y-23067525D01*
X59531250Y-27957525D02*
X59531250Y-28607525D01*
X60651250Y-23717525D02*
X58411250Y-23717525D01*
X60651250Y-27957525D02*
X60651250Y-23717525D01*
%TO.C,D43*%
X172711250Y-28480025D02*
X172711250Y-32720025D01*
X172711250Y-31880025D02*
X174951250Y-31880025D01*
X172711250Y-32000025D02*
X174951250Y-32000025D01*
X172711250Y-32120025D02*
X174951250Y-32120025D01*
X172711250Y-32720025D02*
X174951250Y-32720025D01*
X173831250Y-28480025D02*
X173831250Y-27830025D01*
X173831250Y-32720025D02*
X173831250Y-33370025D01*
X174951250Y-28480025D02*
X172711250Y-28480025D01*
X174951250Y-32720025D02*
X174951250Y-28480025D01*
%TO.C,D36*%
X77461250Y-66580025D02*
X77461250Y-70820025D01*
X77461250Y-69980025D02*
X79701250Y-69980025D01*
X77461250Y-70100025D02*
X79701250Y-70100025D01*
X77461250Y-70220025D02*
X79701250Y-70220025D01*
X77461250Y-70820025D02*
X79701250Y-70820025D01*
X78581250Y-66580025D02*
X78581250Y-65930025D01*
X78581250Y-70820025D02*
X78581250Y-71470025D01*
X79701250Y-66580025D02*
X77461250Y-66580025D01*
X79701250Y-70820025D02*
X79701250Y-66580025D01*
%TO.C,D32*%
X58411250Y-42767525D02*
X58411250Y-47007525D01*
X58411250Y-46167525D02*
X60651250Y-46167525D01*
X58411250Y-46287525D02*
X60651250Y-46287525D01*
X58411250Y-46407525D02*
X60651250Y-46407525D01*
X58411250Y-47007525D02*
X60651250Y-47007525D01*
X59531250Y-42767525D02*
X59531250Y-42117525D01*
X59531250Y-47007525D02*
X59531250Y-47657525D01*
X60651250Y-42767525D02*
X58411250Y-42767525D01*
X60651250Y-47007525D02*
X60651250Y-42767525D01*
%TO.C,D35*%
X77461250Y-47530025D02*
X77461250Y-51770025D01*
X77461250Y-50930025D02*
X79701250Y-50930025D01*
X77461250Y-51050025D02*
X79701250Y-51050025D01*
X77461250Y-51170025D02*
X79701250Y-51170025D01*
X77461250Y-51770025D02*
X79701250Y-51770025D01*
X78581250Y-47530025D02*
X78581250Y-46880025D01*
X78581250Y-51770025D02*
X78581250Y-52420025D01*
X79701250Y-47530025D02*
X77461250Y-47530025D01*
X79701250Y-51770025D02*
X79701250Y-47530025D01*
%TO.C,D18*%
X1261250Y-41338775D02*
X1261250Y-45578775D01*
X1261250Y-44738775D02*
X3501250Y-44738775D01*
X1261250Y-44858775D02*
X3501250Y-44858775D01*
X1261250Y-44978775D02*
X3501250Y-44978775D01*
X1261250Y-45578775D02*
X3501250Y-45578775D01*
X2381250Y-41338775D02*
X2381250Y-40688775D01*
X2381250Y-45578775D02*
X2381250Y-46228775D01*
X3501250Y-41338775D02*
X1261250Y-41338775D01*
X3501250Y-45578775D02*
X3501250Y-41338775D01*
%TO.C,D47*%
X191761250Y-42767525D02*
X191761250Y-47007525D01*
X191761250Y-46167525D02*
X194001250Y-46167525D01*
X191761250Y-46287525D02*
X194001250Y-46287525D01*
X191761250Y-46407525D02*
X194001250Y-46407525D01*
X191761250Y-47007525D02*
X194001250Y-47007525D01*
X192881250Y-42767525D02*
X192881250Y-42117525D01*
X192881250Y-47007525D02*
X192881250Y-47657525D01*
X194001250Y-42767525D02*
X191761250Y-42767525D01*
X194001250Y-47007525D02*
X194001250Y-42767525D01*
%TO.C,D21*%
X248911250Y-23717525D02*
X248911250Y-27957525D01*
X248911250Y-27117525D02*
X251151250Y-27117525D01*
X248911250Y-27237525D02*
X251151250Y-27237525D01*
X248911250Y-27357525D02*
X251151250Y-27357525D01*
X248911250Y-27957525D02*
X251151250Y-27957525D01*
X250031250Y-23717525D02*
X250031250Y-23067525D01*
X250031250Y-27957525D02*
X250031250Y-28607525D01*
X251151250Y-23717525D02*
X248911250Y-23717525D01*
X251151250Y-27957525D02*
X251151250Y-23717525D01*
%TO.C,D10*%
X134611250Y-4667525D02*
X134611250Y-8907525D01*
X134611250Y-8067525D02*
X136851250Y-8067525D01*
X134611250Y-8187525D02*
X136851250Y-8187525D01*
X134611250Y-8307525D02*
X136851250Y-8307525D01*
X134611250Y-8907525D02*
X136851250Y-8907525D01*
X135731250Y-4667525D02*
X135731250Y-4017525D01*
X135731250Y-8907525D02*
X135731250Y-9557525D01*
X136851250Y-4667525D02*
X134611250Y-4667525D01*
X136851250Y-8907525D02*
X136851250Y-4667525D01*
%TO.C,D12*%
X172711250Y-4667525D02*
X172711250Y-8907525D01*
X172711250Y-8067525D02*
X174951250Y-8067525D01*
X172711250Y-8187525D02*
X174951250Y-8187525D01*
X172711250Y-8307525D02*
X174951250Y-8307525D01*
X172711250Y-8907525D02*
X174951250Y-8907525D01*
X173831250Y-4667525D02*
X173831250Y-4017525D01*
X173831250Y-8907525D02*
X173831250Y-9557525D01*
X174951250Y-4667525D02*
X172711250Y-4667525D01*
X174951250Y-8907525D02*
X174951250Y-4667525D01*
%TO.C,D29*%
X39361250Y-47530025D02*
X39361250Y-51770025D01*
X39361250Y-50930025D02*
X41601250Y-50930025D01*
X39361250Y-51050025D02*
X41601250Y-51050025D01*
X39361250Y-51170025D02*
X41601250Y-51170025D01*
X39361250Y-51770025D02*
X41601250Y-51770025D01*
X40481250Y-47530025D02*
X40481250Y-46880025D01*
X40481250Y-51770025D02*
X40481250Y-52420025D01*
X41601250Y-47530025D02*
X39361250Y-47530025D01*
X41601250Y-51770025D02*
X41601250Y-47530025D01*
%TO.C,D48*%
X191761250Y-61817525D02*
X191761250Y-66057525D01*
X191761250Y-65217525D02*
X194001250Y-65217525D01*
X191761250Y-65337525D02*
X194001250Y-65337525D01*
X191761250Y-65457525D02*
X194001250Y-65457525D01*
X191761250Y-66057525D02*
X194001250Y-66057525D01*
X192881250Y-61817525D02*
X192881250Y-61167525D01*
X192881250Y-66057525D02*
X192881250Y-66707525D01*
X194001250Y-61817525D02*
X191761250Y-61817525D01*
X194001250Y-66057525D02*
X194001250Y-61817525D01*
%TO.C,D55*%
X39361250Y-85630025D02*
X39361250Y-89870025D01*
X39361250Y-89030025D02*
X41601250Y-89030025D01*
X39361250Y-89150025D02*
X41601250Y-89150025D01*
X39361250Y-89270025D02*
X41601250Y-89270025D01*
X39361250Y-89870025D02*
X41601250Y-89870025D01*
X40481250Y-85630025D02*
X40481250Y-84980025D01*
X40481250Y-89870025D02*
X40481250Y-90520025D01*
X41601250Y-85630025D02*
X39361250Y-85630025D01*
X41601250Y-89870025D02*
X41601250Y-85630025D01*
%TO.C,D60*%
X189383950Y-85631725D02*
X189383950Y-89871725D01*
X189383950Y-89031725D02*
X191623950Y-89031725D01*
X189383950Y-89151725D02*
X191623950Y-89151725D01*
X189383950Y-89271725D02*
X191623950Y-89271725D01*
X189383950Y-89871725D02*
X191623950Y-89871725D01*
X190503950Y-85631725D02*
X190503950Y-84981725D01*
X190503950Y-89871725D02*
X190503950Y-90521725D01*
X191623950Y-85631725D02*
X189383950Y-85631725D01*
X191623950Y-89871725D02*
X191623950Y-85631725D01*
%TO.C,D46*%
X191761250Y-23717525D02*
X191761250Y-27957525D01*
X191761250Y-27117525D02*
X194001250Y-27117525D01*
X191761250Y-27237525D02*
X194001250Y-27237525D01*
X191761250Y-27357525D02*
X194001250Y-27357525D01*
X191761250Y-27957525D02*
X194001250Y-27957525D01*
X192881250Y-23717525D02*
X192881250Y-23067525D01*
X192881250Y-27957525D02*
X192881250Y-28607525D01*
X194001250Y-23717525D02*
X191761250Y-23717525D01*
X194001250Y-27957525D02*
X194001250Y-23717525D01*
%TO.C,D51*%
X210811250Y-66580025D02*
X210811250Y-70820025D01*
X210811250Y-69980025D02*
X213051250Y-69980025D01*
X210811250Y-70100025D02*
X213051250Y-70100025D01*
X210811250Y-70220025D02*
X213051250Y-70220025D01*
X210811250Y-70820025D02*
X213051250Y-70820025D01*
X211931250Y-66580025D02*
X211931250Y-65930025D01*
X211931250Y-70820025D02*
X211931250Y-71470025D01*
X213051250Y-66580025D02*
X210811250Y-66580025D01*
X213051250Y-70820025D02*
X213051250Y-66580025D01*
%TO.C,D58*%
X125086250Y-85630025D02*
X125086250Y-89870025D01*
X125086250Y-89030025D02*
X127326250Y-89030025D01*
X125086250Y-89150025D02*
X127326250Y-89150025D01*
X125086250Y-89270025D02*
X127326250Y-89270025D01*
X125086250Y-89870025D02*
X127326250Y-89870025D01*
X126206250Y-85630025D02*
X126206250Y-84980025D01*
X126206250Y-89870025D02*
X126206250Y-90520025D01*
X127326250Y-85630025D02*
X125086250Y-85630025D01*
X127326250Y-89870025D02*
X127326250Y-85630025D01*
%TO.C,D22*%
X248911250Y-42767525D02*
X248911250Y-47007525D01*
X248911250Y-46167525D02*
X251151250Y-46167525D01*
X248911250Y-46287525D02*
X251151250Y-46287525D01*
X248911250Y-46407525D02*
X251151250Y-46407525D01*
X248911250Y-47007525D02*
X251151250Y-47007525D01*
X250031250Y-42767525D02*
X250031250Y-42117525D01*
X250031250Y-47007525D02*
X250031250Y-47657525D01*
X251151250Y-42767525D02*
X248911250Y-42767525D01*
X251151250Y-47007525D02*
X251151250Y-42767525D01*
%TD*%
M02*
