%TF.GenerationSoftware,KiCad,Pcbnew,8.0.3*%
%TF.CreationDate,2024-11-08T10:21:23-08:00*%
%TF.ProjectId,return,72657475-726e-42e6-9b69-6361645f7063,rev?*%
%TF.SameCoordinates,Original*%
%TF.FileFunction,Legend,Top*%
%TF.FilePolarity,Positive*%
%FSLAX46Y46*%
G04 Gerber Fmt 4.6, Leading zero omitted, Abs format (unit mm)*
G04 Created by KiCad (PCBNEW 8.0.3) date 2024-11-08 10:21:23*
%MOMM*%
%LPD*%
G01*
G04 APERTURE LIST*
%ADD10C,0.150000*%
%ADD11C,0.120000*%
G04 APERTURE END LIST*
D10*
X236796666Y-21663144D02*
X236463333Y-21186953D01*
X236225238Y-21663144D02*
X236225238Y-20663144D01*
X236225238Y-20663144D02*
X236606190Y-20663144D01*
X236606190Y-20663144D02*
X236701428Y-20710763D01*
X236701428Y-20710763D02*
X236749047Y-20758382D01*
X236749047Y-20758382D02*
X236796666Y-20853620D01*
X236796666Y-20853620D02*
X236796666Y-20996477D01*
X236796666Y-20996477D02*
X236749047Y-21091715D01*
X236749047Y-21091715D02*
X236701428Y-21139334D01*
X236701428Y-21139334D02*
X236606190Y-21186953D01*
X236606190Y-21186953D02*
X236225238Y-21186953D01*
X237225238Y-21139334D02*
X237558571Y-21139334D01*
X237701428Y-21663144D02*
X237225238Y-21663144D01*
X237225238Y-21663144D02*
X237225238Y-20663144D01*
X237225238Y-20663144D02*
X237701428Y-20663144D01*
X238463333Y-21139334D02*
X238130000Y-21139334D01*
X238130000Y-21663144D02*
X238130000Y-20663144D01*
X238130000Y-20663144D02*
X238606190Y-20663144D01*
X239130000Y-20663144D02*
X239130000Y-20901239D01*
X238891905Y-20806001D02*
X239130000Y-20901239D01*
X239130000Y-20901239D02*
X239368095Y-20806001D01*
X238987143Y-21091715D02*
X239130000Y-20901239D01*
X239130000Y-20901239D02*
X239272857Y-21091715D01*
X239891905Y-20663144D02*
X239891905Y-20901239D01*
X239653810Y-20806001D02*
X239891905Y-20901239D01*
X239891905Y-20901239D02*
X240130000Y-20806001D01*
X239749048Y-21091715D02*
X239891905Y-20901239D01*
X239891905Y-20901239D02*
X240034762Y-21091715D01*
X27242266Y-21067819D02*
X26908933Y-20591628D01*
X26670838Y-21067819D02*
X26670838Y-20067819D01*
X26670838Y-20067819D02*
X27051790Y-20067819D01*
X27051790Y-20067819D02*
X27147028Y-20115438D01*
X27147028Y-20115438D02*
X27194647Y-20163057D01*
X27194647Y-20163057D02*
X27242266Y-20258295D01*
X27242266Y-20258295D02*
X27242266Y-20401152D01*
X27242266Y-20401152D02*
X27194647Y-20496390D01*
X27194647Y-20496390D02*
X27147028Y-20544009D01*
X27147028Y-20544009D02*
X27051790Y-20591628D01*
X27051790Y-20591628D02*
X26670838Y-20591628D01*
X27670838Y-20544009D02*
X28004171Y-20544009D01*
X28147028Y-21067819D02*
X27670838Y-21067819D01*
X27670838Y-21067819D02*
X27670838Y-20067819D01*
X27670838Y-20067819D02*
X28147028Y-20067819D01*
X28908933Y-20544009D02*
X28575600Y-20544009D01*
X28575600Y-21067819D02*
X28575600Y-20067819D01*
X28575600Y-20067819D02*
X29051790Y-20067819D01*
X29575600Y-20067819D02*
X29575600Y-20305914D01*
X29337505Y-20210676D02*
X29575600Y-20305914D01*
X29575600Y-20305914D02*
X29813695Y-20210676D01*
X29432743Y-20496390D02*
X29575600Y-20305914D01*
X29575600Y-20305914D02*
X29718457Y-20496390D01*
X30337505Y-20067819D02*
X30337505Y-20305914D01*
X30099410Y-20210676D02*
X30337505Y-20305914D01*
X30337505Y-20305914D02*
X30575600Y-20210676D01*
X30194648Y-20496390D02*
X30337505Y-20305914D01*
X30337505Y-20305914D02*
X30480362Y-20496390D01*
X239246667Y-60093091D02*
X239580000Y-60093091D01*
X239580000Y-60093091D02*
X239580000Y-60793091D01*
X239013333Y-60459758D02*
X238780000Y-60459758D01*
X238680000Y-60093091D02*
X239013333Y-60093091D01*
X239013333Y-60093091D02*
X239013333Y-60793091D01*
X239013333Y-60793091D02*
X238680000Y-60793091D01*
X238380000Y-60093091D02*
X238380000Y-60793091D01*
X238380000Y-60793091D02*
X238213333Y-60793091D01*
X238213333Y-60793091D02*
X238113333Y-60759758D01*
X238113333Y-60759758D02*
X238046667Y-60693091D01*
X238046667Y-60693091D02*
X238013333Y-60626425D01*
X238013333Y-60626425D02*
X237980000Y-60493091D01*
X237980000Y-60493091D02*
X237980000Y-60393091D01*
X237980000Y-60393091D02*
X238013333Y-60259758D01*
X238013333Y-60259758D02*
X238046667Y-60193091D01*
X238046667Y-60193091D02*
X238113333Y-60126425D01*
X238113333Y-60126425D02*
X238213333Y-60093091D01*
X238213333Y-60093091D02*
X238380000Y-60093091D01*
X237346667Y-60793091D02*
X237680000Y-60793091D01*
X237680000Y-60793091D02*
X237713333Y-60459758D01*
X237713333Y-60459758D02*
X237680000Y-60493091D01*
X237680000Y-60493091D02*
X237613333Y-60526425D01*
X237613333Y-60526425D02*
X237446667Y-60526425D01*
X237446667Y-60526425D02*
X237380000Y-60493091D01*
X237380000Y-60493091D02*
X237346667Y-60459758D01*
X237346667Y-60459758D02*
X237313333Y-60393091D01*
X237313333Y-60393091D02*
X237313333Y-60226425D01*
X237313333Y-60226425D02*
X237346667Y-60159758D01*
X237346667Y-60159758D02*
X237380000Y-60126425D01*
X237380000Y-60126425D02*
X237446667Y-60093091D01*
X237446667Y-60093091D02*
X237613333Y-60093091D01*
X237613333Y-60093091D02*
X237680000Y-60126425D01*
X237680000Y-60126425D02*
X237713333Y-60159758D01*
X236980000Y-60093091D02*
X236846666Y-60093091D01*
X236846666Y-60093091D02*
X236780000Y-60126425D01*
X236780000Y-60126425D02*
X236746666Y-60159758D01*
X236746666Y-60159758D02*
X236680000Y-60259758D01*
X236680000Y-60259758D02*
X236646666Y-60393091D01*
X236646666Y-60393091D02*
X236646666Y-60659758D01*
X236646666Y-60659758D02*
X236680000Y-60726425D01*
X236680000Y-60726425D02*
X236713333Y-60759758D01*
X236713333Y-60759758D02*
X236780000Y-60793091D01*
X236780000Y-60793091D02*
X236913333Y-60793091D01*
X236913333Y-60793091D02*
X236980000Y-60759758D01*
X236980000Y-60759758D02*
X237013333Y-60726425D01*
X237013333Y-60726425D02*
X237046666Y-60659758D01*
X237046666Y-60659758D02*
X237046666Y-60493091D01*
X237046666Y-60493091D02*
X237013333Y-60426425D01*
X237013333Y-60426425D02*
X236980000Y-60393091D01*
X236980000Y-60393091D02*
X236913333Y-60359758D01*
X236913333Y-60359758D02*
X236780000Y-60359758D01*
X236780000Y-60359758D02*
X236713333Y-60393091D01*
X236713333Y-60393091D02*
X236680000Y-60426425D01*
X236680000Y-60426425D02*
X236646666Y-60493091D01*
X256397067Y-17144483D02*
X256063733Y-17144483D01*
X256063733Y-17144483D02*
X256063733Y-16444483D01*
X256630400Y-16777816D02*
X256863734Y-16777816D01*
X256963734Y-17144483D02*
X256630400Y-17144483D01*
X256630400Y-17144483D02*
X256630400Y-16444483D01*
X256630400Y-16444483D02*
X256963734Y-16444483D01*
X257263733Y-17144483D02*
X257263733Y-16444483D01*
X257263733Y-16444483D02*
X257430400Y-16444483D01*
X257430400Y-16444483D02*
X257530400Y-16477816D01*
X257530400Y-16477816D02*
X257597067Y-16544483D01*
X257597067Y-16544483D02*
X257630400Y-16611150D01*
X257630400Y-16611150D02*
X257663733Y-16744483D01*
X257663733Y-16744483D02*
X257663733Y-16844483D01*
X257663733Y-16844483D02*
X257630400Y-16977816D01*
X257630400Y-16977816D02*
X257597067Y-17044483D01*
X257597067Y-17044483D02*
X257530400Y-17111150D01*
X257530400Y-17111150D02*
X257430400Y-17144483D01*
X257430400Y-17144483D02*
X257263733Y-17144483D01*
X258097067Y-16444483D02*
X258163733Y-16444483D01*
X258163733Y-16444483D02*
X258230400Y-16477816D01*
X258230400Y-16477816D02*
X258263733Y-16511150D01*
X258263733Y-16511150D02*
X258297067Y-16577816D01*
X258297067Y-16577816D02*
X258330400Y-16711150D01*
X258330400Y-16711150D02*
X258330400Y-16877816D01*
X258330400Y-16877816D02*
X258297067Y-17011150D01*
X258297067Y-17011150D02*
X258263733Y-17077816D01*
X258263733Y-17077816D02*
X258230400Y-17111150D01*
X258230400Y-17111150D02*
X258163733Y-17144483D01*
X258163733Y-17144483D02*
X258097067Y-17144483D01*
X258097067Y-17144483D02*
X258030400Y-17111150D01*
X258030400Y-17111150D02*
X257997067Y-17077816D01*
X257997067Y-17077816D02*
X257963733Y-17011150D01*
X257963733Y-17011150D02*
X257930400Y-16877816D01*
X257930400Y-16877816D02*
X257930400Y-16711150D01*
X257930400Y-16711150D02*
X257963733Y-16577816D01*
X257963733Y-16577816D02*
X257997067Y-16511150D01*
X257997067Y-16511150D02*
X258030400Y-16477816D01*
X258030400Y-16477816D02*
X258097067Y-16444483D01*
X105893867Y-74380891D02*
X106227200Y-74380891D01*
X106227200Y-74380891D02*
X106227200Y-75080891D01*
X105660533Y-74747558D02*
X105427200Y-74747558D01*
X105327200Y-74380891D02*
X105660533Y-74380891D01*
X105660533Y-74380891D02*
X105660533Y-75080891D01*
X105660533Y-75080891D02*
X105327200Y-75080891D01*
X105027200Y-74380891D02*
X105027200Y-75080891D01*
X105027200Y-75080891D02*
X104860533Y-75080891D01*
X104860533Y-75080891D02*
X104760533Y-75047558D01*
X104760533Y-75047558D02*
X104693867Y-74980891D01*
X104693867Y-74980891D02*
X104660533Y-74914225D01*
X104660533Y-74914225D02*
X104627200Y-74780891D01*
X104627200Y-74780891D02*
X104627200Y-74680891D01*
X104627200Y-74680891D02*
X104660533Y-74547558D01*
X104660533Y-74547558D02*
X104693867Y-74480891D01*
X104693867Y-74480891D02*
X104760533Y-74414225D01*
X104760533Y-74414225D02*
X104860533Y-74380891D01*
X104860533Y-74380891D02*
X105027200Y-74380891D01*
X104393867Y-75080891D02*
X103960533Y-75080891D01*
X103960533Y-75080891D02*
X104193867Y-74814225D01*
X104193867Y-74814225D02*
X104093867Y-74814225D01*
X104093867Y-74814225D02*
X104027200Y-74780891D01*
X104027200Y-74780891D02*
X103993867Y-74747558D01*
X103993867Y-74747558D02*
X103960533Y-74680891D01*
X103960533Y-74680891D02*
X103960533Y-74514225D01*
X103960533Y-74514225D02*
X103993867Y-74447558D01*
X103993867Y-74447558D02*
X104027200Y-74414225D01*
X104027200Y-74414225D02*
X104093867Y-74380891D01*
X104093867Y-74380891D02*
X104293867Y-74380891D01*
X104293867Y-74380891D02*
X104360533Y-74414225D01*
X104360533Y-74414225D02*
X104393867Y-74447558D01*
X103360533Y-74847558D02*
X103360533Y-74380891D01*
X103527200Y-75114225D02*
X103693866Y-74614225D01*
X103693866Y-74614225D02*
X103260533Y-74614225D01*
X237013333Y-45874758D02*
X236679999Y-45874758D01*
X236679999Y-45874758D02*
X236679999Y-45174758D01*
X237246666Y-45508091D02*
X237480000Y-45508091D01*
X237580000Y-45874758D02*
X237246666Y-45874758D01*
X237246666Y-45874758D02*
X237246666Y-45174758D01*
X237246666Y-45174758D02*
X237580000Y-45174758D01*
X237879999Y-45874758D02*
X237879999Y-45174758D01*
X237879999Y-45174758D02*
X238046666Y-45174758D01*
X238046666Y-45174758D02*
X238146666Y-45208091D01*
X238146666Y-45208091D02*
X238213333Y-45274758D01*
X238213333Y-45274758D02*
X238246666Y-45341425D01*
X238246666Y-45341425D02*
X238279999Y-45474758D01*
X238279999Y-45474758D02*
X238279999Y-45574758D01*
X238279999Y-45574758D02*
X238246666Y-45708091D01*
X238246666Y-45708091D02*
X238213333Y-45774758D01*
X238213333Y-45774758D02*
X238146666Y-45841425D01*
X238146666Y-45841425D02*
X238046666Y-45874758D01*
X238046666Y-45874758D02*
X237879999Y-45874758D01*
X238879999Y-45174758D02*
X238746666Y-45174758D01*
X238746666Y-45174758D02*
X238679999Y-45208091D01*
X238679999Y-45208091D02*
X238646666Y-45241425D01*
X238646666Y-45241425D02*
X238579999Y-45341425D01*
X238579999Y-45341425D02*
X238546666Y-45474758D01*
X238546666Y-45474758D02*
X238546666Y-45741425D01*
X238546666Y-45741425D02*
X238579999Y-45808091D01*
X238579999Y-45808091D02*
X238613333Y-45841425D01*
X238613333Y-45841425D02*
X238679999Y-45874758D01*
X238679999Y-45874758D02*
X238813333Y-45874758D01*
X238813333Y-45874758D02*
X238879999Y-45841425D01*
X238879999Y-45841425D02*
X238913333Y-45808091D01*
X238913333Y-45808091D02*
X238946666Y-45741425D01*
X238946666Y-45741425D02*
X238946666Y-45574758D01*
X238946666Y-45574758D02*
X238913333Y-45508091D01*
X238913333Y-45508091D02*
X238879999Y-45474758D01*
X238879999Y-45474758D02*
X238813333Y-45441425D01*
X238813333Y-45441425D02*
X238679999Y-45441425D01*
X238679999Y-45441425D02*
X238613333Y-45474758D01*
X238613333Y-45474758D02*
X238579999Y-45508091D01*
X238579999Y-45508091D02*
X238546666Y-45574758D01*
X239180000Y-45174758D02*
X239613333Y-45174758D01*
X239613333Y-45174758D02*
X239380000Y-45441425D01*
X239380000Y-45441425D02*
X239480000Y-45441425D01*
X239480000Y-45441425D02*
X239546666Y-45474758D01*
X239546666Y-45474758D02*
X239580000Y-45508091D01*
X239580000Y-45508091D02*
X239613333Y-45574758D01*
X239613333Y-45574758D02*
X239613333Y-45741425D01*
X239613333Y-45741425D02*
X239580000Y-45808091D01*
X239580000Y-45808091D02*
X239546666Y-45841425D01*
X239546666Y-45841425D02*
X239480000Y-45874758D01*
X239480000Y-45874758D02*
X239280000Y-45874758D01*
X239280000Y-45874758D02*
X239213333Y-45841425D01*
X239213333Y-45841425D02*
X239180000Y-45808091D01*
X46509333Y-98263358D02*
X46175999Y-98263358D01*
X46175999Y-98263358D02*
X46175999Y-97563358D01*
X46742666Y-97896691D02*
X46976000Y-97896691D01*
X47076000Y-98263358D02*
X46742666Y-98263358D01*
X46742666Y-98263358D02*
X46742666Y-97563358D01*
X46742666Y-97563358D02*
X47076000Y-97563358D01*
X47375999Y-98263358D02*
X47375999Y-97563358D01*
X47375999Y-97563358D02*
X47542666Y-97563358D01*
X47542666Y-97563358D02*
X47642666Y-97596691D01*
X47642666Y-97596691D02*
X47709333Y-97663358D01*
X47709333Y-97663358D02*
X47742666Y-97730025D01*
X47742666Y-97730025D02*
X47775999Y-97863358D01*
X47775999Y-97863358D02*
X47775999Y-97963358D01*
X47775999Y-97963358D02*
X47742666Y-98096691D01*
X47742666Y-98096691D02*
X47709333Y-98163358D01*
X47709333Y-98163358D02*
X47642666Y-98230025D01*
X47642666Y-98230025D02*
X47542666Y-98263358D01*
X47542666Y-98263358D02*
X47375999Y-98263358D01*
X48009333Y-97563358D02*
X48442666Y-97563358D01*
X48442666Y-97563358D02*
X48209333Y-97830025D01*
X48209333Y-97830025D02*
X48309333Y-97830025D01*
X48309333Y-97830025D02*
X48375999Y-97863358D01*
X48375999Y-97863358D02*
X48409333Y-97896691D01*
X48409333Y-97896691D02*
X48442666Y-97963358D01*
X48442666Y-97963358D02*
X48442666Y-98130025D01*
X48442666Y-98130025D02*
X48409333Y-98196691D01*
X48409333Y-98196691D02*
X48375999Y-98230025D01*
X48375999Y-98230025D02*
X48309333Y-98263358D01*
X48309333Y-98263358D02*
X48109333Y-98263358D01*
X48109333Y-98263358D02*
X48042666Y-98230025D01*
X48042666Y-98230025D02*
X48009333Y-98196691D01*
X48776000Y-98263358D02*
X48909333Y-98263358D01*
X48909333Y-98263358D02*
X48976000Y-98230025D01*
X48976000Y-98230025D02*
X49009333Y-98196691D01*
X49009333Y-98196691D02*
X49076000Y-98096691D01*
X49076000Y-98096691D02*
X49109333Y-97963358D01*
X49109333Y-97963358D02*
X49109333Y-97696691D01*
X49109333Y-97696691D02*
X49076000Y-97630025D01*
X49076000Y-97630025D02*
X49042666Y-97596691D01*
X49042666Y-97596691D02*
X48976000Y-97563358D01*
X48976000Y-97563358D02*
X48842666Y-97563358D01*
X48842666Y-97563358D02*
X48776000Y-97596691D01*
X48776000Y-97596691D02*
X48742666Y-97630025D01*
X48742666Y-97630025D02*
X48709333Y-97696691D01*
X48709333Y-97696691D02*
X48709333Y-97863358D01*
X48709333Y-97863358D02*
X48742666Y-97930025D01*
X48742666Y-97930025D02*
X48776000Y-97963358D01*
X48776000Y-97963358D02*
X48842666Y-97996691D01*
X48842666Y-97996691D02*
X48976000Y-97996691D01*
X48976000Y-97996691D02*
X49042666Y-97963358D01*
X49042666Y-97963358D02*
X49076000Y-97930025D01*
X49076000Y-97930025D02*
X49109333Y-97863358D01*
X48742667Y-74380891D02*
X49076000Y-74380891D01*
X49076000Y-74380891D02*
X49076000Y-75080891D01*
X48509333Y-74747558D02*
X48276000Y-74747558D01*
X48176000Y-74380891D02*
X48509333Y-74380891D01*
X48509333Y-74380891D02*
X48509333Y-75080891D01*
X48509333Y-75080891D02*
X48176000Y-75080891D01*
X47876000Y-74380891D02*
X47876000Y-75080891D01*
X47876000Y-75080891D02*
X47709333Y-75080891D01*
X47709333Y-75080891D02*
X47609333Y-75047558D01*
X47609333Y-75047558D02*
X47542667Y-74980891D01*
X47542667Y-74980891D02*
X47509333Y-74914225D01*
X47509333Y-74914225D02*
X47476000Y-74780891D01*
X47476000Y-74780891D02*
X47476000Y-74680891D01*
X47476000Y-74680891D02*
X47509333Y-74547558D01*
X47509333Y-74547558D02*
X47542667Y-74480891D01*
X47542667Y-74480891D02*
X47609333Y-74414225D01*
X47609333Y-74414225D02*
X47709333Y-74380891D01*
X47709333Y-74380891D02*
X47876000Y-74380891D01*
X47242667Y-75080891D02*
X46809333Y-75080891D01*
X46809333Y-75080891D02*
X47042667Y-74814225D01*
X47042667Y-74814225D02*
X46942667Y-74814225D01*
X46942667Y-74814225D02*
X46876000Y-74780891D01*
X46876000Y-74780891D02*
X46842667Y-74747558D01*
X46842667Y-74747558D02*
X46809333Y-74680891D01*
X46809333Y-74680891D02*
X46809333Y-74514225D01*
X46809333Y-74514225D02*
X46842667Y-74447558D01*
X46842667Y-74447558D02*
X46876000Y-74414225D01*
X46876000Y-74414225D02*
X46942667Y-74380891D01*
X46942667Y-74380891D02*
X47142667Y-74380891D01*
X47142667Y-74380891D02*
X47209333Y-74414225D01*
X47209333Y-74414225D02*
X47242667Y-74447558D01*
X46142666Y-74380891D02*
X46542666Y-74380891D01*
X46342666Y-74380891D02*
X46342666Y-75080891D01*
X46342666Y-75080891D02*
X46409333Y-74980891D01*
X46409333Y-74980891D02*
X46476000Y-74914225D01*
X46476000Y-74914225D02*
X46542666Y-74880891D01*
X29692267Y-79143491D02*
X30025600Y-79143491D01*
X30025600Y-79143491D02*
X30025600Y-79843491D01*
X29458933Y-79510158D02*
X29225600Y-79510158D01*
X29125600Y-79143491D02*
X29458933Y-79143491D01*
X29458933Y-79143491D02*
X29458933Y-79843491D01*
X29458933Y-79843491D02*
X29125600Y-79843491D01*
X28825600Y-79143491D02*
X28825600Y-79843491D01*
X28825600Y-79843491D02*
X28658933Y-79843491D01*
X28658933Y-79843491D02*
X28558933Y-79810158D01*
X28558933Y-79810158D02*
X28492267Y-79743491D01*
X28492267Y-79743491D02*
X28458933Y-79676825D01*
X28458933Y-79676825D02*
X28425600Y-79543491D01*
X28425600Y-79543491D02*
X28425600Y-79443491D01*
X28425600Y-79443491D02*
X28458933Y-79310158D01*
X28458933Y-79310158D02*
X28492267Y-79243491D01*
X28492267Y-79243491D02*
X28558933Y-79176825D01*
X28558933Y-79176825D02*
X28658933Y-79143491D01*
X28658933Y-79143491D02*
X28825600Y-79143491D01*
X28192267Y-79843491D02*
X27758933Y-79843491D01*
X27758933Y-79843491D02*
X27992267Y-79576825D01*
X27992267Y-79576825D02*
X27892267Y-79576825D01*
X27892267Y-79576825D02*
X27825600Y-79543491D01*
X27825600Y-79543491D02*
X27792267Y-79510158D01*
X27792267Y-79510158D02*
X27758933Y-79443491D01*
X27758933Y-79443491D02*
X27758933Y-79276825D01*
X27758933Y-79276825D02*
X27792267Y-79210158D01*
X27792267Y-79210158D02*
X27825600Y-79176825D01*
X27825600Y-79176825D02*
X27892267Y-79143491D01*
X27892267Y-79143491D02*
X28092267Y-79143491D01*
X28092267Y-79143491D02*
X28158933Y-79176825D01*
X28158933Y-79176825D02*
X28192267Y-79210158D01*
X27325600Y-79843491D02*
X27258933Y-79843491D01*
X27258933Y-79843491D02*
X27192266Y-79810158D01*
X27192266Y-79810158D02*
X27158933Y-79776825D01*
X27158933Y-79776825D02*
X27125600Y-79710158D01*
X27125600Y-79710158D02*
X27092266Y-79576825D01*
X27092266Y-79576825D02*
X27092266Y-79410158D01*
X27092266Y-79410158D02*
X27125600Y-79276825D01*
X27125600Y-79276825D02*
X27158933Y-79210158D01*
X27158933Y-79210158D02*
X27192266Y-79176825D01*
X27192266Y-79176825D02*
X27258933Y-79143491D01*
X27258933Y-79143491D02*
X27325600Y-79143491D01*
X27325600Y-79143491D02*
X27392266Y-79176825D01*
X27392266Y-79176825D02*
X27425600Y-79210158D01*
X27425600Y-79210158D02*
X27458933Y-79276825D01*
X27458933Y-79276825D02*
X27492266Y-79410158D01*
X27492266Y-79410158D02*
X27492266Y-79576825D01*
X27492266Y-79576825D02*
X27458933Y-79710158D01*
X27458933Y-79710158D02*
X27425600Y-79776825D01*
X27425600Y-79776825D02*
X27392266Y-79810158D01*
X27392266Y-79810158D02*
X27325600Y-79843491D01*
X105893867Y-36280091D02*
X106227200Y-36280091D01*
X106227200Y-36280091D02*
X106227200Y-36980091D01*
X105660533Y-36646758D02*
X105427200Y-36646758D01*
X105327200Y-36280091D02*
X105660533Y-36280091D01*
X105660533Y-36280091D02*
X105660533Y-36980091D01*
X105660533Y-36980091D02*
X105327200Y-36980091D01*
X105027200Y-36280091D02*
X105027200Y-36980091D01*
X105027200Y-36980091D02*
X104860533Y-36980091D01*
X104860533Y-36980091D02*
X104760533Y-36946758D01*
X104760533Y-36946758D02*
X104693867Y-36880091D01*
X104693867Y-36880091D02*
X104660533Y-36813425D01*
X104660533Y-36813425D02*
X104627200Y-36680091D01*
X104627200Y-36680091D02*
X104627200Y-36580091D01*
X104627200Y-36580091D02*
X104660533Y-36446758D01*
X104660533Y-36446758D02*
X104693867Y-36380091D01*
X104693867Y-36380091D02*
X104760533Y-36313425D01*
X104760533Y-36313425D02*
X104860533Y-36280091D01*
X104860533Y-36280091D02*
X105027200Y-36280091D01*
X104360533Y-36913425D02*
X104327200Y-36946758D01*
X104327200Y-36946758D02*
X104260533Y-36980091D01*
X104260533Y-36980091D02*
X104093867Y-36980091D01*
X104093867Y-36980091D02*
X104027200Y-36946758D01*
X104027200Y-36946758D02*
X103993867Y-36913425D01*
X103993867Y-36913425D02*
X103960533Y-36846758D01*
X103960533Y-36846758D02*
X103960533Y-36780091D01*
X103960533Y-36780091D02*
X103993867Y-36680091D01*
X103993867Y-36680091D02*
X104393867Y-36280091D01*
X104393867Y-36280091D02*
X103960533Y-36280091D01*
X103527200Y-36980091D02*
X103460533Y-36980091D01*
X103460533Y-36980091D02*
X103393866Y-36946758D01*
X103393866Y-36946758D02*
X103360533Y-36913425D01*
X103360533Y-36913425D02*
X103327200Y-36846758D01*
X103327200Y-36846758D02*
X103293866Y-36713425D01*
X103293866Y-36713425D02*
X103293866Y-36546758D01*
X103293866Y-36546758D02*
X103327200Y-36413425D01*
X103327200Y-36413425D02*
X103360533Y-36346758D01*
X103360533Y-36346758D02*
X103393866Y-36313425D01*
X103393866Y-36313425D02*
X103460533Y-36280091D01*
X103460533Y-36280091D02*
X103527200Y-36280091D01*
X103527200Y-36280091D02*
X103593866Y-36313425D01*
X103593866Y-36313425D02*
X103627200Y-36346758D01*
X103627200Y-36346758D02*
X103660533Y-36413425D01*
X103660533Y-36413425D02*
X103693866Y-36546758D01*
X103693866Y-36546758D02*
X103693866Y-36713425D01*
X103693866Y-36713425D02*
X103660533Y-36846758D01*
X103660533Y-36846758D02*
X103627200Y-36913425D01*
X103627200Y-36913425D02*
X103593866Y-36946758D01*
X103593866Y-36946758D02*
X103527200Y-36980091D01*
X8408533Y-93500758D02*
X8075199Y-93500758D01*
X8075199Y-93500758D02*
X8075199Y-92800758D01*
X8641866Y-93134091D02*
X8875200Y-93134091D01*
X8975200Y-93500758D02*
X8641866Y-93500758D01*
X8641866Y-93500758D02*
X8641866Y-92800758D01*
X8641866Y-92800758D02*
X8975200Y-92800758D01*
X9275199Y-93500758D02*
X9275199Y-92800758D01*
X9275199Y-92800758D02*
X9441866Y-92800758D01*
X9441866Y-92800758D02*
X9541866Y-92834091D01*
X9541866Y-92834091D02*
X9608533Y-92900758D01*
X9608533Y-92900758D02*
X9641866Y-92967425D01*
X9641866Y-92967425D02*
X9675199Y-93100758D01*
X9675199Y-93100758D02*
X9675199Y-93200758D01*
X9675199Y-93200758D02*
X9641866Y-93334091D01*
X9641866Y-93334091D02*
X9608533Y-93400758D01*
X9608533Y-93400758D02*
X9541866Y-93467425D01*
X9541866Y-93467425D02*
X9441866Y-93500758D01*
X9441866Y-93500758D02*
X9275199Y-93500758D01*
X10275199Y-93034091D02*
X10275199Y-93500758D01*
X10108533Y-92767425D02*
X9941866Y-93267425D01*
X9941866Y-93267425D02*
X10375199Y-93267425D01*
X10775200Y-92800758D02*
X10841866Y-92800758D01*
X10841866Y-92800758D02*
X10908533Y-92834091D01*
X10908533Y-92834091D02*
X10941866Y-92867425D01*
X10941866Y-92867425D02*
X10975200Y-92934091D01*
X10975200Y-92934091D02*
X11008533Y-93067425D01*
X11008533Y-93067425D02*
X11008533Y-93234091D01*
X11008533Y-93234091D02*
X10975200Y-93367425D01*
X10975200Y-93367425D02*
X10941866Y-93434091D01*
X10941866Y-93434091D02*
X10908533Y-93467425D01*
X10908533Y-93467425D02*
X10841866Y-93500758D01*
X10841866Y-93500758D02*
X10775200Y-93500758D01*
X10775200Y-93500758D02*
X10708533Y-93467425D01*
X10708533Y-93467425D02*
X10675200Y-93434091D01*
X10675200Y-93434091D02*
X10641866Y-93367425D01*
X10641866Y-93367425D02*
X10608533Y-93234091D01*
X10608533Y-93234091D02*
X10608533Y-93067425D01*
X10608533Y-93067425D02*
X10641866Y-92934091D01*
X10641866Y-92934091D02*
X10675200Y-92867425D01*
X10675200Y-92867425D02*
X10708533Y-92834091D01*
X10708533Y-92834091D02*
X10775200Y-92800758D01*
X67793067Y-69618291D02*
X68126400Y-69618291D01*
X68126400Y-69618291D02*
X68126400Y-70318291D01*
X67559733Y-69984958D02*
X67326400Y-69984958D01*
X67226400Y-69618291D02*
X67559733Y-69618291D01*
X67559733Y-69618291D02*
X67559733Y-70318291D01*
X67559733Y-70318291D02*
X67226400Y-70318291D01*
X66926400Y-69618291D02*
X66926400Y-70318291D01*
X66926400Y-70318291D02*
X66759733Y-70318291D01*
X66759733Y-70318291D02*
X66659733Y-70284958D01*
X66659733Y-70284958D02*
X66593067Y-70218291D01*
X66593067Y-70218291D02*
X66559733Y-70151625D01*
X66559733Y-70151625D02*
X66526400Y-70018291D01*
X66526400Y-70018291D02*
X66526400Y-69918291D01*
X66526400Y-69918291D02*
X66559733Y-69784958D01*
X66559733Y-69784958D02*
X66593067Y-69718291D01*
X66593067Y-69718291D02*
X66659733Y-69651625D01*
X66659733Y-69651625D02*
X66759733Y-69618291D01*
X66759733Y-69618291D02*
X66926400Y-69618291D01*
X66293067Y-70318291D02*
X65859733Y-70318291D01*
X65859733Y-70318291D02*
X66093067Y-70051625D01*
X66093067Y-70051625D02*
X65993067Y-70051625D01*
X65993067Y-70051625D02*
X65926400Y-70018291D01*
X65926400Y-70018291D02*
X65893067Y-69984958D01*
X65893067Y-69984958D02*
X65859733Y-69918291D01*
X65859733Y-69918291D02*
X65859733Y-69751625D01*
X65859733Y-69751625D02*
X65893067Y-69684958D01*
X65893067Y-69684958D02*
X65926400Y-69651625D01*
X65926400Y-69651625D02*
X65993067Y-69618291D01*
X65993067Y-69618291D02*
X66193067Y-69618291D01*
X66193067Y-69618291D02*
X66259733Y-69651625D01*
X66259733Y-69651625D02*
X66293067Y-69684958D01*
X65593066Y-70251625D02*
X65559733Y-70284958D01*
X65559733Y-70284958D02*
X65493066Y-70318291D01*
X65493066Y-70318291D02*
X65326400Y-70318291D01*
X65326400Y-70318291D02*
X65259733Y-70284958D01*
X65259733Y-70284958D02*
X65226400Y-70251625D01*
X65226400Y-70251625D02*
X65193066Y-70184958D01*
X65193066Y-70184958D02*
X65193066Y-70118291D01*
X65193066Y-70118291D02*
X65226400Y-70018291D01*
X65226400Y-70018291D02*
X65626400Y-69618291D01*
X65626400Y-69618291D02*
X65193066Y-69618291D01*
X217962933Y-79212958D02*
X217629599Y-79212958D01*
X217629599Y-79212958D02*
X217629599Y-78512958D01*
X218196266Y-78846291D02*
X218429600Y-78846291D01*
X218529600Y-79212958D02*
X218196266Y-79212958D01*
X218196266Y-79212958D02*
X218196266Y-78512958D01*
X218196266Y-78512958D02*
X218529600Y-78512958D01*
X218829599Y-79212958D02*
X218829599Y-78512958D01*
X218829599Y-78512958D02*
X218996266Y-78512958D01*
X218996266Y-78512958D02*
X219096266Y-78546291D01*
X219096266Y-78546291D02*
X219162933Y-78612958D01*
X219162933Y-78612958D02*
X219196266Y-78679625D01*
X219196266Y-78679625D02*
X219229599Y-78812958D01*
X219229599Y-78812958D02*
X219229599Y-78912958D01*
X219229599Y-78912958D02*
X219196266Y-79046291D01*
X219196266Y-79046291D02*
X219162933Y-79112958D01*
X219162933Y-79112958D02*
X219096266Y-79179625D01*
X219096266Y-79179625D02*
X218996266Y-79212958D01*
X218996266Y-79212958D02*
X218829599Y-79212958D01*
X219829599Y-78746291D02*
X219829599Y-79212958D01*
X219662933Y-78479625D02*
X219496266Y-78979625D01*
X219496266Y-78979625D02*
X219929599Y-78979625D01*
X220296266Y-78812958D02*
X220229600Y-78779625D01*
X220229600Y-78779625D02*
X220196266Y-78746291D01*
X220196266Y-78746291D02*
X220162933Y-78679625D01*
X220162933Y-78679625D02*
X220162933Y-78646291D01*
X220162933Y-78646291D02*
X220196266Y-78579625D01*
X220196266Y-78579625D02*
X220229600Y-78546291D01*
X220229600Y-78546291D02*
X220296266Y-78512958D01*
X220296266Y-78512958D02*
X220429600Y-78512958D01*
X220429600Y-78512958D02*
X220496266Y-78546291D01*
X220496266Y-78546291D02*
X220529600Y-78579625D01*
X220529600Y-78579625D02*
X220562933Y-78646291D01*
X220562933Y-78646291D02*
X220562933Y-78679625D01*
X220562933Y-78679625D02*
X220529600Y-78746291D01*
X220529600Y-78746291D02*
X220496266Y-78779625D01*
X220496266Y-78779625D02*
X220429600Y-78812958D01*
X220429600Y-78812958D02*
X220296266Y-78812958D01*
X220296266Y-78812958D02*
X220229600Y-78846291D01*
X220229600Y-78846291D02*
X220196266Y-78879625D01*
X220196266Y-78879625D02*
X220162933Y-78946291D01*
X220162933Y-78946291D02*
X220162933Y-79079625D01*
X220162933Y-79079625D02*
X220196266Y-79146291D01*
X220196266Y-79146291D02*
X220229600Y-79179625D01*
X220229600Y-79179625D02*
X220296266Y-79212958D01*
X220296266Y-79212958D02*
X220429600Y-79212958D01*
X220429600Y-79212958D02*
X220496266Y-79179625D01*
X220496266Y-79179625D02*
X220529600Y-79146291D01*
X220529600Y-79146291D02*
X220562933Y-79079625D01*
X220562933Y-79079625D02*
X220562933Y-78946291D01*
X220562933Y-78946291D02*
X220529600Y-78879625D01*
X220529600Y-78879625D02*
X220496266Y-78846291D01*
X220496266Y-78846291D02*
X220429600Y-78812958D01*
X258297067Y-88668691D02*
X258630400Y-88668691D01*
X258630400Y-88668691D02*
X258630400Y-89368691D01*
X258063733Y-89035358D02*
X257830400Y-89035358D01*
X257730400Y-88668691D02*
X258063733Y-88668691D01*
X258063733Y-88668691D02*
X258063733Y-89368691D01*
X258063733Y-89368691D02*
X257730400Y-89368691D01*
X257430400Y-88668691D02*
X257430400Y-89368691D01*
X257430400Y-89368691D02*
X257263733Y-89368691D01*
X257263733Y-89368691D02*
X257163733Y-89335358D01*
X257163733Y-89335358D02*
X257097067Y-89268691D01*
X257097067Y-89268691D02*
X257063733Y-89202025D01*
X257063733Y-89202025D02*
X257030400Y-89068691D01*
X257030400Y-89068691D02*
X257030400Y-88968691D01*
X257030400Y-88968691D02*
X257063733Y-88835358D01*
X257063733Y-88835358D02*
X257097067Y-88768691D01*
X257097067Y-88768691D02*
X257163733Y-88702025D01*
X257163733Y-88702025D02*
X257263733Y-88668691D01*
X257263733Y-88668691D02*
X257430400Y-88668691D01*
X256430400Y-89135358D02*
X256430400Y-88668691D01*
X256597067Y-89402025D02*
X256763733Y-88902025D01*
X256763733Y-88902025D02*
X256330400Y-88902025D01*
X255730400Y-89368691D02*
X256063733Y-89368691D01*
X256063733Y-89368691D02*
X256097066Y-89035358D01*
X256097066Y-89035358D02*
X256063733Y-89068691D01*
X256063733Y-89068691D02*
X255997066Y-89102025D01*
X255997066Y-89102025D02*
X255830400Y-89102025D01*
X255830400Y-89102025D02*
X255763733Y-89068691D01*
X255763733Y-89068691D02*
X255730400Y-89035358D01*
X255730400Y-89035358D02*
X255697066Y-88968691D01*
X255697066Y-88968691D02*
X255697066Y-88802025D01*
X255697066Y-88802025D02*
X255730400Y-88735358D01*
X255730400Y-88735358D02*
X255763733Y-88702025D01*
X255763733Y-88702025D02*
X255830400Y-88668691D01*
X255830400Y-88668691D02*
X255997066Y-88668691D01*
X255997066Y-88668691D02*
X256063733Y-88702025D01*
X256063733Y-88702025D02*
X256097066Y-88735358D01*
X91754033Y-98263358D02*
X91420699Y-98263358D01*
X91420699Y-98263358D02*
X91420699Y-97563358D01*
X91987366Y-97896691D02*
X92220700Y-97896691D01*
X92320700Y-98263358D02*
X91987366Y-98263358D01*
X91987366Y-98263358D02*
X91987366Y-97563358D01*
X91987366Y-97563358D02*
X92320700Y-97563358D01*
X92620699Y-98263358D02*
X92620699Y-97563358D01*
X92620699Y-97563358D02*
X92787366Y-97563358D01*
X92787366Y-97563358D02*
X92887366Y-97596691D01*
X92887366Y-97596691D02*
X92954033Y-97663358D01*
X92954033Y-97663358D02*
X92987366Y-97730025D01*
X92987366Y-97730025D02*
X93020699Y-97863358D01*
X93020699Y-97863358D02*
X93020699Y-97963358D01*
X93020699Y-97963358D02*
X92987366Y-98096691D01*
X92987366Y-98096691D02*
X92954033Y-98163358D01*
X92954033Y-98163358D02*
X92887366Y-98230025D01*
X92887366Y-98230025D02*
X92787366Y-98263358D01*
X92787366Y-98263358D02*
X92620699Y-98263358D01*
X93254033Y-97563358D02*
X93687366Y-97563358D01*
X93687366Y-97563358D02*
X93454033Y-97830025D01*
X93454033Y-97830025D02*
X93554033Y-97830025D01*
X93554033Y-97830025D02*
X93620699Y-97863358D01*
X93620699Y-97863358D02*
X93654033Y-97896691D01*
X93654033Y-97896691D02*
X93687366Y-97963358D01*
X93687366Y-97963358D02*
X93687366Y-98130025D01*
X93687366Y-98130025D02*
X93654033Y-98196691D01*
X93654033Y-98196691D02*
X93620699Y-98230025D01*
X93620699Y-98230025D02*
X93554033Y-98263358D01*
X93554033Y-98263358D02*
X93354033Y-98263358D01*
X93354033Y-98263358D02*
X93287366Y-98230025D01*
X93287366Y-98230025D02*
X93254033Y-98196691D01*
X93920700Y-97563358D02*
X94387366Y-97563358D01*
X94387366Y-97563358D02*
X94087366Y-98263358D01*
X198912533Y-36349558D02*
X198579199Y-36349558D01*
X198579199Y-36349558D02*
X198579199Y-35649558D01*
X199145866Y-35982891D02*
X199379200Y-35982891D01*
X199479200Y-36349558D02*
X199145866Y-36349558D01*
X199145866Y-36349558D02*
X199145866Y-35649558D01*
X199145866Y-35649558D02*
X199479200Y-35649558D01*
X199779199Y-36349558D02*
X199779199Y-35649558D01*
X199779199Y-35649558D02*
X199945866Y-35649558D01*
X199945866Y-35649558D02*
X200045866Y-35682891D01*
X200045866Y-35682891D02*
X200112533Y-35749558D01*
X200112533Y-35749558D02*
X200145866Y-35816225D01*
X200145866Y-35816225D02*
X200179199Y-35949558D01*
X200179199Y-35949558D02*
X200179199Y-36049558D01*
X200179199Y-36049558D02*
X200145866Y-36182891D01*
X200145866Y-36182891D02*
X200112533Y-36249558D01*
X200112533Y-36249558D02*
X200045866Y-36316225D01*
X200045866Y-36316225D02*
X199945866Y-36349558D01*
X199945866Y-36349558D02*
X199779199Y-36349558D01*
X200779199Y-35649558D02*
X200645866Y-35649558D01*
X200645866Y-35649558D02*
X200579199Y-35682891D01*
X200579199Y-35682891D02*
X200545866Y-35716225D01*
X200545866Y-35716225D02*
X200479199Y-35816225D01*
X200479199Y-35816225D02*
X200445866Y-35949558D01*
X200445866Y-35949558D02*
X200445866Y-36216225D01*
X200445866Y-36216225D02*
X200479199Y-36282891D01*
X200479199Y-36282891D02*
X200512533Y-36316225D01*
X200512533Y-36316225D02*
X200579199Y-36349558D01*
X200579199Y-36349558D02*
X200712533Y-36349558D01*
X200712533Y-36349558D02*
X200779199Y-36316225D01*
X200779199Y-36316225D02*
X200812533Y-36282891D01*
X200812533Y-36282891D02*
X200845866Y-36216225D01*
X200845866Y-36216225D02*
X200845866Y-36049558D01*
X200845866Y-36049558D02*
X200812533Y-35982891D01*
X200812533Y-35982891D02*
X200779199Y-35949558D01*
X200779199Y-35949558D02*
X200712533Y-35916225D01*
X200712533Y-35916225D02*
X200579199Y-35916225D01*
X200579199Y-35916225D02*
X200512533Y-35949558D01*
X200512533Y-35949558D02*
X200479199Y-35982891D01*
X200479199Y-35982891D02*
X200445866Y-36049558D01*
X201079200Y-35649558D02*
X201545866Y-35649558D01*
X201545866Y-35649558D02*
X201245866Y-36349558D01*
X198764567Y-93431291D02*
X199097900Y-93431291D01*
X199097900Y-93431291D02*
X199097900Y-94131291D01*
X198531233Y-93797958D02*
X198297900Y-93797958D01*
X198197900Y-93431291D02*
X198531233Y-93431291D01*
X198531233Y-93431291D02*
X198531233Y-94131291D01*
X198531233Y-94131291D02*
X198197900Y-94131291D01*
X197897900Y-93431291D02*
X197897900Y-94131291D01*
X197897900Y-94131291D02*
X197731233Y-94131291D01*
X197731233Y-94131291D02*
X197631233Y-94097958D01*
X197631233Y-94097958D02*
X197564567Y-94031291D01*
X197564567Y-94031291D02*
X197531233Y-93964625D01*
X197531233Y-93964625D02*
X197497900Y-93831291D01*
X197497900Y-93831291D02*
X197497900Y-93731291D01*
X197497900Y-93731291D02*
X197531233Y-93597958D01*
X197531233Y-93597958D02*
X197564567Y-93531291D01*
X197564567Y-93531291D02*
X197631233Y-93464625D01*
X197631233Y-93464625D02*
X197731233Y-93431291D01*
X197731233Y-93431291D02*
X197897900Y-93431291D01*
X196897900Y-93897958D02*
X196897900Y-93431291D01*
X197064567Y-94164625D02*
X197231233Y-93664625D01*
X197231233Y-93664625D02*
X196797900Y-93664625D01*
X196597900Y-94131291D02*
X196164566Y-94131291D01*
X196164566Y-94131291D02*
X196397900Y-93864625D01*
X196397900Y-93864625D02*
X196297900Y-93864625D01*
X196297900Y-93864625D02*
X196231233Y-93831291D01*
X196231233Y-93831291D02*
X196197900Y-93797958D01*
X196197900Y-93797958D02*
X196164566Y-93731291D01*
X196164566Y-93731291D02*
X196164566Y-93564625D01*
X196164566Y-93564625D02*
X196197900Y-93497958D01*
X196197900Y-93497958D02*
X196231233Y-93464625D01*
X196231233Y-93464625D02*
X196297900Y-93431291D01*
X196297900Y-93431291D02*
X196497900Y-93431291D01*
X196497900Y-93431291D02*
X196564566Y-93464625D01*
X196564566Y-93464625D02*
X196597900Y-93497958D01*
X27458933Y-17299158D02*
X27125599Y-17299158D01*
X27125599Y-17299158D02*
X27125599Y-16599158D01*
X27692266Y-16932491D02*
X27925600Y-16932491D01*
X28025600Y-17299158D02*
X27692266Y-17299158D01*
X27692266Y-17299158D02*
X27692266Y-16599158D01*
X27692266Y-16599158D02*
X28025600Y-16599158D01*
X28325599Y-17299158D02*
X28325599Y-16599158D01*
X28325599Y-16599158D02*
X28492266Y-16599158D01*
X28492266Y-16599158D02*
X28592266Y-16632491D01*
X28592266Y-16632491D02*
X28658933Y-16699158D01*
X28658933Y-16699158D02*
X28692266Y-16765825D01*
X28692266Y-16765825D02*
X28725599Y-16899158D01*
X28725599Y-16899158D02*
X28725599Y-16999158D01*
X28725599Y-16999158D02*
X28692266Y-17132491D01*
X28692266Y-17132491D02*
X28658933Y-17199158D01*
X28658933Y-17199158D02*
X28592266Y-17265825D01*
X28592266Y-17265825D02*
X28492266Y-17299158D01*
X28492266Y-17299158D02*
X28325599Y-17299158D01*
X29392266Y-17299158D02*
X28992266Y-17299158D01*
X29192266Y-17299158D02*
X29192266Y-16599158D01*
X29192266Y-16599158D02*
X29125599Y-16699158D01*
X29125599Y-16699158D02*
X29058933Y-16765825D01*
X29058933Y-16765825D02*
X28992266Y-16799158D01*
X29625600Y-16599158D02*
X30058933Y-16599158D01*
X30058933Y-16599158D02*
X29825600Y-16865825D01*
X29825600Y-16865825D02*
X29925600Y-16865825D01*
X29925600Y-16865825D02*
X29992266Y-16899158D01*
X29992266Y-16899158D02*
X30025600Y-16932491D01*
X30025600Y-16932491D02*
X30058933Y-16999158D01*
X30058933Y-16999158D02*
X30058933Y-17165825D01*
X30058933Y-17165825D02*
X30025600Y-17232491D01*
X30025600Y-17232491D02*
X29992266Y-17265825D01*
X29992266Y-17265825D02*
X29925600Y-17299158D01*
X29925600Y-17299158D02*
X29725600Y-17299158D01*
X29725600Y-17299158D02*
X29658933Y-17265825D01*
X29658933Y-17265825D02*
X29625600Y-17232491D01*
X65559733Y-17144483D02*
X65226399Y-17144483D01*
X65226399Y-17144483D02*
X65226399Y-16444483D01*
X65793066Y-16777816D02*
X66026400Y-16777816D01*
X66126400Y-17144483D02*
X65793066Y-17144483D01*
X65793066Y-17144483D02*
X65793066Y-16444483D01*
X65793066Y-16444483D02*
X66126400Y-16444483D01*
X66426399Y-17144483D02*
X66426399Y-16444483D01*
X66426399Y-16444483D02*
X66593066Y-16444483D01*
X66593066Y-16444483D02*
X66693066Y-16477816D01*
X66693066Y-16477816D02*
X66759733Y-16544483D01*
X66759733Y-16544483D02*
X66793066Y-16611150D01*
X66793066Y-16611150D02*
X66826399Y-16744483D01*
X66826399Y-16744483D02*
X66826399Y-16844483D01*
X66826399Y-16844483D02*
X66793066Y-16977816D01*
X66793066Y-16977816D02*
X66759733Y-17044483D01*
X66759733Y-17044483D02*
X66693066Y-17111150D01*
X66693066Y-17111150D02*
X66593066Y-17144483D01*
X66593066Y-17144483D02*
X66426399Y-17144483D01*
X67493066Y-17144483D02*
X67093066Y-17144483D01*
X67293066Y-17144483D02*
X67293066Y-16444483D01*
X67293066Y-16444483D02*
X67226399Y-16544483D01*
X67226399Y-16544483D02*
X67159733Y-16611150D01*
X67159733Y-16611150D02*
X67093066Y-16644483D01*
X68159733Y-17144483D02*
X67759733Y-17144483D01*
X67959733Y-17144483D02*
X67959733Y-16444483D01*
X67959733Y-16444483D02*
X67893066Y-16544483D01*
X67893066Y-16544483D02*
X67826400Y-16611150D01*
X67826400Y-16611150D02*
X67759733Y-16644483D01*
X256063733Y-36349558D02*
X255730399Y-36349558D01*
X255730399Y-36349558D02*
X255730399Y-35649558D01*
X256297066Y-35982891D02*
X256530400Y-35982891D01*
X256630400Y-36349558D02*
X256297066Y-36349558D01*
X256297066Y-36349558D02*
X256297066Y-35649558D01*
X256297066Y-35649558D02*
X256630400Y-35649558D01*
X256930399Y-36349558D02*
X256930399Y-35649558D01*
X256930399Y-35649558D02*
X257097066Y-35649558D01*
X257097066Y-35649558D02*
X257197066Y-35682891D01*
X257197066Y-35682891D02*
X257263733Y-35749558D01*
X257263733Y-35749558D02*
X257297066Y-35816225D01*
X257297066Y-35816225D02*
X257330399Y-35949558D01*
X257330399Y-35949558D02*
X257330399Y-36049558D01*
X257330399Y-36049558D02*
X257297066Y-36182891D01*
X257297066Y-36182891D02*
X257263733Y-36249558D01*
X257263733Y-36249558D02*
X257197066Y-36316225D01*
X257197066Y-36316225D02*
X257097066Y-36349558D01*
X257097066Y-36349558D02*
X256930399Y-36349558D01*
X257930399Y-35649558D02*
X257797066Y-35649558D01*
X257797066Y-35649558D02*
X257730399Y-35682891D01*
X257730399Y-35682891D02*
X257697066Y-35716225D01*
X257697066Y-35716225D02*
X257630399Y-35816225D01*
X257630399Y-35816225D02*
X257597066Y-35949558D01*
X257597066Y-35949558D02*
X257597066Y-36216225D01*
X257597066Y-36216225D02*
X257630399Y-36282891D01*
X257630399Y-36282891D02*
X257663733Y-36316225D01*
X257663733Y-36316225D02*
X257730399Y-36349558D01*
X257730399Y-36349558D02*
X257863733Y-36349558D01*
X257863733Y-36349558D02*
X257930399Y-36316225D01*
X257930399Y-36316225D02*
X257963733Y-36282891D01*
X257963733Y-36282891D02*
X257997066Y-36216225D01*
X257997066Y-36216225D02*
X257997066Y-36049558D01*
X257997066Y-36049558D02*
X257963733Y-35982891D01*
X257963733Y-35982891D02*
X257930399Y-35949558D01*
X257930399Y-35949558D02*
X257863733Y-35916225D01*
X257863733Y-35916225D02*
X257730399Y-35916225D01*
X257730399Y-35916225D02*
X257663733Y-35949558D01*
X257663733Y-35949558D02*
X257630399Y-35982891D01*
X257630399Y-35982891D02*
X257597066Y-36049558D01*
X258663733Y-36349558D02*
X258263733Y-36349558D01*
X258463733Y-36349558D02*
X258463733Y-35649558D01*
X258463733Y-35649558D02*
X258397066Y-35749558D01*
X258397066Y-35749558D02*
X258330400Y-35816225D01*
X258330400Y-35816225D02*
X258263733Y-35849558D01*
X199245867Y-17144483D02*
X198912533Y-17144483D01*
X198912533Y-17144483D02*
X198912533Y-16444483D01*
X199479200Y-16777816D02*
X199712534Y-16777816D01*
X199812534Y-17144483D02*
X199479200Y-17144483D01*
X199479200Y-17144483D02*
X199479200Y-16444483D01*
X199479200Y-16444483D02*
X199812534Y-16444483D01*
X200112533Y-17144483D02*
X200112533Y-16444483D01*
X200112533Y-16444483D02*
X200279200Y-16444483D01*
X200279200Y-16444483D02*
X200379200Y-16477816D01*
X200379200Y-16477816D02*
X200445867Y-16544483D01*
X200445867Y-16544483D02*
X200479200Y-16611150D01*
X200479200Y-16611150D02*
X200512533Y-16744483D01*
X200512533Y-16744483D02*
X200512533Y-16844483D01*
X200512533Y-16844483D02*
X200479200Y-16977816D01*
X200479200Y-16977816D02*
X200445867Y-17044483D01*
X200445867Y-17044483D02*
X200379200Y-17111150D01*
X200379200Y-17111150D02*
X200279200Y-17144483D01*
X200279200Y-17144483D02*
X200112533Y-17144483D01*
X201112533Y-16677816D02*
X201112533Y-17144483D01*
X200945867Y-16411150D02*
X200779200Y-16911150D01*
X200779200Y-16911150D02*
X201212533Y-16911150D01*
X103660533Y-60162558D02*
X103327199Y-60162558D01*
X103327199Y-60162558D02*
X103327199Y-59462558D01*
X103893866Y-59795891D02*
X104127200Y-59795891D01*
X104227200Y-60162558D02*
X103893866Y-60162558D01*
X103893866Y-60162558D02*
X103893866Y-59462558D01*
X103893866Y-59462558D02*
X104227200Y-59462558D01*
X104527199Y-60162558D02*
X104527199Y-59462558D01*
X104527199Y-59462558D02*
X104693866Y-59462558D01*
X104693866Y-59462558D02*
X104793866Y-59495891D01*
X104793866Y-59495891D02*
X104860533Y-59562558D01*
X104860533Y-59562558D02*
X104893866Y-59629225D01*
X104893866Y-59629225D02*
X104927199Y-59762558D01*
X104927199Y-59762558D02*
X104927199Y-59862558D01*
X104927199Y-59862558D02*
X104893866Y-59995891D01*
X104893866Y-59995891D02*
X104860533Y-60062558D01*
X104860533Y-60062558D02*
X104793866Y-60129225D01*
X104793866Y-60129225D02*
X104693866Y-60162558D01*
X104693866Y-60162558D02*
X104527199Y-60162558D01*
X105193866Y-59529225D02*
X105227199Y-59495891D01*
X105227199Y-59495891D02*
X105293866Y-59462558D01*
X105293866Y-59462558D02*
X105460533Y-59462558D01*
X105460533Y-59462558D02*
X105527199Y-59495891D01*
X105527199Y-59495891D02*
X105560533Y-59529225D01*
X105560533Y-59529225D02*
X105593866Y-59595891D01*
X105593866Y-59595891D02*
X105593866Y-59662558D01*
X105593866Y-59662558D02*
X105560533Y-59762558D01*
X105560533Y-59762558D02*
X105160533Y-60162558D01*
X105160533Y-60162558D02*
X105593866Y-60162558D01*
X105827200Y-59462558D02*
X106260533Y-59462558D01*
X106260533Y-59462558D02*
X106027200Y-59729225D01*
X106027200Y-59729225D02*
X106127200Y-59729225D01*
X106127200Y-59729225D02*
X106193866Y-59762558D01*
X106193866Y-59762558D02*
X106227200Y-59795891D01*
X106227200Y-59795891D02*
X106260533Y-59862558D01*
X106260533Y-59862558D02*
X106260533Y-60029225D01*
X106260533Y-60029225D02*
X106227200Y-60095891D01*
X106227200Y-60095891D02*
X106193866Y-60129225D01*
X106193866Y-60129225D02*
X106127200Y-60162558D01*
X106127200Y-60162558D02*
X105927200Y-60162558D01*
X105927200Y-60162558D02*
X105860533Y-60129225D01*
X105860533Y-60129225D02*
X105827200Y-60095891D01*
X10641867Y-69618291D02*
X10975200Y-69618291D01*
X10975200Y-69618291D02*
X10975200Y-70318291D01*
X10408533Y-69984958D02*
X10175200Y-69984958D01*
X10075200Y-69618291D02*
X10408533Y-69618291D01*
X10408533Y-69618291D02*
X10408533Y-70318291D01*
X10408533Y-70318291D02*
X10075200Y-70318291D01*
X9775200Y-69618291D02*
X9775200Y-70318291D01*
X9775200Y-70318291D02*
X9608533Y-70318291D01*
X9608533Y-70318291D02*
X9508533Y-70284958D01*
X9508533Y-70284958D02*
X9441867Y-70218291D01*
X9441867Y-70218291D02*
X9408533Y-70151625D01*
X9408533Y-70151625D02*
X9375200Y-70018291D01*
X9375200Y-70018291D02*
X9375200Y-69918291D01*
X9375200Y-69918291D02*
X9408533Y-69784958D01*
X9408533Y-69784958D02*
X9441867Y-69718291D01*
X9441867Y-69718291D02*
X9508533Y-69651625D01*
X9508533Y-69651625D02*
X9608533Y-69618291D01*
X9608533Y-69618291D02*
X9775200Y-69618291D01*
X9108533Y-70251625D02*
X9075200Y-70284958D01*
X9075200Y-70284958D02*
X9008533Y-70318291D01*
X9008533Y-70318291D02*
X8841867Y-70318291D01*
X8841867Y-70318291D02*
X8775200Y-70284958D01*
X8775200Y-70284958D02*
X8741867Y-70251625D01*
X8741867Y-70251625D02*
X8708533Y-70184958D01*
X8708533Y-70184958D02*
X8708533Y-70118291D01*
X8708533Y-70118291D02*
X8741867Y-70018291D01*
X8741867Y-70018291D02*
X9141867Y-69618291D01*
X9141867Y-69618291D02*
X8708533Y-69618291D01*
X8375200Y-69618291D02*
X8241866Y-69618291D01*
X8241866Y-69618291D02*
X8175200Y-69651625D01*
X8175200Y-69651625D02*
X8141866Y-69684958D01*
X8141866Y-69684958D02*
X8075200Y-69784958D01*
X8075200Y-69784958D02*
X8041866Y-69918291D01*
X8041866Y-69918291D02*
X8041866Y-70184958D01*
X8041866Y-70184958D02*
X8075200Y-70251625D01*
X8075200Y-70251625D02*
X8108533Y-70284958D01*
X8108533Y-70284958D02*
X8175200Y-70318291D01*
X8175200Y-70318291D02*
X8308533Y-70318291D01*
X8308533Y-70318291D02*
X8375200Y-70284958D01*
X8375200Y-70284958D02*
X8408533Y-70251625D01*
X8408533Y-70251625D02*
X8441866Y-70184958D01*
X8441866Y-70184958D02*
X8441866Y-70018291D01*
X8441866Y-70018291D02*
X8408533Y-69951625D01*
X8408533Y-69951625D02*
X8375200Y-69918291D01*
X8375200Y-69918291D02*
X8308533Y-69884958D01*
X8308533Y-69884958D02*
X8175200Y-69884958D01*
X8175200Y-69884958D02*
X8108533Y-69918291D01*
X8108533Y-69918291D02*
X8075200Y-69951625D01*
X8075200Y-69951625D02*
X8041866Y-70018291D01*
X48742667Y-36280091D02*
X49076000Y-36280091D01*
X49076000Y-36280091D02*
X49076000Y-36980091D01*
X48509333Y-36646758D02*
X48276000Y-36646758D01*
X48176000Y-36280091D02*
X48509333Y-36280091D01*
X48509333Y-36280091D02*
X48509333Y-36980091D01*
X48509333Y-36980091D02*
X48176000Y-36980091D01*
X47876000Y-36280091D02*
X47876000Y-36980091D01*
X47876000Y-36980091D02*
X47709333Y-36980091D01*
X47709333Y-36980091D02*
X47609333Y-36946758D01*
X47609333Y-36946758D02*
X47542667Y-36880091D01*
X47542667Y-36880091D02*
X47509333Y-36813425D01*
X47509333Y-36813425D02*
X47476000Y-36680091D01*
X47476000Y-36680091D02*
X47476000Y-36580091D01*
X47476000Y-36580091D02*
X47509333Y-36446758D01*
X47509333Y-36446758D02*
X47542667Y-36380091D01*
X47542667Y-36380091D02*
X47609333Y-36313425D01*
X47609333Y-36313425D02*
X47709333Y-36280091D01*
X47709333Y-36280091D02*
X47876000Y-36280091D01*
X46809333Y-36280091D02*
X47209333Y-36280091D01*
X47009333Y-36280091D02*
X47009333Y-36980091D01*
X47009333Y-36980091D02*
X47076000Y-36880091D01*
X47076000Y-36880091D02*
X47142667Y-36813425D01*
X47142667Y-36813425D02*
X47209333Y-36780091D01*
X46576000Y-36980091D02*
X46109333Y-36980091D01*
X46109333Y-36980091D02*
X46409333Y-36280091D01*
X160811733Y-79212958D02*
X160478399Y-79212958D01*
X160478399Y-79212958D02*
X160478399Y-78512958D01*
X161045066Y-78846291D02*
X161278400Y-78846291D01*
X161378400Y-79212958D02*
X161045066Y-79212958D01*
X161045066Y-79212958D02*
X161045066Y-78512958D01*
X161045066Y-78512958D02*
X161378400Y-78512958D01*
X161678399Y-79212958D02*
X161678399Y-78512958D01*
X161678399Y-78512958D02*
X161845066Y-78512958D01*
X161845066Y-78512958D02*
X161945066Y-78546291D01*
X161945066Y-78546291D02*
X162011733Y-78612958D01*
X162011733Y-78612958D02*
X162045066Y-78679625D01*
X162045066Y-78679625D02*
X162078399Y-78812958D01*
X162078399Y-78812958D02*
X162078399Y-78912958D01*
X162078399Y-78912958D02*
X162045066Y-79046291D01*
X162045066Y-79046291D02*
X162011733Y-79112958D01*
X162011733Y-79112958D02*
X161945066Y-79179625D01*
X161945066Y-79179625D02*
X161845066Y-79212958D01*
X161845066Y-79212958D02*
X161678399Y-79212958D01*
X162711733Y-78512958D02*
X162378399Y-78512958D01*
X162378399Y-78512958D02*
X162345066Y-78846291D01*
X162345066Y-78846291D02*
X162378399Y-78812958D01*
X162378399Y-78812958D02*
X162445066Y-78779625D01*
X162445066Y-78779625D02*
X162611733Y-78779625D01*
X162611733Y-78779625D02*
X162678399Y-78812958D01*
X162678399Y-78812958D02*
X162711733Y-78846291D01*
X162711733Y-78846291D02*
X162745066Y-78912958D01*
X162745066Y-78912958D02*
X162745066Y-79079625D01*
X162745066Y-79079625D02*
X162711733Y-79146291D01*
X162711733Y-79146291D02*
X162678399Y-79179625D01*
X162678399Y-79179625D02*
X162611733Y-79212958D01*
X162611733Y-79212958D02*
X162445066Y-79212958D01*
X162445066Y-79212958D02*
X162378399Y-79179625D01*
X162378399Y-79179625D02*
X162345066Y-79146291D01*
X162978400Y-78512958D02*
X163411733Y-78512958D01*
X163411733Y-78512958D02*
X163178400Y-78779625D01*
X163178400Y-78779625D02*
X163278400Y-78779625D01*
X163278400Y-78779625D02*
X163345066Y-78812958D01*
X163345066Y-78812958D02*
X163378400Y-78846291D01*
X163378400Y-78846291D02*
X163411733Y-78912958D01*
X163411733Y-78912958D02*
X163411733Y-79079625D01*
X163411733Y-79079625D02*
X163378400Y-79146291D01*
X163378400Y-79146291D02*
X163345066Y-79179625D01*
X163345066Y-79179625D02*
X163278400Y-79212958D01*
X163278400Y-79212958D02*
X163078400Y-79212958D01*
X163078400Y-79212958D02*
X163011733Y-79179625D01*
X163011733Y-79179625D02*
X162978400Y-79146291D01*
X198912533Y-74450358D02*
X198579199Y-74450358D01*
X198579199Y-74450358D02*
X198579199Y-73750358D01*
X199145866Y-74083691D02*
X199379200Y-74083691D01*
X199479200Y-74450358D02*
X199145866Y-74450358D01*
X199145866Y-74450358D02*
X199145866Y-73750358D01*
X199145866Y-73750358D02*
X199479200Y-73750358D01*
X199779199Y-74450358D02*
X199779199Y-73750358D01*
X199779199Y-73750358D02*
X199945866Y-73750358D01*
X199945866Y-73750358D02*
X200045866Y-73783691D01*
X200045866Y-73783691D02*
X200112533Y-73850358D01*
X200112533Y-73850358D02*
X200145866Y-73917025D01*
X200145866Y-73917025D02*
X200179199Y-74050358D01*
X200179199Y-74050358D02*
X200179199Y-74150358D01*
X200179199Y-74150358D02*
X200145866Y-74283691D01*
X200145866Y-74283691D02*
X200112533Y-74350358D01*
X200112533Y-74350358D02*
X200045866Y-74417025D01*
X200045866Y-74417025D02*
X199945866Y-74450358D01*
X199945866Y-74450358D02*
X199779199Y-74450358D01*
X200812533Y-73750358D02*
X200479199Y-73750358D01*
X200479199Y-73750358D02*
X200445866Y-74083691D01*
X200445866Y-74083691D02*
X200479199Y-74050358D01*
X200479199Y-74050358D02*
X200545866Y-74017025D01*
X200545866Y-74017025D02*
X200712533Y-74017025D01*
X200712533Y-74017025D02*
X200779199Y-74050358D01*
X200779199Y-74050358D02*
X200812533Y-74083691D01*
X200812533Y-74083691D02*
X200845866Y-74150358D01*
X200845866Y-74150358D02*
X200845866Y-74317025D01*
X200845866Y-74317025D02*
X200812533Y-74383691D01*
X200812533Y-74383691D02*
X200779199Y-74417025D01*
X200779199Y-74417025D02*
X200712533Y-74450358D01*
X200712533Y-74450358D02*
X200545866Y-74450358D01*
X200545866Y-74450358D02*
X200479199Y-74417025D01*
X200479199Y-74417025D02*
X200445866Y-74383691D01*
X201512533Y-74450358D02*
X201112533Y-74450358D01*
X201312533Y-74450358D02*
X201312533Y-73750358D01*
X201312533Y-73750358D02*
X201245866Y-73850358D01*
X201245866Y-73850358D02*
X201179200Y-73917025D01*
X201179200Y-73917025D02*
X201112533Y-73950358D01*
X142094667Y-17144483D02*
X141761333Y-17144483D01*
X141761333Y-17144483D02*
X141761333Y-16444483D01*
X142328000Y-16777816D02*
X142561334Y-16777816D01*
X142661334Y-17144483D02*
X142328000Y-17144483D01*
X142328000Y-17144483D02*
X142328000Y-16444483D01*
X142328000Y-16444483D02*
X142661334Y-16444483D01*
X142961333Y-17144483D02*
X142961333Y-16444483D01*
X142961333Y-16444483D02*
X143128000Y-16444483D01*
X143128000Y-16444483D02*
X143228000Y-16477816D01*
X143228000Y-16477816D02*
X143294667Y-16544483D01*
X143294667Y-16544483D02*
X143328000Y-16611150D01*
X143328000Y-16611150D02*
X143361333Y-16744483D01*
X143361333Y-16744483D02*
X143361333Y-16844483D01*
X143361333Y-16844483D02*
X143328000Y-16977816D01*
X143328000Y-16977816D02*
X143294667Y-17044483D01*
X143294667Y-17044483D02*
X143228000Y-17111150D01*
X143228000Y-17111150D02*
X143128000Y-17144483D01*
X143128000Y-17144483D02*
X142961333Y-17144483D01*
X143594667Y-16444483D02*
X144061333Y-16444483D01*
X144061333Y-16444483D02*
X143761333Y-17144483D01*
X86843467Y-36280091D02*
X87176800Y-36280091D01*
X87176800Y-36280091D02*
X87176800Y-36980091D01*
X86610133Y-36646758D02*
X86376800Y-36646758D01*
X86276800Y-36280091D02*
X86610133Y-36280091D01*
X86610133Y-36280091D02*
X86610133Y-36980091D01*
X86610133Y-36980091D02*
X86276800Y-36980091D01*
X85976800Y-36280091D02*
X85976800Y-36980091D01*
X85976800Y-36980091D02*
X85810133Y-36980091D01*
X85810133Y-36980091D02*
X85710133Y-36946758D01*
X85710133Y-36946758D02*
X85643467Y-36880091D01*
X85643467Y-36880091D02*
X85610133Y-36813425D01*
X85610133Y-36813425D02*
X85576800Y-36680091D01*
X85576800Y-36680091D02*
X85576800Y-36580091D01*
X85576800Y-36580091D02*
X85610133Y-36446758D01*
X85610133Y-36446758D02*
X85643467Y-36380091D01*
X85643467Y-36380091D02*
X85710133Y-36313425D01*
X85710133Y-36313425D02*
X85810133Y-36280091D01*
X85810133Y-36280091D02*
X85976800Y-36280091D01*
X84910133Y-36280091D02*
X85310133Y-36280091D01*
X85110133Y-36280091D02*
X85110133Y-36980091D01*
X85110133Y-36980091D02*
X85176800Y-36880091D01*
X85176800Y-36880091D02*
X85243467Y-36813425D01*
X85243467Y-36813425D02*
X85310133Y-36780091D01*
X84576800Y-36280091D02*
X84443466Y-36280091D01*
X84443466Y-36280091D02*
X84376800Y-36313425D01*
X84376800Y-36313425D02*
X84343466Y-36346758D01*
X84343466Y-36346758D02*
X84276800Y-36446758D01*
X84276800Y-36446758D02*
X84243466Y-36580091D01*
X84243466Y-36580091D02*
X84243466Y-36846758D01*
X84243466Y-36846758D02*
X84276800Y-36913425D01*
X84276800Y-36913425D02*
X84310133Y-36946758D01*
X84310133Y-36946758D02*
X84376800Y-36980091D01*
X84376800Y-36980091D02*
X84510133Y-36980091D01*
X84510133Y-36980091D02*
X84576800Y-36946758D01*
X84576800Y-36946758D02*
X84610133Y-36913425D01*
X84610133Y-36913425D02*
X84643466Y-36846758D01*
X84643466Y-36846758D02*
X84643466Y-36680091D01*
X84643466Y-36680091D02*
X84610133Y-36613425D01*
X84610133Y-36613425D02*
X84576800Y-36580091D01*
X84576800Y-36580091D02*
X84510133Y-36546758D01*
X84510133Y-36546758D02*
X84376800Y-36546758D01*
X84376800Y-36546758D02*
X84310133Y-36580091D01*
X84310133Y-36580091D02*
X84276800Y-36613425D01*
X84276800Y-36613425D02*
X84243466Y-36680091D01*
X46509333Y-60162558D02*
X46175999Y-60162558D01*
X46175999Y-60162558D02*
X46175999Y-59462558D01*
X46742666Y-59795891D02*
X46976000Y-59795891D01*
X47076000Y-60162558D02*
X46742666Y-60162558D01*
X46742666Y-60162558D02*
X46742666Y-59462558D01*
X46742666Y-59462558D02*
X47076000Y-59462558D01*
X47375999Y-60162558D02*
X47375999Y-59462558D01*
X47375999Y-59462558D02*
X47542666Y-59462558D01*
X47542666Y-59462558D02*
X47642666Y-59495891D01*
X47642666Y-59495891D02*
X47709333Y-59562558D01*
X47709333Y-59562558D02*
X47742666Y-59629225D01*
X47742666Y-59629225D02*
X47775999Y-59762558D01*
X47775999Y-59762558D02*
X47775999Y-59862558D01*
X47775999Y-59862558D02*
X47742666Y-59995891D01*
X47742666Y-59995891D02*
X47709333Y-60062558D01*
X47709333Y-60062558D02*
X47642666Y-60129225D01*
X47642666Y-60129225D02*
X47542666Y-60162558D01*
X47542666Y-60162558D02*
X47375999Y-60162558D01*
X48042666Y-59529225D02*
X48075999Y-59495891D01*
X48075999Y-59495891D02*
X48142666Y-59462558D01*
X48142666Y-59462558D02*
X48309333Y-59462558D01*
X48309333Y-59462558D02*
X48375999Y-59495891D01*
X48375999Y-59495891D02*
X48409333Y-59529225D01*
X48409333Y-59529225D02*
X48442666Y-59595891D01*
X48442666Y-59595891D02*
X48442666Y-59662558D01*
X48442666Y-59662558D02*
X48409333Y-59762558D01*
X48409333Y-59762558D02*
X48009333Y-60162558D01*
X48009333Y-60162558D02*
X48442666Y-60162558D01*
X49042666Y-59462558D02*
X48909333Y-59462558D01*
X48909333Y-59462558D02*
X48842666Y-59495891D01*
X48842666Y-59495891D02*
X48809333Y-59529225D01*
X48809333Y-59529225D02*
X48742666Y-59629225D01*
X48742666Y-59629225D02*
X48709333Y-59762558D01*
X48709333Y-59762558D02*
X48709333Y-60029225D01*
X48709333Y-60029225D02*
X48742666Y-60095891D01*
X48742666Y-60095891D02*
X48776000Y-60129225D01*
X48776000Y-60129225D02*
X48842666Y-60162558D01*
X48842666Y-60162558D02*
X48976000Y-60162558D01*
X48976000Y-60162558D02*
X49042666Y-60129225D01*
X49042666Y-60129225D02*
X49076000Y-60095891D01*
X49076000Y-60095891D02*
X49109333Y-60029225D01*
X49109333Y-60029225D02*
X49109333Y-59862558D01*
X49109333Y-59862558D02*
X49076000Y-59795891D01*
X49076000Y-59795891D02*
X49042666Y-59762558D01*
X49042666Y-59762558D02*
X48976000Y-59729225D01*
X48976000Y-59729225D02*
X48842666Y-59729225D01*
X48842666Y-59729225D02*
X48776000Y-59762558D01*
X48776000Y-59762558D02*
X48742666Y-59795891D01*
X48742666Y-59795891D02*
X48709333Y-59862558D01*
X269348891Y-6769244D02*
X269348891Y-7483529D01*
X269348891Y-7483529D02*
X269301272Y-7626386D01*
X269301272Y-7626386D02*
X269206034Y-7721625D01*
X269206034Y-7721625D02*
X269063177Y-7769244D01*
X269063177Y-7769244D02*
X268967939Y-7769244D01*
X270348891Y-7769244D02*
X269777463Y-7769244D01*
X270063177Y-7769244D02*
X270063177Y-6769244D01*
X270063177Y-6769244D02*
X269967939Y-6912101D01*
X269967939Y-6912101D02*
X269872701Y-7007339D01*
X269872701Y-7007339D02*
X269777463Y-7054958D01*
X220196267Y-55330491D02*
X220529600Y-55330491D01*
X220529600Y-55330491D02*
X220529600Y-56030491D01*
X219962933Y-55697158D02*
X219729600Y-55697158D01*
X219629600Y-55330491D02*
X219962933Y-55330491D01*
X219962933Y-55330491D02*
X219962933Y-56030491D01*
X219962933Y-56030491D02*
X219629600Y-56030491D01*
X219329600Y-55330491D02*
X219329600Y-56030491D01*
X219329600Y-56030491D02*
X219162933Y-56030491D01*
X219162933Y-56030491D02*
X219062933Y-55997158D01*
X219062933Y-55997158D02*
X218996267Y-55930491D01*
X218996267Y-55930491D02*
X218962933Y-55863825D01*
X218962933Y-55863825D02*
X218929600Y-55730491D01*
X218929600Y-55730491D02*
X218929600Y-55630491D01*
X218929600Y-55630491D02*
X218962933Y-55497158D01*
X218962933Y-55497158D02*
X218996267Y-55430491D01*
X218996267Y-55430491D02*
X219062933Y-55363825D01*
X219062933Y-55363825D02*
X219162933Y-55330491D01*
X219162933Y-55330491D02*
X219329600Y-55330491D01*
X218296267Y-56030491D02*
X218629600Y-56030491D01*
X218629600Y-56030491D02*
X218662933Y-55697158D01*
X218662933Y-55697158D02*
X218629600Y-55730491D01*
X218629600Y-55730491D02*
X218562933Y-55763825D01*
X218562933Y-55763825D02*
X218396267Y-55763825D01*
X218396267Y-55763825D02*
X218329600Y-55730491D01*
X218329600Y-55730491D02*
X218296267Y-55697158D01*
X218296267Y-55697158D02*
X218262933Y-55630491D01*
X218262933Y-55630491D02*
X218262933Y-55463825D01*
X218262933Y-55463825D02*
X218296267Y-55397158D01*
X218296267Y-55397158D02*
X218329600Y-55363825D01*
X218329600Y-55363825D02*
X218396267Y-55330491D01*
X218396267Y-55330491D02*
X218562933Y-55330491D01*
X218562933Y-55330491D02*
X218629600Y-55363825D01*
X218629600Y-55363825D02*
X218662933Y-55397158D01*
X218029600Y-56030491D02*
X217562933Y-56030491D01*
X217562933Y-56030491D02*
X217862933Y-55330491D01*
X237013333Y-83975558D02*
X236679999Y-83975558D01*
X236679999Y-83975558D02*
X236679999Y-83275558D01*
X237246666Y-83608891D02*
X237480000Y-83608891D01*
X237580000Y-83975558D02*
X237246666Y-83975558D01*
X237246666Y-83975558D02*
X237246666Y-83275558D01*
X237246666Y-83275558D02*
X237580000Y-83275558D01*
X237879999Y-83975558D02*
X237879999Y-83275558D01*
X237879999Y-83275558D02*
X238046666Y-83275558D01*
X238046666Y-83275558D02*
X238146666Y-83308891D01*
X238146666Y-83308891D02*
X238213333Y-83375558D01*
X238213333Y-83375558D02*
X238246666Y-83442225D01*
X238246666Y-83442225D02*
X238279999Y-83575558D01*
X238279999Y-83575558D02*
X238279999Y-83675558D01*
X238279999Y-83675558D02*
X238246666Y-83808891D01*
X238246666Y-83808891D02*
X238213333Y-83875558D01*
X238213333Y-83875558D02*
X238146666Y-83942225D01*
X238146666Y-83942225D02*
X238046666Y-83975558D01*
X238046666Y-83975558D02*
X237879999Y-83975558D01*
X238879999Y-83508891D02*
X238879999Y-83975558D01*
X238713333Y-83242225D02*
X238546666Y-83742225D01*
X238546666Y-83742225D02*
X238979999Y-83742225D01*
X239180000Y-83275558D02*
X239646666Y-83275558D01*
X239646666Y-83275558D02*
X239346666Y-83975558D01*
X163045067Y-55330491D02*
X163378400Y-55330491D01*
X163378400Y-55330491D02*
X163378400Y-56030491D01*
X162811733Y-55697158D02*
X162578400Y-55697158D01*
X162478400Y-55330491D02*
X162811733Y-55330491D01*
X162811733Y-55330491D02*
X162811733Y-56030491D01*
X162811733Y-56030491D02*
X162478400Y-56030491D01*
X162178400Y-55330491D02*
X162178400Y-56030491D01*
X162178400Y-56030491D02*
X162011733Y-56030491D01*
X162011733Y-56030491D02*
X161911733Y-55997158D01*
X161911733Y-55997158D02*
X161845067Y-55930491D01*
X161845067Y-55930491D02*
X161811733Y-55863825D01*
X161811733Y-55863825D02*
X161778400Y-55730491D01*
X161778400Y-55730491D02*
X161778400Y-55630491D01*
X161778400Y-55630491D02*
X161811733Y-55497158D01*
X161811733Y-55497158D02*
X161845067Y-55430491D01*
X161845067Y-55430491D02*
X161911733Y-55363825D01*
X161911733Y-55363825D02*
X162011733Y-55330491D01*
X162011733Y-55330491D02*
X162178400Y-55330491D01*
X161145067Y-56030491D02*
X161478400Y-56030491D01*
X161478400Y-56030491D02*
X161511733Y-55697158D01*
X161511733Y-55697158D02*
X161478400Y-55730491D01*
X161478400Y-55730491D02*
X161411733Y-55763825D01*
X161411733Y-55763825D02*
X161245067Y-55763825D01*
X161245067Y-55763825D02*
X161178400Y-55730491D01*
X161178400Y-55730491D02*
X161145067Y-55697158D01*
X161145067Y-55697158D02*
X161111733Y-55630491D01*
X161111733Y-55630491D02*
X161111733Y-55463825D01*
X161111733Y-55463825D02*
X161145067Y-55397158D01*
X161145067Y-55397158D02*
X161178400Y-55363825D01*
X161178400Y-55363825D02*
X161245067Y-55330491D01*
X161245067Y-55330491D02*
X161411733Y-55330491D01*
X161411733Y-55330491D02*
X161478400Y-55363825D01*
X161478400Y-55363825D02*
X161511733Y-55397158D01*
X160511733Y-55797158D02*
X160511733Y-55330491D01*
X160678400Y-56063825D02*
X160845066Y-55563825D01*
X160845066Y-55563825D02*
X160411733Y-55563825D01*
X218296267Y-17144483D02*
X217962933Y-17144483D01*
X217962933Y-17144483D02*
X217962933Y-16444483D01*
X218529600Y-16777816D02*
X218762934Y-16777816D01*
X218862934Y-17144483D02*
X218529600Y-17144483D01*
X218529600Y-17144483D02*
X218529600Y-16444483D01*
X218529600Y-16444483D02*
X218862934Y-16444483D01*
X219162933Y-17144483D02*
X219162933Y-16444483D01*
X219162933Y-16444483D02*
X219329600Y-16444483D01*
X219329600Y-16444483D02*
X219429600Y-16477816D01*
X219429600Y-16477816D02*
X219496267Y-16544483D01*
X219496267Y-16544483D02*
X219529600Y-16611150D01*
X219529600Y-16611150D02*
X219562933Y-16744483D01*
X219562933Y-16744483D02*
X219562933Y-16844483D01*
X219562933Y-16844483D02*
X219529600Y-16977816D01*
X219529600Y-16977816D02*
X219496267Y-17044483D01*
X219496267Y-17044483D02*
X219429600Y-17111150D01*
X219429600Y-17111150D02*
X219329600Y-17144483D01*
X219329600Y-17144483D02*
X219162933Y-17144483D01*
X219796267Y-16444483D02*
X220229600Y-16444483D01*
X220229600Y-16444483D02*
X219996267Y-16711150D01*
X219996267Y-16711150D02*
X220096267Y-16711150D01*
X220096267Y-16711150D02*
X220162933Y-16744483D01*
X220162933Y-16744483D02*
X220196267Y-16777816D01*
X220196267Y-16777816D02*
X220229600Y-16844483D01*
X220229600Y-16844483D02*
X220229600Y-17011150D01*
X220229600Y-17011150D02*
X220196267Y-17077816D01*
X220196267Y-17077816D02*
X220162933Y-17111150D01*
X220162933Y-17111150D02*
X220096267Y-17144483D01*
X220096267Y-17144483D02*
X219896267Y-17144483D01*
X219896267Y-17144483D02*
X219829600Y-17111150D01*
X219829600Y-17111150D02*
X219796267Y-17077816D01*
X84610133Y-17144483D02*
X84276799Y-17144483D01*
X84276799Y-17144483D02*
X84276799Y-16444483D01*
X84843466Y-16777816D02*
X85076800Y-16777816D01*
X85176800Y-17144483D02*
X84843466Y-17144483D01*
X84843466Y-17144483D02*
X84843466Y-16444483D01*
X84843466Y-16444483D02*
X85176800Y-16444483D01*
X85476799Y-17144483D02*
X85476799Y-16444483D01*
X85476799Y-16444483D02*
X85643466Y-16444483D01*
X85643466Y-16444483D02*
X85743466Y-16477816D01*
X85743466Y-16477816D02*
X85810133Y-16544483D01*
X85810133Y-16544483D02*
X85843466Y-16611150D01*
X85843466Y-16611150D02*
X85876799Y-16744483D01*
X85876799Y-16744483D02*
X85876799Y-16844483D01*
X85876799Y-16844483D02*
X85843466Y-16977816D01*
X85843466Y-16977816D02*
X85810133Y-17044483D01*
X85810133Y-17044483D02*
X85743466Y-17111150D01*
X85743466Y-17111150D02*
X85643466Y-17144483D01*
X85643466Y-17144483D02*
X85476799Y-17144483D01*
X86543466Y-17144483D02*
X86143466Y-17144483D01*
X86343466Y-17144483D02*
X86343466Y-16444483D01*
X86343466Y-16444483D02*
X86276799Y-16544483D01*
X86276799Y-16544483D02*
X86210133Y-16611150D01*
X86210133Y-16611150D02*
X86143466Y-16644483D01*
X86976800Y-16444483D02*
X87043466Y-16444483D01*
X87043466Y-16444483D02*
X87110133Y-16477816D01*
X87110133Y-16477816D02*
X87143466Y-16511150D01*
X87143466Y-16511150D02*
X87176800Y-16577816D01*
X87176800Y-16577816D02*
X87210133Y-16711150D01*
X87210133Y-16711150D02*
X87210133Y-16877816D01*
X87210133Y-16877816D02*
X87176800Y-17011150D01*
X87176800Y-17011150D02*
X87143466Y-17077816D01*
X87143466Y-17077816D02*
X87110133Y-17111150D01*
X87110133Y-17111150D02*
X87043466Y-17144483D01*
X87043466Y-17144483D02*
X86976800Y-17144483D01*
X86976800Y-17144483D02*
X86910133Y-17111150D01*
X86910133Y-17111150D02*
X86876800Y-17077816D01*
X86876800Y-17077816D02*
X86843466Y-17011150D01*
X86843466Y-17011150D02*
X86810133Y-16877816D01*
X86810133Y-16877816D02*
X86810133Y-16711150D01*
X86810133Y-16711150D02*
X86843466Y-16577816D01*
X86843466Y-16577816D02*
X86876800Y-16511150D01*
X86876800Y-16511150D02*
X86910133Y-16477816D01*
X86910133Y-16477816D02*
X86976800Y-16444483D01*
X132677989Y-27792504D02*
X133154179Y-27792504D01*
X132582751Y-28078219D02*
X132916084Y-27078219D01*
X132916084Y-27078219D02*
X133249417Y-28078219D01*
X134106560Y-28078219D02*
X133535132Y-28078219D01*
X133820846Y-28078219D02*
X133820846Y-27078219D01*
X133820846Y-27078219D02*
X133725608Y-27221076D01*
X133725608Y-27221076D02*
X133630370Y-27316314D01*
X133630370Y-27316314D02*
X133535132Y-27363933D01*
X217962933Y-41112158D02*
X217629599Y-41112158D01*
X217629599Y-41112158D02*
X217629599Y-40412158D01*
X218196266Y-40745491D02*
X218429600Y-40745491D01*
X218529600Y-41112158D02*
X218196266Y-41112158D01*
X218196266Y-41112158D02*
X218196266Y-40412158D01*
X218196266Y-40412158D02*
X218529600Y-40412158D01*
X218829599Y-41112158D02*
X218829599Y-40412158D01*
X218829599Y-40412158D02*
X218996266Y-40412158D01*
X218996266Y-40412158D02*
X219096266Y-40445491D01*
X219096266Y-40445491D02*
X219162933Y-40512158D01*
X219162933Y-40512158D02*
X219196266Y-40578825D01*
X219196266Y-40578825D02*
X219229599Y-40712158D01*
X219229599Y-40712158D02*
X219229599Y-40812158D01*
X219229599Y-40812158D02*
X219196266Y-40945491D01*
X219196266Y-40945491D02*
X219162933Y-41012158D01*
X219162933Y-41012158D02*
X219096266Y-41078825D01*
X219096266Y-41078825D02*
X218996266Y-41112158D01*
X218996266Y-41112158D02*
X218829599Y-41112158D01*
X219829599Y-40412158D02*
X219696266Y-40412158D01*
X219696266Y-40412158D02*
X219629599Y-40445491D01*
X219629599Y-40445491D02*
X219596266Y-40478825D01*
X219596266Y-40478825D02*
X219529599Y-40578825D01*
X219529599Y-40578825D02*
X219496266Y-40712158D01*
X219496266Y-40712158D02*
X219496266Y-40978825D01*
X219496266Y-40978825D02*
X219529599Y-41045491D01*
X219529599Y-41045491D02*
X219562933Y-41078825D01*
X219562933Y-41078825D02*
X219629599Y-41112158D01*
X219629599Y-41112158D02*
X219762933Y-41112158D01*
X219762933Y-41112158D02*
X219829599Y-41078825D01*
X219829599Y-41078825D02*
X219862933Y-41045491D01*
X219862933Y-41045491D02*
X219896266Y-40978825D01*
X219896266Y-40978825D02*
X219896266Y-40812158D01*
X219896266Y-40812158D02*
X219862933Y-40745491D01*
X219862933Y-40745491D02*
X219829599Y-40712158D01*
X219829599Y-40712158D02*
X219762933Y-40678825D01*
X219762933Y-40678825D02*
X219629599Y-40678825D01*
X219629599Y-40678825D02*
X219562933Y-40712158D01*
X219562933Y-40712158D02*
X219529599Y-40745491D01*
X219529599Y-40745491D02*
X219496266Y-40812158D01*
X220496266Y-40412158D02*
X220362933Y-40412158D01*
X220362933Y-40412158D02*
X220296266Y-40445491D01*
X220296266Y-40445491D02*
X220262933Y-40478825D01*
X220262933Y-40478825D02*
X220196266Y-40578825D01*
X220196266Y-40578825D02*
X220162933Y-40712158D01*
X220162933Y-40712158D02*
X220162933Y-40978825D01*
X220162933Y-40978825D02*
X220196266Y-41045491D01*
X220196266Y-41045491D02*
X220229600Y-41078825D01*
X220229600Y-41078825D02*
X220296266Y-41112158D01*
X220296266Y-41112158D02*
X220429600Y-41112158D01*
X220429600Y-41112158D02*
X220496266Y-41078825D01*
X220496266Y-41078825D02*
X220529600Y-41045491D01*
X220529600Y-41045491D02*
X220562933Y-40978825D01*
X220562933Y-40978825D02*
X220562933Y-40812158D01*
X220562933Y-40812158D02*
X220529600Y-40745491D01*
X220529600Y-40745491D02*
X220496266Y-40712158D01*
X220496266Y-40712158D02*
X220429600Y-40678825D01*
X220429600Y-40678825D02*
X220296266Y-40678825D01*
X220296266Y-40678825D02*
X220229600Y-40712158D01*
X220229600Y-40712158D02*
X220196266Y-40745491D01*
X220196266Y-40745491D02*
X220162933Y-40812158D01*
X160811733Y-41112158D02*
X160478399Y-41112158D01*
X160478399Y-41112158D02*
X160478399Y-40412158D01*
X161045066Y-40745491D02*
X161278400Y-40745491D01*
X161378400Y-41112158D02*
X161045066Y-41112158D01*
X161045066Y-41112158D02*
X161045066Y-40412158D01*
X161045066Y-40412158D02*
X161378400Y-40412158D01*
X161678399Y-41112158D02*
X161678399Y-40412158D01*
X161678399Y-40412158D02*
X161845066Y-40412158D01*
X161845066Y-40412158D02*
X161945066Y-40445491D01*
X161945066Y-40445491D02*
X162011733Y-40512158D01*
X162011733Y-40512158D02*
X162045066Y-40578825D01*
X162045066Y-40578825D02*
X162078399Y-40712158D01*
X162078399Y-40712158D02*
X162078399Y-40812158D01*
X162078399Y-40812158D02*
X162045066Y-40945491D01*
X162045066Y-40945491D02*
X162011733Y-41012158D01*
X162011733Y-41012158D02*
X161945066Y-41078825D01*
X161945066Y-41078825D02*
X161845066Y-41112158D01*
X161845066Y-41112158D02*
X161678399Y-41112158D01*
X162311733Y-40412158D02*
X162778399Y-40412158D01*
X162778399Y-40412158D02*
X162478399Y-41112158D01*
X163178400Y-40412158D02*
X163245066Y-40412158D01*
X163245066Y-40412158D02*
X163311733Y-40445491D01*
X163311733Y-40445491D02*
X163345066Y-40478825D01*
X163345066Y-40478825D02*
X163378400Y-40545491D01*
X163378400Y-40545491D02*
X163411733Y-40678825D01*
X163411733Y-40678825D02*
X163411733Y-40845491D01*
X163411733Y-40845491D02*
X163378400Y-40978825D01*
X163378400Y-40978825D02*
X163345066Y-41045491D01*
X163345066Y-41045491D02*
X163311733Y-41078825D01*
X163311733Y-41078825D02*
X163245066Y-41112158D01*
X163245066Y-41112158D02*
X163178400Y-41112158D01*
X163178400Y-41112158D02*
X163111733Y-41078825D01*
X163111733Y-41078825D02*
X163078400Y-41045491D01*
X163078400Y-41045491D02*
X163045066Y-40978825D01*
X163045066Y-40978825D02*
X163011733Y-40845491D01*
X163011733Y-40845491D02*
X163011733Y-40678825D01*
X163011733Y-40678825D02*
X163045066Y-40545491D01*
X163045066Y-40545491D02*
X163078400Y-40478825D01*
X163078400Y-40478825D02*
X163111733Y-40445491D01*
X163111733Y-40445491D02*
X163178400Y-40412158D01*
X256063733Y-75641008D02*
X255730399Y-75641008D01*
X255730399Y-75641008D02*
X255730399Y-74941008D01*
X256297066Y-75274341D02*
X256530400Y-75274341D01*
X256630400Y-75641008D02*
X256297066Y-75641008D01*
X256297066Y-75641008D02*
X256297066Y-74941008D01*
X256297066Y-74941008D02*
X256630400Y-74941008D01*
X256930399Y-75641008D02*
X256930399Y-74941008D01*
X256930399Y-74941008D02*
X257097066Y-74941008D01*
X257097066Y-74941008D02*
X257197066Y-74974341D01*
X257197066Y-74974341D02*
X257263733Y-75041008D01*
X257263733Y-75041008D02*
X257297066Y-75107675D01*
X257297066Y-75107675D02*
X257330399Y-75241008D01*
X257330399Y-75241008D02*
X257330399Y-75341008D01*
X257330399Y-75341008D02*
X257297066Y-75474341D01*
X257297066Y-75474341D02*
X257263733Y-75541008D01*
X257263733Y-75541008D02*
X257197066Y-75607675D01*
X257197066Y-75607675D02*
X257097066Y-75641008D01*
X257097066Y-75641008D02*
X256930399Y-75641008D01*
X257930399Y-75174341D02*
X257930399Y-75641008D01*
X257763733Y-74907675D02*
X257597066Y-75407675D01*
X257597066Y-75407675D02*
X258030399Y-75407675D01*
X258597066Y-74941008D02*
X258463733Y-74941008D01*
X258463733Y-74941008D02*
X258397066Y-74974341D01*
X258397066Y-74974341D02*
X258363733Y-75007675D01*
X258363733Y-75007675D02*
X258297066Y-75107675D01*
X258297066Y-75107675D02*
X258263733Y-75241008D01*
X258263733Y-75241008D02*
X258263733Y-75507675D01*
X258263733Y-75507675D02*
X258297066Y-75574341D01*
X258297066Y-75574341D02*
X258330400Y-75607675D01*
X258330400Y-75607675D02*
X258397066Y-75641008D01*
X258397066Y-75641008D02*
X258530400Y-75641008D01*
X258530400Y-75641008D02*
X258597066Y-75607675D01*
X258597066Y-75607675D02*
X258630400Y-75574341D01*
X258630400Y-75574341D02*
X258663733Y-75507675D01*
X258663733Y-75507675D02*
X258663733Y-75341008D01*
X258663733Y-75341008D02*
X258630400Y-75274341D01*
X258630400Y-75274341D02*
X258597066Y-75241008D01*
X258597066Y-75241008D02*
X258530400Y-75207675D01*
X258530400Y-75207675D02*
X258397066Y-75207675D01*
X258397066Y-75207675D02*
X258330400Y-75241008D01*
X258330400Y-75241008D02*
X258297066Y-75274341D01*
X258297066Y-75274341D02*
X258263733Y-75341008D01*
X103993867Y-17144483D02*
X103660533Y-17144483D01*
X103660533Y-17144483D02*
X103660533Y-16444483D01*
X104227200Y-16777816D02*
X104460534Y-16777816D01*
X104560534Y-17144483D02*
X104227200Y-17144483D01*
X104227200Y-17144483D02*
X104227200Y-16444483D01*
X104227200Y-16444483D02*
X104560534Y-16444483D01*
X104860533Y-17144483D02*
X104860533Y-16444483D01*
X104860533Y-16444483D02*
X105027200Y-16444483D01*
X105027200Y-16444483D02*
X105127200Y-16477816D01*
X105127200Y-16477816D02*
X105193867Y-16544483D01*
X105193867Y-16544483D02*
X105227200Y-16611150D01*
X105227200Y-16611150D02*
X105260533Y-16744483D01*
X105260533Y-16744483D02*
X105260533Y-16844483D01*
X105260533Y-16844483D02*
X105227200Y-16977816D01*
X105227200Y-16977816D02*
X105193867Y-17044483D01*
X105193867Y-17044483D02*
X105127200Y-17111150D01*
X105127200Y-17111150D02*
X105027200Y-17144483D01*
X105027200Y-17144483D02*
X104860533Y-17144483D01*
X105593867Y-17144483D02*
X105727200Y-17144483D01*
X105727200Y-17144483D02*
X105793867Y-17111150D01*
X105793867Y-17111150D02*
X105827200Y-17077816D01*
X105827200Y-17077816D02*
X105893867Y-16977816D01*
X105893867Y-16977816D02*
X105927200Y-16844483D01*
X105927200Y-16844483D02*
X105927200Y-16577816D01*
X105927200Y-16577816D02*
X105893867Y-16511150D01*
X105893867Y-16511150D02*
X105860533Y-16477816D01*
X105860533Y-16477816D02*
X105793867Y-16444483D01*
X105793867Y-16444483D02*
X105660533Y-16444483D01*
X105660533Y-16444483D02*
X105593867Y-16477816D01*
X105593867Y-16477816D02*
X105560533Y-16511150D01*
X105560533Y-16511150D02*
X105527200Y-16577816D01*
X105527200Y-16577816D02*
X105527200Y-16744483D01*
X105527200Y-16744483D02*
X105560533Y-16811150D01*
X105560533Y-16811150D02*
X105593867Y-16844483D01*
X105593867Y-16844483D02*
X105660533Y-16877816D01*
X105660533Y-16877816D02*
X105793867Y-16877816D01*
X105793867Y-16877816D02*
X105860533Y-16844483D01*
X105860533Y-16844483D02*
X105893867Y-16811150D01*
X105893867Y-16811150D02*
X105927200Y-16744483D01*
X237346667Y-17144483D02*
X237013333Y-17144483D01*
X237013333Y-17144483D02*
X237013333Y-16444483D01*
X237580000Y-16777816D02*
X237813334Y-16777816D01*
X237913334Y-17144483D02*
X237580000Y-17144483D01*
X237580000Y-17144483D02*
X237580000Y-16444483D01*
X237580000Y-16444483D02*
X237913334Y-16444483D01*
X238213333Y-17144483D02*
X238213333Y-16444483D01*
X238213333Y-16444483D02*
X238380000Y-16444483D01*
X238380000Y-16444483D02*
X238480000Y-16477816D01*
X238480000Y-16477816D02*
X238546667Y-16544483D01*
X238546667Y-16544483D02*
X238580000Y-16611150D01*
X238580000Y-16611150D02*
X238613333Y-16744483D01*
X238613333Y-16744483D02*
X238613333Y-16844483D01*
X238613333Y-16844483D02*
X238580000Y-16977816D01*
X238580000Y-16977816D02*
X238546667Y-17044483D01*
X238546667Y-17044483D02*
X238480000Y-17111150D01*
X238480000Y-17111150D02*
X238380000Y-17144483D01*
X238380000Y-17144483D02*
X238213333Y-17144483D01*
X238880000Y-16511150D02*
X238913333Y-16477816D01*
X238913333Y-16477816D02*
X238980000Y-16444483D01*
X238980000Y-16444483D02*
X239146667Y-16444483D01*
X239146667Y-16444483D02*
X239213333Y-16477816D01*
X239213333Y-16477816D02*
X239246667Y-16511150D01*
X239246667Y-16511150D02*
X239280000Y-16577816D01*
X239280000Y-16577816D02*
X239280000Y-16644483D01*
X239280000Y-16644483D02*
X239246667Y-16744483D01*
X239246667Y-16744483D02*
X238846667Y-17144483D01*
X238846667Y-17144483D02*
X239280000Y-17144483D01*
X27458933Y-64925158D02*
X27125599Y-64925158D01*
X27125599Y-64925158D02*
X27125599Y-64225158D01*
X27692266Y-64558491D02*
X27925600Y-64558491D01*
X28025600Y-64925158D02*
X27692266Y-64925158D01*
X27692266Y-64925158D02*
X27692266Y-64225158D01*
X27692266Y-64225158D02*
X28025600Y-64225158D01*
X28325599Y-64925158D02*
X28325599Y-64225158D01*
X28325599Y-64225158D02*
X28492266Y-64225158D01*
X28492266Y-64225158D02*
X28592266Y-64258491D01*
X28592266Y-64258491D02*
X28658933Y-64325158D01*
X28658933Y-64325158D02*
X28692266Y-64391825D01*
X28692266Y-64391825D02*
X28725599Y-64525158D01*
X28725599Y-64525158D02*
X28725599Y-64625158D01*
X28725599Y-64625158D02*
X28692266Y-64758491D01*
X28692266Y-64758491D02*
X28658933Y-64825158D01*
X28658933Y-64825158D02*
X28592266Y-64891825D01*
X28592266Y-64891825D02*
X28492266Y-64925158D01*
X28492266Y-64925158D02*
X28325599Y-64925158D01*
X28992266Y-64291825D02*
X29025599Y-64258491D01*
X29025599Y-64258491D02*
X29092266Y-64225158D01*
X29092266Y-64225158D02*
X29258933Y-64225158D01*
X29258933Y-64225158D02*
X29325599Y-64258491D01*
X29325599Y-64258491D02*
X29358933Y-64291825D01*
X29358933Y-64291825D02*
X29392266Y-64358491D01*
X29392266Y-64358491D02*
X29392266Y-64425158D01*
X29392266Y-64425158D02*
X29358933Y-64525158D01*
X29358933Y-64525158D02*
X28958933Y-64925158D01*
X28958933Y-64925158D02*
X29392266Y-64925158D01*
X29625600Y-64225158D02*
X30092266Y-64225158D01*
X30092266Y-64225158D02*
X29792266Y-64925158D01*
X177332867Y-93431291D02*
X177666200Y-93431291D01*
X177666200Y-93431291D02*
X177666200Y-94131291D01*
X177099533Y-93797958D02*
X176866200Y-93797958D01*
X176766200Y-93431291D02*
X177099533Y-93431291D01*
X177099533Y-93431291D02*
X177099533Y-94131291D01*
X177099533Y-94131291D02*
X176766200Y-94131291D01*
X176466200Y-93431291D02*
X176466200Y-94131291D01*
X176466200Y-94131291D02*
X176299533Y-94131291D01*
X176299533Y-94131291D02*
X176199533Y-94097958D01*
X176199533Y-94097958D02*
X176132867Y-94031291D01*
X176132867Y-94031291D02*
X176099533Y-93964625D01*
X176099533Y-93964625D02*
X176066200Y-93831291D01*
X176066200Y-93831291D02*
X176066200Y-93731291D01*
X176066200Y-93731291D02*
X176099533Y-93597958D01*
X176099533Y-93597958D02*
X176132867Y-93531291D01*
X176132867Y-93531291D02*
X176199533Y-93464625D01*
X176199533Y-93464625D02*
X176299533Y-93431291D01*
X176299533Y-93431291D02*
X176466200Y-93431291D01*
X175466200Y-93897958D02*
X175466200Y-93431291D01*
X175632867Y-94164625D02*
X175799533Y-93664625D01*
X175799533Y-93664625D02*
X175366200Y-93664625D01*
X175132866Y-94064625D02*
X175099533Y-94097958D01*
X175099533Y-94097958D02*
X175032866Y-94131291D01*
X175032866Y-94131291D02*
X174866200Y-94131291D01*
X174866200Y-94131291D02*
X174799533Y-94097958D01*
X174799533Y-94097958D02*
X174766200Y-94064625D01*
X174766200Y-94064625D02*
X174732866Y-93997958D01*
X174732866Y-93997958D02*
X174732866Y-93931291D01*
X174732866Y-93931291D02*
X174766200Y-93831291D01*
X174766200Y-93831291D02*
X175166200Y-93431291D01*
X175166200Y-93431291D02*
X174732866Y-93431291D01*
X180195467Y-17144483D02*
X179862133Y-17144483D01*
X179862133Y-17144483D02*
X179862133Y-16444483D01*
X180428800Y-16777816D02*
X180662134Y-16777816D01*
X180762134Y-17144483D02*
X180428800Y-17144483D01*
X180428800Y-17144483D02*
X180428800Y-16444483D01*
X180428800Y-16444483D02*
X180762134Y-16444483D01*
X181062133Y-17144483D02*
X181062133Y-16444483D01*
X181062133Y-16444483D02*
X181228800Y-16444483D01*
X181228800Y-16444483D02*
X181328800Y-16477816D01*
X181328800Y-16477816D02*
X181395467Y-16544483D01*
X181395467Y-16544483D02*
X181428800Y-16611150D01*
X181428800Y-16611150D02*
X181462133Y-16744483D01*
X181462133Y-16744483D02*
X181462133Y-16844483D01*
X181462133Y-16844483D02*
X181428800Y-16977816D01*
X181428800Y-16977816D02*
X181395467Y-17044483D01*
X181395467Y-17044483D02*
X181328800Y-17111150D01*
X181328800Y-17111150D02*
X181228800Y-17144483D01*
X181228800Y-17144483D02*
X181062133Y-17144483D01*
X182095467Y-16444483D02*
X181762133Y-16444483D01*
X181762133Y-16444483D02*
X181728800Y-16777816D01*
X181728800Y-16777816D02*
X181762133Y-16744483D01*
X181762133Y-16744483D02*
X181828800Y-16711150D01*
X181828800Y-16711150D02*
X181995467Y-16711150D01*
X181995467Y-16711150D02*
X182062133Y-16744483D01*
X182062133Y-16744483D02*
X182095467Y-16777816D01*
X182095467Y-16777816D02*
X182128800Y-16844483D01*
X182128800Y-16844483D02*
X182128800Y-17011150D01*
X182128800Y-17011150D02*
X182095467Y-17077816D01*
X182095467Y-17077816D02*
X182062133Y-17111150D01*
X182062133Y-17111150D02*
X181995467Y-17144483D01*
X181995467Y-17144483D02*
X181828800Y-17144483D01*
X181828800Y-17144483D02*
X181762133Y-17111150D01*
X181762133Y-17111150D02*
X181728800Y-17077816D01*
X134469467Y-93431291D02*
X134802800Y-93431291D01*
X134802800Y-93431291D02*
X134802800Y-94131291D01*
X134236133Y-93797958D02*
X134002800Y-93797958D01*
X133902800Y-93431291D02*
X134236133Y-93431291D01*
X134236133Y-93431291D02*
X134236133Y-94131291D01*
X134236133Y-94131291D02*
X133902800Y-94131291D01*
X133602800Y-93431291D02*
X133602800Y-94131291D01*
X133602800Y-94131291D02*
X133436133Y-94131291D01*
X133436133Y-94131291D02*
X133336133Y-94097958D01*
X133336133Y-94097958D02*
X133269467Y-94031291D01*
X133269467Y-94031291D02*
X133236133Y-93964625D01*
X133236133Y-93964625D02*
X133202800Y-93831291D01*
X133202800Y-93831291D02*
X133202800Y-93731291D01*
X133202800Y-93731291D02*
X133236133Y-93597958D01*
X133236133Y-93597958D02*
X133269467Y-93531291D01*
X133269467Y-93531291D02*
X133336133Y-93464625D01*
X133336133Y-93464625D02*
X133436133Y-93431291D01*
X133436133Y-93431291D02*
X133602800Y-93431291D01*
X132602800Y-93897958D02*
X132602800Y-93431291D01*
X132769467Y-94164625D02*
X132936133Y-93664625D01*
X132936133Y-93664625D02*
X132502800Y-93664625D01*
X131869466Y-93431291D02*
X132269466Y-93431291D01*
X132069466Y-93431291D02*
X132069466Y-94131291D01*
X132069466Y-94131291D02*
X132136133Y-94031291D01*
X132136133Y-94031291D02*
X132202800Y-93964625D01*
X132202800Y-93964625D02*
X132269466Y-93931291D01*
X29692267Y-41042691D02*
X30025600Y-41042691D01*
X30025600Y-41042691D02*
X30025600Y-41742691D01*
X29458933Y-41409358D02*
X29225600Y-41409358D01*
X29125600Y-41042691D02*
X29458933Y-41042691D01*
X29458933Y-41042691D02*
X29458933Y-41742691D01*
X29458933Y-41742691D02*
X29125600Y-41742691D01*
X28825600Y-41042691D02*
X28825600Y-41742691D01*
X28825600Y-41742691D02*
X28658933Y-41742691D01*
X28658933Y-41742691D02*
X28558933Y-41709358D01*
X28558933Y-41709358D02*
X28492267Y-41642691D01*
X28492267Y-41642691D02*
X28458933Y-41576025D01*
X28458933Y-41576025D02*
X28425600Y-41442691D01*
X28425600Y-41442691D02*
X28425600Y-41342691D01*
X28425600Y-41342691D02*
X28458933Y-41209358D01*
X28458933Y-41209358D02*
X28492267Y-41142691D01*
X28492267Y-41142691D02*
X28558933Y-41076025D01*
X28558933Y-41076025D02*
X28658933Y-41042691D01*
X28658933Y-41042691D02*
X28825600Y-41042691D01*
X27758933Y-41042691D02*
X28158933Y-41042691D01*
X27958933Y-41042691D02*
X27958933Y-41742691D01*
X27958933Y-41742691D02*
X28025600Y-41642691D01*
X28025600Y-41642691D02*
X28092267Y-41576025D01*
X28092267Y-41576025D02*
X28158933Y-41542691D01*
X27158933Y-41742691D02*
X27292266Y-41742691D01*
X27292266Y-41742691D02*
X27358933Y-41709358D01*
X27358933Y-41709358D02*
X27392266Y-41676025D01*
X27392266Y-41676025D02*
X27458933Y-41576025D01*
X27458933Y-41576025D02*
X27492266Y-41442691D01*
X27492266Y-41442691D02*
X27492266Y-41176025D01*
X27492266Y-41176025D02*
X27458933Y-41109358D01*
X27458933Y-41109358D02*
X27425600Y-41076025D01*
X27425600Y-41076025D02*
X27358933Y-41042691D01*
X27358933Y-41042691D02*
X27225600Y-41042691D01*
X27225600Y-41042691D02*
X27158933Y-41076025D01*
X27158933Y-41076025D02*
X27125600Y-41109358D01*
X27125600Y-41109358D02*
X27092266Y-41176025D01*
X27092266Y-41176025D02*
X27092266Y-41342691D01*
X27092266Y-41342691D02*
X27125600Y-41409358D01*
X27125600Y-41409358D02*
X27158933Y-41442691D01*
X27158933Y-41442691D02*
X27225600Y-41476025D01*
X27225600Y-41476025D02*
X27358933Y-41476025D01*
X27358933Y-41476025D02*
X27425600Y-41442691D01*
X27425600Y-41442691D02*
X27458933Y-41409358D01*
X27458933Y-41409358D02*
X27492266Y-41342691D01*
X182095467Y-55330491D02*
X182428800Y-55330491D01*
X182428800Y-55330491D02*
X182428800Y-56030491D01*
X181862133Y-55697158D02*
X181628800Y-55697158D01*
X181528800Y-55330491D02*
X181862133Y-55330491D01*
X181862133Y-55330491D02*
X181862133Y-56030491D01*
X181862133Y-56030491D02*
X181528800Y-56030491D01*
X181228800Y-55330491D02*
X181228800Y-56030491D01*
X181228800Y-56030491D02*
X181062133Y-56030491D01*
X181062133Y-56030491D02*
X180962133Y-55997158D01*
X180962133Y-55997158D02*
X180895467Y-55930491D01*
X180895467Y-55930491D02*
X180862133Y-55863825D01*
X180862133Y-55863825D02*
X180828800Y-55730491D01*
X180828800Y-55730491D02*
X180828800Y-55630491D01*
X180828800Y-55630491D02*
X180862133Y-55497158D01*
X180862133Y-55497158D02*
X180895467Y-55430491D01*
X180895467Y-55430491D02*
X180962133Y-55363825D01*
X180962133Y-55363825D02*
X181062133Y-55330491D01*
X181062133Y-55330491D02*
X181228800Y-55330491D01*
X180195467Y-56030491D02*
X180528800Y-56030491D01*
X180528800Y-56030491D02*
X180562133Y-55697158D01*
X180562133Y-55697158D02*
X180528800Y-55730491D01*
X180528800Y-55730491D02*
X180462133Y-55763825D01*
X180462133Y-55763825D02*
X180295467Y-55763825D01*
X180295467Y-55763825D02*
X180228800Y-55730491D01*
X180228800Y-55730491D02*
X180195467Y-55697158D01*
X180195467Y-55697158D02*
X180162133Y-55630491D01*
X180162133Y-55630491D02*
X180162133Y-55463825D01*
X180162133Y-55463825D02*
X180195467Y-55397158D01*
X180195467Y-55397158D02*
X180228800Y-55363825D01*
X180228800Y-55363825D02*
X180295467Y-55330491D01*
X180295467Y-55330491D02*
X180462133Y-55330491D01*
X180462133Y-55330491D02*
X180528800Y-55363825D01*
X180528800Y-55363825D02*
X180562133Y-55397158D01*
X179528800Y-56030491D02*
X179862133Y-56030491D01*
X179862133Y-56030491D02*
X179895466Y-55697158D01*
X179895466Y-55697158D02*
X179862133Y-55730491D01*
X179862133Y-55730491D02*
X179795466Y-55763825D01*
X179795466Y-55763825D02*
X179628800Y-55763825D01*
X179628800Y-55763825D02*
X179562133Y-55730491D01*
X179562133Y-55730491D02*
X179528800Y-55697158D01*
X179528800Y-55697158D02*
X179495466Y-55630491D01*
X179495466Y-55630491D02*
X179495466Y-55463825D01*
X179495466Y-55463825D02*
X179528800Y-55397158D01*
X179528800Y-55397158D02*
X179562133Y-55363825D01*
X179562133Y-55363825D02*
X179628800Y-55330491D01*
X179628800Y-55330491D02*
X179795466Y-55330491D01*
X179795466Y-55330491D02*
X179862133Y-55363825D01*
X179862133Y-55363825D02*
X179895466Y-55397158D01*
X10641867Y-31517491D02*
X10975200Y-31517491D01*
X10975200Y-31517491D02*
X10975200Y-32217491D01*
X10408533Y-31884158D02*
X10175200Y-31884158D01*
X10075200Y-31517491D02*
X10408533Y-31517491D01*
X10408533Y-31517491D02*
X10408533Y-32217491D01*
X10408533Y-32217491D02*
X10075200Y-32217491D01*
X9775200Y-31517491D02*
X9775200Y-32217491D01*
X9775200Y-32217491D02*
X9608533Y-32217491D01*
X9608533Y-32217491D02*
X9508533Y-32184158D01*
X9508533Y-32184158D02*
X9441867Y-32117491D01*
X9441867Y-32117491D02*
X9408533Y-32050825D01*
X9408533Y-32050825D02*
X9375200Y-31917491D01*
X9375200Y-31917491D02*
X9375200Y-31817491D01*
X9375200Y-31817491D02*
X9408533Y-31684158D01*
X9408533Y-31684158D02*
X9441867Y-31617491D01*
X9441867Y-31617491D02*
X9508533Y-31550825D01*
X9508533Y-31550825D02*
X9608533Y-31517491D01*
X9608533Y-31517491D02*
X9775200Y-31517491D01*
X8708533Y-31517491D02*
X9108533Y-31517491D01*
X8908533Y-31517491D02*
X8908533Y-32217491D01*
X8908533Y-32217491D02*
X8975200Y-32117491D01*
X8975200Y-32117491D02*
X9041867Y-32050825D01*
X9041867Y-32050825D02*
X9108533Y-32017491D01*
X8075200Y-32217491D02*
X8408533Y-32217491D01*
X8408533Y-32217491D02*
X8441866Y-31884158D01*
X8441866Y-31884158D02*
X8408533Y-31917491D01*
X8408533Y-31917491D02*
X8341866Y-31950825D01*
X8341866Y-31950825D02*
X8175200Y-31950825D01*
X8175200Y-31950825D02*
X8108533Y-31917491D01*
X8108533Y-31917491D02*
X8075200Y-31884158D01*
X8075200Y-31884158D02*
X8041866Y-31817491D01*
X8041866Y-31817491D02*
X8041866Y-31650825D01*
X8041866Y-31650825D02*
X8075200Y-31584158D01*
X8075200Y-31584158D02*
X8108533Y-31550825D01*
X8108533Y-31550825D02*
X8175200Y-31517491D01*
X8175200Y-31517491D02*
X8341866Y-31517491D01*
X8341866Y-31517491D02*
X8408533Y-31550825D01*
X8408533Y-31550825D02*
X8441866Y-31584158D01*
X258297067Y-50567891D02*
X258630400Y-50567891D01*
X258630400Y-50567891D02*
X258630400Y-51267891D01*
X258063733Y-50934558D02*
X257830400Y-50934558D01*
X257730400Y-50567891D02*
X258063733Y-50567891D01*
X258063733Y-50567891D02*
X258063733Y-51267891D01*
X258063733Y-51267891D02*
X257730400Y-51267891D01*
X257430400Y-50567891D02*
X257430400Y-51267891D01*
X257430400Y-51267891D02*
X257263733Y-51267891D01*
X257263733Y-51267891D02*
X257163733Y-51234558D01*
X257163733Y-51234558D02*
X257097067Y-51167891D01*
X257097067Y-51167891D02*
X257063733Y-51101225D01*
X257063733Y-51101225D02*
X257030400Y-50967891D01*
X257030400Y-50967891D02*
X257030400Y-50867891D01*
X257030400Y-50867891D02*
X257063733Y-50734558D01*
X257063733Y-50734558D02*
X257097067Y-50667891D01*
X257097067Y-50667891D02*
X257163733Y-50601225D01*
X257163733Y-50601225D02*
X257263733Y-50567891D01*
X257263733Y-50567891D02*
X257430400Y-50567891D01*
X256430400Y-51267891D02*
X256563733Y-51267891D01*
X256563733Y-51267891D02*
X256630400Y-51234558D01*
X256630400Y-51234558D02*
X256663733Y-51201225D01*
X256663733Y-51201225D02*
X256730400Y-51101225D01*
X256730400Y-51101225D02*
X256763733Y-50967891D01*
X256763733Y-50967891D02*
X256763733Y-50701225D01*
X256763733Y-50701225D02*
X256730400Y-50634558D01*
X256730400Y-50634558D02*
X256697067Y-50601225D01*
X256697067Y-50601225D02*
X256630400Y-50567891D01*
X256630400Y-50567891D02*
X256497067Y-50567891D01*
X256497067Y-50567891D02*
X256430400Y-50601225D01*
X256430400Y-50601225D02*
X256397067Y-50634558D01*
X256397067Y-50634558D02*
X256363733Y-50701225D01*
X256363733Y-50701225D02*
X256363733Y-50867891D01*
X256363733Y-50867891D02*
X256397067Y-50934558D01*
X256397067Y-50934558D02*
X256430400Y-50967891D01*
X256430400Y-50967891D02*
X256497067Y-51001225D01*
X256497067Y-51001225D02*
X256630400Y-51001225D01*
X256630400Y-51001225D02*
X256697067Y-50967891D01*
X256697067Y-50967891D02*
X256730400Y-50934558D01*
X256730400Y-50934558D02*
X256763733Y-50867891D01*
X255930400Y-51267891D02*
X255863733Y-51267891D01*
X255863733Y-51267891D02*
X255797066Y-51234558D01*
X255797066Y-51234558D02*
X255763733Y-51201225D01*
X255763733Y-51201225D02*
X255730400Y-51134558D01*
X255730400Y-51134558D02*
X255697066Y-51001225D01*
X255697066Y-51001225D02*
X255697066Y-50834558D01*
X255697066Y-50834558D02*
X255730400Y-50701225D01*
X255730400Y-50701225D02*
X255763733Y-50634558D01*
X255763733Y-50634558D02*
X255797066Y-50601225D01*
X255797066Y-50601225D02*
X255863733Y-50567891D01*
X255863733Y-50567891D02*
X255930400Y-50567891D01*
X255930400Y-50567891D02*
X255997066Y-50601225D01*
X255997066Y-50601225D02*
X256030400Y-50634558D01*
X256030400Y-50634558D02*
X256063733Y-50701225D01*
X256063733Y-50701225D02*
X256097066Y-50834558D01*
X256097066Y-50834558D02*
X256097066Y-51001225D01*
X256097066Y-51001225D02*
X256063733Y-51134558D01*
X256063733Y-51134558D02*
X256030400Y-51201225D01*
X256030400Y-51201225D02*
X255997066Y-51234558D01*
X255997066Y-51234558D02*
X255930400Y-51267891D01*
X46509333Y-17144483D02*
X46175999Y-17144483D01*
X46175999Y-17144483D02*
X46175999Y-16444483D01*
X46742666Y-16777816D02*
X46976000Y-16777816D01*
X47076000Y-17144483D02*
X46742666Y-17144483D01*
X46742666Y-17144483D02*
X46742666Y-16444483D01*
X46742666Y-16444483D02*
X47076000Y-16444483D01*
X47375999Y-17144483D02*
X47375999Y-16444483D01*
X47375999Y-16444483D02*
X47542666Y-16444483D01*
X47542666Y-16444483D02*
X47642666Y-16477816D01*
X47642666Y-16477816D02*
X47709333Y-16544483D01*
X47709333Y-16544483D02*
X47742666Y-16611150D01*
X47742666Y-16611150D02*
X47775999Y-16744483D01*
X47775999Y-16744483D02*
X47775999Y-16844483D01*
X47775999Y-16844483D02*
X47742666Y-16977816D01*
X47742666Y-16977816D02*
X47709333Y-17044483D01*
X47709333Y-17044483D02*
X47642666Y-17111150D01*
X47642666Y-17111150D02*
X47542666Y-17144483D01*
X47542666Y-17144483D02*
X47375999Y-17144483D01*
X48442666Y-17144483D02*
X48042666Y-17144483D01*
X48242666Y-17144483D02*
X48242666Y-16444483D01*
X48242666Y-16444483D02*
X48175999Y-16544483D01*
X48175999Y-16544483D02*
X48109333Y-16611150D01*
X48109333Y-16611150D02*
X48042666Y-16644483D01*
X48709333Y-16511150D02*
X48742666Y-16477816D01*
X48742666Y-16477816D02*
X48809333Y-16444483D01*
X48809333Y-16444483D02*
X48976000Y-16444483D01*
X48976000Y-16444483D02*
X49042666Y-16477816D01*
X49042666Y-16477816D02*
X49076000Y-16511150D01*
X49076000Y-16511150D02*
X49109333Y-16577816D01*
X49109333Y-16577816D02*
X49109333Y-16644483D01*
X49109333Y-16644483D02*
X49076000Y-16744483D01*
X49076000Y-16744483D02*
X48676000Y-17144483D01*
X48676000Y-17144483D02*
X49109333Y-17144483D01*
X8408533Y-55399958D02*
X8075199Y-55399958D01*
X8075199Y-55399958D02*
X8075199Y-54699958D01*
X8641866Y-55033291D02*
X8875200Y-55033291D01*
X8975200Y-55399958D02*
X8641866Y-55399958D01*
X8641866Y-55399958D02*
X8641866Y-54699958D01*
X8641866Y-54699958D02*
X8975200Y-54699958D01*
X9275199Y-55399958D02*
X9275199Y-54699958D01*
X9275199Y-54699958D02*
X9441866Y-54699958D01*
X9441866Y-54699958D02*
X9541866Y-54733291D01*
X9541866Y-54733291D02*
X9608533Y-54799958D01*
X9608533Y-54799958D02*
X9641866Y-54866625D01*
X9641866Y-54866625D02*
X9675199Y-54999958D01*
X9675199Y-54999958D02*
X9675199Y-55099958D01*
X9675199Y-55099958D02*
X9641866Y-55233291D01*
X9641866Y-55233291D02*
X9608533Y-55299958D01*
X9608533Y-55299958D02*
X9541866Y-55366625D01*
X9541866Y-55366625D02*
X9441866Y-55399958D01*
X9441866Y-55399958D02*
X9275199Y-55399958D01*
X9941866Y-54766625D02*
X9975199Y-54733291D01*
X9975199Y-54733291D02*
X10041866Y-54699958D01*
X10041866Y-54699958D02*
X10208533Y-54699958D01*
X10208533Y-54699958D02*
X10275199Y-54733291D01*
X10275199Y-54733291D02*
X10308533Y-54766625D01*
X10308533Y-54766625D02*
X10341866Y-54833291D01*
X10341866Y-54833291D02*
X10341866Y-54899958D01*
X10341866Y-54899958D02*
X10308533Y-54999958D01*
X10308533Y-54999958D02*
X9908533Y-55399958D01*
X9908533Y-55399958D02*
X10341866Y-55399958D01*
X10741866Y-54999958D02*
X10675200Y-54966625D01*
X10675200Y-54966625D02*
X10641866Y-54933291D01*
X10641866Y-54933291D02*
X10608533Y-54866625D01*
X10608533Y-54866625D02*
X10608533Y-54833291D01*
X10608533Y-54833291D02*
X10641866Y-54766625D01*
X10641866Y-54766625D02*
X10675200Y-54733291D01*
X10675200Y-54733291D02*
X10741866Y-54699958D01*
X10741866Y-54699958D02*
X10875200Y-54699958D01*
X10875200Y-54699958D02*
X10941866Y-54733291D01*
X10941866Y-54733291D02*
X10975200Y-54766625D01*
X10975200Y-54766625D02*
X11008533Y-54833291D01*
X11008533Y-54833291D02*
X11008533Y-54866625D01*
X11008533Y-54866625D02*
X10975200Y-54933291D01*
X10975200Y-54933291D02*
X10941866Y-54966625D01*
X10941866Y-54966625D02*
X10875200Y-54999958D01*
X10875200Y-54999958D02*
X10741866Y-54999958D01*
X10741866Y-54999958D02*
X10675200Y-55033291D01*
X10675200Y-55033291D02*
X10641866Y-55066625D01*
X10641866Y-55066625D02*
X10608533Y-55133291D01*
X10608533Y-55133291D02*
X10608533Y-55266625D01*
X10608533Y-55266625D02*
X10641866Y-55333291D01*
X10641866Y-55333291D02*
X10675200Y-55366625D01*
X10675200Y-55366625D02*
X10741866Y-55399958D01*
X10741866Y-55399958D02*
X10875200Y-55399958D01*
X10875200Y-55399958D02*
X10941866Y-55366625D01*
X10941866Y-55366625D02*
X10975200Y-55333291D01*
X10975200Y-55333291D02*
X11008533Y-55266625D01*
X11008533Y-55266625D02*
X11008533Y-55133291D01*
X11008533Y-55133291D02*
X10975200Y-55066625D01*
X10975200Y-55066625D02*
X10941866Y-55033291D01*
X10941866Y-55033291D02*
X10875200Y-54999958D01*
X67941033Y-98263358D02*
X67607699Y-98263358D01*
X67607699Y-98263358D02*
X67607699Y-97563358D01*
X68174366Y-97896691D02*
X68407700Y-97896691D01*
X68507700Y-98263358D02*
X68174366Y-98263358D01*
X68174366Y-98263358D02*
X68174366Y-97563358D01*
X68174366Y-97563358D02*
X68507700Y-97563358D01*
X68807699Y-98263358D02*
X68807699Y-97563358D01*
X68807699Y-97563358D02*
X68974366Y-97563358D01*
X68974366Y-97563358D02*
X69074366Y-97596691D01*
X69074366Y-97596691D02*
X69141033Y-97663358D01*
X69141033Y-97663358D02*
X69174366Y-97730025D01*
X69174366Y-97730025D02*
X69207699Y-97863358D01*
X69207699Y-97863358D02*
X69207699Y-97963358D01*
X69207699Y-97963358D02*
X69174366Y-98096691D01*
X69174366Y-98096691D02*
X69141033Y-98163358D01*
X69141033Y-98163358D02*
X69074366Y-98230025D01*
X69074366Y-98230025D02*
X68974366Y-98263358D01*
X68974366Y-98263358D02*
X68807699Y-98263358D01*
X69441033Y-97563358D02*
X69874366Y-97563358D01*
X69874366Y-97563358D02*
X69641033Y-97830025D01*
X69641033Y-97830025D02*
X69741033Y-97830025D01*
X69741033Y-97830025D02*
X69807699Y-97863358D01*
X69807699Y-97863358D02*
X69841033Y-97896691D01*
X69841033Y-97896691D02*
X69874366Y-97963358D01*
X69874366Y-97963358D02*
X69874366Y-98130025D01*
X69874366Y-98130025D02*
X69841033Y-98196691D01*
X69841033Y-98196691D02*
X69807699Y-98230025D01*
X69807699Y-98230025D02*
X69741033Y-98263358D01*
X69741033Y-98263358D02*
X69541033Y-98263358D01*
X69541033Y-98263358D02*
X69474366Y-98230025D01*
X69474366Y-98230025D02*
X69441033Y-98196691D01*
X70274366Y-97863358D02*
X70207700Y-97830025D01*
X70207700Y-97830025D02*
X70174366Y-97796691D01*
X70174366Y-97796691D02*
X70141033Y-97730025D01*
X70141033Y-97730025D02*
X70141033Y-97696691D01*
X70141033Y-97696691D02*
X70174366Y-97630025D01*
X70174366Y-97630025D02*
X70207700Y-97596691D01*
X70207700Y-97596691D02*
X70274366Y-97563358D01*
X70274366Y-97563358D02*
X70407700Y-97563358D01*
X70407700Y-97563358D02*
X70474366Y-97596691D01*
X70474366Y-97596691D02*
X70507700Y-97630025D01*
X70507700Y-97630025D02*
X70541033Y-97696691D01*
X70541033Y-97696691D02*
X70541033Y-97730025D01*
X70541033Y-97730025D02*
X70507700Y-97796691D01*
X70507700Y-97796691D02*
X70474366Y-97830025D01*
X70474366Y-97830025D02*
X70407700Y-97863358D01*
X70407700Y-97863358D02*
X70274366Y-97863358D01*
X70274366Y-97863358D02*
X70207700Y-97896691D01*
X70207700Y-97896691D02*
X70174366Y-97930025D01*
X70174366Y-97930025D02*
X70141033Y-97996691D01*
X70141033Y-97996691D02*
X70141033Y-98130025D01*
X70141033Y-98130025D02*
X70174366Y-98196691D01*
X70174366Y-98196691D02*
X70207700Y-98230025D01*
X70207700Y-98230025D02*
X70274366Y-98263358D01*
X70274366Y-98263358D02*
X70407700Y-98263358D01*
X70407700Y-98263358D02*
X70474366Y-98230025D01*
X70474366Y-98230025D02*
X70507700Y-98196691D01*
X70507700Y-98196691D02*
X70541033Y-98130025D01*
X70541033Y-98130025D02*
X70541033Y-97996691D01*
X70541033Y-97996691D02*
X70507700Y-97930025D01*
X70507700Y-97930025D02*
X70474366Y-97896691D01*
X70474366Y-97896691D02*
X70407700Y-97863358D01*
X84610133Y-60162558D02*
X84276799Y-60162558D01*
X84276799Y-60162558D02*
X84276799Y-59462558D01*
X84843466Y-59795891D02*
X85076800Y-59795891D01*
X85176800Y-60162558D02*
X84843466Y-60162558D01*
X84843466Y-60162558D02*
X84843466Y-59462558D01*
X84843466Y-59462558D02*
X85176800Y-59462558D01*
X85476799Y-60162558D02*
X85476799Y-59462558D01*
X85476799Y-59462558D02*
X85643466Y-59462558D01*
X85643466Y-59462558D02*
X85743466Y-59495891D01*
X85743466Y-59495891D02*
X85810133Y-59562558D01*
X85810133Y-59562558D02*
X85843466Y-59629225D01*
X85843466Y-59629225D02*
X85876799Y-59762558D01*
X85876799Y-59762558D02*
X85876799Y-59862558D01*
X85876799Y-59862558D02*
X85843466Y-59995891D01*
X85843466Y-59995891D02*
X85810133Y-60062558D01*
X85810133Y-60062558D02*
X85743466Y-60129225D01*
X85743466Y-60129225D02*
X85643466Y-60162558D01*
X85643466Y-60162558D02*
X85476799Y-60162558D01*
X86143466Y-59529225D02*
X86176799Y-59495891D01*
X86176799Y-59495891D02*
X86243466Y-59462558D01*
X86243466Y-59462558D02*
X86410133Y-59462558D01*
X86410133Y-59462558D02*
X86476799Y-59495891D01*
X86476799Y-59495891D02*
X86510133Y-59529225D01*
X86510133Y-59529225D02*
X86543466Y-59595891D01*
X86543466Y-59595891D02*
X86543466Y-59662558D01*
X86543466Y-59662558D02*
X86510133Y-59762558D01*
X86510133Y-59762558D02*
X86110133Y-60162558D01*
X86110133Y-60162558D02*
X86543466Y-60162558D01*
X87143466Y-59695891D02*
X87143466Y-60162558D01*
X86976800Y-59429225D02*
X86810133Y-59929225D01*
X86810133Y-59929225D02*
X87243466Y-59929225D01*
X220196267Y-93431291D02*
X220529600Y-93431291D01*
X220529600Y-93431291D02*
X220529600Y-94131291D01*
X219962933Y-93797958D02*
X219729600Y-93797958D01*
X219629600Y-93431291D02*
X219962933Y-93431291D01*
X219962933Y-93431291D02*
X219962933Y-94131291D01*
X219962933Y-94131291D02*
X219629600Y-94131291D01*
X219329600Y-93431291D02*
X219329600Y-94131291D01*
X219329600Y-94131291D02*
X219162933Y-94131291D01*
X219162933Y-94131291D02*
X219062933Y-94097958D01*
X219062933Y-94097958D02*
X218996267Y-94031291D01*
X218996267Y-94031291D02*
X218962933Y-93964625D01*
X218962933Y-93964625D02*
X218929600Y-93831291D01*
X218929600Y-93831291D02*
X218929600Y-93731291D01*
X218929600Y-93731291D02*
X218962933Y-93597958D01*
X218962933Y-93597958D02*
X218996267Y-93531291D01*
X218996267Y-93531291D02*
X219062933Y-93464625D01*
X219062933Y-93464625D02*
X219162933Y-93431291D01*
X219162933Y-93431291D02*
X219329600Y-93431291D01*
X218329600Y-93897958D02*
X218329600Y-93431291D01*
X218496267Y-94164625D02*
X218662933Y-93664625D01*
X218662933Y-93664625D02*
X218229600Y-93664625D01*
X217662933Y-93897958D02*
X217662933Y-93431291D01*
X217829600Y-94164625D02*
X217996266Y-93664625D01*
X217996266Y-93664625D02*
X217562933Y-93664625D01*
X179862133Y-79212958D02*
X179528799Y-79212958D01*
X179528799Y-79212958D02*
X179528799Y-78512958D01*
X180095466Y-78846291D02*
X180328800Y-78846291D01*
X180428800Y-79212958D02*
X180095466Y-79212958D01*
X180095466Y-79212958D02*
X180095466Y-78512958D01*
X180095466Y-78512958D02*
X180428800Y-78512958D01*
X180728799Y-79212958D02*
X180728799Y-78512958D01*
X180728799Y-78512958D02*
X180895466Y-78512958D01*
X180895466Y-78512958D02*
X180995466Y-78546291D01*
X180995466Y-78546291D02*
X181062133Y-78612958D01*
X181062133Y-78612958D02*
X181095466Y-78679625D01*
X181095466Y-78679625D02*
X181128799Y-78812958D01*
X181128799Y-78812958D02*
X181128799Y-78912958D01*
X181128799Y-78912958D02*
X181095466Y-79046291D01*
X181095466Y-79046291D02*
X181062133Y-79112958D01*
X181062133Y-79112958D02*
X180995466Y-79179625D01*
X180995466Y-79179625D02*
X180895466Y-79212958D01*
X180895466Y-79212958D02*
X180728799Y-79212958D01*
X181762133Y-78512958D02*
X181428799Y-78512958D01*
X181428799Y-78512958D02*
X181395466Y-78846291D01*
X181395466Y-78846291D02*
X181428799Y-78812958D01*
X181428799Y-78812958D02*
X181495466Y-78779625D01*
X181495466Y-78779625D02*
X181662133Y-78779625D01*
X181662133Y-78779625D02*
X181728799Y-78812958D01*
X181728799Y-78812958D02*
X181762133Y-78846291D01*
X181762133Y-78846291D02*
X181795466Y-78912958D01*
X181795466Y-78912958D02*
X181795466Y-79079625D01*
X181795466Y-79079625D02*
X181762133Y-79146291D01*
X181762133Y-79146291D02*
X181728799Y-79179625D01*
X181728799Y-79179625D02*
X181662133Y-79212958D01*
X181662133Y-79212958D02*
X181495466Y-79212958D01*
X181495466Y-79212958D02*
X181428799Y-79179625D01*
X181428799Y-79179625D02*
X181395466Y-79146291D01*
X182062133Y-78579625D02*
X182095466Y-78546291D01*
X182095466Y-78546291D02*
X182162133Y-78512958D01*
X182162133Y-78512958D02*
X182328800Y-78512958D01*
X182328800Y-78512958D02*
X182395466Y-78546291D01*
X182395466Y-78546291D02*
X182428800Y-78579625D01*
X182428800Y-78579625D02*
X182462133Y-78646291D01*
X182462133Y-78646291D02*
X182462133Y-78712958D01*
X182462133Y-78712958D02*
X182428800Y-78812958D01*
X182428800Y-78812958D02*
X182028800Y-79212958D01*
X182028800Y-79212958D02*
X182462133Y-79212958D01*
X8408533Y-17299158D02*
X8075199Y-17299158D01*
X8075199Y-17299158D02*
X8075199Y-16599158D01*
X8641866Y-16932491D02*
X8875200Y-16932491D01*
X8975200Y-17299158D02*
X8641866Y-17299158D01*
X8641866Y-17299158D02*
X8641866Y-16599158D01*
X8641866Y-16599158D02*
X8975200Y-16599158D01*
X9275199Y-17299158D02*
X9275199Y-16599158D01*
X9275199Y-16599158D02*
X9441866Y-16599158D01*
X9441866Y-16599158D02*
X9541866Y-16632491D01*
X9541866Y-16632491D02*
X9608533Y-16699158D01*
X9608533Y-16699158D02*
X9641866Y-16765825D01*
X9641866Y-16765825D02*
X9675199Y-16899158D01*
X9675199Y-16899158D02*
X9675199Y-16999158D01*
X9675199Y-16999158D02*
X9641866Y-17132491D01*
X9641866Y-17132491D02*
X9608533Y-17199158D01*
X9608533Y-17199158D02*
X9541866Y-17265825D01*
X9541866Y-17265825D02*
X9441866Y-17299158D01*
X9441866Y-17299158D02*
X9275199Y-17299158D01*
X10341866Y-17299158D02*
X9941866Y-17299158D01*
X10141866Y-17299158D02*
X10141866Y-16599158D01*
X10141866Y-16599158D02*
X10075199Y-16699158D01*
X10075199Y-16699158D02*
X10008533Y-16765825D01*
X10008533Y-16765825D02*
X9941866Y-16799158D01*
X10941866Y-16832491D02*
X10941866Y-17299158D01*
X10775200Y-16565825D02*
X10608533Y-17065825D01*
X10608533Y-17065825D02*
X11041866Y-17065825D01*
X201145867Y-50567891D02*
X201479200Y-50567891D01*
X201479200Y-50567891D02*
X201479200Y-51267891D01*
X200912533Y-50934558D02*
X200679200Y-50934558D01*
X200579200Y-50567891D02*
X200912533Y-50567891D01*
X200912533Y-50567891D02*
X200912533Y-51267891D01*
X200912533Y-51267891D02*
X200579200Y-51267891D01*
X200279200Y-50567891D02*
X200279200Y-51267891D01*
X200279200Y-51267891D02*
X200112533Y-51267891D01*
X200112533Y-51267891D02*
X200012533Y-51234558D01*
X200012533Y-51234558D02*
X199945867Y-51167891D01*
X199945867Y-51167891D02*
X199912533Y-51101225D01*
X199912533Y-51101225D02*
X199879200Y-50967891D01*
X199879200Y-50967891D02*
X199879200Y-50867891D01*
X199879200Y-50867891D02*
X199912533Y-50734558D01*
X199912533Y-50734558D02*
X199945867Y-50667891D01*
X199945867Y-50667891D02*
X200012533Y-50601225D01*
X200012533Y-50601225D02*
X200112533Y-50567891D01*
X200112533Y-50567891D02*
X200279200Y-50567891D01*
X199245867Y-51267891D02*
X199579200Y-51267891D01*
X199579200Y-51267891D02*
X199612533Y-50934558D01*
X199612533Y-50934558D02*
X199579200Y-50967891D01*
X199579200Y-50967891D02*
X199512533Y-51001225D01*
X199512533Y-51001225D02*
X199345867Y-51001225D01*
X199345867Y-51001225D02*
X199279200Y-50967891D01*
X199279200Y-50967891D02*
X199245867Y-50934558D01*
X199245867Y-50934558D02*
X199212533Y-50867891D01*
X199212533Y-50867891D02*
X199212533Y-50701225D01*
X199212533Y-50701225D02*
X199245867Y-50634558D01*
X199245867Y-50634558D02*
X199279200Y-50601225D01*
X199279200Y-50601225D02*
X199345867Y-50567891D01*
X199345867Y-50567891D02*
X199512533Y-50567891D01*
X199512533Y-50567891D02*
X199579200Y-50601225D01*
X199579200Y-50601225D02*
X199612533Y-50634558D01*
X198612533Y-51267891D02*
X198745866Y-51267891D01*
X198745866Y-51267891D02*
X198812533Y-51234558D01*
X198812533Y-51234558D02*
X198845866Y-51201225D01*
X198845866Y-51201225D02*
X198912533Y-51101225D01*
X198912533Y-51101225D02*
X198945866Y-50967891D01*
X198945866Y-50967891D02*
X198945866Y-50701225D01*
X198945866Y-50701225D02*
X198912533Y-50634558D01*
X198912533Y-50634558D02*
X198879200Y-50601225D01*
X198879200Y-50601225D02*
X198812533Y-50567891D01*
X198812533Y-50567891D02*
X198679200Y-50567891D01*
X198679200Y-50567891D02*
X198612533Y-50601225D01*
X198612533Y-50601225D02*
X198579200Y-50634558D01*
X198579200Y-50634558D02*
X198545866Y-50701225D01*
X198545866Y-50701225D02*
X198545866Y-50867891D01*
X198545866Y-50867891D02*
X198579200Y-50934558D01*
X198579200Y-50934558D02*
X198612533Y-50967891D01*
X198612533Y-50967891D02*
X198679200Y-51001225D01*
X198679200Y-51001225D02*
X198812533Y-51001225D01*
X198812533Y-51001225D02*
X198879200Y-50967891D01*
X198879200Y-50967891D02*
X198912533Y-50934558D01*
X198912533Y-50934558D02*
X198945866Y-50867891D01*
X161145067Y-17144483D02*
X160811733Y-17144483D01*
X160811733Y-17144483D02*
X160811733Y-16444483D01*
X161378400Y-16777816D02*
X161611734Y-16777816D01*
X161711734Y-17144483D02*
X161378400Y-17144483D01*
X161378400Y-17144483D02*
X161378400Y-16444483D01*
X161378400Y-16444483D02*
X161711734Y-16444483D01*
X162011733Y-17144483D02*
X162011733Y-16444483D01*
X162011733Y-16444483D02*
X162178400Y-16444483D01*
X162178400Y-16444483D02*
X162278400Y-16477816D01*
X162278400Y-16477816D02*
X162345067Y-16544483D01*
X162345067Y-16544483D02*
X162378400Y-16611150D01*
X162378400Y-16611150D02*
X162411733Y-16744483D01*
X162411733Y-16744483D02*
X162411733Y-16844483D01*
X162411733Y-16844483D02*
X162378400Y-16977816D01*
X162378400Y-16977816D02*
X162345067Y-17044483D01*
X162345067Y-17044483D02*
X162278400Y-17111150D01*
X162278400Y-17111150D02*
X162178400Y-17144483D01*
X162178400Y-17144483D02*
X162011733Y-17144483D01*
X163011733Y-16444483D02*
X162878400Y-16444483D01*
X162878400Y-16444483D02*
X162811733Y-16477816D01*
X162811733Y-16477816D02*
X162778400Y-16511150D01*
X162778400Y-16511150D02*
X162711733Y-16611150D01*
X162711733Y-16611150D02*
X162678400Y-16744483D01*
X162678400Y-16744483D02*
X162678400Y-17011150D01*
X162678400Y-17011150D02*
X162711733Y-17077816D01*
X162711733Y-17077816D02*
X162745067Y-17111150D01*
X162745067Y-17111150D02*
X162811733Y-17144483D01*
X162811733Y-17144483D02*
X162945067Y-17144483D01*
X162945067Y-17144483D02*
X163011733Y-17111150D01*
X163011733Y-17111150D02*
X163045067Y-17077816D01*
X163045067Y-17077816D02*
X163078400Y-17011150D01*
X163078400Y-17011150D02*
X163078400Y-16844483D01*
X163078400Y-16844483D02*
X163045067Y-16777816D01*
X163045067Y-16777816D02*
X163011733Y-16744483D01*
X163011733Y-16744483D02*
X162945067Y-16711150D01*
X162945067Y-16711150D02*
X162811733Y-16711150D01*
X162811733Y-16711150D02*
X162745067Y-16744483D01*
X162745067Y-16744483D02*
X162711733Y-16777816D01*
X162711733Y-16777816D02*
X162678400Y-16844483D01*
X65559733Y-55399958D02*
X65226399Y-55399958D01*
X65226399Y-55399958D02*
X65226399Y-54699958D01*
X65793066Y-55033291D02*
X66026400Y-55033291D01*
X66126400Y-55399958D02*
X65793066Y-55399958D01*
X65793066Y-55399958D02*
X65793066Y-54699958D01*
X65793066Y-54699958D02*
X66126400Y-54699958D01*
X66426399Y-55399958D02*
X66426399Y-54699958D01*
X66426399Y-54699958D02*
X66593066Y-54699958D01*
X66593066Y-54699958D02*
X66693066Y-54733291D01*
X66693066Y-54733291D02*
X66759733Y-54799958D01*
X66759733Y-54799958D02*
X66793066Y-54866625D01*
X66793066Y-54866625D02*
X66826399Y-54999958D01*
X66826399Y-54999958D02*
X66826399Y-55099958D01*
X66826399Y-55099958D02*
X66793066Y-55233291D01*
X66793066Y-55233291D02*
X66759733Y-55299958D01*
X66759733Y-55299958D02*
X66693066Y-55366625D01*
X66693066Y-55366625D02*
X66593066Y-55399958D01*
X66593066Y-55399958D02*
X66426399Y-55399958D01*
X67093066Y-54766625D02*
X67126399Y-54733291D01*
X67126399Y-54733291D02*
X67193066Y-54699958D01*
X67193066Y-54699958D02*
X67359733Y-54699958D01*
X67359733Y-54699958D02*
X67426399Y-54733291D01*
X67426399Y-54733291D02*
X67459733Y-54766625D01*
X67459733Y-54766625D02*
X67493066Y-54833291D01*
X67493066Y-54833291D02*
X67493066Y-54899958D01*
X67493066Y-54899958D02*
X67459733Y-54999958D01*
X67459733Y-54999958D02*
X67059733Y-55399958D01*
X67059733Y-55399958D02*
X67493066Y-55399958D01*
X68126400Y-54699958D02*
X67793066Y-54699958D01*
X67793066Y-54699958D02*
X67759733Y-55033291D01*
X67759733Y-55033291D02*
X67793066Y-54999958D01*
X67793066Y-54999958D02*
X67859733Y-54966625D01*
X67859733Y-54966625D02*
X68026400Y-54966625D01*
X68026400Y-54966625D02*
X68093066Y-54999958D01*
X68093066Y-54999958D02*
X68126400Y-55033291D01*
X68126400Y-55033291D02*
X68159733Y-55099958D01*
X68159733Y-55099958D02*
X68159733Y-55266625D01*
X68159733Y-55266625D02*
X68126400Y-55333291D01*
X68126400Y-55333291D02*
X68093066Y-55366625D01*
X68093066Y-55366625D02*
X68026400Y-55399958D01*
X68026400Y-55399958D02*
X67859733Y-55399958D01*
X67859733Y-55399958D02*
X67793066Y-55366625D01*
X67793066Y-55366625D02*
X67759733Y-55333291D01*
X179862133Y-41112158D02*
X179528799Y-41112158D01*
X179528799Y-41112158D02*
X179528799Y-40412158D01*
X180095466Y-40745491D02*
X180328800Y-40745491D01*
X180428800Y-41112158D02*
X180095466Y-41112158D01*
X180095466Y-41112158D02*
X180095466Y-40412158D01*
X180095466Y-40412158D02*
X180428800Y-40412158D01*
X180728799Y-41112158D02*
X180728799Y-40412158D01*
X180728799Y-40412158D02*
X180895466Y-40412158D01*
X180895466Y-40412158D02*
X180995466Y-40445491D01*
X180995466Y-40445491D02*
X181062133Y-40512158D01*
X181062133Y-40512158D02*
X181095466Y-40578825D01*
X181095466Y-40578825D02*
X181128799Y-40712158D01*
X181128799Y-40712158D02*
X181128799Y-40812158D01*
X181128799Y-40812158D02*
X181095466Y-40945491D01*
X181095466Y-40945491D02*
X181062133Y-41012158D01*
X181062133Y-41012158D02*
X180995466Y-41078825D01*
X180995466Y-41078825D02*
X180895466Y-41112158D01*
X180895466Y-41112158D02*
X180728799Y-41112158D01*
X181728799Y-40412158D02*
X181595466Y-40412158D01*
X181595466Y-40412158D02*
X181528799Y-40445491D01*
X181528799Y-40445491D02*
X181495466Y-40478825D01*
X181495466Y-40478825D02*
X181428799Y-40578825D01*
X181428799Y-40578825D02*
X181395466Y-40712158D01*
X181395466Y-40712158D02*
X181395466Y-40978825D01*
X181395466Y-40978825D02*
X181428799Y-41045491D01*
X181428799Y-41045491D02*
X181462133Y-41078825D01*
X181462133Y-41078825D02*
X181528799Y-41112158D01*
X181528799Y-41112158D02*
X181662133Y-41112158D01*
X181662133Y-41112158D02*
X181728799Y-41078825D01*
X181728799Y-41078825D02*
X181762133Y-41045491D01*
X181762133Y-41045491D02*
X181795466Y-40978825D01*
X181795466Y-40978825D02*
X181795466Y-40812158D01*
X181795466Y-40812158D02*
X181762133Y-40745491D01*
X181762133Y-40745491D02*
X181728799Y-40712158D01*
X181728799Y-40712158D02*
X181662133Y-40678825D01*
X181662133Y-40678825D02*
X181528799Y-40678825D01*
X181528799Y-40678825D02*
X181462133Y-40712158D01*
X181462133Y-40712158D02*
X181428799Y-40745491D01*
X181428799Y-40745491D02*
X181395466Y-40812158D01*
X182195466Y-40712158D02*
X182128800Y-40678825D01*
X182128800Y-40678825D02*
X182095466Y-40645491D01*
X182095466Y-40645491D02*
X182062133Y-40578825D01*
X182062133Y-40578825D02*
X182062133Y-40545491D01*
X182062133Y-40545491D02*
X182095466Y-40478825D01*
X182095466Y-40478825D02*
X182128800Y-40445491D01*
X182128800Y-40445491D02*
X182195466Y-40412158D01*
X182195466Y-40412158D02*
X182328800Y-40412158D01*
X182328800Y-40412158D02*
X182395466Y-40445491D01*
X182395466Y-40445491D02*
X182428800Y-40478825D01*
X182428800Y-40478825D02*
X182462133Y-40545491D01*
X182462133Y-40545491D02*
X182462133Y-40578825D01*
X182462133Y-40578825D02*
X182428800Y-40645491D01*
X182428800Y-40645491D02*
X182395466Y-40678825D01*
X182395466Y-40678825D02*
X182328800Y-40712158D01*
X182328800Y-40712158D02*
X182195466Y-40712158D01*
X182195466Y-40712158D02*
X182128800Y-40745491D01*
X182128800Y-40745491D02*
X182095466Y-40778825D01*
X182095466Y-40778825D02*
X182062133Y-40845491D01*
X182062133Y-40845491D02*
X182062133Y-40978825D01*
X182062133Y-40978825D02*
X182095466Y-41045491D01*
X182095466Y-41045491D02*
X182128800Y-41078825D01*
X182128800Y-41078825D02*
X182195466Y-41112158D01*
X182195466Y-41112158D02*
X182328800Y-41112158D01*
X182328800Y-41112158D02*
X182395466Y-41078825D01*
X182395466Y-41078825D02*
X182428800Y-41045491D01*
X182428800Y-41045491D02*
X182462133Y-40978825D01*
X182462133Y-40978825D02*
X182462133Y-40845491D01*
X182462133Y-40845491D02*
X182428800Y-40778825D01*
X182428800Y-40778825D02*
X182395466Y-40745491D01*
X182395466Y-40745491D02*
X182328800Y-40712158D01*
X86843467Y-74380891D02*
X87176800Y-74380891D01*
X87176800Y-74380891D02*
X87176800Y-75080891D01*
X86610133Y-74747558D02*
X86376800Y-74747558D01*
X86276800Y-74380891D02*
X86610133Y-74380891D01*
X86610133Y-74380891D02*
X86610133Y-75080891D01*
X86610133Y-75080891D02*
X86276800Y-75080891D01*
X85976800Y-74380891D02*
X85976800Y-75080891D01*
X85976800Y-75080891D02*
X85810133Y-75080891D01*
X85810133Y-75080891D02*
X85710133Y-75047558D01*
X85710133Y-75047558D02*
X85643467Y-74980891D01*
X85643467Y-74980891D02*
X85610133Y-74914225D01*
X85610133Y-74914225D02*
X85576800Y-74780891D01*
X85576800Y-74780891D02*
X85576800Y-74680891D01*
X85576800Y-74680891D02*
X85610133Y-74547558D01*
X85610133Y-74547558D02*
X85643467Y-74480891D01*
X85643467Y-74480891D02*
X85710133Y-74414225D01*
X85710133Y-74414225D02*
X85810133Y-74380891D01*
X85810133Y-74380891D02*
X85976800Y-74380891D01*
X85343467Y-75080891D02*
X84910133Y-75080891D01*
X84910133Y-75080891D02*
X85143467Y-74814225D01*
X85143467Y-74814225D02*
X85043467Y-74814225D01*
X85043467Y-74814225D02*
X84976800Y-74780891D01*
X84976800Y-74780891D02*
X84943467Y-74747558D01*
X84943467Y-74747558D02*
X84910133Y-74680891D01*
X84910133Y-74680891D02*
X84910133Y-74514225D01*
X84910133Y-74514225D02*
X84943467Y-74447558D01*
X84943467Y-74447558D02*
X84976800Y-74414225D01*
X84976800Y-74414225D02*
X85043467Y-74380891D01*
X85043467Y-74380891D02*
X85243467Y-74380891D01*
X85243467Y-74380891D02*
X85310133Y-74414225D01*
X85310133Y-74414225D02*
X85343467Y-74447558D01*
X84676800Y-75080891D02*
X84243466Y-75080891D01*
X84243466Y-75080891D02*
X84476800Y-74814225D01*
X84476800Y-74814225D02*
X84376800Y-74814225D01*
X84376800Y-74814225D02*
X84310133Y-74780891D01*
X84310133Y-74780891D02*
X84276800Y-74747558D01*
X84276800Y-74747558D02*
X84243466Y-74680891D01*
X84243466Y-74680891D02*
X84243466Y-74514225D01*
X84243466Y-74514225D02*
X84276800Y-74447558D01*
X84276800Y-74447558D02*
X84310133Y-74414225D01*
X84310133Y-74414225D02*
X84376800Y-74380891D01*
X84376800Y-74380891D02*
X84576800Y-74380891D01*
X84576800Y-74380891D02*
X84643466Y-74414225D01*
X84643466Y-74414225D02*
X84676800Y-74447558D01*
X123044267Y-17144483D02*
X122710933Y-17144483D01*
X122710933Y-17144483D02*
X122710933Y-16444483D01*
X123277600Y-16777816D02*
X123510934Y-16777816D01*
X123610934Y-17144483D02*
X123277600Y-17144483D01*
X123277600Y-17144483D02*
X123277600Y-16444483D01*
X123277600Y-16444483D02*
X123610934Y-16444483D01*
X123910933Y-17144483D02*
X123910933Y-16444483D01*
X123910933Y-16444483D02*
X124077600Y-16444483D01*
X124077600Y-16444483D02*
X124177600Y-16477816D01*
X124177600Y-16477816D02*
X124244267Y-16544483D01*
X124244267Y-16544483D02*
X124277600Y-16611150D01*
X124277600Y-16611150D02*
X124310933Y-16744483D01*
X124310933Y-16744483D02*
X124310933Y-16844483D01*
X124310933Y-16844483D02*
X124277600Y-16977816D01*
X124277600Y-16977816D02*
X124244267Y-17044483D01*
X124244267Y-17044483D02*
X124177600Y-17111150D01*
X124177600Y-17111150D02*
X124077600Y-17144483D01*
X124077600Y-17144483D02*
X123910933Y-17144483D01*
X124710933Y-16744483D02*
X124644267Y-16711150D01*
X124644267Y-16711150D02*
X124610933Y-16677816D01*
X124610933Y-16677816D02*
X124577600Y-16611150D01*
X124577600Y-16611150D02*
X124577600Y-16577816D01*
X124577600Y-16577816D02*
X124610933Y-16511150D01*
X124610933Y-16511150D02*
X124644267Y-16477816D01*
X124644267Y-16477816D02*
X124710933Y-16444483D01*
X124710933Y-16444483D02*
X124844267Y-16444483D01*
X124844267Y-16444483D02*
X124910933Y-16477816D01*
X124910933Y-16477816D02*
X124944267Y-16511150D01*
X124944267Y-16511150D02*
X124977600Y-16577816D01*
X124977600Y-16577816D02*
X124977600Y-16611150D01*
X124977600Y-16611150D02*
X124944267Y-16677816D01*
X124944267Y-16677816D02*
X124910933Y-16711150D01*
X124910933Y-16711150D02*
X124844267Y-16744483D01*
X124844267Y-16744483D02*
X124710933Y-16744483D01*
X124710933Y-16744483D02*
X124644267Y-16777816D01*
X124644267Y-16777816D02*
X124610933Y-16811150D01*
X124610933Y-16811150D02*
X124577600Y-16877816D01*
X124577600Y-16877816D02*
X124577600Y-17011150D01*
X124577600Y-17011150D02*
X124610933Y-17077816D01*
X124610933Y-17077816D02*
X124644267Y-17111150D01*
X124644267Y-17111150D02*
X124710933Y-17144483D01*
X124710933Y-17144483D02*
X124844267Y-17144483D01*
X124844267Y-17144483D02*
X124910933Y-17111150D01*
X124910933Y-17111150D02*
X124944267Y-17077816D01*
X124944267Y-17077816D02*
X124977600Y-17011150D01*
X124977600Y-17011150D02*
X124977600Y-16877816D01*
X124977600Y-16877816D02*
X124944267Y-16811150D01*
X124944267Y-16811150D02*
X124910933Y-16777816D01*
X124910933Y-16777816D02*
X124844267Y-16744483D01*
X67793067Y-31517491D02*
X68126400Y-31517491D01*
X68126400Y-31517491D02*
X68126400Y-32217491D01*
X67559733Y-31884158D02*
X67326400Y-31884158D01*
X67226400Y-31517491D02*
X67559733Y-31517491D01*
X67559733Y-31517491D02*
X67559733Y-32217491D01*
X67559733Y-32217491D02*
X67226400Y-32217491D01*
X66926400Y-31517491D02*
X66926400Y-32217491D01*
X66926400Y-32217491D02*
X66759733Y-32217491D01*
X66759733Y-32217491D02*
X66659733Y-32184158D01*
X66659733Y-32184158D02*
X66593067Y-32117491D01*
X66593067Y-32117491D02*
X66559733Y-32050825D01*
X66559733Y-32050825D02*
X66526400Y-31917491D01*
X66526400Y-31917491D02*
X66526400Y-31817491D01*
X66526400Y-31817491D02*
X66559733Y-31684158D01*
X66559733Y-31684158D02*
X66593067Y-31617491D01*
X66593067Y-31617491D02*
X66659733Y-31550825D01*
X66659733Y-31550825D02*
X66759733Y-31517491D01*
X66759733Y-31517491D02*
X66926400Y-31517491D01*
X65859733Y-31517491D02*
X66259733Y-31517491D01*
X66059733Y-31517491D02*
X66059733Y-32217491D01*
X66059733Y-32217491D02*
X66126400Y-32117491D01*
X66126400Y-32117491D02*
X66193067Y-32050825D01*
X66193067Y-32050825D02*
X66259733Y-32017491D01*
X65459733Y-31917491D02*
X65526400Y-31950825D01*
X65526400Y-31950825D02*
X65559733Y-31984158D01*
X65559733Y-31984158D02*
X65593066Y-32050825D01*
X65593066Y-32050825D02*
X65593066Y-32084158D01*
X65593066Y-32084158D02*
X65559733Y-32150825D01*
X65559733Y-32150825D02*
X65526400Y-32184158D01*
X65526400Y-32184158D02*
X65459733Y-32217491D01*
X65459733Y-32217491D02*
X65326400Y-32217491D01*
X65326400Y-32217491D02*
X65259733Y-32184158D01*
X65259733Y-32184158D02*
X65226400Y-32150825D01*
X65226400Y-32150825D02*
X65193066Y-32084158D01*
X65193066Y-32084158D02*
X65193066Y-32050825D01*
X65193066Y-32050825D02*
X65226400Y-31984158D01*
X65226400Y-31984158D02*
X65259733Y-31950825D01*
X65259733Y-31950825D02*
X65326400Y-31917491D01*
X65326400Y-31917491D02*
X65459733Y-31917491D01*
X65459733Y-31917491D02*
X65526400Y-31884158D01*
X65526400Y-31884158D02*
X65559733Y-31850825D01*
X65559733Y-31850825D02*
X65593066Y-31784158D01*
X65593066Y-31784158D02*
X65593066Y-31650825D01*
X65593066Y-31650825D02*
X65559733Y-31584158D01*
X65559733Y-31584158D02*
X65526400Y-31550825D01*
X65526400Y-31550825D02*
X65459733Y-31517491D01*
X65459733Y-31517491D02*
X65326400Y-31517491D01*
X65326400Y-31517491D02*
X65259733Y-31550825D01*
X65259733Y-31550825D02*
X65226400Y-31584158D01*
X65226400Y-31584158D02*
X65193066Y-31650825D01*
X65193066Y-31650825D02*
X65193066Y-31784158D01*
X65193066Y-31784158D02*
X65226400Y-31850825D01*
X65226400Y-31850825D02*
X65259733Y-31884158D01*
X65259733Y-31884158D02*
X65326400Y-31917491D01*
D11*
%TO.C,J1*%
X268352225Y-8314425D02*
X269682225Y-8314425D01*
X268352225Y-9644425D02*
X268352225Y-8314425D01*
X268352225Y-10914425D02*
X268352225Y-18594425D01*
X268352225Y-10914425D02*
X271012225Y-10914425D01*
X268352225Y-18594425D02*
X271012225Y-18594425D01*
X271012225Y-10914425D02*
X271012225Y-18594425D01*
%TO.C,A1*%
X121532275Y-36243400D02*
X121532275Y-34243400D01*
X121852275Y-31433400D02*
X121852275Y-77153400D01*
X142282275Y-28783400D02*
X124502275Y-28783400D01*
X142282275Y-79803400D02*
X124502275Y-79803400D01*
X144932275Y-31433400D02*
X144932275Y-77153400D01*
X121852275Y-31433400D02*
G75*
G02*
X124502275Y-28783400I2650000J0D01*
G01*
X124502275Y-79803400D02*
G75*
G02*
X121852275Y-77153400I0J2650000D01*
G01*
X142282275Y-28783400D02*
G75*
G02*
X144932275Y-31433400I0J-2650000D01*
G01*
X144932275Y-77153400D02*
G75*
G02*
X142282275Y-79803400I-2650000J0D01*
G01*
%TD*%
M02*
