%TF.GenerationSoftware,KiCad,Pcbnew,8.0.3*%
%TF.CreationDate,2024-11-08T10:21:23-08:00*%
%TF.ProjectId,return,72657475-726e-42e6-9b69-6361645f7063,rev?*%
%TF.SameCoordinates,Original*%
%TF.FileFunction,Soldermask,Top*%
%TF.FilePolarity,Negative*%
%FSLAX46Y46*%
G04 Gerber Fmt 4.6, Leading zero omitted, Abs format (unit mm)*
G04 Created by KiCad (PCBNEW 8.0.3) date 2024-11-08 10:21:23*
%MOMM*%
%LPD*%
G01*
G04 APERTURE LIST*
G04 Aperture macros list*
%AMRoundRect*
0 Rectangle with rounded corners*
0 $1 Rounding radius*
0 $2 $3 $4 $5 $6 $7 $8 $9 X,Y pos of 4 corners*
0 Add a 4 corners polygon primitive as box body*
4,1,4,$2,$3,$4,$5,$6,$7,$8,$9,$2,$3,0*
0 Add four circle primitives for the rounded corners*
1,1,$1+$1,$2,$3*
1,1,$1+$1,$4,$5*
1,1,$1+$1,$6,$7*
1,1,$1+$1,$8,$9*
0 Add four rect primitives between the rounded corners*
20,1,$1+$1,$2,$3,$4,$5,0*
20,1,$1+$1,$4,$5,$6,$7,0*
20,1,$1+$1,$6,$7,$8,$9,0*
20,1,$1+$1,$8,$9,$2,$3,0*%
G04 Aperture macros list end*
%ADD10C,2.200000*%
%ADD11R,1.700000X1.700000*%
%ADD12O,1.700000X1.700000*%
%ADD13RoundRect,0.250000X-1.050000X-0.550000X1.050000X-0.550000X1.050000X0.550000X-1.050000X0.550000X0*%
%ADD14O,2.600000X1.600000*%
%ADD15R,1.600000X1.600000*%
%ADD16O,1.600000X1.600000*%
%ADD17C,3.000000*%
%ADD18C,5.000000*%
%ADD19O,1.500000X2.000000*%
G04 APERTURE END LIST*
D10*
%TO.C,REF\u002A\u002A*%
X238130000Y-24408325D03*
%TD*%
%TO.C,REF\u002A\u002A*%
X28575600Y-23813000D03*
%TD*%
D11*
%TO.C,J1*%
X269682225Y-9644425D03*
D12*
X269682225Y-12184425D03*
X269682225Y-14724425D03*
X269682225Y-17264425D03*
%TD*%
D13*
%TO.C,A1*%
X123532275Y-35243400D03*
D14*
X123532275Y-37783400D03*
X123532275Y-40323400D03*
X123532275Y-42863400D03*
X123532275Y-45403400D03*
X123532275Y-47943400D03*
X123532275Y-50483400D03*
X123532275Y-53023400D03*
X123532275Y-55563400D03*
X123532275Y-58103400D03*
X123532275Y-60643400D03*
X123532275Y-63183400D03*
X123532275Y-65723400D03*
X123532275Y-68263400D03*
X123532275Y-70803400D03*
X123532275Y-73343400D03*
X143252275Y-73343400D03*
X143252275Y-70803400D03*
X143252275Y-68263400D03*
X143252275Y-65723400D03*
X143252275Y-63183400D03*
X143252275Y-60643400D03*
X143252275Y-58103400D03*
X143252275Y-55563400D03*
X143252275Y-53023400D03*
X143252275Y-50483400D03*
X143252275Y-47943400D03*
X143252275Y-45403400D03*
%TD*%
D15*
%TO.C,D13*%
X192881250Y-10597525D03*
D16*
X192881250Y-2977525D03*
%TD*%
D15*
%TO.C,D2*%
X21431250Y-10121275D03*
D16*
X21431250Y-2501275D03*
%TD*%
D17*
%TO.C,SW7*%
X90725000Y-5725000D03*
D18*
X85725000Y-9525000D03*
D17*
X85725000Y-3525000D03*
D19*
X80725000Y-14675000D03*
%TD*%
D17*
%TO.C,SW28*%
X52625000Y-29537500D03*
D18*
X47625000Y-33337500D03*
D17*
X47625000Y-27337500D03*
D19*
X42625000Y-38487500D03*
%TD*%
D17*
%TO.C,SW14*%
X224075000Y-5725000D03*
D18*
X219075000Y-9525000D03*
D17*
X219075000Y-3525000D03*
D19*
X214075000Y-14675000D03*
%TD*%
D17*
%TO.C,SW58*%
X138350000Y-86687500D03*
D18*
X133350000Y-90487500D03*
D17*
X133350000Y-84487500D03*
D19*
X128350000Y-95637500D03*
%TD*%
D17*
%TO.C,SW55*%
X52625000Y-86687500D03*
D18*
X47625000Y-90487500D03*
D17*
X47625000Y-84487500D03*
D19*
X42625000Y-95637500D03*
%TD*%
D17*
%TO.C,SW8*%
X109775000Y-5725000D03*
D18*
X104775000Y-9525000D03*
D17*
X104775000Y-3525000D03*
D19*
X99775000Y-14675000D03*
%TD*%
D15*
%TO.C,D17*%
X2381250Y-29647525D03*
D16*
X2381250Y-22027525D03*
%TD*%
D17*
%TO.C,SW51*%
X224075000Y-67637500D03*
D18*
X219075000Y-71437500D03*
D17*
X219075000Y-65437500D03*
D19*
X214075000Y-76587500D03*
%TD*%
D17*
%TO.C,SW61*%
X224075000Y-86687500D03*
D18*
X219075000Y-90487500D03*
D17*
X219075000Y-84487500D03*
D19*
X214075000Y-95637500D03*
%TD*%
D17*
%TO.C,SW27*%
X33575000Y-72400000D03*
D18*
X28575000Y-76200000D03*
D17*
X28575000Y-70200000D03*
D19*
X23575000Y-81350000D03*
%TD*%
D15*
%TO.C,D42*%
X154781250Y-72510025D03*
D16*
X154781250Y-64890025D03*
%TD*%
D15*
%TO.C,D53*%
X230981250Y-58222525D03*
D16*
X230981250Y-50602525D03*
%TD*%
D15*
%TO.C,D23*%
X250031250Y-67271275D03*
D16*
X250031250Y-59651275D03*
%TD*%
D15*
%TO.C,D44*%
X173831250Y-53460025D03*
D16*
X173831250Y-45840025D03*
%TD*%
D15*
%TO.C,D26*%
X21431250Y-58222525D03*
D16*
X21431250Y-50602525D03*
%TD*%
D15*
%TO.C,D45*%
X173831250Y-72510025D03*
D16*
X173831250Y-64890025D03*
%TD*%
D15*
%TO.C,D34*%
X78581250Y-34410025D03*
D16*
X78581250Y-26790025D03*
%TD*%
D15*
%TO.C,D24*%
X250031250Y-86797525D03*
D16*
X250031250Y-79177525D03*
%TD*%
D17*
%TO.C,SW19*%
X14525000Y-62875000D03*
D18*
X9525000Y-66675000D03*
D17*
X9525000Y-60675000D03*
D19*
X4525000Y-71825000D03*
%TD*%
D17*
%TO.C,SW24*%
X262175000Y-81925000D03*
D18*
X257175000Y-85725000D03*
D17*
X257175000Y-79725000D03*
D19*
X252175000Y-90875000D03*
%TD*%
D17*
%TO.C,SW60*%
X202647700Y-86689200D03*
D18*
X197647700Y-90489200D03*
D17*
X197647700Y-84489200D03*
D19*
X192647700Y-95639200D03*
%TD*%
D17*
%TO.C,SW3*%
X14525000Y-5725000D03*
D18*
X9525000Y-9525000D03*
D17*
X9525000Y-3525000D03*
D19*
X4525000Y-14675000D03*
%TD*%
D15*
%TO.C,D28*%
X40481250Y-34410025D03*
D16*
X40481250Y-26790025D03*
%TD*%
D15*
%TO.C,D39*%
X97631250Y-72510025D03*
D16*
X97631250Y-64890025D03*
%TD*%
D17*
%TO.C,SW22*%
X262175000Y-43825000D03*
D18*
X257175000Y-47625000D03*
D17*
X257175000Y-41625000D03*
D19*
X252175000Y-52775000D03*
%TD*%
D15*
%TO.C,D41*%
X154781250Y-53460025D03*
D16*
X154781250Y-45840025D03*
%TD*%
D17*
%TO.C,SW41*%
X166925000Y-48587500D03*
D18*
X161925000Y-52387500D03*
D17*
X161925000Y-46387500D03*
D19*
X156925000Y-57537500D03*
%TD*%
D17*
%TO.C,SW59*%
X181216200Y-86687500D03*
D18*
X176216200Y-90487500D03*
D17*
X176216200Y-84487500D03*
D19*
X171216200Y-95637500D03*
%TD*%
D17*
%TO.C,SW52*%
X243125000Y-34300000D03*
D18*
X238125000Y-38100000D03*
D17*
X238125000Y-32100000D03*
D19*
X233125000Y-43250000D03*
%TD*%
D15*
%TO.C,D56*%
X61912500Y-91560025D03*
D16*
X61912500Y-83940025D03*
%TD*%
D15*
%TO.C,D7*%
X78581250Y-10597525D03*
D16*
X78581250Y-2977525D03*
%TD*%
D17*
%TO.C,SW50*%
X224075000Y-48587500D03*
D18*
X219075000Y-52387500D03*
D17*
X219075000Y-46387500D03*
D19*
X214075000Y-57537500D03*
%TD*%
D15*
%TO.C,D6*%
X59531250Y-10121275D03*
D16*
X59531250Y-2501275D03*
%TD*%
D15*
%TO.C,D37*%
X97631250Y-34410025D03*
D16*
X97631250Y-26790025D03*
%TD*%
D15*
%TO.C,D14*%
X211931250Y-10597525D03*
D16*
X211931250Y-2977525D03*
%TD*%
D15*
%TO.C,D38*%
X97631250Y-53460025D03*
D16*
X97631250Y-45840025D03*
%TD*%
D15*
%TO.C,D25*%
X21431250Y-39172525D03*
D16*
X21431250Y-31552525D03*
%TD*%
D15*
%TO.C,D59*%
X169072450Y-91560025D03*
D16*
X169072450Y-83940025D03*
%TD*%
D15*
%TO.C,D57*%
X85725000Y-91560025D03*
D16*
X85725000Y-83940025D03*
%TD*%
D17*
%TO.C,SW15*%
X243125000Y-5725000D03*
D18*
X238125000Y-9525000D03*
D17*
X238125000Y-3525000D03*
D19*
X233125000Y-14675000D03*
%TD*%
D15*
%TO.C,D5*%
X40481250Y-10121275D03*
D16*
X40481250Y-2501275D03*
%TD*%
D15*
%TO.C,D49*%
X211931250Y-34410025D03*
D16*
X211931250Y-26790025D03*
%TD*%
D15*
%TO.C,D54*%
X230981250Y-77272525D03*
D16*
X230981250Y-69652525D03*
%TD*%
D15*
%TO.C,D61*%
X211931250Y-91560025D03*
D16*
X211931250Y-83940025D03*
%TD*%
D17*
%TO.C,SW4*%
X33575000Y-5725000D03*
D18*
X28575000Y-9525000D03*
D17*
X28575000Y-3525000D03*
D19*
X23575000Y-14675000D03*
%TD*%
D17*
%TO.C,SW49*%
X224075000Y-29537500D03*
D18*
X219075000Y-33337500D03*
D17*
X219075000Y-27337500D03*
D19*
X214075000Y-38487500D03*
%TD*%
D17*
%TO.C,SW43*%
X185975000Y-29537500D03*
D18*
X180975000Y-33337500D03*
D17*
X180975000Y-27337500D03*
D19*
X175975000Y-38487500D03*
%TD*%
D15*
%TO.C,D40*%
X154781250Y-34410025D03*
D16*
X154781250Y-26790025D03*
%TD*%
D15*
%TO.C,D20*%
X2381250Y-86797525D03*
D16*
X2381250Y-79177525D03*
%TD*%
D17*
%TO.C,SW17*%
X14525000Y-24775000D03*
D18*
X9525000Y-28575000D03*
D17*
X9525000Y-22575000D03*
D19*
X4525000Y-33725000D03*
%TD*%
D15*
%TO.C,D11*%
X154781250Y-10597525D03*
D16*
X154781250Y-2977525D03*
%TD*%
D15*
%TO.C,D1*%
X2380900Y-10121275D03*
D16*
X2380900Y-2501275D03*
%TD*%
D17*
%TO.C,SW25*%
X33575000Y-34300000D03*
D18*
X28575000Y-38100000D03*
D17*
X28575000Y-32100000D03*
D19*
X23575000Y-43250000D03*
%TD*%
D15*
%TO.C,D19*%
X2381250Y-67747525D03*
D16*
X2381250Y-60127525D03*
%TD*%
D17*
%TO.C,SW37*%
X109775000Y-29537500D03*
D18*
X104775000Y-33337500D03*
D17*
X104775000Y-27337500D03*
D19*
X99775000Y-38487500D03*
%TD*%
D15*
%TO.C,D50*%
X211931250Y-53460025D03*
D16*
X211931250Y-45840025D03*
%TD*%
D15*
%TO.C,D9*%
X116681250Y-10597525D03*
D16*
X116681250Y-2977525D03*
%TD*%
D17*
%TO.C,SW10*%
X147875000Y-5725000D03*
D18*
X142875000Y-9525000D03*
D17*
X142875000Y-3525000D03*
D19*
X137875000Y-14675000D03*
%TD*%
D15*
%TO.C,D8*%
X97631250Y-10597525D03*
D16*
X97631250Y-2977525D03*
%TD*%
D17*
%TO.C,SW46*%
X205025000Y-24775000D03*
D18*
X200025000Y-28575000D03*
D17*
X200025000Y-22575000D03*
D19*
X195025000Y-33725000D03*
%TD*%
D15*
%TO.C,D27*%
X21431250Y-77272525D03*
D16*
X21431250Y-69652525D03*
%TD*%
D15*
%TO.C,D33*%
X59531250Y-67747525D03*
D16*
X59531250Y-60127525D03*
%TD*%
D15*
%TO.C,D30*%
X40481250Y-72510025D03*
D16*
X40481250Y-64890025D03*
%TD*%
D17*
%TO.C,SW57*%
X97868750Y-86687500D03*
D18*
X92868750Y-90487500D03*
D17*
X92868750Y-84487500D03*
D19*
X87868750Y-95637500D03*
%TD*%
D17*
%TO.C,SW53*%
X243125000Y-53350000D03*
D18*
X238125000Y-57150000D03*
D17*
X238125000Y-51150000D03*
D19*
X233125000Y-62300000D03*
%TD*%
D17*
%TO.C,SW23*%
X262175000Y-62875000D03*
D18*
X257175000Y-66675000D03*
D17*
X257175000Y-60675000D03*
D19*
X252175000Y-71825000D03*
%TD*%
D17*
%TO.C,SW44*%
X185975000Y-48587500D03*
D18*
X180975000Y-52387500D03*
D17*
X180975000Y-46387500D03*
D19*
X175975000Y-57537500D03*
%TD*%
D17*
%TO.C,SW29*%
X52625000Y-48587500D03*
D18*
X47625000Y-52387500D03*
D17*
X47625000Y-46387500D03*
D19*
X42625000Y-57537500D03*
%TD*%
D15*
%TO.C,D15*%
X230981250Y-10597525D03*
D16*
X230981250Y-2977525D03*
%TD*%
D15*
%TO.C,D52*%
X230981250Y-39172525D03*
D16*
X230981250Y-31552525D03*
%TD*%
D15*
%TO.C,D16*%
X250031250Y-10597525D03*
D16*
X250031250Y-2977525D03*
%TD*%
D15*
%TO.C,D31*%
X59531250Y-29647525D03*
D16*
X59531250Y-22027525D03*
%TD*%
D15*
%TO.C,D43*%
X173831250Y-34410025D03*
D16*
X173831250Y-26790025D03*
%TD*%
D17*
%TO.C,SW45*%
X185975000Y-67637500D03*
D18*
X180975000Y-71437500D03*
D17*
X180975000Y-65437500D03*
D19*
X175975000Y-76587500D03*
%TD*%
D15*
%TO.C,D36*%
X78581250Y-72510025D03*
D16*
X78581250Y-64890025D03*
%TD*%
D17*
%TO.C,SW35*%
X90725000Y-48587500D03*
D18*
X85725000Y-52387500D03*
D17*
X85725000Y-46387500D03*
D19*
X80725000Y-57537500D03*
%TD*%
D17*
%TO.C,SW48*%
X205025000Y-62875000D03*
D18*
X200025000Y-66675000D03*
D17*
X200025000Y-60675000D03*
D19*
X195025000Y-71825000D03*
%TD*%
D17*
%TO.C,SW13*%
X205025000Y-5725000D03*
D18*
X200025000Y-9525000D03*
D17*
X200025000Y-3525000D03*
D19*
X195025000Y-14675000D03*
%TD*%
D17*
%TO.C,SW11*%
X166925000Y-5725000D03*
D18*
X161925000Y-9525000D03*
D17*
X161925000Y-3525000D03*
D19*
X156925000Y-14675000D03*
%TD*%
D15*
%TO.C,D32*%
X59531250Y-48697525D03*
D16*
X59531250Y-41077525D03*
%TD*%
D17*
%TO.C,SW36*%
X90725000Y-67637500D03*
D18*
X85725000Y-71437500D03*
D17*
X85725000Y-65437500D03*
D19*
X80725000Y-76587500D03*
%TD*%
D17*
%TO.C,SW38*%
X109775000Y-48587500D03*
D18*
X104775000Y-52387500D03*
D17*
X104775000Y-46387500D03*
D19*
X99775000Y-57537500D03*
%TD*%
D17*
%TO.C,SW21*%
X262175000Y-24775000D03*
D18*
X257175000Y-28575000D03*
D17*
X257175000Y-22575000D03*
D19*
X252175000Y-33725000D03*
%TD*%
D17*
%TO.C,SW33*%
X71675000Y-62875000D03*
D18*
X66675000Y-66675000D03*
D17*
X66675000Y-60675000D03*
D19*
X61675000Y-71825000D03*
%TD*%
D17*
%TO.C,SW31*%
X71675000Y-24775000D03*
D18*
X66675000Y-28575000D03*
D17*
X66675000Y-22575000D03*
D19*
X61675000Y-33725000D03*
%TD*%
D17*
%TO.C,SW34*%
X90725000Y-29537500D03*
D18*
X85725000Y-33337500D03*
D17*
X85725000Y-27337500D03*
D19*
X80725000Y-38487500D03*
%TD*%
D17*
%TO.C,SW47*%
X205025000Y-43825000D03*
D18*
X200025000Y-47625000D03*
D17*
X200025000Y-41625000D03*
D19*
X195025000Y-52775000D03*
%TD*%
D17*
%TO.C,SW56*%
X74056250Y-86687500D03*
D18*
X69056250Y-90487500D03*
D17*
X69056250Y-84487500D03*
D19*
X64056250Y-95637500D03*
%TD*%
D15*
%TO.C,D35*%
X78581250Y-53460025D03*
D16*
X78581250Y-45840025D03*
%TD*%
D15*
%TO.C,D18*%
X2381250Y-47268775D03*
D16*
X2381250Y-39648775D03*
%TD*%
D17*
%TO.C,SW26*%
X33575000Y-53350000D03*
D18*
X28575000Y-57150000D03*
D17*
X28575000Y-51150000D03*
D19*
X23575000Y-62300000D03*
%TD*%
D17*
%TO.C,SW54*%
X243125000Y-72400000D03*
D18*
X238125000Y-76200000D03*
D17*
X238125000Y-70200000D03*
D19*
X233125000Y-81350000D03*
%TD*%
D15*
%TO.C,D47*%
X192881250Y-48697525D03*
D16*
X192881250Y-41077525D03*
%TD*%
D15*
%TO.C,D21*%
X250031250Y-29647525D03*
D16*
X250031250Y-22027525D03*
%TD*%
D15*
%TO.C,D10*%
X135731250Y-10597525D03*
D16*
X135731250Y-2977525D03*
%TD*%
D17*
%TO.C,SW9*%
X128825000Y-5725000D03*
D18*
X123825000Y-9525000D03*
D17*
X123825000Y-3525000D03*
D19*
X118825000Y-14675000D03*
%TD*%
D17*
%TO.C,SW16*%
X262175000Y-5725000D03*
D18*
X257175000Y-9525000D03*
D17*
X257175000Y-3525000D03*
D19*
X252175000Y-14675000D03*
%TD*%
D15*
%TO.C,D12*%
X173831250Y-10597525D03*
D16*
X173831250Y-2977525D03*
%TD*%
D15*
%TO.C,D29*%
X40481250Y-53460025D03*
D16*
X40481250Y-45840025D03*
%TD*%
D17*
%TO.C,SW5*%
X52625000Y-5725000D03*
D18*
X47625000Y-9525000D03*
D17*
X47625000Y-3525000D03*
D19*
X42625000Y-14675000D03*
%TD*%
D17*
%TO.C,SW42*%
X166925000Y-67637500D03*
D18*
X161925000Y-71437500D03*
D17*
X161925000Y-65437500D03*
D19*
X156925000Y-76587500D03*
%TD*%
D17*
%TO.C,SW32*%
X71675000Y-43825000D03*
D18*
X66675000Y-47625000D03*
D17*
X66675000Y-41625000D03*
D19*
X61675000Y-52775000D03*
%TD*%
D15*
%TO.C,D48*%
X192881250Y-67747525D03*
D16*
X192881250Y-60127525D03*
%TD*%
D17*
%TO.C,SW6*%
X71675000Y-5725000D03*
D18*
X66675000Y-9525000D03*
D17*
X66675000Y-3525000D03*
D19*
X61675000Y-14675000D03*
%TD*%
D17*
%TO.C,SW12*%
X185975000Y-5725000D03*
D18*
X180975000Y-9525000D03*
D17*
X180975000Y-3525000D03*
D19*
X175975000Y-14675000D03*
%TD*%
D15*
%TO.C,D55*%
X40481250Y-91560025D03*
D16*
X40481250Y-83940025D03*
%TD*%
D15*
%TO.C,D60*%
X190503950Y-91561725D03*
D16*
X190503950Y-83941725D03*
%TD*%
D17*
%TO.C,SW40*%
X166925000Y-29537500D03*
D18*
X161925000Y-33337500D03*
D17*
X161925000Y-27337500D03*
D19*
X156925000Y-38487500D03*
%TD*%
D15*
%TO.C,D46*%
X192881250Y-29647525D03*
D16*
X192881250Y-22027525D03*
%TD*%
D15*
%TO.C,D51*%
X211931250Y-72510025D03*
D16*
X211931250Y-64890025D03*
%TD*%
D17*
%TO.C,SW18*%
X14525000Y-43825000D03*
D18*
X9525000Y-47625000D03*
D17*
X9525000Y-41625000D03*
D19*
X4525000Y-52775000D03*
%TD*%
D15*
%TO.C,D58*%
X126206250Y-91560025D03*
D16*
X126206250Y-83940025D03*
%TD*%
D17*
%TO.C,SW39*%
X109775000Y-67637500D03*
D18*
X104775000Y-71437500D03*
D17*
X104775000Y-65437500D03*
D19*
X99775000Y-76587500D03*
%TD*%
D17*
%TO.C,SW20*%
X14525000Y-81925000D03*
D18*
X9525000Y-85725000D03*
D17*
X9525000Y-79725000D03*
D19*
X4525000Y-90875000D03*
%TD*%
D15*
%TO.C,D22*%
X250031250Y-48697525D03*
D16*
X250031250Y-41077525D03*
%TD*%
D17*
%TO.C,SW30*%
X52625000Y-67637500D03*
D18*
X47625000Y-71437500D03*
D17*
X47625000Y-65437500D03*
D19*
X42625000Y-76587500D03*
%TD*%
M02*
