%TF.GenerationSoftware,KiCad,Pcbnew,8.0.3*%
%TF.CreationDate,2024-11-08T10:21:23-08:00*%
%TF.ProjectId,return,72657475-726e-42e6-9b69-6361645f7063,rev?*%
%TF.SameCoordinates,Original*%
%TF.FileFunction,Copper,L2,Bot*%
%TF.FilePolarity,Positive*%
%FSLAX46Y46*%
G04 Gerber Fmt 4.6, Leading zero omitted, Abs format (unit mm)*
G04 Created by KiCad (PCBNEW 8.0.3) date 2024-11-08 10:21:23*
%MOMM*%
%LPD*%
G01*
G04 APERTURE LIST*
G04 Aperture macros list*
%AMRoundRect*
0 Rectangle with rounded corners*
0 $1 Rounding radius*
0 $2 $3 $4 $5 $6 $7 $8 $9 X,Y pos of 4 corners*
0 Add a 4 corners polygon primitive as box body*
4,1,4,$2,$3,$4,$5,$6,$7,$8,$9,$2,$3,0*
0 Add four circle primitives for the rounded corners*
1,1,$1+$1,$2,$3*
1,1,$1+$1,$4,$5*
1,1,$1+$1,$6,$7*
1,1,$1+$1,$8,$9*
0 Add four rect primitives between the rounded corners*
20,1,$1+$1,$2,$3,$4,$5,0*
20,1,$1+$1,$4,$5,$6,$7,0*
20,1,$1+$1,$6,$7,$8,$9,0*
20,1,$1+$1,$8,$9,$2,$3,0*%
G04 Aperture macros list end*
%TA.AperFunction,SMDPad,CuDef*%
%ADD10R,1.650000X0.820000*%
%TD*%
%TA.AperFunction,SMDPad,CuDef*%
%ADD11RoundRect,0.205000X-0.620000X-0.205000X0.620000X-0.205000X0.620000X0.205000X-0.620000X0.205000X0*%
%TD*%
%TA.AperFunction,SMDPad,CuDef*%
%ADD12RoundRect,0.205000X0.620000X0.205000X-0.620000X0.205000X-0.620000X-0.205000X0.620000X-0.205000X0*%
%TD*%
%TA.AperFunction,ComponentPad*%
%ADD13R,1.700000X1.700000*%
%TD*%
%TA.AperFunction,ComponentPad*%
%ADD14O,1.700000X1.700000*%
%TD*%
%TA.AperFunction,ComponentPad*%
%ADD15RoundRect,0.250000X-1.050000X-0.550000X1.050000X-0.550000X1.050000X0.550000X-1.050000X0.550000X0*%
%TD*%
%TA.AperFunction,ComponentPad*%
%ADD16O,2.600000X1.600000*%
%TD*%
%TA.AperFunction,ComponentPad*%
%ADD17R,1.600000X1.600000*%
%TD*%
%TA.AperFunction,ComponentPad*%
%ADD18O,1.600000X1.600000*%
%TD*%
%TA.AperFunction,SMDPad,CuDef*%
%ADD19RoundRect,0.200000X-1.100000X-1.100000X1.100000X-1.100000X1.100000X1.100000X-1.100000X1.100000X0*%
%TD*%
%TA.AperFunction,ViaPad*%
%ADD20C,0.600000*%
%TD*%
%TA.AperFunction,Conductor*%
%ADD21C,0.200000*%
%TD*%
G04 APERTURE END LIST*
D10*
%TO.P,LED59,1,DOUT*%
%TO.N,Net-(LED59-DOUT)*%
X240755000Y-61759125D03*
D11*
%TO.P,LED59,2,VSS*%
%TO.N,GND*%
X235505000Y-61759125D03*
D10*
%TO.P,LED59,3,DIN*%
%TO.N,Net-(LED57-DOUT)*%
X235505000Y-63259125D03*
%TO.P,LED59,4,VDD*%
%TO.N,+5V*%
X240755000Y-63259125D03*
%TD*%
%TO.P,LED0,1,DOUT*%
%TO.N,Net-(LED0-DOUT)*%
X254555400Y-15478450D03*
D12*
%TO.P,LED0,2,VSS*%
%TO.N,GND*%
X259805400Y-15478450D03*
D10*
%TO.P,LED0,3,DIN*%
%TO.N,LED_DIN*%
X259805400Y-13978450D03*
%TO.P,LED0,4,VDD*%
%TO.N,+5V*%
X254555400Y-13978450D03*
%TD*%
%TO.P,LED34,1,DOUT*%
%TO.N,Net-(LED34-DOUT)*%
X107402200Y-76046925D03*
D11*
%TO.P,LED34,2,VSS*%
%TO.N,GND*%
X102152200Y-76046925D03*
D10*
%TO.P,LED34,3,DIN*%
%TO.N,Net-(LED33-DOUT)*%
X102152200Y-77546925D03*
%TO.P,LED34,4,VDD*%
%TO.N,+5V*%
X107402200Y-77546925D03*
%TD*%
%TO.P,LED63,1,DOUT*%
%TO.N,Net-(LED63-DOUT)*%
X235505000Y-44208725D03*
D12*
%TO.P,LED63,2,VSS*%
%TO.N,GND*%
X240755000Y-44208725D03*
D10*
%TO.P,LED63,3,DIN*%
%TO.N,Net-(LED61-DOUT)*%
X240755000Y-42708725D03*
%TO.P,LED63,4,VDD*%
%TO.N,+5V*%
X235505000Y-42708725D03*
%TD*%
%TO.P,LED39,1,DOUT*%
%TO.N,Net-(LED39-DOUT)*%
X45001000Y-96597325D03*
D12*
%TO.P,LED39,2,VSS*%
%TO.N,GND*%
X50251000Y-96597325D03*
D10*
%TO.P,LED39,3,DIN*%
%TO.N,Net-(LED38-DOUT)*%
X50251000Y-95097325D03*
%TO.P,LED39,4,VDD*%
%TO.N,+5V*%
X45001000Y-95097325D03*
%TD*%
%TO.P,LED31,1,DOUT*%
%TO.N,Net-(LED31-DOUT)*%
X50251000Y-76046925D03*
D11*
%TO.P,LED31,2,VSS*%
%TO.N,GND*%
X45001000Y-76046925D03*
D10*
%TO.P,LED31,3,DIN*%
%TO.N,Net-(LED30-DOUT)*%
X45001000Y-77546925D03*
%TO.P,LED31,4,VDD*%
%TO.N,+5V*%
X50251000Y-77546925D03*
%TD*%
%TO.P,LED30,1,DOUT*%
%TO.N,Net-(LED30-DOUT)*%
X31200600Y-80809525D03*
D11*
%TO.P,LED30,2,VSS*%
%TO.N,GND*%
X25950600Y-80809525D03*
D10*
%TO.P,LED30,3,DIN*%
%TO.N,Net-(LED29-DOUT)*%
X25950600Y-82309525D03*
%TO.P,LED30,4,VDD*%
%TO.N,+5V*%
X31200600Y-82309525D03*
%TD*%
%TO.P,LED20,1,DOUT*%
%TO.N,Net-(LED20-DOUT)*%
X107402200Y-37946125D03*
D11*
%TO.P,LED20,2,VSS*%
%TO.N,GND*%
X102152200Y-37946125D03*
D10*
%TO.P,LED20,3,DIN*%
%TO.N,Net-(LED19-DOUT)*%
X102152200Y-39446125D03*
%TO.P,LED20,4,VDD*%
%TO.N,+5V*%
X107402200Y-39446125D03*
%TD*%
%TO.P,LED40,1,DOUT*%
%TO.N,Net-(LED40-DOUT)*%
X6900200Y-91834725D03*
D12*
%TO.P,LED40,2,VSS*%
%TO.N,GND*%
X12150200Y-91834725D03*
D10*
%TO.P,LED40,3,DIN*%
%TO.N,Net-(LED39-DOUT)*%
X12150200Y-90334725D03*
%TO.P,LED40,4,VDD*%
%TO.N,+5V*%
X6900200Y-90334725D03*
%TD*%
%TO.P,LED32,1,DOUT*%
%TO.N,Net-(LED32-DOUT)*%
X69301400Y-71284325D03*
D11*
%TO.P,LED32,2,VSS*%
%TO.N,GND*%
X64051400Y-71284325D03*
D10*
%TO.P,LED32,3,DIN*%
%TO.N,Net-(LED31-DOUT)*%
X64051400Y-72784325D03*
%TO.P,LED32,4,VDD*%
%TO.N,+5V*%
X69301400Y-72784325D03*
%TD*%
%TO.P,LED48,1,DOUT*%
%TO.N,Net-(LED48-DOUT)*%
X216454600Y-77546925D03*
D12*
%TO.P,LED48,2,VSS*%
%TO.N,GND*%
X221704600Y-77546925D03*
D10*
%TO.P,LED48,3,DIN*%
%TO.N,Net-(LED47-DOUT)*%
X221704600Y-76046925D03*
%TO.P,LED48,4,VDD*%
%TO.N,+5V*%
X216454600Y-76046925D03*
%TD*%
%TO.P,LED45,1,DOUT*%
%TO.N,Net-(LED45-DOUT)*%
X259805400Y-90334725D03*
D11*
%TO.P,LED45,2,VSS*%
%TO.N,GND*%
X254555400Y-90334725D03*
D10*
%TO.P,LED45,3,DIN*%
%TO.N,Net-(LED44-DOUT)*%
X254555400Y-91834725D03*
%TO.P,LED45,4,VDD*%
%TO.N,+5V*%
X259805400Y-91834725D03*
%TD*%
%TO.P,LED37,1,DOUT*%
%TO.N,Net-(LED37-DOUT)*%
X90245700Y-96597325D03*
D12*
%TO.P,LED37,2,VSS*%
%TO.N,GND*%
X95495700Y-96597325D03*
D10*
%TO.P,LED37,3,DIN*%
%TO.N,Net-(LED34-DOUT)*%
X95495700Y-95097325D03*
%TO.P,LED37,4,VDD*%
%TO.N,+5V*%
X90245700Y-95097325D03*
%TD*%
%TO.P,LED67,1,DOUT*%
%TO.N,Net-(LED67-DOUT)*%
X197404200Y-34683525D03*
D12*
%TO.P,LED67,2,VSS*%
%TO.N,GND*%
X202654200Y-34683525D03*
D10*
%TO.P,LED67,3,DIN*%
%TO.N,Net-(LED66-DOUT)*%
X202654200Y-33183525D03*
%TO.P,LED67,4,VDD*%
%TO.N,+5V*%
X197404200Y-33183525D03*
%TD*%
%TO.P,LED43,1,DOUT*%
%TO.N,Net-(LED43-DOUT)*%
X200272900Y-95097325D03*
D11*
%TO.P,LED43,2,VSS*%
%TO.N,GND*%
X195022900Y-95097325D03*
D10*
%TO.P,LED43,3,DIN*%
%TO.N,/row3DOut*%
X195022900Y-96597325D03*
%TO.P,LED43,4,VDD*%
%TO.N,+5V*%
X200272900Y-96597325D03*
%TD*%
%TO.P,LED13,1,DOUT*%
%TO.N,Net-(LED13-DOUT)*%
X25950600Y-15633125D03*
D12*
%TO.P,LED13,2,VSS*%
%TO.N,GND*%
X31200600Y-15633125D03*
D10*
%TO.P,LED13,3,DIN*%
%TO.N,Net-(LED12-DOUT)*%
X31200600Y-14133125D03*
%TO.P,LED13,4,VDD*%
%TO.N,+5V*%
X25950600Y-14133125D03*
%TD*%
%TO.P,LED11,1,DOUT*%
%TO.N,Net-(LED11-DOUT)*%
X64051400Y-15478450D03*
D12*
%TO.P,LED11,2,VSS*%
%TO.N,GND*%
X69301400Y-15478450D03*
D10*
%TO.P,LED11,3,DIN*%
%TO.N,Net-(LED10-DOUT)*%
X69301400Y-13978450D03*
%TO.P,LED11,4,VDD*%
%TO.N,+5V*%
X64051400Y-13978450D03*
%TD*%
%TO.P,LED61,1,DOUT*%
%TO.N,Net-(LED61-DOUT)*%
X254555400Y-34683525D03*
D12*
%TO.P,LED61,2,VSS*%
%TO.N,GND*%
X259805400Y-34683525D03*
D10*
%TO.P,LED61,3,DIN*%
%TO.N,Net-(LED60-DOUT)*%
X259805400Y-33183525D03*
%TO.P,LED61,4,VDD*%
%TO.N,+5V*%
X254555400Y-33183525D03*
%TD*%
%TO.P,LED4,1,DOUT*%
%TO.N,Net-(LED4-DOUT)*%
X197404200Y-15478450D03*
D12*
%TO.P,LED4,2,VSS*%
%TO.N,GND*%
X202654200Y-15478450D03*
D10*
%TO.P,LED4,3,DIN*%
%TO.N,Net-(LED3-DOUT)*%
X202654200Y-13978450D03*
%TO.P,LED4,4,VDD*%
%TO.N,+5V*%
X197404200Y-13978450D03*
%TD*%
%TO.P,LED23,1,DOUT*%
%TO.N,Net-(LED23-DOUT)*%
X102152200Y-58496525D03*
D12*
%TO.P,LED23,2,VSS*%
%TO.N,GND*%
X107402200Y-58496525D03*
D10*
%TO.P,LED23,3,DIN*%
%TO.N,Net-(LED20-DOUT)*%
X107402200Y-56996525D03*
%TO.P,LED23,4,VDD*%
%TO.N,+5V*%
X102152200Y-56996525D03*
%TD*%
%TO.P,LED29,1,DOUT*%
%TO.N,Net-(LED29-DOUT)*%
X12150200Y-71284325D03*
D11*
%TO.P,LED29,2,VSS*%
%TO.N,GND*%
X6900200Y-71284325D03*
D10*
%TO.P,LED29,3,DIN*%
%TO.N,/row2DOut*%
X6900200Y-72784325D03*
%TO.P,LED29,4,VDD*%
%TO.N,+5V*%
X12150200Y-72784325D03*
%TD*%
%TO.P,LED17,1,DOUT*%
%TO.N,Net-(LED17-DOUT)*%
X50251000Y-37946125D03*
D11*
%TO.P,LED17,2,VSS*%
%TO.N,GND*%
X45001000Y-37946125D03*
D10*
%TO.P,LED17,3,DIN*%
%TO.N,Net-(LED16-DOUT)*%
X45001000Y-39446125D03*
%TO.P,LED17,4,VDD*%
%TO.N,+5V*%
X50251000Y-39446125D03*
%TD*%
%TO.P,LED53,1,DOUT*%
%TO.N,Net-(LED53-DOUT)*%
X159303400Y-77546925D03*
D12*
%TO.P,LED53,2,VSS*%
%TO.N,GND*%
X164553400Y-77546925D03*
D10*
%TO.P,LED53,3,DIN*%
%TO.N,Net-(LED52-DOUT)*%
X164553400Y-76046925D03*
%TO.P,LED53,4,VDD*%
%TO.N,+5V*%
X159303400Y-76046925D03*
%TD*%
%TO.P,LED51,1,DOUT*%
%TO.N,Net-(LED51-DOUT)*%
X197404200Y-72784325D03*
D12*
%TO.P,LED51,2,VSS*%
%TO.N,GND*%
X202654200Y-72784325D03*
D10*
%TO.P,LED51,3,DIN*%
%TO.N,Net-(LED48-DOUT)*%
X202654200Y-71284325D03*
%TO.P,LED51,4,VDD*%
%TO.N,+5V*%
X197404200Y-71284325D03*
%TD*%
%TO.P,LED7,1,DOUT*%
%TO.N,Net-(LED7-DOUT)*%
X140253000Y-15478450D03*
D12*
%TO.P,LED7,2,VSS*%
%TO.N,GND*%
X145503000Y-15478450D03*
D10*
%TO.P,LED7,3,DIN*%
%TO.N,Net-(LED6-DOUT)*%
X145503000Y-13978450D03*
%TO.P,LED7,4,VDD*%
%TO.N,+5V*%
X140253000Y-13978450D03*
%TD*%
%TO.P,LED19,1,DOUT*%
%TO.N,Net-(LED19-DOUT)*%
X88351800Y-37946125D03*
D11*
%TO.P,LED19,2,VSS*%
%TO.N,GND*%
X83101800Y-37946125D03*
D10*
%TO.P,LED19,3,DIN*%
%TO.N,Net-(LED18-DOUT)*%
X83101800Y-39446125D03*
%TO.P,LED19,4,VDD*%
%TO.N,+5V*%
X88351800Y-39446125D03*
%TD*%
%TO.P,LED26,1,DOUT*%
%TO.N,Net-(LED26-DOUT)*%
X45001000Y-58496525D03*
D12*
%TO.P,LED26,2,VSS*%
%TO.N,GND*%
X50251000Y-58496525D03*
D10*
%TO.P,LED26,3,DIN*%
%TO.N,Net-(LED25-DOUT)*%
X50251000Y-56996525D03*
%TO.P,LED26,4,VDD*%
%TO.N,+5V*%
X45001000Y-56996525D03*
%TD*%
D13*
%TO.P,J1,1,Pin_1*%
%TO.N,GND*%
X269682225Y-9644425D03*
D14*
%TO.P,J1,2,Pin_2*%
%TO.N,Net-(A1-SCL)*%
X269682225Y-12184425D03*
%TO.P,J1,3,Pin_3*%
%TO.N,Net-(A1-SDA)*%
X269682225Y-14724425D03*
%TO.P,J1,4,Pin_4*%
%TO.N,+5V*%
X269682225Y-17264425D03*
%TD*%
D10*
%TO.P,LED57,1,DOUT*%
%TO.N,Net-(LED57-DOUT)*%
X221704600Y-56996525D03*
D11*
%TO.P,LED57,2,VSS*%
%TO.N,GND*%
X216454600Y-56996525D03*
D10*
%TO.P,LED57,3,DIN*%
%TO.N,/row4DOut*%
X216454600Y-58496525D03*
%TO.P,LED57,4,VDD*%
%TO.N,+5V*%
X221704600Y-58496525D03*
%TD*%
%TO.P,LED47,1,DOUT*%
%TO.N,Net-(LED47-DOUT)*%
X235505000Y-82309525D03*
D12*
%TO.P,LED47,2,VSS*%
%TO.N,GND*%
X240755000Y-82309525D03*
D10*
%TO.P,LED47,3,DIN*%
%TO.N,Net-(LED46-DOUT)*%
X240755000Y-80809525D03*
%TO.P,LED47,4,VDD*%
%TO.N,+5V*%
X235505000Y-80809525D03*
%TD*%
%TO.P,LED54,1,DOUT*%
%TO.N,Net-(LED54-DOUT)*%
X164553400Y-56996525D03*
D11*
%TO.P,LED54,2,VSS*%
%TO.N,GND*%
X159303400Y-56996525D03*
D10*
%TO.P,LED54,3,DIN*%
%TO.N,Net-(LED53-DOUT)*%
X159303400Y-58496525D03*
%TO.P,LED54,4,VDD*%
%TO.N,+5V*%
X164553400Y-58496525D03*
%TD*%
%TO.P,LED3,1,DOUT*%
%TO.N,Net-(LED3-DOUT)*%
X216454600Y-15478450D03*
D12*
%TO.P,LED3,2,VSS*%
%TO.N,GND*%
X221704600Y-15478450D03*
D10*
%TO.P,LED3,3,DIN*%
%TO.N,Net-(LED2-DOUT)*%
X221704600Y-13978450D03*
%TO.P,LED3,4,VDD*%
%TO.N,+5V*%
X216454600Y-13978450D03*
%TD*%
%TO.P,LED10,1,DOUT*%
%TO.N,Net-(LED10-DOUT)*%
X83101800Y-15478450D03*
D12*
%TO.P,LED10,2,VSS*%
%TO.N,GND*%
X88351800Y-15478450D03*
D10*
%TO.P,LED10,3,DIN*%
%TO.N,Net-(LED10-DIN)*%
X88351800Y-13978450D03*
%TO.P,LED10,4,VDD*%
%TO.N,+5V*%
X83101800Y-13978450D03*
%TD*%
D15*
%TO.P,A1,1,~{RESET}*%
%TO.N,unconnected-(A1-~{RESET}-Pad1)*%
X123532275Y-35243400D03*
D16*
%TO.P,A1,2,3V3*%
%TO.N,unconnected-(A1-3V3-Pad2)*%
X123532275Y-37783400D03*
%TO.P,A1,3,AREF*%
%TO.N,unconnected-(A1-AREF-Pad3)*%
X123532275Y-40323400D03*
%TO.P,A1,4,GND*%
%TO.N,GND*%
X123532275Y-42863400D03*
%TO.P,A1,5,A0*%
%TO.N,ROW0*%
X123532275Y-45403400D03*
%TO.P,A1,6,A1*%
%TO.N,ROW1*%
X123532275Y-47943400D03*
%TO.P,A1,7,A2*%
%TO.N,ROW2*%
X123532275Y-50483400D03*
%TO.P,A1,8,A3*%
%TO.N,ROW3*%
X123532275Y-53023400D03*
%TO.P,A1,9,A4*%
%TO.N,ROW4*%
X123532275Y-55563400D03*
%TO.P,A1,10,A5*%
%TO.N,COL0*%
X123532275Y-58103400D03*
%TO.P,A1,11,SCK*%
%TO.N,COL1*%
X123532275Y-60643400D03*
%TO.P,A1,12,MOSI*%
%TO.N,COL2*%
X123532275Y-63183400D03*
%TO.P,A1,13,MISO*%
%TO.N,COL3*%
X123532275Y-65723400D03*
%TO.P,A1,14,RX*%
%TO.N,COL4*%
X123532275Y-68263400D03*
%TO.P,A1,15,TX*%
%TO.N,COL5*%
X123532275Y-70803400D03*
%TO.P,A1,16,SPARE*%
%TO.N,unconnected-(A1-SPARE-Pad16)*%
X123532275Y-73343400D03*
%TO.P,A1,17,SDA*%
%TO.N,Net-(A1-SDA)*%
X143252275Y-73343400D03*
%TO.P,A1,18,SCL*%
%TO.N,Net-(A1-SCL)*%
X143252275Y-70803400D03*
%TO.P,A1,19,D0*%
%TO.N,LED_DIN*%
X143252275Y-68263400D03*
%TO.P,A1,20,D1*%
%TO.N,COL11*%
X143252275Y-65723400D03*
%TO.P,A1,21,D2*%
%TO.N,COL10*%
X143252275Y-63183400D03*
%TO.P,A1,22,D3*%
%TO.N,COL9*%
X143252275Y-60643400D03*
%TO.P,A1,23,D4*%
%TO.N,COL8*%
X143252275Y-58103400D03*
%TO.P,A1,24,D5*%
%TO.N,COL7*%
X143252275Y-55563400D03*
%TO.P,A1,25,D6*%
%TO.N,COL6*%
X143252275Y-53023400D03*
%TO.P,A1,26,USB*%
%TO.N,+5V*%
X143252275Y-50483400D03*
%TO.P,A1,27,EN*%
%TO.N,unconnected-(A1-EN-Pad27)*%
X143252275Y-47943400D03*
%TO.P,A1,28,VBAT*%
%TO.N,unconnected-(A1-VBAT-Pad28)*%
X143252275Y-45403400D03*
%TD*%
D10*
%TO.P,LED66,1,DOUT*%
%TO.N,Net-(LED66-DOUT)*%
X216454600Y-39446125D03*
D12*
%TO.P,LED66,2,VSS*%
%TO.N,GND*%
X221704600Y-39446125D03*
D10*
%TO.P,LED66,3,DIN*%
%TO.N,Net-(LED63-DOUT)*%
X221704600Y-37946125D03*
%TO.P,LED66,4,VDD*%
%TO.N,+5V*%
X216454600Y-37946125D03*
%TD*%
%TO.P,LED70,1,DOUT*%
%TO.N,unconnected-(LED70-DOUT-Pad1)*%
X159303400Y-39446125D03*
D12*
%TO.P,LED70,2,VSS*%
%TO.N,GND*%
X164553400Y-39446125D03*
D10*
%TO.P,LED70,3,DIN*%
%TO.N,Net-(LED68-DOUT)*%
X164553400Y-37946125D03*
%TO.P,LED70,4,VDD*%
%TO.N,+5V*%
X159303400Y-37946125D03*
%TD*%
%TO.P,LED46,1,DOUT*%
%TO.N,Net-(LED46-DOUT)*%
X254555400Y-73974975D03*
D12*
%TO.P,LED46,2,VSS*%
%TO.N,GND*%
X259805400Y-73974975D03*
D10*
%TO.P,LED46,3,DIN*%
%TO.N,Net-(LED45-DOUT)*%
X259805400Y-72474975D03*
%TO.P,LED46,4,VDD*%
%TO.N,+5V*%
X254555400Y-72474975D03*
%TD*%
%TO.P,LED9,1,DOUT*%
%TO.N,Net-(LED10-DIN)*%
X102152200Y-15478450D03*
D12*
%TO.P,LED9,2,VSS*%
%TO.N,GND*%
X107402200Y-15478450D03*
D10*
%TO.P,LED9,3,DIN*%
%TO.N,Net-(LED8-DOUT)*%
X107402200Y-13978450D03*
%TO.P,LED9,4,VDD*%
%TO.N,+5V*%
X102152200Y-13978450D03*
%TD*%
%TO.P,LED2,1,DOUT*%
%TO.N,Net-(LED2-DOUT)*%
X235505000Y-15478450D03*
D12*
%TO.P,LED2,2,VSS*%
%TO.N,GND*%
X240755000Y-15478450D03*
D10*
%TO.P,LED2,3,DIN*%
%TO.N,Net-(LED0-DOUT)*%
X240755000Y-13978450D03*
%TO.P,LED2,4,VDD*%
%TO.N,+5V*%
X235505000Y-13978450D03*
%TD*%
%TO.P,LED27,1,DOUT*%
%TO.N,Net-(LED27-DOUT)*%
X25950600Y-63259125D03*
D12*
%TO.P,LED27,2,VSS*%
%TO.N,GND*%
X31200600Y-63259125D03*
D10*
%TO.P,LED27,3,DIN*%
%TO.N,Net-(LED26-DOUT)*%
X31200600Y-61759125D03*
%TO.P,LED27,4,VDD*%
%TO.N,+5V*%
X25950600Y-61759125D03*
%TD*%
%TO.P,LED42,1,DOUT*%
%TO.N,/row3DOut*%
X178841200Y-95097325D03*
D11*
%TO.P,LED42,2,VSS*%
%TO.N,GND*%
X173591200Y-95097325D03*
D10*
%TO.P,LED42,3,DIN*%
%TO.N,Net-(LED41-DOUT)*%
X173591200Y-96597325D03*
%TO.P,LED42,4,VDD*%
%TO.N,+5V*%
X178841200Y-96597325D03*
%TD*%
%TO.P,LED5,1,DOUT*%
%TO.N,Net-(LED5-DOUT)*%
X178353800Y-15478450D03*
D12*
%TO.P,LED5,2,VSS*%
%TO.N,GND*%
X183603800Y-15478450D03*
D10*
%TO.P,LED5,3,DIN*%
%TO.N,Net-(LED4-DOUT)*%
X183603800Y-13978450D03*
%TO.P,LED5,4,VDD*%
%TO.N,+5V*%
X178353800Y-13978450D03*
%TD*%
%TO.P,LED41,1,DOUT*%
%TO.N,Net-(LED41-DOUT)*%
X135977800Y-95097325D03*
D11*
%TO.P,LED41,2,VSS*%
%TO.N,GND*%
X130727800Y-95097325D03*
D10*
%TO.P,LED41,3,DIN*%
%TO.N,Net-(LED40-DOUT)*%
X130727800Y-96597325D03*
%TO.P,LED41,4,VDD*%
%TO.N,+5V*%
X135977800Y-96597325D03*
%TD*%
%TO.P,LED16,1,DOUT*%
%TO.N,Net-(LED16-DOUT)*%
X31200600Y-42708725D03*
D11*
%TO.P,LED16,2,VSS*%
%TO.N,GND*%
X25950600Y-42708725D03*
D10*
%TO.P,LED16,3,DIN*%
%TO.N,Net-(LED15-DOUT)*%
X25950600Y-44208725D03*
%TO.P,LED16,4,VDD*%
%TO.N,+5V*%
X31200600Y-44208725D03*
%TD*%
%TO.P,LED55,1,DOUT*%
%TO.N,Net-(LED55-DOUT)*%
X183603800Y-56996525D03*
D11*
%TO.P,LED55,2,VSS*%
%TO.N,GND*%
X178353800Y-56996525D03*
D10*
%TO.P,LED55,3,DIN*%
%TO.N,Net-(LED54-DOUT)*%
X178353800Y-58496525D03*
%TO.P,LED55,4,VDD*%
%TO.N,+5V*%
X183603800Y-58496525D03*
%TD*%
%TO.P,LED15,1,DOUT*%
%TO.N,Net-(LED15-DOUT)*%
X12150200Y-33183525D03*
D11*
%TO.P,LED15,2,VSS*%
%TO.N,GND*%
X6900200Y-33183525D03*
D10*
%TO.P,LED15,3,DIN*%
%TO.N,/row1DOut*%
X6900200Y-34683525D03*
%TO.P,LED15,4,VDD*%
%TO.N,+5V*%
X12150200Y-34683525D03*
%TD*%
%TO.P,LED60,1,DOUT*%
%TO.N,Net-(LED60-DOUT)*%
X259805400Y-52233925D03*
D11*
%TO.P,LED60,2,VSS*%
%TO.N,GND*%
X254555400Y-52233925D03*
D10*
%TO.P,LED60,3,DIN*%
%TO.N,Net-(LED59-DOUT)*%
X254555400Y-53733925D03*
%TO.P,LED60,4,VDD*%
%TO.N,+5V*%
X259805400Y-53733925D03*
%TD*%
%TO.P,LED12,1,DOUT*%
%TO.N,Net-(LED12-DOUT)*%
X45001000Y-15478450D03*
D12*
%TO.P,LED12,2,VSS*%
%TO.N,GND*%
X50251000Y-15478450D03*
D10*
%TO.P,LED12,3,DIN*%
%TO.N,Net-(LED11-DOUT)*%
X50251000Y-13978450D03*
%TO.P,LED12,4,VDD*%
%TO.N,+5V*%
X45001000Y-13978450D03*
%TD*%
%TO.P,LED28,1,DOUT*%
%TO.N,/row2DOut*%
X6900200Y-53733925D03*
D12*
%TO.P,LED28,2,VSS*%
%TO.N,GND*%
X12150200Y-53733925D03*
D10*
%TO.P,LED28,3,DIN*%
%TO.N,Net-(LED27-DOUT)*%
X12150200Y-52233925D03*
%TO.P,LED28,4,VDD*%
%TO.N,+5V*%
X6900200Y-52233925D03*
%TD*%
%TO.P,LED38,1,DOUT*%
%TO.N,Net-(LED38-DOUT)*%
X66432700Y-96597325D03*
D12*
%TO.P,LED38,2,VSS*%
%TO.N,GND*%
X71682700Y-96597325D03*
D10*
%TO.P,LED38,3,DIN*%
%TO.N,Net-(LED37-DOUT)*%
X71682700Y-95097325D03*
%TO.P,LED38,4,VDD*%
%TO.N,+5V*%
X66432700Y-95097325D03*
%TD*%
%TO.P,LED24,1,DOUT*%
%TO.N,Net-(LED24-DOUT)*%
X83101800Y-58496525D03*
D12*
%TO.P,LED24,2,VSS*%
%TO.N,GND*%
X88351800Y-58496525D03*
D10*
%TO.P,LED24,3,DIN*%
%TO.N,Net-(LED23-DOUT)*%
X88351800Y-56996525D03*
%TO.P,LED24,4,VDD*%
%TO.N,+5V*%
X83101800Y-56996525D03*
%TD*%
%TO.P,LED44,1,DOUT*%
%TO.N,Net-(LED44-DOUT)*%
X221704600Y-95097325D03*
D11*
%TO.P,LED44,2,VSS*%
%TO.N,GND*%
X216454600Y-95097325D03*
D10*
%TO.P,LED44,3,DIN*%
%TO.N,Net-(LED43-DOUT)*%
X216454600Y-96597325D03*
%TO.P,LED44,4,VDD*%
%TO.N,+5V*%
X221704600Y-96597325D03*
%TD*%
%TO.P,LED52,1,DOUT*%
%TO.N,Net-(LED52-DOUT)*%
X178353800Y-77546925D03*
D12*
%TO.P,LED52,2,VSS*%
%TO.N,GND*%
X183603800Y-77546925D03*
D10*
%TO.P,LED52,3,DIN*%
%TO.N,Net-(LED51-DOUT)*%
X183603800Y-76046925D03*
%TO.P,LED52,4,VDD*%
%TO.N,+5V*%
X178353800Y-76046925D03*
%TD*%
%TO.P,LED14,1,DOUT*%
%TO.N,/row1DOut*%
X6900200Y-15633125D03*
D12*
%TO.P,LED14,2,VSS*%
%TO.N,GND*%
X12150200Y-15633125D03*
D10*
%TO.P,LED14,3,DIN*%
%TO.N,Net-(LED13-DOUT)*%
X12150200Y-14133125D03*
%TO.P,LED14,4,VDD*%
%TO.N,+5V*%
X6900200Y-14133125D03*
%TD*%
%TO.P,LED56,1,DOUT*%
%TO.N,/row4DOut*%
X202654200Y-52233925D03*
D11*
%TO.P,LED56,2,VSS*%
%TO.N,GND*%
X197404200Y-52233925D03*
D10*
%TO.P,LED56,3,DIN*%
%TO.N,Net-(LED55-DOUT)*%
X197404200Y-53733925D03*
%TO.P,LED56,4,VDD*%
%TO.N,+5V*%
X202654200Y-53733925D03*
%TD*%
%TO.P,LED6,1,DOUT*%
%TO.N,Net-(LED6-DOUT)*%
X159303400Y-15478450D03*
D12*
%TO.P,LED6,2,VSS*%
%TO.N,GND*%
X164553400Y-15478450D03*
D10*
%TO.P,LED6,3,DIN*%
%TO.N,Net-(LED5-DOUT)*%
X164553400Y-13978450D03*
%TO.P,LED6,4,VDD*%
%TO.N,+5V*%
X159303400Y-13978450D03*
%TD*%
%TO.P,LED25,1,DOUT*%
%TO.N,Net-(LED25-DOUT)*%
X64051400Y-53733925D03*
D12*
%TO.P,LED25,2,VSS*%
%TO.N,GND*%
X69301400Y-53733925D03*
D10*
%TO.P,LED25,3,DIN*%
%TO.N,Net-(LED24-DOUT)*%
X69301400Y-52233925D03*
%TO.P,LED25,4,VDD*%
%TO.N,+5V*%
X64051400Y-52233925D03*
%TD*%
%TO.P,LED68,1,DOUT*%
%TO.N,Net-(LED68-DOUT)*%
X178353800Y-39446125D03*
D12*
%TO.P,LED68,2,VSS*%
%TO.N,GND*%
X183603800Y-39446125D03*
D10*
%TO.P,LED68,3,DIN*%
%TO.N,Net-(LED67-DOUT)*%
X183603800Y-37946125D03*
%TO.P,LED68,4,VDD*%
%TO.N,+5V*%
X178353800Y-37946125D03*
%TD*%
%TO.P,LED33,1,DOUT*%
%TO.N,Net-(LED33-DOUT)*%
X88351800Y-76046925D03*
D11*
%TO.P,LED33,2,VSS*%
%TO.N,GND*%
X83101800Y-76046925D03*
D10*
%TO.P,LED33,3,DIN*%
%TO.N,Net-(LED32-DOUT)*%
X83101800Y-77546925D03*
%TO.P,LED33,4,VDD*%
%TO.N,+5V*%
X88351800Y-77546925D03*
%TD*%
%TO.P,LED8,1,DOUT*%
%TO.N,Net-(LED8-DOUT)*%
X121202600Y-15478450D03*
D12*
%TO.P,LED8,2,VSS*%
%TO.N,GND*%
X126452600Y-15478450D03*
D10*
%TO.P,LED8,3,DIN*%
%TO.N,Net-(LED7-DOUT)*%
X126452600Y-13978450D03*
%TO.P,LED8,4,VDD*%
%TO.N,+5V*%
X121202600Y-13978450D03*
%TD*%
%TO.P,LED18,1,DOUT*%
%TO.N,Net-(LED18-DOUT)*%
X69301400Y-33183525D03*
D11*
%TO.P,LED18,2,VSS*%
%TO.N,GND*%
X64051400Y-33183525D03*
D10*
%TO.P,LED18,3,DIN*%
%TO.N,Net-(LED17-DOUT)*%
X64051400Y-34683525D03*
%TO.P,LED18,4,VDD*%
%TO.N,+5V*%
X69301400Y-34683525D03*
%TD*%
D17*
%TO.P,D13,1,K*%
%TO.N,ROW0*%
X192881250Y-10597525D03*
D18*
%TO.P,D13,2,A*%
%TO.N,Net-(D13-A)*%
X192881250Y-2977525D03*
%TD*%
D17*
%TO.P,D2,1,K*%
%TO.N,ROW0*%
X21431250Y-10121275D03*
D18*
%TO.P,D2,2,A*%
%TO.N,Net-(D2-A)*%
X21431250Y-2501275D03*
%TD*%
D19*
%TO.P,SW7,1,1*%
%TO.N,COL4*%
X94300000Y-5725000D03*
%TO.P,SW7,2,2*%
%TO.N,Net-(D7-A)*%
X82150000Y-3525000D03*
%TD*%
%TO.P,SW28,1,1*%
%TO.N,COL2*%
X56200000Y-29537500D03*
%TO.P,SW28,2,2*%
%TO.N,Net-(D28-A)*%
X44050000Y-27337500D03*
%TD*%
%TO.P,SW14,1,1*%
%TO.N,COL9*%
X227650000Y-5725000D03*
%TO.P,SW14,2,2*%
%TO.N,Net-(D14-A)*%
X215500000Y-3525000D03*
%TD*%
%TO.P,SW58,1,1*%
%TO.N,COL5*%
X141925000Y-86687500D03*
%TO.P,SW58,2,2*%
%TO.N,Net-(D58-A)*%
X129775000Y-84487500D03*
%TD*%
%TO.P,SW55,1,1*%
%TO.N,COL2*%
X56200000Y-86687500D03*
%TO.P,SW55,2,2*%
%TO.N,Net-(D55-A)*%
X44050000Y-84487500D03*
%TD*%
%TO.P,SW8,1,1*%
%TO.N,COL5*%
X113350000Y-5725000D03*
%TO.P,SW8,2,2*%
%TO.N,Net-(D8-A)*%
X101200000Y-3525000D03*
%TD*%
D17*
%TO.P,D17,1,K*%
%TO.N,ROW1*%
X2381250Y-29647525D03*
D18*
%TO.P,D17,2,A*%
%TO.N,Net-(D17-A)*%
X2381250Y-22027525D03*
%TD*%
D19*
%TO.P,SW51,1,1*%
%TO.N,COL9*%
X227650000Y-67637500D03*
%TO.P,SW51,2,2*%
%TO.N,Net-(D51-A)*%
X215500000Y-65437500D03*
%TD*%
%TO.P,SW61,1,1*%
%TO.N,COL8*%
X227650000Y-86687500D03*
%TO.P,SW61,2,2*%
%TO.N,Net-(D61-A)*%
X215500000Y-84487500D03*
%TD*%
%TO.P,SW27,1,1*%
%TO.N,COL1*%
X37150000Y-72400000D03*
%TO.P,SW27,2,2*%
%TO.N,Net-(D27-A)*%
X25000000Y-70200000D03*
%TD*%
D17*
%TO.P,D42,1,K*%
%TO.N,ROW3*%
X154781250Y-72510025D03*
D18*
%TO.P,D42,2,A*%
%TO.N,Net-(D42-A)*%
X154781250Y-64890025D03*
%TD*%
D17*
%TO.P,D53,1,K*%
%TO.N,ROW2*%
X230981250Y-58222525D03*
D18*
%TO.P,D53,2,A*%
%TO.N,Net-(D53-A)*%
X230981250Y-50602525D03*
%TD*%
D17*
%TO.P,D23,1,K*%
%TO.N,ROW3*%
X250031250Y-67271275D03*
D18*
%TO.P,D23,2,A*%
%TO.N,Net-(D23-A)*%
X250031250Y-59651275D03*
%TD*%
D17*
%TO.P,D44,1,K*%
%TO.N,ROW2*%
X173831250Y-53460025D03*
D18*
%TO.P,D44,2,A*%
%TO.N,Net-(D44-A)*%
X173831250Y-45840025D03*
%TD*%
D17*
%TO.P,D26,1,K*%
%TO.N,ROW2*%
X21431250Y-58222525D03*
D18*
%TO.P,D26,2,A*%
%TO.N,Net-(D26-A)*%
X21431250Y-50602525D03*
%TD*%
D17*
%TO.P,D45,1,K*%
%TO.N,ROW3*%
X173831250Y-72510025D03*
D18*
%TO.P,D45,2,A*%
%TO.N,Net-(D45-A)*%
X173831250Y-64890025D03*
%TD*%
D17*
%TO.P,D34,1,K*%
%TO.N,ROW1*%
X78581250Y-34410025D03*
D18*
%TO.P,D34,2,A*%
%TO.N,Net-(D34-A)*%
X78581250Y-26790025D03*
%TD*%
D17*
%TO.P,D24,1,K*%
%TO.N,ROW4*%
X250031250Y-86797525D03*
D18*
%TO.P,D24,2,A*%
%TO.N,Net-(D24-A)*%
X250031250Y-79177525D03*
%TD*%
D19*
%TO.P,SW19,1,1*%
%TO.N,COL0*%
X18100000Y-62875000D03*
%TO.P,SW19,2,2*%
%TO.N,Net-(D19-A)*%
X5950000Y-60675000D03*
%TD*%
%TO.P,SW24,1,1*%
%TO.N,COL11*%
X265750000Y-81925000D03*
%TO.P,SW24,2,2*%
%TO.N,Net-(D24-A)*%
X253600000Y-79725000D03*
%TD*%
%TO.P,SW60,1,1*%
%TO.N,COL7*%
X206222700Y-86689200D03*
%TO.P,SW60,2,2*%
%TO.N,Net-(D60-A)*%
X194072700Y-84489200D03*
%TD*%
%TO.P,SW3,1,1*%
%TO.N,COL0*%
X18100000Y-5725000D03*
%TO.P,SW3,2,2*%
%TO.N,Net-(D1-A)*%
X5950000Y-3525000D03*
%TD*%
D17*
%TO.P,D28,1,K*%
%TO.N,ROW1*%
X40481250Y-34410025D03*
D18*
%TO.P,D28,2,A*%
%TO.N,Net-(D28-A)*%
X40481250Y-26790025D03*
%TD*%
D17*
%TO.P,D39,1,K*%
%TO.N,ROW3*%
X97631250Y-72510025D03*
D18*
%TO.P,D39,2,A*%
%TO.N,Net-(D39-A)*%
X97631250Y-64890025D03*
%TD*%
D19*
%TO.P,SW22,1,1*%
%TO.N,COL11*%
X265750000Y-43825000D03*
%TO.P,SW22,2,2*%
%TO.N,Net-(D22-A)*%
X253600000Y-41625000D03*
%TD*%
D17*
%TO.P,D41,1,K*%
%TO.N,ROW2*%
X154781250Y-53460025D03*
D18*
%TO.P,D41,2,A*%
%TO.N,Net-(D41-A)*%
X154781250Y-45840025D03*
%TD*%
D19*
%TO.P,SW41,1,1*%
%TO.N,COL6*%
X170500000Y-48587500D03*
%TO.P,SW41,2,2*%
%TO.N,Net-(D41-A)*%
X158350000Y-46387500D03*
%TD*%
%TO.P,SW59,1,1*%
%TO.N,COL6*%
X184791200Y-86687500D03*
%TO.P,SW59,2,2*%
%TO.N,Net-(D59-A)*%
X172641200Y-84487500D03*
%TD*%
%TO.P,SW52,1,1*%
%TO.N,COL10*%
X246700000Y-34300000D03*
%TO.P,SW52,2,2*%
%TO.N,Net-(D52-A)*%
X234550000Y-32100000D03*
%TD*%
D17*
%TO.P,D56,1,K*%
%TO.N,ROW4*%
X61912500Y-91560025D03*
D18*
%TO.P,D56,2,A*%
%TO.N,Net-(D56-A)*%
X61912500Y-83940025D03*
%TD*%
D17*
%TO.P,D7,1,K*%
%TO.N,ROW0*%
X78581250Y-10597525D03*
D18*
%TO.P,D7,2,A*%
%TO.N,Net-(D7-A)*%
X78581250Y-2977525D03*
%TD*%
D19*
%TO.P,SW50,1,1*%
%TO.N,COL9*%
X227650000Y-48587500D03*
%TO.P,SW50,2,2*%
%TO.N,Net-(D50-A)*%
X215500000Y-46387500D03*
%TD*%
D17*
%TO.P,D6,1,K*%
%TO.N,ROW0*%
X59531250Y-10121275D03*
D18*
%TO.P,D6,2,A*%
%TO.N,Net-(D6-A)*%
X59531250Y-2501275D03*
%TD*%
D17*
%TO.P,D37,1,K*%
%TO.N,ROW1*%
X97631250Y-34410025D03*
D18*
%TO.P,D37,2,A*%
%TO.N,Net-(D37-A)*%
X97631250Y-26790025D03*
%TD*%
D17*
%TO.P,D14,1,K*%
%TO.N,ROW0*%
X211931250Y-10597525D03*
D18*
%TO.P,D14,2,A*%
%TO.N,Net-(D14-A)*%
X211931250Y-2977525D03*
%TD*%
D17*
%TO.P,D38,1,K*%
%TO.N,ROW2*%
X97631250Y-53460025D03*
D18*
%TO.P,D38,2,A*%
%TO.N,Net-(D38-A)*%
X97631250Y-45840025D03*
%TD*%
D17*
%TO.P,D25,1,K*%
%TO.N,ROW1*%
X21431250Y-39172525D03*
D18*
%TO.P,D25,2,A*%
%TO.N,Net-(D25-A)*%
X21431250Y-31552525D03*
%TD*%
D17*
%TO.P,D59,1,K*%
%TO.N,ROW4*%
X169072450Y-91560025D03*
D18*
%TO.P,D59,2,A*%
%TO.N,Net-(D59-A)*%
X169072450Y-83940025D03*
%TD*%
D17*
%TO.P,D57,1,K*%
%TO.N,ROW4*%
X85725000Y-91560025D03*
D18*
%TO.P,D57,2,A*%
%TO.N,Net-(D57-A)*%
X85725000Y-83940025D03*
%TD*%
D19*
%TO.P,SW15,1,1*%
%TO.N,COL10*%
X246700000Y-5725000D03*
%TO.P,SW15,2,2*%
%TO.N,Net-(D15-A)*%
X234550000Y-3525000D03*
%TD*%
D17*
%TO.P,D5,1,K*%
%TO.N,ROW0*%
X40481250Y-10121275D03*
D18*
%TO.P,D5,2,A*%
%TO.N,Net-(D5-A)*%
X40481250Y-2501275D03*
%TD*%
D17*
%TO.P,D49,1,K*%
%TO.N,ROW1*%
X211931250Y-34410025D03*
D18*
%TO.P,D49,2,A*%
%TO.N,Net-(D49-A)*%
X211931250Y-26790025D03*
%TD*%
D17*
%TO.P,D54,1,K*%
%TO.N,ROW3*%
X230981250Y-77272525D03*
D18*
%TO.P,D54,2,A*%
%TO.N,Net-(D54-A)*%
X230981250Y-69652525D03*
%TD*%
D17*
%TO.P,D61,1,K*%
%TO.N,ROW4*%
X211931250Y-91560025D03*
D18*
%TO.P,D61,2,A*%
%TO.N,Net-(D61-A)*%
X211931250Y-83940025D03*
%TD*%
D19*
%TO.P,SW4,1,1*%
%TO.N,COL1*%
X37150000Y-5725000D03*
%TO.P,SW4,2,2*%
%TO.N,Net-(D2-A)*%
X25000000Y-3525000D03*
%TD*%
%TO.P,SW49,1,1*%
%TO.N,COL9*%
X227650000Y-29537500D03*
%TO.P,SW49,2,2*%
%TO.N,Net-(D49-A)*%
X215500000Y-27337500D03*
%TD*%
%TO.P,SW43,1,1*%
%TO.N,COL7*%
X189550000Y-29537500D03*
%TO.P,SW43,2,2*%
%TO.N,Net-(D43-A)*%
X177400000Y-27337500D03*
%TD*%
D17*
%TO.P,D40,1,K*%
%TO.N,ROW1*%
X154781250Y-34410025D03*
D18*
%TO.P,D40,2,A*%
%TO.N,Net-(D40-A)*%
X154781250Y-26790025D03*
%TD*%
D17*
%TO.P,D20,1,K*%
%TO.N,ROW4*%
X2381250Y-86797525D03*
D18*
%TO.P,D20,2,A*%
%TO.N,Net-(D20-A)*%
X2381250Y-79177525D03*
%TD*%
D19*
%TO.P,SW17,1,1*%
%TO.N,COL0*%
X18100000Y-24775000D03*
%TO.P,SW17,2,2*%
%TO.N,Net-(D17-A)*%
X5950000Y-22575000D03*
%TD*%
D17*
%TO.P,D11,1,K*%
%TO.N,ROW0*%
X154781250Y-10597525D03*
D18*
%TO.P,D11,2,A*%
%TO.N,Net-(D11-A)*%
X154781250Y-2977525D03*
%TD*%
D17*
%TO.P,D1,1,K*%
%TO.N,ROW0*%
X2380900Y-10121275D03*
D18*
%TO.P,D1,2,A*%
%TO.N,Net-(D1-A)*%
X2380900Y-2501275D03*
%TD*%
D19*
%TO.P,SW25,1,1*%
%TO.N,COL1*%
X37150000Y-34300000D03*
%TO.P,SW25,2,2*%
%TO.N,Net-(D25-A)*%
X25000000Y-32100000D03*
%TD*%
D17*
%TO.P,D19,1,K*%
%TO.N,ROW3*%
X2381250Y-67747525D03*
D18*
%TO.P,D19,2,A*%
%TO.N,Net-(D19-A)*%
X2381250Y-60127525D03*
%TD*%
D19*
%TO.P,SW37,1,1*%
%TO.N,COL5*%
X113350000Y-29537500D03*
%TO.P,SW37,2,2*%
%TO.N,Net-(D37-A)*%
X101200000Y-27337500D03*
%TD*%
D17*
%TO.P,D50,1,K*%
%TO.N,ROW2*%
X211931250Y-53460025D03*
D18*
%TO.P,D50,2,A*%
%TO.N,Net-(D50-A)*%
X211931250Y-45840025D03*
%TD*%
D17*
%TO.P,D9,1,K*%
%TO.N,ROW4*%
X116681250Y-10597525D03*
D18*
%TO.P,D9,2,A*%
%TO.N,Net-(D9-A)*%
X116681250Y-2977525D03*
%TD*%
D19*
%TO.P,SW10,1,1*%
%TO.N,COL10*%
X151450000Y-5725000D03*
%TO.P,SW10,2,2*%
%TO.N,Net-(D10-A)*%
X139300000Y-3525000D03*
%TD*%
D17*
%TO.P,D8,1,K*%
%TO.N,ROW0*%
X97631250Y-10597525D03*
D18*
%TO.P,D8,2,A*%
%TO.N,Net-(D8-A)*%
X97631250Y-2977525D03*
%TD*%
D19*
%TO.P,SW46,1,1*%
%TO.N,COL8*%
X208600000Y-24775000D03*
%TO.P,SW46,2,2*%
%TO.N,Net-(D46-A)*%
X196450000Y-22575000D03*
%TD*%
D17*
%TO.P,D27,1,K*%
%TO.N,ROW3*%
X21431250Y-77272525D03*
D18*
%TO.P,D27,2,A*%
%TO.N,Net-(D27-A)*%
X21431250Y-69652525D03*
%TD*%
D17*
%TO.P,D33,1,K*%
%TO.N,ROW3*%
X59531250Y-67747525D03*
D18*
%TO.P,D33,2,A*%
%TO.N,Net-(D33-A)*%
X59531250Y-60127525D03*
%TD*%
D17*
%TO.P,D30,1,K*%
%TO.N,ROW3*%
X40481250Y-72510025D03*
D18*
%TO.P,D30,2,A*%
%TO.N,Net-(D30-A)*%
X40481250Y-64890025D03*
%TD*%
D19*
%TO.P,SW57,1,1*%
%TO.N,COL4*%
X101443750Y-86687500D03*
%TO.P,SW57,2,2*%
%TO.N,Net-(D57-A)*%
X89293750Y-84487500D03*
%TD*%
%TO.P,SW53,1,1*%
%TO.N,COL10*%
X246700000Y-53350000D03*
%TO.P,SW53,2,2*%
%TO.N,Net-(D53-A)*%
X234550000Y-51150000D03*
%TD*%
%TO.P,SW23,1,1*%
%TO.N,COL11*%
X265750000Y-62875000D03*
%TO.P,SW23,2,2*%
%TO.N,Net-(D23-A)*%
X253600000Y-60675000D03*
%TD*%
%TO.P,SW44,1,1*%
%TO.N,COL7*%
X189550000Y-48587500D03*
%TO.P,SW44,2,2*%
%TO.N,Net-(D44-A)*%
X177400000Y-46387500D03*
%TD*%
%TO.P,SW29,1,1*%
%TO.N,COL2*%
X56200000Y-48587500D03*
%TO.P,SW29,2,2*%
%TO.N,Net-(D29-A)*%
X44050000Y-46387500D03*
%TD*%
D17*
%TO.P,D15,1,K*%
%TO.N,ROW0*%
X230981250Y-10597525D03*
D18*
%TO.P,D15,2,A*%
%TO.N,Net-(D15-A)*%
X230981250Y-2977525D03*
%TD*%
D17*
%TO.P,D52,1,K*%
%TO.N,ROW1*%
X230981250Y-39172525D03*
D18*
%TO.P,D52,2,A*%
%TO.N,Net-(D52-A)*%
X230981250Y-31552525D03*
%TD*%
D17*
%TO.P,D16,1,K*%
%TO.N,ROW0*%
X250031250Y-10597525D03*
D18*
%TO.P,D16,2,A*%
%TO.N,Net-(D16-A)*%
X250031250Y-2977525D03*
%TD*%
D17*
%TO.P,D31,1,K*%
%TO.N,ROW1*%
X59531250Y-29647525D03*
D18*
%TO.P,D31,2,A*%
%TO.N,Net-(D31-A)*%
X59531250Y-22027525D03*
%TD*%
D17*
%TO.P,D43,1,K*%
%TO.N,ROW1*%
X173831250Y-34410025D03*
D18*
%TO.P,D43,2,A*%
%TO.N,Net-(D43-A)*%
X173831250Y-26790025D03*
%TD*%
D19*
%TO.P,SW45,1,1*%
%TO.N,COL7*%
X189550000Y-67637500D03*
%TO.P,SW45,2,2*%
%TO.N,Net-(D45-A)*%
X177400000Y-65437500D03*
%TD*%
D17*
%TO.P,D36,1,K*%
%TO.N,ROW3*%
X78581250Y-72510025D03*
D18*
%TO.P,D36,2,A*%
%TO.N,Net-(D36-A)*%
X78581250Y-64890025D03*
%TD*%
D19*
%TO.P,SW35,1,1*%
%TO.N,COL4*%
X94300000Y-48587500D03*
%TO.P,SW35,2,2*%
%TO.N,Net-(D35-A)*%
X82150000Y-46387500D03*
%TD*%
%TO.P,SW48,1,1*%
%TO.N,COL8*%
X208600000Y-62875000D03*
%TO.P,SW48,2,2*%
%TO.N,Net-(D48-A)*%
X196450000Y-60675000D03*
%TD*%
%TO.P,SW13,1,1*%
%TO.N,COL8*%
X208600000Y-5725000D03*
%TO.P,SW13,2,2*%
%TO.N,Net-(D13-A)*%
X196450000Y-3525000D03*
%TD*%
%TO.P,SW11,1,1*%
%TO.N,COL6*%
X170500000Y-5725000D03*
%TO.P,SW11,2,2*%
%TO.N,Net-(D11-A)*%
X158350000Y-3525000D03*
%TD*%
D17*
%TO.P,D32,1,K*%
%TO.N,ROW2*%
X59531250Y-48697525D03*
D18*
%TO.P,D32,2,A*%
%TO.N,Net-(D32-A)*%
X59531250Y-41077525D03*
%TD*%
D19*
%TO.P,SW36,1,1*%
%TO.N,COL4*%
X94300000Y-67637500D03*
%TO.P,SW36,2,2*%
%TO.N,Net-(D36-A)*%
X82150000Y-65437500D03*
%TD*%
%TO.P,SW38,1,1*%
%TO.N,COL5*%
X113350000Y-48587500D03*
%TO.P,SW38,2,2*%
%TO.N,Net-(D38-A)*%
X101200000Y-46387500D03*
%TD*%
%TO.P,SW21,1,1*%
%TO.N,COL11*%
X265750000Y-24775000D03*
%TO.P,SW21,2,2*%
%TO.N,Net-(D21-A)*%
X253600000Y-22575000D03*
%TD*%
%TO.P,SW33,1,1*%
%TO.N,COL3*%
X75250000Y-62875000D03*
%TO.P,SW33,2,2*%
%TO.N,Net-(D33-A)*%
X63100000Y-60675000D03*
%TD*%
%TO.P,SW31,1,1*%
%TO.N,COL3*%
X75250000Y-24775000D03*
%TO.P,SW31,2,2*%
%TO.N,Net-(D31-A)*%
X63100000Y-22575000D03*
%TD*%
%TO.P,SW34,1,1*%
%TO.N,COL4*%
X94300000Y-29537500D03*
%TO.P,SW34,2,2*%
%TO.N,Net-(D34-A)*%
X82150000Y-27337500D03*
%TD*%
%TO.P,SW47,1,1*%
%TO.N,COL8*%
X208600000Y-43825000D03*
%TO.P,SW47,2,2*%
%TO.N,Net-(D47-A)*%
X196450000Y-41625000D03*
%TD*%
%TO.P,SW56,1,1*%
%TO.N,COL3*%
X77631250Y-86687500D03*
%TO.P,SW56,2,2*%
%TO.N,Net-(D56-A)*%
X65481250Y-84487500D03*
%TD*%
D17*
%TO.P,D35,1,K*%
%TO.N,ROW2*%
X78581250Y-53460025D03*
D18*
%TO.P,D35,2,A*%
%TO.N,Net-(D35-A)*%
X78581250Y-45840025D03*
%TD*%
D17*
%TO.P,D18,1,K*%
%TO.N,ROW2*%
X2381250Y-47268775D03*
D18*
%TO.P,D18,2,A*%
%TO.N,Net-(D18-A)*%
X2381250Y-39648775D03*
%TD*%
D19*
%TO.P,SW26,1,1*%
%TO.N,COL1*%
X37150000Y-53350000D03*
%TO.P,SW26,2,2*%
%TO.N,Net-(D26-A)*%
X25000000Y-51150000D03*
%TD*%
%TO.P,SW54,1,1*%
%TO.N,COL10*%
X246700000Y-72400000D03*
%TO.P,SW54,2,2*%
%TO.N,Net-(D54-A)*%
X234550000Y-70200000D03*
%TD*%
D17*
%TO.P,D47,1,K*%
%TO.N,ROW2*%
X192881250Y-48697525D03*
D18*
%TO.P,D47,2,A*%
%TO.N,Net-(D47-A)*%
X192881250Y-41077525D03*
%TD*%
D17*
%TO.P,D21,1,K*%
%TO.N,ROW1*%
X250031250Y-29647525D03*
D18*
%TO.P,D21,2,A*%
%TO.N,Net-(D21-A)*%
X250031250Y-22027525D03*
%TD*%
D17*
%TO.P,D10,1,K*%
%TO.N,ROW4*%
X135731250Y-10597525D03*
D18*
%TO.P,D10,2,A*%
%TO.N,Net-(D10-A)*%
X135731250Y-2977525D03*
%TD*%
D19*
%TO.P,SW9,1,1*%
%TO.N,COL1*%
X132400000Y-5725000D03*
%TO.P,SW9,2,2*%
%TO.N,Net-(D9-A)*%
X120250000Y-3525000D03*
%TD*%
%TO.P,SW16,1,1*%
%TO.N,COL11*%
X265750000Y-5725000D03*
%TO.P,SW16,2,2*%
%TO.N,Net-(D16-A)*%
X253600000Y-3525000D03*
%TD*%
D17*
%TO.P,D12,1,K*%
%TO.N,ROW0*%
X173831250Y-10597525D03*
D18*
%TO.P,D12,2,A*%
%TO.N,Net-(D12-A)*%
X173831250Y-2977525D03*
%TD*%
D17*
%TO.P,D29,1,K*%
%TO.N,ROW2*%
X40481250Y-53460025D03*
D18*
%TO.P,D29,2,A*%
%TO.N,Net-(D29-A)*%
X40481250Y-45840025D03*
%TD*%
D19*
%TO.P,SW5,1,1*%
%TO.N,COL2*%
X56200000Y-5725000D03*
%TO.P,SW5,2,2*%
%TO.N,Net-(D5-A)*%
X44050000Y-3525000D03*
%TD*%
%TO.P,SW42,1,1*%
%TO.N,COL6*%
X170500000Y-67637500D03*
%TO.P,SW42,2,2*%
%TO.N,Net-(D42-A)*%
X158350000Y-65437500D03*
%TD*%
%TO.P,SW32,1,1*%
%TO.N,COL3*%
X75250000Y-43825000D03*
%TO.P,SW32,2,2*%
%TO.N,Net-(D32-A)*%
X63100000Y-41625000D03*
%TD*%
D17*
%TO.P,D48,1,K*%
%TO.N,ROW3*%
X192881250Y-67747525D03*
D18*
%TO.P,D48,2,A*%
%TO.N,Net-(D48-A)*%
X192881250Y-60127525D03*
%TD*%
D19*
%TO.P,SW6,1,1*%
%TO.N,COL3*%
X75250000Y-5725000D03*
%TO.P,SW6,2,2*%
%TO.N,Net-(D6-A)*%
X63100000Y-3525000D03*
%TD*%
%TO.P,SW12,1,1*%
%TO.N,COL7*%
X189550000Y-5725000D03*
%TO.P,SW12,2,2*%
%TO.N,Net-(D12-A)*%
X177400000Y-3525000D03*
%TD*%
D17*
%TO.P,D55,1,K*%
%TO.N,ROW4*%
X40481250Y-91560025D03*
D18*
%TO.P,D55,2,A*%
%TO.N,Net-(D55-A)*%
X40481250Y-83940025D03*
%TD*%
D17*
%TO.P,D60,1,K*%
%TO.N,ROW4*%
X190503950Y-91561725D03*
D18*
%TO.P,D60,2,A*%
%TO.N,Net-(D60-A)*%
X190503950Y-83941725D03*
%TD*%
D19*
%TO.P,SW40,1,1*%
%TO.N,COL6*%
X170500000Y-29537500D03*
%TO.P,SW40,2,2*%
%TO.N,Net-(D40-A)*%
X158350000Y-27337500D03*
%TD*%
D17*
%TO.P,D46,1,K*%
%TO.N,ROW1*%
X192881250Y-29647525D03*
D18*
%TO.P,D46,2,A*%
%TO.N,Net-(D46-A)*%
X192881250Y-22027525D03*
%TD*%
D17*
%TO.P,D51,1,K*%
%TO.N,ROW3*%
X211931250Y-72510025D03*
D18*
%TO.P,D51,2,A*%
%TO.N,Net-(D51-A)*%
X211931250Y-64890025D03*
%TD*%
D19*
%TO.P,SW18,1,1*%
%TO.N,COL0*%
X18100000Y-43825000D03*
%TO.P,SW18,2,2*%
%TO.N,Net-(D18-A)*%
X5950000Y-41625000D03*
%TD*%
D17*
%TO.P,D58,1,K*%
%TO.N,ROW4*%
X126206250Y-91560025D03*
D18*
%TO.P,D58,2,A*%
%TO.N,Net-(D58-A)*%
X126206250Y-83940025D03*
%TD*%
D19*
%TO.P,SW39,1,1*%
%TO.N,COL5*%
X113350000Y-67637500D03*
%TO.P,SW39,2,2*%
%TO.N,Net-(D39-A)*%
X101200000Y-65437500D03*
%TD*%
%TO.P,SW20,1,1*%
%TO.N,COL0*%
X18100000Y-81925000D03*
%TO.P,SW20,2,2*%
%TO.N,Net-(D20-A)*%
X5950000Y-79725000D03*
%TD*%
D17*
%TO.P,D22,1,K*%
%TO.N,ROW2*%
X250031250Y-48697525D03*
D18*
%TO.P,D22,2,A*%
%TO.N,Net-(D22-A)*%
X250031250Y-41077525D03*
%TD*%
D19*
%TO.P,SW30,1,1*%
%TO.N,COL2*%
X56200000Y-67637500D03*
%TO.P,SW30,2,2*%
%TO.N,Net-(D30-A)*%
X44050000Y-65437500D03*
%TD*%
D20*
%TO.N,ROW0*%
X114952400Y-11961175D03*
%TO.N,ROW4*%
X114897725Y-55365225D03*
X247655200Y-92275375D03*
X113707075Y-10597525D03*
%TO.N,ROW3*%
X247059875Y-69653025D03*
%TO.N,Net-(D23-A)*%
X253600000Y-60675000D03*
%TO.N,Net-(D24-A)*%
X253608450Y-79773550D03*
%TO.N,GND*%
X264919625Y-18455075D03*
X122041625Y-22622350D03*
X251935070Y-37618070D03*
X259730400Y-15478450D03*
X19645725Y-16983125D03*
X18455075Y-97037975D03*
X248250525Y-20836375D03*
X19417268Y-77620707D03*
X19714930Y-39817570D03*
X260752350Y-75606275D03*
X267896250Y-16669100D03*
X20248063Y-61906787D03*
X254742748Y-51174296D03*
%TO.N,+5V*%
X244607925Y-66747050D03*
X20836375Y-80964200D03*
X22950400Y-45558725D03*
X245245211Y-38667436D03*
X245273900Y-12628450D03*
X20836375Y-82750175D03*
X22622350Y-12783125D03*
X22622350Y-60127825D03*
X147045275Y-12628450D03*
X20836375Y-92870700D03*
X242805512Y-81646613D03*
X144068650Y-20781700D03*
X243487925Y-95847325D03*
%TO.N,LED_DIN*%
X147640600Y-20186375D03*
%TO.N,/row1DOut*%
X5953250Y-35719500D03*
X5953250Y-16669100D03*
%TO.N,Net-(LED20-DOUT)*%
X108349150Y-55960550D03*
X108944475Y-38100800D03*
%TO.N,/row2DOut*%
X5357925Y-54769900D03*
X5953250Y-73224975D03*
%TO.N,Net-(LED34-DOUT)*%
X106563175Y-95252000D03*
X108944475Y-75606275D03*
%TO.N,Net-(LED53-DOUT)*%
X157761125Y-59532500D03*
X157761125Y-78582900D03*
%TO.N,Net-(LED60-DOUT)*%
X261347675Y-51793275D03*
X261347675Y-33338200D03*
%TO.N,COL0*%
X18100000Y-62875000D03*
X18100000Y-81925000D03*
X18100000Y-24775000D03*
X18100000Y-43825000D03*
X17859750Y-5953250D03*
X120796300Y-24408325D03*
%TO.N,COL1*%
X37150000Y-34300000D03*
X37150000Y-53350000D03*
X37150000Y-5725000D03*
X114302400Y-7739225D03*
X37505475Y-72034325D03*
%TO.N,COL2*%
X56200000Y-86687500D03*
X56200000Y-48587500D03*
X119496300Y-24454086D03*
X55960550Y-5357925D03*
X56200000Y-29537500D03*
X57151200Y-18455075D03*
X56200000Y-67637500D03*
%TO.N,COL3*%
X75250000Y-5596975D03*
X75250000Y-62875000D03*
X77392250Y-86322125D03*
X75250000Y-24775000D03*
X118469675Y-24408325D03*
X75250000Y-43825000D03*
X76201600Y-19050400D03*
%TO.N,COL4*%
X94061350Y-5953250D03*
X94300000Y-67637500D03*
X101443750Y-86687500D03*
X94300000Y-29537500D03*
X94300000Y-48587500D03*
%TO.N,COL5*%
X113057075Y-29636579D03*
X113057075Y-48686727D03*
X113350000Y-5725000D03*
X113350000Y-67637500D03*
%TO.N,COL10*%
X246700000Y-5725000D03*
X246700000Y-53350000D03*
X246700000Y-34300000D03*
X246464550Y-72629650D03*
X245869225Y-18455075D03*
X146449950Y-19050400D03*
%TO.N,COL6*%
X170500000Y-67637500D03*
X170500000Y-29170925D03*
X170500000Y-5725000D03*
X184550750Y-86322125D03*
X170500000Y-48587500D03*
%TO.N,COL7*%
X189550000Y-67637500D03*
X189550000Y-29537500D03*
X189313350Y-5953250D03*
X189550000Y-48587500D03*
X206222700Y-86689200D03*
%TO.N,COL8*%
X145259300Y-17859750D03*
X208600000Y-24775000D03*
X207768425Y-17805075D03*
X208600000Y-62875000D03*
X208600000Y-43825000D03*
X227414150Y-86322125D03*
X208600000Y-5725000D03*
%TO.N,COL9*%
X145854625Y-18455075D03*
X227650000Y-29537500D03*
X226818825Y-18400400D03*
X227414150Y-67271725D03*
X227650000Y-5725000D03*
X227650000Y-48587500D03*
%TO.N,COL11*%
X265750000Y-5725000D03*
X265514950Y-81559525D03*
X265750000Y-43825000D03*
X258966375Y-19050400D03*
X147045275Y-19645725D03*
X265750000Y-24775000D03*
X265750000Y-62875000D03*
%TO.N,Net-(A1-SCL)*%
X270218196Y-19645725D03*
X145793175Y-98762500D03*
%TO.N,Net-(A1-SDA)*%
X144663975Y-99212500D03*
%TD*%
D21*
%TO.N,ROW0*%
X197930150Y-6625000D02*
X203308705Y-6625000D01*
X31858705Y-6625000D02*
X35354980Y-10121275D01*
X193957625Y-10597525D02*
X197930150Y-6625000D01*
X73701975Y-10597525D02*
X78581250Y-10597525D01*
X63027525Y-6625000D02*
X69729450Y-6625000D01*
X168953975Y-10597525D02*
X173831250Y-10597525D01*
X179053775Y-5375000D02*
X182781850Y-5375000D01*
X164981450Y-6625000D02*
X168953975Y-10597525D01*
X226331230Y-10597525D02*
X230981250Y-10597525D01*
X97631250Y-10597525D02*
X101603775Y-6625000D01*
X79655225Y-10597525D02*
X83627750Y-6625000D01*
X192881250Y-10597525D02*
X193957625Y-10597525D01*
X86926219Y-6625000D02*
X90898744Y-10597525D01*
X21431250Y-10121275D02*
X24927525Y-6625000D01*
X112842511Y-11961175D02*
X114952400Y-11961175D01*
X211931250Y-10597525D02*
X215903775Y-6625000D01*
X234953775Y-6625000D02*
X241183050Y-6625000D01*
X54175325Y-10121275D02*
X59531250Y-10121275D01*
X126508350Y-7541445D02*
X127035220Y-8068315D01*
X203308705Y-6625000D02*
X207281230Y-10597525D01*
X112983161Y-9329875D02*
X111866425Y-10446611D01*
X188004375Y-10597525D02*
X192881250Y-10597525D01*
X207281230Y-10597525D02*
X211931250Y-10597525D01*
X230981250Y-10597525D02*
X234953775Y-6625000D01*
X78581250Y-10597525D02*
X79655225Y-10597525D01*
X126508350Y-5687014D02*
X126508350Y-7541445D01*
X114497725Y-9329875D02*
X112983161Y-9329875D01*
X127035220Y-8068315D02*
X140230466Y-8068315D01*
X173831250Y-10597525D02*
X179053775Y-5375000D01*
X101603775Y-6625000D02*
X105976219Y-6625000D01*
X5877175Y-6625000D02*
X12808705Y-6625000D01*
X90898744Y-10597525D02*
X97631250Y-10597525D01*
X241183050Y-6625000D02*
X245155575Y-10597525D01*
X141673781Y-6625000D02*
X145931050Y-6625000D01*
X222358705Y-6625000D02*
X226331230Y-10597525D01*
X83627750Y-6625000D02*
X86926219Y-6625000D01*
X12808705Y-6625000D02*
X16304980Y-10121275D01*
X35354980Y-10121275D02*
X40481250Y-10121275D01*
X105976219Y-6625000D02*
X108681094Y-9329875D01*
X43977525Y-6625000D02*
X50679050Y-6625000D01*
X69729450Y-6625000D02*
X73701975Y-10597525D01*
X24927525Y-6625000D02*
X31858705Y-6625000D01*
X40481250Y-10121275D02*
X43977525Y-6625000D01*
X125779261Y-4957925D02*
X126508350Y-5687014D01*
X50679050Y-6625000D02*
X54175325Y-10121275D01*
X16304980Y-10121275D02*
X21431250Y-10121275D01*
X149903575Y-10597525D02*
X154781250Y-10597525D01*
X117844710Y-5982890D02*
X124422925Y-5982890D01*
X215903775Y-6625000D02*
X222358705Y-6625000D01*
X140230466Y-8068315D02*
X141673781Y-6625000D01*
X111866425Y-10446611D02*
X111866425Y-10985089D01*
X2380900Y-10121275D02*
X5877175Y-6625000D01*
X154781250Y-10597525D02*
X158753775Y-6625000D01*
X145931050Y-6625000D02*
X149903575Y-10597525D01*
X114497725Y-9329875D02*
X117844710Y-5982890D01*
X158753775Y-6625000D02*
X164981450Y-6625000D01*
X111866425Y-10985089D02*
X112842511Y-11961175D01*
X108681094Y-9329875D02*
X114497725Y-9329875D01*
X182781850Y-5375000D02*
X188004375Y-10597525D01*
X125447889Y-4957925D02*
X125779261Y-4957925D01*
X245155575Y-10597525D02*
X250031250Y-10597525D01*
X124422925Y-5982890D02*
X125447889Y-4957925D01*
X59531250Y-10121275D02*
X63027525Y-6625000D01*
%TO.N,Net-(D1-A)*%
X5950000Y-3525000D02*
X3404625Y-3525000D01*
X3404625Y-3525000D02*
X2380900Y-2501275D01*
%TO.N,Net-(D2-A)*%
X25000000Y-3525000D02*
X22454975Y-3525000D01*
X22454975Y-3525000D02*
X21431250Y-2501275D01*
%TO.N,Net-(D5-A)*%
X40481250Y-2501275D02*
X43026275Y-2501275D01*
X43026275Y-2501275D02*
X44050000Y-3525000D01*
%TO.N,Net-(D6-A)*%
X62076275Y-2501275D02*
X63100000Y-3525000D01*
X59531250Y-2501275D02*
X62076275Y-2501275D01*
%TO.N,Net-(D7-A)*%
X78581250Y-2977525D02*
X81602525Y-2977525D01*
X81602525Y-2977525D02*
X82150000Y-3525000D01*
%TO.N,Net-(D8-A)*%
X97631250Y-2977525D02*
X100652525Y-2977525D01*
X100652525Y-2977525D02*
X101200000Y-3525000D01*
%TO.N,ROW4*%
X6353775Y-82825000D02*
X2381250Y-86797525D01*
X123034100Y-55365225D02*
X123232275Y-55563400D01*
X134551219Y-87587500D02*
X130178775Y-87587500D01*
X85725000Y-91560025D02*
X84536150Y-91560025D01*
X65885025Y-87587500D02*
X61912500Y-91560025D01*
X114897725Y-55365225D02*
X123034100Y-55365225D01*
X177417419Y-87587500D02*
X181391644Y-91561725D01*
X128998744Y-10597525D02*
X135731250Y-10597525D01*
X50908705Y-87587500D02*
X54881230Y-91560025D01*
X90893750Y-83536475D02*
X95133300Y-79296925D01*
X169072450Y-91560025D02*
X173044975Y-87587500D01*
X225246580Y-92275375D02*
X247655200Y-92275375D01*
X40481250Y-91560025D02*
X19461244Y-91560025D01*
X10726219Y-82825000D02*
X6353775Y-82825000D01*
X74229994Y-91560025D02*
X70257469Y-87587500D01*
X200931405Y-87589200D02*
X204902230Y-91560025D01*
X124378775Y-93387500D02*
X87552475Y-93387500D01*
X70257469Y-87587500D02*
X65885025Y-87587500D01*
X111750000Y-75182050D02*
X111750000Y-58512950D01*
X138523744Y-91560025D02*
X134551219Y-87587500D01*
X211931250Y-91560025D02*
X215903775Y-87587500D01*
X95133300Y-79296925D02*
X107635125Y-79296925D01*
X116681250Y-10597525D02*
X120653775Y-6625000D01*
X54881230Y-91560025D02*
X61912500Y-91560025D01*
X126206250Y-91560025D02*
X124378775Y-93387500D01*
X84536150Y-91560025D02*
X74229994Y-91560025D01*
X204902230Y-91560025D02*
X211931250Y-91560025D01*
X44453775Y-87587500D02*
X50908705Y-87587500D01*
X125026219Y-6625000D02*
X128998744Y-10597525D01*
X84536150Y-91560025D02*
X85133873Y-91560025D01*
X220558705Y-87587500D02*
X225246580Y-92275375D01*
X169072450Y-91560025D02*
X138523744Y-91560025D01*
X85133873Y-91560025D02*
X90893750Y-85800148D01*
X181391644Y-91561725D02*
X190503950Y-91561725D01*
X87552475Y-93387500D02*
X85725000Y-91560025D01*
X194476475Y-87589200D02*
X200931405Y-87589200D01*
X116681250Y-10597525D02*
X113707075Y-10597525D01*
X107635125Y-79296925D02*
X111750000Y-75182050D01*
X19461244Y-91560025D02*
X10726219Y-82825000D01*
X130178775Y-87587500D02*
X126206250Y-91560025D01*
X190503950Y-91561725D02*
X194476475Y-87589200D01*
X120653775Y-6625000D02*
X125026219Y-6625000D01*
X111750000Y-58512950D02*
X114897725Y-55365225D01*
X215903775Y-87587500D02*
X220558705Y-87587500D01*
X40481250Y-91560025D02*
X44453775Y-87587500D01*
X173044975Y-87587500D02*
X177417419Y-87587500D01*
X90893750Y-85800148D02*
X90893750Y-83536475D01*
%TO.N,Net-(D9-A)*%
X119702525Y-2977525D02*
X120250000Y-3525000D01*
X116681250Y-2977525D02*
X119702525Y-2977525D01*
%TO.N,Net-(D10-A)*%
X135731250Y-2977525D02*
X138752525Y-2977525D01*
X138752525Y-2977525D02*
X139300000Y-3525000D01*
%TO.N,Net-(D11-A)*%
X154781250Y-2977525D02*
X157802525Y-2977525D01*
X157802525Y-2977525D02*
X158350000Y-3525000D01*
%TO.N,Net-(D12-A)*%
X176852525Y-2977525D02*
X177400000Y-3525000D01*
X173831250Y-2977525D02*
X176852525Y-2977525D01*
%TO.N,Net-(D13-A)*%
X192881250Y-2977525D02*
X195902525Y-2977525D01*
X195902525Y-2977525D02*
X196450000Y-3525000D01*
%TO.N,Net-(D14-A)*%
X211931250Y-2977525D02*
X214952525Y-2977525D01*
X214952525Y-2977525D02*
X215500000Y-3525000D01*
%TO.N,Net-(D15-A)*%
X230981250Y-2977525D02*
X234002525Y-2977525D01*
X234002525Y-2977525D02*
X234550000Y-3525000D01*
%TO.N,Net-(D16-A)*%
X253052525Y-2977525D02*
X253600000Y-3525000D01*
X250031250Y-2977525D02*
X253052525Y-2977525D01*
%TO.N,ROW1*%
X211931250Y-34410025D02*
X215903775Y-30437500D01*
X121932275Y-35207127D02*
X114412648Y-27687500D01*
X250031250Y-29647525D02*
X245161180Y-29647525D01*
X182840700Y-30437500D02*
X184128200Y-31725000D01*
X51197950Y-31552225D02*
X57626550Y-31552225D01*
X169181230Y-34410025D02*
X173831250Y-34410025D01*
X123232275Y-47943400D02*
X121932275Y-46643400D01*
X196853775Y-25675000D02*
X203196225Y-25675000D01*
X184128200Y-31725000D02*
X190803775Y-31725000D01*
X10726219Y-25675000D02*
X21431250Y-36380031D01*
X239608705Y-35200000D02*
X234953775Y-35200000D01*
X57626550Y-31552225D02*
X59531250Y-29647525D01*
X78581250Y-34410025D02*
X79059400Y-34410025D01*
X40481250Y-34410025D02*
X44453775Y-30437500D01*
X154781250Y-34410025D02*
X150140725Y-34410025D01*
X154781250Y-34410025D02*
X158753775Y-30437500D01*
X21431250Y-39172525D02*
X22503425Y-39172525D01*
X245161180Y-29647525D02*
X239608705Y-35200000D01*
X101603775Y-30437500D02*
X97631250Y-34410025D01*
X63503775Y-25675000D02*
X69846225Y-25675000D01*
X26475950Y-35200000D02*
X29776219Y-35200000D01*
X136607350Y-47943400D02*
X123232275Y-47943400D01*
X150140725Y-34410025D02*
X136607350Y-47943400D01*
X69846225Y-25675000D02*
X78581250Y-34410025D01*
X203196225Y-25675000D02*
X211931250Y-34410025D01*
X177803775Y-30437500D02*
X182840700Y-30437500D01*
X215903775Y-30437500D02*
X222246225Y-30437500D01*
X114412648Y-27687500D02*
X107527200Y-27687500D01*
X234953775Y-35200000D02*
X230981250Y-39172525D01*
X165208705Y-30437500D02*
X169181230Y-34410025D01*
X173831250Y-34410025D02*
X177803775Y-30437500D01*
X121932275Y-46643400D02*
X121932275Y-35207127D01*
X29776219Y-35200000D02*
X31541044Y-36964825D01*
X190803775Y-31725000D02*
X192881250Y-29647525D01*
X86926219Y-30437500D02*
X90898744Y-34410025D01*
X107527200Y-27687500D02*
X104777200Y-30437500D01*
X50083225Y-30437500D02*
X51197950Y-31552225D01*
X21431250Y-36380031D02*
X21431250Y-39172525D01*
X6353775Y-25675000D02*
X10726219Y-25675000D01*
X31541044Y-36964825D02*
X37926450Y-36964825D01*
X90898744Y-34410025D02*
X97631250Y-34410025D01*
X22503425Y-39172525D02*
X26475950Y-35200000D01*
X2381250Y-29647525D02*
X6353775Y-25675000D01*
X222246225Y-30437500D02*
X230981250Y-39172525D01*
X192881250Y-29647525D02*
X196853775Y-25675000D01*
X44453775Y-30437500D02*
X50083225Y-30437500D01*
X59531250Y-29647525D02*
X63503775Y-25675000D01*
X79059400Y-34410025D02*
X83031925Y-30437500D01*
X37926450Y-36964825D02*
X40481250Y-34410025D01*
X158753775Y-30437500D02*
X165208705Y-30437500D01*
X104777200Y-30437500D02*
X101603775Y-30437500D01*
X83031925Y-30437500D02*
X86926219Y-30437500D01*
%TO.N,Net-(D17-A)*%
X2381250Y-22027525D02*
X5402525Y-22027525D01*
X5402525Y-22027525D02*
X5950000Y-22575000D01*
%TO.N,Net-(D18-A)*%
X3973775Y-39648775D02*
X5950000Y-41625000D01*
X2381250Y-39648775D02*
X3973775Y-39648775D01*
%TO.N,ROW2*%
X24403775Y-54250000D02*
X29776219Y-54250000D01*
X215903775Y-49487500D02*
X222246225Y-49487500D01*
X154781250Y-53460025D02*
X158753775Y-49487500D01*
X10791475Y-44725000D02*
X21431250Y-55364775D01*
X107236225Y-55287500D02*
X111921100Y-50602625D01*
X111921100Y-50602625D02*
X123113050Y-50602625D01*
X48826219Y-49487500D02*
X49941344Y-50602625D01*
X63981225Y-44725000D02*
X69846225Y-44725000D01*
X40601325Y-53460025D02*
X44573850Y-49487500D01*
X60008700Y-48697525D02*
X63981225Y-44725000D01*
X190803775Y-50775000D02*
X192881250Y-48697525D01*
X222246225Y-49487500D02*
X230981250Y-58222525D01*
X196853775Y-44725000D02*
X203196225Y-44725000D01*
X230981250Y-58222525D02*
X236203775Y-53000000D01*
X178878850Y-49487500D02*
X182176219Y-49487500D01*
X183463719Y-50775000D02*
X190803775Y-50775000D01*
X154781250Y-53460025D02*
X154117875Y-54123400D01*
X57626150Y-50602625D02*
X59531250Y-48697525D01*
X158753775Y-49487500D02*
X164980550Y-49487500D01*
X203196225Y-44725000D02*
X211931250Y-53460025D01*
X103573781Y-55287500D02*
X107236225Y-55287500D01*
X31541444Y-56015225D02*
X37926050Y-56015225D01*
X78581250Y-53460025D02*
X82553775Y-49487500D01*
X245161180Y-48697525D02*
X250031250Y-48697525D01*
X69846225Y-44725000D02*
X78581250Y-53460025D01*
X174906325Y-53460025D02*
X178878850Y-49487500D01*
X126872275Y-54123400D02*
X123232275Y-50483400D01*
X97631250Y-53460025D02*
X101746306Y-53460025D01*
X236203775Y-53000000D02*
X240858705Y-53000000D01*
X211931250Y-53460025D02*
X215903775Y-49487500D01*
X29776219Y-54250000D02*
X31541444Y-56015225D01*
X82553775Y-49487500D02*
X88778950Y-49487500D01*
X21431250Y-58222525D02*
X21431250Y-57222525D01*
X164980550Y-49487500D02*
X168953075Y-53460025D01*
X4925025Y-44725000D02*
X10791475Y-44725000D01*
X92751475Y-53460025D02*
X97631250Y-53460025D01*
X2381250Y-47268775D02*
X4925025Y-44725000D01*
X173831250Y-53460025D02*
X174906325Y-53460025D01*
X123113050Y-50602625D02*
X123232275Y-50483400D01*
X59531250Y-48697525D02*
X60008700Y-48697525D01*
X49941344Y-50602625D02*
X57626150Y-50602625D01*
X40481250Y-53460025D02*
X40601325Y-53460025D01*
X101746306Y-53460025D02*
X103573781Y-55287500D01*
X37926050Y-56015225D02*
X40481250Y-53460025D01*
X182176219Y-49487500D02*
X183463719Y-50775000D01*
X192881250Y-48697525D02*
X196853775Y-44725000D01*
X21431250Y-55364775D02*
X21431250Y-58222525D01*
X21431250Y-57222525D02*
X24403775Y-54250000D01*
X168953075Y-53460025D02*
X173831250Y-53460025D01*
X88778950Y-49487500D02*
X92751475Y-53460025D01*
X44573850Y-49487500D02*
X48826219Y-49487500D01*
X154117875Y-54123400D02*
X126872275Y-54123400D01*
X240858705Y-53000000D02*
X245161180Y-48697525D01*
%TO.N,Net-(D19-A)*%
X5402525Y-60127525D02*
X5950000Y-60675000D01*
X2381250Y-60127525D02*
X5402525Y-60127525D01*
%TO.N,ROW3*%
X196853775Y-63775000D02*
X203196225Y-63775000D01*
X173831250Y-72510025D02*
X177803775Y-68537500D01*
X114572805Y-53023400D02*
X123232275Y-53023400D01*
X32808705Y-70550000D02*
X38521225Y-70550000D01*
X25403775Y-73300000D02*
X30058705Y-73300000D01*
X30058705Y-73300000D02*
X32808705Y-70550000D01*
X52024230Y-69653025D02*
X57625750Y-69653025D01*
X177803775Y-68537500D02*
X182839900Y-68537500D01*
X220996225Y-67287500D02*
X230981250Y-77272525D01*
X83031125Y-68537500D02*
X86926219Y-68537500D01*
X239608705Y-73300000D02*
X243255680Y-69653025D01*
X57625750Y-69653025D02*
X59531250Y-67747525D01*
X59531250Y-67747525D02*
X63503775Y-63775000D01*
X40481250Y-72510025D02*
X44528900Y-68462375D01*
X79058600Y-72510025D02*
X83031125Y-68537500D01*
X6353775Y-63775000D02*
X10726219Y-63775000D01*
X102925000Y-67216275D02*
X102925000Y-64671205D01*
X69846225Y-63775000D02*
X78581250Y-72510025D01*
X102925000Y-64671205D02*
X114572805Y-53023400D01*
X154781250Y-72510025D02*
X158753775Y-68537500D01*
X144161340Y-61890115D02*
X132098990Y-61890115D01*
X86926219Y-68537500D02*
X90898744Y-72510025D01*
X234953775Y-73300000D02*
X239608705Y-73300000D01*
X243255680Y-69653025D02*
X247059875Y-69653025D01*
X132098990Y-61890115D02*
X123232275Y-53023400D01*
X10726219Y-63775000D02*
X21431250Y-74480031D01*
X217153775Y-67287500D02*
X220996225Y-67287500D01*
X158753775Y-68537500D02*
X163126219Y-68537500D01*
X50833580Y-68462375D02*
X52024230Y-69653025D01*
X192881250Y-67747525D02*
X196853775Y-63775000D01*
X183789900Y-69487500D02*
X191141275Y-69487500D01*
X44528900Y-68462375D02*
X50833580Y-68462375D01*
X97631250Y-72510025D02*
X102925000Y-67216275D01*
X63503775Y-63775000D02*
X69846225Y-63775000D01*
X167098744Y-72510025D02*
X173831250Y-72510025D01*
X191141275Y-69487500D02*
X192881250Y-67747525D01*
X21431250Y-77272525D02*
X25403775Y-73300000D01*
X230981250Y-77272525D02*
X234953775Y-73300000D01*
X90898744Y-72510025D02*
X97631250Y-72510025D01*
X154781250Y-72510025D02*
X144161340Y-61890115D01*
X211931250Y-72510025D02*
X217153775Y-67287500D01*
X78581250Y-72510025D02*
X79058600Y-72510025D01*
X2381250Y-67747525D02*
X6353775Y-63775000D01*
X182839900Y-68537500D02*
X183789900Y-69487500D01*
X203196225Y-63775000D02*
X211931250Y-72510025D01*
X38521225Y-70550000D02*
X40481250Y-72510025D01*
X21431250Y-74480031D02*
X21431250Y-77272525D01*
X163126219Y-68537500D02*
X167098744Y-72510025D01*
%TO.N,Net-(D20-A)*%
X2381250Y-79177525D02*
X5402525Y-79177525D01*
X5402525Y-79177525D02*
X5950000Y-79725000D01*
%TO.N,Net-(D21-A)*%
X250031250Y-22027525D02*
X253052525Y-22027525D01*
X253052525Y-22027525D02*
X253600000Y-22575000D01*
%TO.N,Net-(D22-A)*%
X250031250Y-41077525D02*
X253052525Y-41077525D01*
X253052525Y-41077525D02*
X253600000Y-41625000D01*
%TO.N,Net-(D24-A)*%
X253600000Y-79725000D02*
X253600000Y-79765100D01*
X253600000Y-79765100D02*
X253608450Y-79773550D01*
%TO.N,Net-(D25-A)*%
X21431250Y-31552525D02*
X24452525Y-31552525D01*
X24452525Y-31552525D02*
X25000000Y-32100000D01*
%TO.N,Net-(D26-A)*%
X24452525Y-50602525D02*
X25000000Y-51150000D01*
X21431250Y-50602525D02*
X24452525Y-50602525D01*
%TO.N,Net-(D27-A)*%
X21431250Y-69652525D02*
X24452525Y-69652525D01*
X24452525Y-69652525D02*
X25000000Y-70200000D01*
%TO.N,Net-(D28-A)*%
X43502525Y-26790025D02*
X44050000Y-27337500D01*
X40481250Y-26790025D02*
X43502525Y-26790025D01*
%TO.N,Net-(D29-A)*%
X40481250Y-45840025D02*
X43502525Y-45840025D01*
X43502525Y-45840025D02*
X44050000Y-46387500D01*
%TO.N,Net-(D30-A)*%
X40481250Y-64890025D02*
X43502525Y-64890025D01*
X43502525Y-64890025D02*
X44050000Y-65437500D01*
%TO.N,Net-(D31-A)*%
X62552525Y-22027525D02*
X63100000Y-22575000D01*
X59531250Y-22027525D02*
X62552525Y-22027525D01*
%TO.N,Net-(D32-A)*%
X59531250Y-41077525D02*
X62552525Y-41077525D01*
X62552525Y-41077525D02*
X63100000Y-41625000D01*
%TO.N,Net-(D33-A)*%
X62552525Y-60127525D02*
X63100000Y-60675000D01*
X59531250Y-60127525D02*
X62552525Y-60127525D01*
%TO.N,Net-(D34-A)*%
X78581250Y-26790025D02*
X81602525Y-26790025D01*
X81602525Y-26790025D02*
X82150000Y-27337500D01*
%TO.N,Net-(D35-A)*%
X78581250Y-45840025D02*
X81602525Y-45840025D01*
X81602525Y-45840025D02*
X82150000Y-46387500D01*
%TO.N,Net-(D36-A)*%
X81602525Y-64890025D02*
X82150000Y-65437500D01*
X78581250Y-64890025D02*
X81602525Y-64890025D01*
%TO.N,Net-(D37-A)*%
X100652525Y-26790025D02*
X101200000Y-27337500D01*
X97631250Y-26790025D02*
X100652525Y-26790025D01*
%TO.N,Net-(D38-A)*%
X100652525Y-45840025D02*
X101200000Y-46387500D01*
X97631250Y-45840025D02*
X100652525Y-45840025D01*
%TO.N,Net-(D39-A)*%
X97631250Y-64890025D02*
X100652525Y-64890025D01*
X100652525Y-64890025D02*
X101200000Y-65437500D01*
%TO.N,Net-(D40-A)*%
X157802525Y-26790025D02*
X158350000Y-27337500D01*
X154781250Y-26790025D02*
X157802525Y-26790025D01*
%TO.N,Net-(D41-A)*%
X157802525Y-45840025D02*
X158350000Y-46387500D01*
X154781250Y-45840025D02*
X157802525Y-45840025D01*
%TO.N,Net-(D42-A)*%
X154781250Y-64890025D02*
X157802525Y-64890025D01*
X157802525Y-64890025D02*
X158350000Y-65437500D01*
%TO.N,Net-(D43-A)*%
X176852525Y-26790025D02*
X177400000Y-27337500D01*
X173831250Y-26790025D02*
X176852525Y-26790025D01*
%TO.N,Net-(D44-A)*%
X173831250Y-45840025D02*
X176852525Y-45840025D01*
X176852525Y-45840025D02*
X177400000Y-46387500D01*
%TO.N,Net-(D45-A)*%
X176852525Y-64890025D02*
X177400000Y-65437500D01*
X173831250Y-64890025D02*
X176852525Y-64890025D01*
%TO.N,Net-(D46-A)*%
X192881250Y-22027525D02*
X195902525Y-22027525D01*
X195902525Y-22027525D02*
X196450000Y-22575000D01*
%TO.N,Net-(D47-A)*%
X195902525Y-41077525D02*
X196450000Y-41625000D01*
X192881250Y-41077525D02*
X195902525Y-41077525D01*
%TO.N,Net-(D48-A)*%
X195902525Y-60127525D02*
X196450000Y-60675000D01*
X192881250Y-60127525D02*
X195902525Y-60127525D01*
%TO.N,Net-(D49-A)*%
X214952525Y-26790025D02*
X215500000Y-27337500D01*
X211931250Y-26790025D02*
X214952525Y-26790025D01*
%TO.N,Net-(D50-A)*%
X214952525Y-45840025D02*
X215500000Y-46387500D01*
X211931250Y-45840025D02*
X214952525Y-45840025D01*
%TO.N,Net-(D51-A)*%
X214952525Y-64890025D02*
X215500000Y-65437500D01*
X211931250Y-64890025D02*
X214952525Y-64890025D01*
%TO.N,Net-(D52-A)*%
X234002525Y-31552525D02*
X234550000Y-32100000D01*
X230981250Y-31552525D02*
X234002525Y-31552525D01*
%TO.N,Net-(D53-A)*%
X230981250Y-50602525D02*
X234002525Y-50602525D01*
X234002525Y-50602525D02*
X234550000Y-51150000D01*
%TO.N,Net-(D54-A)*%
X234002525Y-69652525D02*
X234550000Y-70200000D01*
X230981250Y-69652525D02*
X234002525Y-69652525D01*
%TO.N,Net-(D55-A)*%
X43502525Y-83940025D02*
X44050000Y-84487500D01*
X40481250Y-83940025D02*
X43502525Y-83940025D01*
%TO.N,Net-(D56-A)*%
X61912500Y-83940025D02*
X64933775Y-83940025D01*
X64933775Y-83940025D02*
X65481250Y-84487500D01*
%TO.N,Net-(D57-A)*%
X85725000Y-83940025D02*
X88746275Y-83940025D01*
X88746275Y-83940025D02*
X89293750Y-84487500D01*
%TO.N,Net-(D58-A)*%
X126206250Y-83940025D02*
X129227525Y-83940025D01*
X129227525Y-83940025D02*
X129775000Y-84487500D01*
%TO.N,Net-(D59-A)*%
X172093725Y-83940025D02*
X172641200Y-84487500D01*
X169072450Y-83940025D02*
X172093725Y-83940025D01*
%TO.N,Net-(D60-A)*%
X193525225Y-83941725D02*
X194072700Y-84489200D01*
X190503950Y-83941725D02*
X193525225Y-83941725D01*
%TO.N,Net-(D61-A)*%
X211931250Y-83940025D02*
X214952525Y-83940025D01*
X214952525Y-83940025D02*
X215500000Y-84487500D01*
%TO.N,GND*%
X265812613Y-18752737D02*
X265812613Y-18752738D01*
X64376400Y-32184997D02*
X64376400Y-32883525D01*
X213271564Y-93466025D02*
X213671564Y-93866025D01*
X183528800Y-16226978D02*
X183528800Y-15478450D01*
X256408705Y-24425000D02*
X255325000Y-23341295D01*
X234520875Y-60700000D02*
X235580000Y-61759125D01*
X239797228Y-83940825D02*
X228023500Y-83940825D01*
X220746828Y-79178225D02*
X208973100Y-79178225D01*
X173666200Y-94687325D02*
X173696850Y-94656675D01*
X250825000Y-51965812D02*
X251615812Y-51175000D01*
X123232275Y-22622350D02*
X122041625Y-22622350D01*
X83176800Y-37197597D02*
X83176800Y-37946125D01*
X183528800Y-78295453D02*
X183528800Y-77546925D01*
X265812613Y-18752738D02*
X265514950Y-19050400D01*
X12075200Y-53733925D02*
X20248063Y-61906787D01*
X89626800Y-16828450D02*
X106999150Y-16828450D01*
X220992153Y-16864425D02*
X203965175Y-16864425D01*
X178459450Y-56555875D02*
X178459450Y-56217347D01*
X17278450Y-97037975D02*
X18455075Y-97037975D01*
X178428800Y-56586525D02*
X178459450Y-56555875D01*
X198080672Y-50883925D02*
X207155150Y-50883925D01*
X64076400Y-33183525D02*
X63017875Y-32125000D01*
X70807700Y-17059750D02*
X69226400Y-15478450D01*
X26025600Y-42708725D02*
X24566875Y-41250000D01*
X108677200Y-16828450D02*
X125776128Y-16828450D01*
X50176000Y-58496525D02*
X65212328Y-58496525D01*
X49574528Y-16828450D02*
X50176000Y-16226978D01*
X63067075Y-70225000D02*
X53007275Y-70225000D01*
X254742748Y-51174296D02*
X254742748Y-52121577D01*
X75339000Y-59846525D02*
X87675328Y-59846525D01*
X63017875Y-32125000D02*
X60633093Y-32125000D01*
X89626800Y-59846525D02*
X106725728Y-59846525D01*
X227088064Y-17750400D02*
X223901550Y-17750400D01*
X251935070Y-37618070D02*
X253519615Y-36033525D01*
X216529600Y-56996525D02*
X216529600Y-56247997D01*
X242297275Y-61516400D02*
X242297275Y-62509125D01*
X192516765Y-20836375D02*
X191921440Y-21431700D01*
X88276800Y-15478450D02*
X88276800Y-16226978D01*
X240680000Y-83058053D02*
X239797228Y-83940825D01*
X164478400Y-77546925D02*
X165828400Y-78896925D01*
X70843675Y-32940800D02*
X69736400Y-31833525D01*
X235807450Y-45558725D02*
X240078528Y-45558725D01*
X251131250Y-68371275D02*
X251131250Y-67962950D01*
X107327200Y-15478450D02*
X108677200Y-16828450D01*
X42638487Y-36314825D02*
X37594587Y-41358725D01*
X127727600Y-16828450D02*
X144826528Y-16828450D01*
X227142739Y-17805075D02*
X227088064Y-17750400D01*
X26025600Y-42298725D02*
X26025600Y-42708725D01*
X126377600Y-16226978D02*
X126377600Y-15478450D01*
X22950400Y-64609125D02*
X30524128Y-64609125D01*
X230962950Y-60700000D02*
X234520875Y-60700000D01*
X242030000Y-16828450D02*
X240680000Y-15478450D01*
X198175000Y-23341295D02*
X198175000Y-21808705D01*
X197479200Y-51485397D02*
X198080672Y-50883925D01*
X259730400Y-79785895D02*
X259730400Y-76201600D01*
X20248063Y-61906787D02*
X22950400Y-64609125D01*
X254275000Y-84523781D02*
X257223781Y-81575000D01*
X19417268Y-77620707D02*
X13692475Y-71895914D01*
X166109700Y-41077425D02*
X164478400Y-39446125D01*
X253519615Y-36033525D02*
X259247675Y-36033525D01*
X87444028Y-17059750D02*
X70807700Y-17059750D01*
X189994287Y-55646525D02*
X194465812Y-51175000D01*
X24566875Y-41250000D02*
X21147360Y-41250000D01*
X196420275Y-51175000D02*
X197479200Y-52233925D01*
X13425200Y-16983125D02*
X19645725Y-16983125D01*
X159378400Y-56586525D02*
X159409050Y-56555875D01*
X183528800Y-39446125D02*
X183528800Y-40194653D01*
X164478400Y-16226978D02*
X164478400Y-15478450D01*
X198175000Y-21808705D02*
X199147330Y-20836375D01*
X64727872Y-69934325D02*
X64126400Y-70535797D01*
X50176000Y-59245053D02*
X50176000Y-58496525D01*
X106999150Y-16828450D02*
X107327200Y-16500400D01*
X69736400Y-31833525D02*
X64727872Y-31833525D01*
X82117375Y-74987500D02*
X74789575Y-74987500D01*
X179030272Y-55646525D02*
X189994287Y-55646525D01*
X173696850Y-94318147D02*
X174267672Y-93747325D01*
X178428800Y-56996525D02*
X178428800Y-56586525D01*
X207155150Y-50883925D02*
X212208725Y-55937500D01*
X267896250Y-16669100D02*
X265812613Y-18752737D01*
X251615812Y-89271866D02*
X251252046Y-88908100D01*
X193747900Y-93747325D02*
X195097900Y-95097325D01*
X256297330Y-20836375D02*
X248250525Y-20836375D01*
X254275000Y-85885146D02*
X254275000Y-84523781D01*
X202579200Y-73532853D02*
X202579200Y-72784325D01*
X195097900Y-94348797D02*
X195980672Y-93466025D01*
X31125600Y-16381653D02*
X31125600Y-15633125D01*
X163876928Y-16828450D02*
X164478400Y-16226978D01*
X240908700Y-60127825D02*
X242297275Y-61516400D01*
X217131072Y-55646525D02*
X225909475Y-55646525D01*
X146778000Y-16828450D02*
X163876928Y-16828450D01*
X255325000Y-23341295D02*
X255325000Y-21808705D01*
X263728975Y-20836375D02*
X261529920Y-20836375D01*
X21147360Y-41250000D02*
X19714930Y-39817570D01*
X250825000Y-53584188D02*
X250825000Y-51965812D01*
X130802800Y-94348797D02*
X131404272Y-93747325D01*
X159979872Y-55646525D02*
X177078800Y-55646525D01*
X259247675Y-36033525D02*
X259730400Y-35550800D01*
X88276800Y-59245053D02*
X88276800Y-58496525D01*
X88166950Y-74696925D02*
X83778272Y-74696925D01*
X236462772Y-60127825D02*
X240908700Y-60127825D01*
X212208725Y-55937500D02*
X215470575Y-55937500D01*
X253571475Y-51175000D02*
X254630400Y-52233925D01*
X102227200Y-76046925D02*
X101167775Y-74987500D01*
X26056250Y-42268075D02*
X26025600Y-42298725D01*
X26025600Y-80060997D02*
X26025600Y-80809525D01*
X88276800Y-58496525D02*
X89626800Y-59846525D01*
X64727872Y-31833525D02*
X64376400Y-32184997D01*
X69226400Y-54482453D02*
X69226400Y-53733925D01*
X184878800Y-16828450D02*
X183528800Y-15478450D01*
X37594587Y-41358725D02*
X26627072Y-41358725D01*
X13692475Y-32742875D02*
X12783125Y-31833525D01*
X64376400Y-32883525D02*
X64076400Y-33183525D01*
X183528800Y-40194653D02*
X182646028Y-41077425D01*
X191921440Y-21431700D02*
X124422925Y-21431700D01*
X198565128Y-39446125D02*
X202579200Y-35432053D01*
X88457525Y-74987500D02*
X88166950Y-74696925D01*
X95420700Y-97345853D02*
X95420700Y-96597325D01*
X251227150Y-67867050D02*
X251227150Y-53986338D01*
X221629600Y-16226978D02*
X220992153Y-16864425D01*
X182927328Y-16828450D02*
X183528800Y-16226978D01*
X265514950Y-19050400D02*
X264919625Y-18455075D01*
X165828400Y-78896925D02*
X182927328Y-78896925D01*
X198565128Y-77546925D02*
X202579200Y-73532853D01*
X259730400Y-15478450D02*
X259730400Y-16226978D01*
X182646028Y-41077425D02*
X166109700Y-41077425D01*
X24966075Y-79750000D02*
X21546561Y-79750000D01*
X217412372Y-93466025D02*
X247424787Y-93466025D01*
X69226400Y-53733925D02*
X75339000Y-59846525D01*
X71607700Y-97345853D02*
X71607700Y-96597325D01*
X12783125Y-69934325D02*
X7576672Y-69934325D01*
X53007275Y-70225000D02*
X48535350Y-74696925D01*
X144826528Y-16828450D02*
X145428000Y-16226978D01*
X183528800Y-77546925D02*
X198565128Y-77546925D01*
X31125600Y-64007653D02*
X31125600Y-63259125D01*
X213671564Y-93866025D02*
X215298300Y-93866025D01*
X102227200Y-37946125D02*
X100595900Y-36314825D01*
X45076000Y-75298397D02*
X45076000Y-76046925D01*
X202579200Y-15478450D02*
X202579200Y-16500400D01*
X197479200Y-52233925D02*
X197479200Y-51485397D01*
X259730400Y-35550800D02*
X259730400Y-34683525D01*
X70843675Y-33338200D02*
X70843675Y-32940800D01*
X221629600Y-78295453D02*
X220746828Y-79178225D01*
X70920253Y-98033300D02*
X71607700Y-97345853D01*
X29484950Y-79459525D02*
X26627072Y-79459525D01*
X245344415Y-44208725D02*
X251935070Y-37618070D01*
X183528800Y-39446125D02*
X198565128Y-39446125D01*
X194465812Y-51175000D02*
X196420275Y-51175000D01*
X215470575Y-55937500D02*
X216529600Y-56996525D01*
X216529600Y-95097325D02*
X216529600Y-94348797D01*
X240680000Y-82309525D02*
X240680000Y-83058053D01*
X202251150Y-16828450D02*
X184878800Y-16828450D01*
X227433475Y-45250000D02*
X235498725Y-45250000D01*
X265514950Y-19050400D02*
X263728975Y-20836375D01*
X33956975Y-74987500D02*
X29484950Y-79459525D01*
X126377600Y-15478450D02*
X127727600Y-16828450D01*
X201203175Y-24425000D02*
X199258705Y-24425000D01*
X221629600Y-15478450D02*
X221629600Y-16226978D01*
X64126400Y-70535797D02*
X64126400Y-71284325D01*
X84059572Y-36314825D02*
X83176800Y-37197597D01*
X69226400Y-16226978D02*
X69226400Y-15478450D01*
X12075200Y-91834725D02*
X17278450Y-97037975D01*
X251615812Y-51175000D02*
X253571475Y-51175000D01*
X228023500Y-83940825D02*
X221629600Y-77546925D01*
X159409050Y-56217347D02*
X159979872Y-55646525D01*
X223901550Y-17750400D02*
X221629600Y-15478450D01*
X172316200Y-93747325D02*
X173666200Y-95097325D01*
X12075200Y-15633125D02*
X13425200Y-16983125D01*
X215298300Y-93866025D02*
X216529600Y-95097325D01*
X173666200Y-95097325D02*
X173666200Y-94687325D01*
X225909475Y-55646525D02*
X230962950Y-60700000D01*
X124422925Y-21431700D02*
X123232275Y-22622350D01*
X19714930Y-39817570D02*
X13692475Y-33795115D01*
X83176800Y-75298397D02*
X83176800Y-76046925D01*
X164478400Y-15478450D02*
X165828400Y-16828450D01*
X195980672Y-93466025D02*
X213271564Y-93466025D01*
X71607700Y-96597325D02*
X72647875Y-97637500D01*
X208973100Y-41077425D02*
X202579200Y-34683525D01*
X88276800Y-16226978D02*
X87444028Y-17059750D01*
X216529600Y-56247997D02*
X217131072Y-55646525D01*
X257941295Y-24425000D02*
X256408705Y-24425000D01*
X259128928Y-16828450D02*
X242030000Y-16828450D01*
X221629600Y-40194653D02*
X220746828Y-41077425D01*
X261529920Y-20836375D02*
X257941295Y-24425000D01*
X74789575Y-74987500D02*
X69736400Y-69934325D01*
X202579200Y-35432053D02*
X202579200Y-34683525D01*
X240078528Y-45558725D02*
X240680000Y-44957253D01*
X203965175Y-16864425D02*
X202579200Y-15478450D01*
X45076000Y-76046925D02*
X44016575Y-74987500D01*
X240680000Y-44957253D02*
X240680000Y-44208725D01*
X30524128Y-16983125D02*
X31125600Y-16381653D01*
X101167775Y-74987500D02*
X88457525Y-74987500D01*
X12783125Y-31833525D02*
X7576672Y-31833525D01*
X173696850Y-94656675D02*
X173696850Y-94318147D01*
X50176000Y-16226978D02*
X50176000Y-15478450D01*
X259730400Y-76201600D02*
X259730400Y-73974975D01*
X19645725Y-16983125D02*
X30524128Y-16983125D01*
X48535350Y-74696925D02*
X45677472Y-74696925D01*
X13692475Y-33795115D02*
X13692475Y-32742875D01*
X90550350Y-97947325D02*
X94819228Y-97947325D01*
X82118175Y-36887500D02*
X74392975Y-36887500D01*
X46161928Y-63259125D02*
X50176000Y-59245053D01*
X145428000Y-16226978D02*
X145428000Y-15478450D01*
X26627072Y-41358725D02*
X26056250Y-41929547D01*
X259730400Y-16226978D02*
X259128928Y-16828450D01*
X69736400Y-69934325D02*
X64727872Y-69934325D01*
X7576672Y-69934325D02*
X6975200Y-70535797D01*
X253570675Y-89275000D02*
X254630400Y-90334725D01*
X50176000Y-15478450D02*
X51526000Y-16828450D01*
X32320925Y-16828450D02*
X49574528Y-16828450D01*
X13692475Y-71895914D02*
X13692475Y-70843675D01*
X83176800Y-76046925D02*
X82117375Y-74987500D01*
X68624928Y-16828450D02*
X69226400Y-16226978D01*
X60633093Y-32125000D02*
X56443268Y-36314825D01*
X199258705Y-24425000D02*
X198175000Y-23341295D01*
X240680000Y-16226978D02*
X239101903Y-17805075D01*
X145428000Y-15478450D02*
X146778000Y-16828450D01*
X199147330Y-20836375D02*
X192516765Y-20836375D01*
X259730400Y-76201600D02*
X260325725Y-75606275D01*
X19050400Y-97947325D02*
X18455075Y-97352000D01*
X49574528Y-97947325D02*
X50176000Y-97345853D01*
X251131250Y-67962950D02*
X251227150Y-67867050D01*
X87675328Y-59846525D02*
X88276800Y-59245053D01*
X247424787Y-93466025D02*
X251615812Y-89275000D01*
X240680000Y-44208725D02*
X245344415Y-44208725D01*
X221629600Y-39446125D02*
X227433475Y-45250000D01*
X50176000Y-97345853D02*
X50176000Y-96597325D01*
X31125600Y-15633125D02*
X32320925Y-16828450D01*
X159378400Y-56996525D02*
X159378400Y-56586525D01*
X83176800Y-37946125D02*
X82118175Y-36887500D01*
X239101903Y-17805075D02*
X227142739Y-17805075D01*
X255325000Y-21808705D02*
X256297330Y-20836375D01*
X204791800Y-20836375D02*
X201203175Y-24425000D01*
X240680000Y-15478450D02*
X240680000Y-16226978D01*
X13692475Y-70843675D02*
X12783125Y-69934325D01*
X242297275Y-62509125D02*
X248159425Y-68371275D01*
X177078800Y-55646525D02*
X178428800Y-56996525D01*
X125776128Y-16828450D02*
X126377600Y-16226978D01*
X94819228Y-97947325D02*
X95420700Y-97345853D01*
X107327200Y-16500400D02*
X107327200Y-15478450D01*
X235580000Y-61010597D02*
X236462772Y-60127825D01*
X178459450Y-56217347D02*
X179030272Y-55646525D01*
X254742748Y-52121577D02*
X254630400Y-52233925D01*
X257223781Y-81575000D02*
X257941295Y-81575000D01*
X19050400Y-97947325D02*
X49574528Y-97947325D01*
X44016575Y-74987500D02*
X33956975Y-74987500D01*
X208973100Y-79178225D02*
X202579200Y-72784325D01*
X51526000Y-16828450D02*
X68624928Y-16828450D01*
X131404272Y-93747325D02*
X172316200Y-93747325D01*
X26025600Y-80809525D02*
X24966075Y-79750000D01*
X248250525Y-20836375D02*
X204791800Y-20836375D01*
X7576672Y-31833525D02*
X6975200Y-32434997D01*
X174267672Y-93747325D02*
X193747900Y-93747325D01*
X65212328Y-58496525D02*
X69226400Y-54482453D01*
X247278575Y-88908100D02*
X251252046Y-88908100D01*
X21546561Y-79750000D02*
X19417268Y-77620707D01*
X182927328Y-78896925D02*
X183528800Y-78295453D01*
X74392975Y-36887500D02*
X70843675Y-33338200D01*
X6975200Y-70535797D02*
X6975200Y-71284325D01*
X56443268Y-36314825D02*
X42638487Y-36314825D01*
X257941295Y-81575000D02*
X259730400Y-79785895D01*
X51611975Y-98033300D02*
X70920253Y-98033300D01*
X216529600Y-94348797D02*
X217412372Y-93466025D01*
X251615812Y-89275000D02*
X251615812Y-89271866D01*
X72647875Y-97637500D02*
X90240525Y-97637500D01*
X202579200Y-16500400D02*
X202251150Y-16828450D01*
X235580000Y-61759125D02*
X235580000Y-61010597D01*
X240680000Y-82309525D02*
X247278575Y-88908100D01*
X251227150Y-53986338D02*
X250825000Y-53584188D01*
X251615812Y-89275000D02*
X253570675Y-89275000D01*
X45677472Y-74696925D02*
X45076000Y-75298397D01*
X235498725Y-45250000D02*
X235807450Y-45558725D01*
X248159425Y-68371275D02*
X251131250Y-68371275D01*
X90240525Y-97637500D02*
X90550350Y-97947325D01*
X26627072Y-79459525D02*
X26025600Y-80060997D01*
X106725728Y-59846525D02*
X107327200Y-59245053D01*
X83778272Y-74696925D02*
X83176800Y-75298397D01*
X107327200Y-59245053D02*
X107327200Y-58496525D01*
X100595900Y-36314825D02*
X84059572Y-36314825D01*
X220746828Y-41077425D02*
X208973100Y-41077425D01*
X26056250Y-41929547D02*
X26056250Y-42268075D01*
X251252046Y-88908100D02*
X254275000Y-85885146D01*
X18455075Y-97352000D02*
X18455075Y-97037975D01*
X260325725Y-75606275D02*
X260752350Y-75606275D01*
X165828400Y-16828450D02*
X182927328Y-16828450D01*
X64126400Y-71284325D02*
X63067075Y-70225000D01*
X195097900Y-95097325D02*
X195097900Y-94348797D01*
X221629600Y-39446125D02*
X221629600Y-40194653D01*
X221629600Y-77546925D02*
X221629600Y-78295453D01*
X6975200Y-32434997D02*
X6975200Y-33183525D01*
X88276800Y-15478450D02*
X89626800Y-16828450D01*
X130802800Y-95097325D02*
X130802800Y-94348797D01*
X30524128Y-64609125D02*
X31125600Y-64007653D01*
X31125600Y-63259125D02*
X46161928Y-63259125D01*
X50176000Y-96597325D02*
X51611975Y-98033300D01*
X159409050Y-56555875D02*
X159409050Y-56217347D01*
%TO.N,+5V*%
X140929472Y-12628450D02*
X140328000Y-13229922D01*
X125974656Y-12628450D02*
X121879072Y-12628450D01*
X87386789Y-93787500D02*
X89010875Y-93787500D01*
X234521275Y-41650000D02*
X227927446Y-41650000D01*
X102227200Y-13978450D02*
X100877200Y-12628450D01*
X66507700Y-94348797D02*
X67109172Y-93747325D01*
X159979872Y-36596125D02*
X159378400Y-37197597D01*
X65157700Y-93747325D02*
X45677472Y-93747325D01*
X200197900Y-97345853D02*
X200197900Y-96597325D01*
X31125600Y-83058053D02*
X31125600Y-82309525D01*
X64727872Y-12628450D02*
X64126400Y-13229922D01*
X45076000Y-56247997D02*
X45958772Y-55365225D01*
X196419875Y-70225000D02*
X186360075Y-70225000D01*
X88276800Y-77546925D02*
X88716800Y-77546925D01*
X242553923Y-41358725D02*
X236181472Y-41358725D01*
X121277600Y-13978450D02*
X119927600Y-12628450D01*
X139329472Y-12979922D02*
X126326128Y-12979922D01*
X247497364Y-69171275D02*
X251462621Y-69171275D01*
X51496925Y-12628450D02*
X45677472Y-12628450D01*
X197479200Y-13229922D02*
X197479200Y-13978450D01*
X178428800Y-37946125D02*
X177078800Y-36596125D01*
X235580000Y-80809525D02*
X234520475Y-79750000D01*
X56925587Y-55365225D02*
X61115812Y-51175000D01*
X185317000Y-12628450D02*
X179030272Y-12628450D01*
X159378400Y-75298397D02*
X159378400Y-76046925D01*
X80165812Y-55937500D02*
X82117775Y-55937500D01*
X216529600Y-37946125D02*
X215470975Y-36887500D01*
X135902800Y-96597325D02*
X137252800Y-97947325D01*
X252000000Y-74665375D02*
X254190400Y-72474975D01*
X252400000Y-68233896D02*
X252400000Y-67102525D01*
X198080672Y-31833525D02*
X197479200Y-32434997D01*
X241120000Y-63259125D02*
X244607925Y-66747050D01*
X89010875Y-93787500D02*
X90320700Y-95097325D01*
X22950400Y-45558725D02*
X30524128Y-45558725D01*
X22645500Y-60127825D02*
X23217675Y-60700000D01*
X44016175Y-94037500D02*
X20836375Y-94037500D01*
X216529600Y-13978450D02*
X215179600Y-12628450D01*
X250036500Y-33876148D02*
X242553923Y-41358725D01*
X12783124Y-50883925D02*
X7576672Y-50883925D01*
X262269086Y-20186375D02*
X266386361Y-16069100D01*
X50176000Y-77546925D02*
X50176000Y-78295453D01*
X43880675Y-12783125D02*
X26627072Y-12783125D01*
X26025600Y-61759125D02*
X24966475Y-60700000D01*
X83778272Y-12628450D02*
X83176800Y-13229922D01*
X69226400Y-35432053D02*
X69226400Y-34683525D01*
X7576672Y-12783125D02*
X6975200Y-13384597D01*
X221629600Y-97345853D02*
X221629600Y-96597325D01*
X102227200Y-13229922D02*
X102227200Y-13978450D01*
X252400000Y-67102525D02*
X256977525Y-62525000D01*
X215179600Y-12628450D02*
X198080672Y-12628450D01*
X23217675Y-60700000D02*
X21708725Y-60700000D01*
X159979872Y-74696925D02*
X159378400Y-75298397D01*
X66507700Y-95097325D02*
X66507700Y-94348797D01*
X88276800Y-39446125D02*
X89626800Y-40796125D01*
X216529600Y-75298397D02*
X216529600Y-76046925D01*
X50176000Y-77546925D02*
X65212328Y-77546925D01*
X259730400Y-92583253D02*
X259730400Y-91834725D01*
X244607925Y-66747050D02*
X245073139Y-66747050D01*
X178428800Y-13978450D02*
X177078800Y-12628450D01*
X262269086Y-20186375D02*
X247981286Y-20186375D01*
X90066800Y-78896925D02*
X106725728Y-78896925D01*
X215470975Y-36887500D02*
X208143175Y-36887500D01*
X144123325Y-20836375D02*
X144068650Y-20781700D01*
X191951079Y-20836375D02*
X144123325Y-20836375D01*
X22622350Y-60127825D02*
X22645500Y-60127825D01*
X24675600Y-12783125D02*
X22622350Y-12783125D01*
X236181472Y-41358725D02*
X235580000Y-41960197D01*
X64126400Y-51485397D02*
X64727872Y-50883925D01*
X197479200Y-70535797D02*
X197479200Y-71284325D01*
X179030272Y-12628450D02*
X178428800Y-13229922D01*
X178428800Y-13229922D02*
X178428800Y-13978450D01*
X222337525Y-74696925D02*
X217131072Y-74696925D01*
X242805512Y-81646613D02*
X249266999Y-88108100D01*
X88716800Y-77546925D02*
X90066800Y-78896925D01*
X13692475Y-51793276D02*
X12783124Y-50883925D01*
X241387925Y-79459525D02*
X242297275Y-80368875D01*
X208143175Y-36887500D02*
X203089200Y-31833525D01*
X235580000Y-80809525D02*
X235580000Y-80060997D01*
X26025600Y-61759125D02*
X26025600Y-61010597D01*
X24966475Y-60700000D02*
X23217675Y-60700000D01*
X235580000Y-13978450D02*
X234230000Y-12628450D01*
X201547900Y-97947325D02*
X221028128Y-97947325D01*
X20836375Y-94037500D02*
X20836375Y-92870700D01*
X25945125Y-83350000D02*
X26254650Y-83659525D01*
X21708725Y-60700000D02*
X13692475Y-52683750D01*
X216529600Y-13229922D02*
X216529600Y-13978450D01*
X197479200Y-33183525D02*
X196420675Y-32125000D01*
X106725728Y-78896925D02*
X107327200Y-78295453D01*
X253280400Y-12628450D02*
X236181472Y-12628450D01*
X26025600Y-13384597D02*
X26025600Y-14133125D01*
X107327200Y-78295453D02*
X107327200Y-77546925D01*
X67109172Y-93747325D02*
X87346615Y-93747325D01*
X266386361Y-16069100D02*
X268486900Y-16069100D01*
X157037638Y-12628450D02*
X147045275Y-12628450D01*
X26986197Y-60050000D02*
X37953312Y-60050000D01*
X45076000Y-13978450D02*
X43880675Y-12783125D01*
X228023500Y-64890425D02*
X221629600Y-58496525D01*
X69226400Y-73532853D02*
X69226400Y-72784325D01*
X20843388Y-81552512D02*
X20843388Y-80971213D01*
X119927600Y-12628450D02*
X102828672Y-12628450D01*
X247981286Y-20186375D02*
X247731286Y-20436375D01*
X37953312Y-60050000D02*
X42065812Y-55937500D01*
X88276800Y-40194653D02*
X88276800Y-39446125D01*
X126326128Y-12979922D02*
X125974656Y-12628450D01*
X247731286Y-20436375D02*
X192351079Y-20436375D01*
X30524128Y-45558725D02*
X31125600Y-44957253D01*
X45076000Y-94348797D02*
X45076000Y-95097325D01*
X87675328Y-40796125D02*
X88276800Y-40194653D01*
X181888150Y-74696925D02*
X179030272Y-74696925D01*
X198080672Y-69934325D02*
X197479200Y-70535797D01*
X243487925Y-96597325D02*
X255716328Y-96597325D01*
X12585200Y-88984725D02*
X7457925Y-88984725D01*
X203089200Y-69934325D02*
X198080672Y-69934325D01*
X50176000Y-40194653D02*
X50176000Y-39446125D01*
X6975200Y-89467450D02*
X6975200Y-90334725D01*
X82117775Y-55937500D02*
X83176800Y-56996525D01*
X178428800Y-75298397D02*
X178428800Y-76046925D01*
X217131072Y-12628450D02*
X216529600Y-13229922D01*
X45076000Y-95097325D02*
X44016175Y-94037500D01*
X234230000Y-12628450D02*
X217131072Y-12628450D01*
X255716328Y-96597325D02*
X259730400Y-92583253D01*
X178766200Y-96597325D02*
X180116200Y-97947325D01*
X235580000Y-80060997D02*
X236181472Y-79459525D01*
X221629600Y-96597325D02*
X243487925Y-96597325D01*
X42065812Y-55937500D02*
X44016975Y-55937500D01*
X197479200Y-71284325D02*
X196419875Y-70225000D01*
X250920675Y-88108100D02*
X253013125Y-86015650D01*
X197479200Y-13978450D02*
X196575750Y-13075000D01*
X208142375Y-74987500D02*
X203089200Y-69934325D01*
X51943475Y-13075000D02*
X51496925Y-12628450D01*
X26025600Y-61010597D02*
X26986197Y-60050000D01*
X20836375Y-82750175D02*
X20836375Y-81559525D01*
X75606275Y-55960550D02*
X80142762Y-55960550D01*
X249266999Y-88108100D02*
X250920675Y-88108100D01*
X100595900Y-55365225D02*
X102227200Y-56996525D01*
X178428800Y-37197597D02*
X178428800Y-37946125D01*
X20836375Y-94037500D02*
X17637975Y-94037500D01*
X256977525Y-62525000D02*
X257941295Y-62525000D01*
X121277600Y-13229922D02*
X121277600Y-13978450D01*
X177078800Y-36596125D02*
X159979872Y-36596125D01*
X180116200Y-97947325D02*
X199596428Y-97947325D01*
X45958772Y-55365225D02*
X56925587Y-55365225D01*
X179030272Y-74696925D02*
X178428800Y-75298397D01*
X159378400Y-37197597D02*
X159378400Y-37946125D01*
X235580000Y-41960197D02*
X235580000Y-42708725D01*
X164478400Y-58496525D02*
X165828400Y-59846525D01*
X243487925Y-96597325D02*
X243487925Y-95847325D01*
X75339000Y-40796125D02*
X87675328Y-40796125D01*
X12075200Y-34683525D02*
X22950400Y-45558725D01*
X6975200Y-51485397D02*
X6975200Y-52233925D01*
X252000000Y-85002525D02*
X252000000Y-74665375D01*
X240680000Y-64007653D02*
X239797228Y-64890425D01*
X178766200Y-97345853D02*
X178766200Y-96597325D01*
X69226400Y-34683525D02*
X75339000Y-40796125D01*
X216529600Y-37197597D02*
X216529600Y-37946125D01*
X221028128Y-59846525D02*
X221629600Y-59245053D01*
X50176000Y-78295453D02*
X46161928Y-82309525D01*
X240680000Y-63259125D02*
X240680000Y-64007653D01*
X63067475Y-51175000D02*
X64126400Y-52233925D01*
X236181472Y-12628450D02*
X235580000Y-13229922D01*
X66507700Y-95097325D02*
X65157700Y-93747325D01*
X183528800Y-59363800D02*
X183528800Y-58496525D01*
X88276800Y-77546925D02*
X88276800Y-78295453D01*
X222873571Y-36596125D02*
X217131072Y-36596125D01*
X81826800Y-12628450D02*
X64727872Y-12628450D01*
X75339000Y-78896925D02*
X69226400Y-72784325D01*
X6975200Y-13384597D02*
X6975200Y-14133125D01*
X227927446Y-41650000D02*
X222873571Y-36596125D01*
X45076000Y-13229922D02*
X45076000Y-13978450D01*
X197479200Y-32434997D02*
X197479200Y-33183525D01*
X215470175Y-74987500D02*
X208142375Y-74987500D01*
X227390600Y-79750000D02*
X222337525Y-74696925D01*
X254630400Y-13978450D02*
X253280400Y-12628450D01*
X64126400Y-13978450D02*
X63222950Y-13075000D01*
X235580000Y-13229922D02*
X235580000Y-13978450D01*
X26627072Y-12783125D02*
X26025600Y-13384597D01*
X88276800Y-78295453D02*
X87675328Y-78896925D01*
X251462621Y-69171275D02*
X252400000Y-68233896D01*
X242297275Y-80368875D02*
X242297275Y-81138376D01*
X26025600Y-14133125D02*
X24675600Y-12783125D01*
X83176800Y-13229922D02*
X83176800Y-13978450D01*
X31125600Y-44957253D02*
X31125600Y-44208725D01*
X245073139Y-66747050D02*
X247497364Y-69171275D01*
X46161928Y-82309525D02*
X31125600Y-82309525D01*
X183046075Y-59846525D02*
X183528800Y-59363800D01*
X7457925Y-88984725D02*
X6975200Y-89467450D01*
X217131072Y-74696925D02*
X216529600Y-75298397D01*
X61115812Y-51175000D02*
X63067475Y-51175000D01*
X259730400Y-60735895D02*
X259730400Y-53733925D01*
X20843388Y-81552512D02*
X22640875Y-83350000D01*
X179030272Y-36596125D02*
X178428800Y-37197597D01*
X83176800Y-13978450D02*
X81826800Y-12628450D01*
X196420675Y-32125000D02*
X186288719Y-32125000D01*
X65212328Y-77546925D02*
X69226400Y-73532853D01*
X196575750Y-13075000D02*
X185763550Y-13075000D01*
X165828400Y-59846525D02*
X183046075Y-59846525D01*
X251615812Y-32125000D02*
X250036500Y-33704312D01*
X7576672Y-50883925D02*
X6975200Y-51485397D01*
X30524128Y-83659525D02*
X31125600Y-83058053D01*
X178428800Y-76046925D02*
X177078800Y-74696925D01*
X63222950Y-13075000D02*
X51943475Y-13075000D01*
X208691800Y-59846525D02*
X221028128Y-59846525D01*
X254630400Y-33183525D02*
X253571875Y-32125000D01*
X140328000Y-13229922D02*
X140328000Y-13978450D01*
X102828672Y-12628450D02*
X102227200Y-13229922D01*
X240680000Y-63259125D02*
X241120000Y-63259125D01*
X31125600Y-44208725D02*
X46161928Y-44208725D01*
X257941295Y-62525000D02*
X259730400Y-60735895D01*
X236181472Y-79459525D02*
X241387925Y-79459525D01*
X183528800Y-58496525D02*
X198565128Y-58496525D01*
X20836375Y-81559525D02*
X20843388Y-81552512D01*
X50176000Y-39446125D02*
X65212328Y-39446125D01*
X140328000Y-13978450D02*
X139329472Y-12979922D01*
X45677472Y-93747325D02*
X45076000Y-94348797D01*
X137252800Y-97947325D02*
X178164728Y-97947325D01*
X200197900Y-96597325D02*
X201547900Y-97947325D01*
X202579200Y-54482453D02*
X202579200Y-53733925D01*
X159378400Y-13229922D02*
X159378400Y-13978450D01*
X106725728Y-40796125D02*
X107327200Y-40194653D01*
X203089200Y-31833525D02*
X198080672Y-31833525D01*
X17637975Y-94037500D02*
X12585200Y-88984725D01*
X44016975Y-55937500D02*
X45076000Y-56996525D01*
X147045275Y-12628450D02*
X140929472Y-12628450D01*
X121879072Y-12628450D02*
X121277600Y-13229922D01*
X177078800Y-12628450D02*
X159979872Y-12628450D01*
X177078800Y-74696925D02*
X159979872Y-74696925D01*
X186288719Y-32125000D02*
X181817594Y-36596125D01*
X181817594Y-36596125D02*
X179030272Y-36596125D01*
X46161928Y-44208725D02*
X50176000Y-40194653D01*
X221028128Y-97947325D02*
X221629600Y-97345853D01*
X234520475Y-79750000D02*
X227390600Y-79750000D01*
X84059572Y-55365225D02*
X100595900Y-55365225D01*
X80142762Y-55960550D02*
X80165812Y-55937500D01*
X65212328Y-39446125D02*
X69226400Y-35432053D01*
X87346615Y-93747325D02*
X87386789Y-93787500D01*
X178164728Y-97947325D02*
X178766200Y-97345853D01*
X217131072Y-36596125D02*
X216529600Y-37197597D01*
X202579200Y-53733925D02*
X208691800Y-59846525D01*
X20843388Y-80971213D02*
X20836375Y-80964200D01*
X268486900Y-16069100D02*
X269682225Y-17264425D01*
X13692475Y-52683750D02*
X13692475Y-51793276D01*
X242297275Y-81138376D02*
X242805512Y-81646613D01*
X64727872Y-50883925D02*
X70529650Y-50883925D01*
X158387638Y-13978450D02*
X157037638Y-12628450D01*
X198565128Y-58496525D02*
X202579200Y-54482453D01*
X45076000Y-56996525D02*
X45076000Y-56247997D01*
X89626800Y-40796125D02*
X106725728Y-40796125D01*
X254190400Y-72474975D02*
X254630400Y-72474975D01*
X83176800Y-56996525D02*
X83176800Y-56247997D01*
X192351079Y-20436375D02*
X191951079Y-20836375D01*
X221629600Y-59245053D02*
X221629600Y-58496525D01*
X253571875Y-32125000D02*
X251615812Y-32125000D01*
X45677472Y-12628450D02*
X45076000Y-13229922D01*
X199596428Y-97947325D02*
X200197900Y-97345853D01*
X198080672Y-12628450D02*
X197479200Y-13229922D01*
X185763550Y-13075000D02*
X185317000Y-12628450D01*
X83176800Y-56247997D02*
X84059572Y-55365225D01*
X253013125Y-86015650D02*
X252000000Y-85002525D01*
X64126400Y-13229922D02*
X64126400Y-13978450D01*
X64126400Y-52233925D02*
X64126400Y-51485397D01*
X100877200Y-12628450D02*
X83778272Y-12628450D01*
X159979872Y-12628450D02*
X159378400Y-13229922D01*
X186360075Y-70225000D02*
X181888150Y-74696925D01*
X216529600Y-76046925D02*
X215470175Y-74987500D01*
X70529650Y-50883925D02*
X75606275Y-55960550D01*
X12075200Y-72784325D02*
X20843388Y-81552512D01*
X159378400Y-13978450D02*
X158387638Y-13978450D01*
X26254650Y-83659525D02*
X30524128Y-83659525D01*
X87675328Y-78896925D02*
X75339000Y-78896925D01*
X250036500Y-33704312D02*
X250036500Y-33876148D01*
X239797228Y-64890425D02*
X228023500Y-64890425D01*
X235580000Y-42708725D02*
X234521275Y-41650000D01*
X107327200Y-40194653D02*
X107327200Y-39446125D01*
X22640875Y-83350000D02*
X25945125Y-83350000D01*
X22622350Y-12783125D02*
X7576672Y-12783125D01*
%TO.N,LED_DIN*%
X261893000Y-15701050D02*
X261893000Y-19695725D01*
X259730400Y-13978450D02*
X260170400Y-13978450D01*
X147790600Y-20036375D02*
X147640600Y-20186375D01*
X247906250Y-19695725D02*
X247565600Y-20036375D01*
X247565600Y-20036375D02*
X147790600Y-20036375D01*
X261893000Y-19695725D02*
X247906250Y-19695725D01*
X260170400Y-13978450D02*
X261893000Y-15701050D01*
%TO.N,Net-(LED0-DOUT)*%
X241583450Y-13075000D02*
X240680000Y-13978450D01*
X246884188Y-16275000D02*
X243684188Y-13075000D01*
X254580400Y-15478450D02*
X253783850Y-16275000D01*
X243684188Y-13075000D02*
X241583450Y-13075000D01*
X253783850Y-16275000D02*
X246884188Y-16275000D01*
%TO.N,Net-(LED2-DOUT)*%
X221629600Y-13978450D02*
X222069600Y-13978450D01*
X224366150Y-16275000D02*
X234783450Y-16275000D01*
X234783450Y-16275000D02*
X235580000Y-15478450D01*
X222069600Y-13978450D02*
X224366150Y-16275000D01*
%TO.N,Net-(LED3-DOUT)*%
X205315750Y-16275000D02*
X215733050Y-16275000D01*
X215733050Y-16275000D02*
X216529600Y-15478450D01*
X203019200Y-13978450D02*
X205315750Y-16275000D01*
X202579200Y-13978450D02*
X203019200Y-13978450D01*
%TO.N,Net-(LED4-DOUT)*%
X196682650Y-16275000D02*
X187133275Y-16275000D01*
X197479200Y-15478450D02*
X196682650Y-16275000D01*
X184836725Y-13978450D02*
X183528800Y-13978450D01*
X187133275Y-16275000D02*
X184836725Y-13978450D01*
%TO.N,Net-(LED5-DOUT)*%
X177632250Y-16275000D02*
X168082875Y-16275000D01*
X165786325Y-13978450D02*
X164478400Y-13978450D01*
X168082875Y-16275000D02*
X165786325Y-13978450D01*
X178428800Y-15478450D02*
X177632250Y-16275000D01*
%TO.N,Net-(LED6-DOUT)*%
X145545275Y-13978450D02*
X145428000Y-13978450D01*
X147841825Y-16275000D02*
X145545275Y-13978450D01*
X158581850Y-16275000D02*
X147841825Y-16275000D01*
X159378400Y-15478450D02*
X158581850Y-16275000D01*
%TO.N,Net-(LED7-DOUT)*%
X139531450Y-16275000D02*
X130577400Y-16275000D01*
X128280850Y-13978450D02*
X126377600Y-13978450D01*
X140328000Y-15478450D02*
X139531450Y-16275000D01*
X130577400Y-16275000D02*
X128280850Y-13978450D01*
%TO.N,Net-(LED8-DOUT)*%
X107767200Y-13978450D02*
X107327200Y-13978450D01*
X121277600Y-15478450D02*
X120481050Y-16275000D01*
X110063750Y-16275000D02*
X107767200Y-13978450D01*
X120481050Y-16275000D02*
X110063750Y-16275000D01*
%TO.N,Net-(LED10-DIN)*%
X102227200Y-15478450D02*
X101430650Y-16275000D01*
X91881275Y-16275000D02*
X89584725Y-13978450D01*
X89584725Y-13978450D02*
X88276800Y-13978450D01*
X101430650Y-16275000D02*
X91881275Y-16275000D01*
%TO.N,Net-(LED10-DOUT)*%
X81995500Y-16659750D02*
X83176800Y-15478450D01*
X69226400Y-13978450D02*
X69666400Y-13978450D01*
X83176800Y-15478450D02*
X82750175Y-15478450D01*
X72347700Y-16659750D02*
X81995500Y-16659750D01*
X69666400Y-13978450D02*
X72347700Y-16659750D01*
%TO.N,Net-(LED11-DOUT)*%
X52912550Y-16275000D02*
X50616000Y-13978450D01*
X64126400Y-15478450D02*
X63329850Y-16275000D01*
X63329850Y-16275000D02*
X52912550Y-16275000D01*
X50616000Y-13978450D02*
X50176000Y-13978450D01*
%TO.N,Net-(LED12-DOUT)*%
X44279450Y-16275000D02*
X34730075Y-16275000D01*
X32588200Y-14133125D02*
X31125600Y-14133125D01*
X34730075Y-16275000D02*
X32588200Y-14133125D01*
X45076000Y-15478450D02*
X44279450Y-16275000D01*
%TO.N,Net-(LED13-DOUT)*%
X14657075Y-16275000D02*
X12515200Y-14133125D01*
X25383725Y-16275000D02*
X14657075Y-16275000D01*
X12515200Y-14133125D02*
X12075200Y-14133125D01*
X26025600Y-15633125D02*
X25383725Y-16275000D01*
%TO.N,/row1DOut*%
X6975200Y-34683525D02*
X6975200Y-34697550D01*
X6975200Y-34697550D02*
X5953250Y-35719500D01*
X5953250Y-16669100D02*
X5953250Y-16655075D01*
X5953250Y-16655075D02*
X6975200Y-15633125D01*
%TO.N,Net-(LED15-DOUT)*%
X19064930Y-39733255D02*
X19064930Y-40899118D01*
X19064930Y-40899118D02*
X23015812Y-44850000D01*
X12515200Y-33183525D02*
X19064930Y-39733255D01*
X12075200Y-33183525D02*
X12515200Y-33183525D01*
X25384325Y-44850000D02*
X26025600Y-44208725D01*
X23015812Y-44850000D02*
X25384325Y-44850000D01*
%TO.N,Net-(LED16-DOUT)*%
X31125600Y-42708725D02*
X41813400Y-42708725D01*
X41813400Y-42708725D02*
X45076000Y-39446125D01*
%TO.N,Net-(LED17-DOUT)*%
X50176000Y-37946125D02*
X60282500Y-37946125D01*
X60282500Y-37946125D02*
X63545100Y-34683525D01*
X63545100Y-34683525D02*
X64126400Y-34683525D01*
%TO.N,Net-(LED18-DOUT)*%
X76879000Y-40396125D02*
X82226800Y-40396125D01*
X69226400Y-33183525D02*
X69666400Y-33183525D01*
X82226800Y-40396125D02*
X83176800Y-39446125D01*
X69666400Y-33183525D02*
X76879000Y-40396125D01*
%TO.N,Net-(LED19-DOUT)*%
X88716800Y-37946125D02*
X90858175Y-40087500D01*
X88276800Y-37946125D02*
X88716800Y-37946125D01*
X101585825Y-40087500D02*
X102227200Y-39446125D01*
X90858175Y-40087500D02*
X101585825Y-40087500D01*
%TO.N,Net-(LED20-DOUT)*%
X107327200Y-56996525D02*
X107327200Y-56982500D01*
X108944475Y-38100800D02*
X107481875Y-38100800D01*
X107481875Y-38100800D02*
X107327200Y-37946125D01*
X107327200Y-56982500D02*
X108349150Y-55960550D01*
%TO.N,Net-(LED23-DOUT)*%
X101586225Y-59137500D02*
X102227200Y-58496525D01*
X88716800Y-56996525D02*
X90857775Y-59137500D01*
X90857775Y-59137500D02*
X101586225Y-59137500D01*
X88276800Y-56996525D02*
X88716800Y-56996525D01*
%TO.N,Net-(LED24-DOUT)*%
X69226400Y-52233925D02*
X69666400Y-52233925D01*
X69666400Y-52233925D02*
X76569975Y-59137500D01*
X82535825Y-59137500D02*
X83176800Y-58496525D01*
X76569975Y-59137500D02*
X82535825Y-59137500D01*
%TO.N,Net-(LED25-DOUT)*%
X50176000Y-56996525D02*
X60863800Y-56996525D01*
X60863800Y-56996525D02*
X64126400Y-53733925D01*
%TO.N,Net-(LED26-DOUT)*%
X41813400Y-61759125D02*
X45076000Y-58496525D01*
X31125600Y-61759125D02*
X41813400Y-61759125D01*
%TO.N,Net-(LED27-DOUT)*%
X23015812Y-63900000D02*
X25384725Y-63900000D01*
X12075200Y-52233925D02*
X12515200Y-52233925D01*
X22225000Y-61943725D02*
X22225000Y-63109188D01*
X25384725Y-63900000D02*
X26025600Y-63259125D01*
X22225000Y-63109188D02*
X23015812Y-63900000D01*
X12515200Y-52233925D02*
X22225000Y-61943725D01*
%TO.N,/row2DOut*%
X6393900Y-72784325D02*
X5953250Y-73224975D01*
X5939225Y-54769900D02*
X6975200Y-53733925D01*
X6975200Y-72784325D02*
X6393900Y-72784325D01*
X5357925Y-54769900D02*
X5939225Y-54769900D01*
%TO.N,Net-(LED29-DOUT)*%
X22225000Y-82159188D02*
X23015812Y-82950000D01*
X18767268Y-77536393D02*
X18767268Y-77889946D01*
X12515200Y-71284325D02*
X18767268Y-77536393D01*
X18767268Y-77889946D02*
X22225000Y-81347678D01*
X25385125Y-82950000D02*
X26025600Y-82309525D01*
X12075200Y-71284325D02*
X12515200Y-71284325D01*
X23015812Y-82950000D02*
X25385125Y-82950000D01*
X22225000Y-81347678D02*
X22225000Y-82159188D01*
%TO.N,Net-(LED30-DOUT)*%
X31125600Y-80809525D02*
X41813400Y-80809525D01*
X41813400Y-80809525D02*
X45076000Y-77546925D01*
%TO.N,Net-(LED31-DOUT)*%
X60863800Y-76046925D02*
X64126400Y-72784325D01*
X50176000Y-76046925D02*
X60863800Y-76046925D01*
%TO.N,Net-(LED32-DOUT)*%
X76569575Y-78187500D02*
X82536225Y-78187500D01*
X69226400Y-71284325D02*
X69666400Y-71284325D01*
X82536225Y-78187500D02*
X83176800Y-77546925D01*
X69666400Y-71284325D02*
X76569575Y-78187500D01*
%TO.N,Net-(LED33-DOUT)*%
X88716800Y-76046925D02*
X88276800Y-76046925D01*
X101586625Y-78187500D02*
X90857375Y-78187500D01*
X90857375Y-78187500D02*
X88716800Y-76046925D01*
X102227200Y-77546925D02*
X101586625Y-78187500D01*
%TO.N,Net-(LED34-DOUT)*%
X108944475Y-75606275D02*
X107767850Y-75606275D01*
X95420700Y-95097325D02*
X99264600Y-95097325D01*
X99419275Y-95252000D02*
X106563175Y-95252000D01*
X107767850Y-75606275D02*
X107327200Y-76046925D01*
X99264600Y-95097325D02*
X99419275Y-95252000D01*
%TO.N,Net-(LED37-DOUT)*%
X72047700Y-95097325D02*
X74187875Y-97237500D01*
X74187875Y-97237500D02*
X89680525Y-97237500D01*
X71607700Y-95097325D02*
X72047700Y-95097325D01*
X89680525Y-97237500D02*
X90320700Y-96597325D01*
%TO.N,Net-(LED38-DOUT)*%
X53151975Y-97633300D02*
X65471725Y-97633300D01*
X65471725Y-97633300D02*
X66507700Y-96597325D01*
X50176000Y-95097325D02*
X50616000Y-95097325D01*
X50616000Y-95097325D02*
X53151975Y-97633300D01*
%TO.N,Net-(LED39-DOUT)*%
X13125200Y-90334725D02*
X20337800Y-97547325D01*
X44126000Y-97547325D02*
X45076000Y-96597325D01*
X20337800Y-97547325D02*
X44126000Y-97547325D01*
X12075200Y-90334725D02*
X13125200Y-90334725D01*
%TO.N,Net-(LED40-DOUT)*%
X128802800Y-98597325D02*
X130802800Y-96597325D01*
X6975200Y-92583253D02*
X12989272Y-98597325D01*
X6975200Y-91834725D02*
X6975200Y-92583253D01*
X12989272Y-98597325D02*
X128802800Y-98597325D01*
%TO.N,Net-(LED41-DOUT)*%
X136342800Y-95097325D02*
X138482975Y-97237500D01*
X135902800Y-95097325D02*
X136342800Y-95097325D01*
X173026025Y-97237500D02*
X173666200Y-96597325D01*
X138482975Y-97237500D02*
X173026025Y-97237500D01*
%TO.N,/row3DOut*%
X178766200Y-95097325D02*
X179206200Y-95097325D01*
X194457725Y-97237500D02*
X195097900Y-96597325D01*
X181346375Y-97237500D02*
X194457725Y-97237500D01*
X179206200Y-95097325D02*
X181346375Y-97237500D01*
%TO.N,Net-(LED43-DOUT)*%
X203087900Y-97547325D02*
X215579600Y-97547325D01*
X200197900Y-95097325D02*
X200637900Y-95097325D01*
X215579600Y-97547325D02*
X216529600Y-96597325D01*
X200637900Y-95097325D02*
X203087900Y-97547325D01*
%TO.N,Net-(LED44-DOUT)*%
X235248771Y-95097325D02*
X251367800Y-95097325D01*
X221629600Y-95097325D02*
X222069600Y-95097325D01*
X251367800Y-95097325D02*
X254630400Y-91834725D01*
X222069600Y-95097325D02*
X223024275Y-96052000D01*
X223024275Y-96052000D02*
X234294096Y-96052000D01*
X234294096Y-96052000D02*
X235248771Y-95097325D01*
%TO.N,Net-(LED45-DOUT)*%
X260075000Y-89990125D02*
X260075000Y-80450900D01*
X260075000Y-80450900D02*
X261402350Y-79123550D01*
X260170400Y-72474975D02*
X259730400Y-72474975D01*
X261402350Y-79123550D02*
X261402350Y-73706925D01*
X261402350Y-73706925D02*
X260170400Y-72474975D01*
X259730400Y-90334725D02*
X260075000Y-89990125D01*
%TO.N,Net-(LED46-DOUT)*%
X253413125Y-83540825D02*
X255231872Y-81722078D01*
X248818575Y-88508100D02*
X251086361Y-88508100D01*
X254630400Y-74723503D02*
X254630400Y-73974975D01*
X240680000Y-80809525D02*
X241120000Y-80809525D01*
X255231872Y-81722078D02*
X255231872Y-75324975D01*
X253413125Y-86181336D02*
X253413125Y-83540825D01*
X251086361Y-88508100D02*
X253413125Y-86181336D01*
X255231872Y-75324975D02*
X254630400Y-74723503D01*
X241120000Y-80809525D02*
X248818575Y-88508100D01*
%TO.N,Net-(LED47-DOUT)*%
X221629600Y-76046925D02*
X222069600Y-76046925D01*
X228972675Y-82950000D02*
X234939525Y-82950000D01*
X234939525Y-82950000D02*
X235580000Y-82309525D01*
X222069600Y-76046925D02*
X228972675Y-82950000D01*
%TO.N,Net-(LED48-DOUT)*%
X203019200Y-71284325D02*
X209922375Y-78187500D01*
X209922375Y-78187500D02*
X215889025Y-78187500D01*
X215889025Y-78187500D02*
X216529600Y-77546925D01*
X202579200Y-71284325D02*
X203019200Y-71284325D01*
%TO.N,Net-(LED51-DOUT)*%
X194216600Y-76046925D02*
X197479200Y-72784325D01*
X183528800Y-76046925D02*
X194216600Y-76046925D01*
%TO.N,Net-(LED52-DOUT)*%
X177788225Y-78187500D02*
X168676900Y-78187500D01*
X178428800Y-77546925D02*
X177788225Y-78187500D01*
X166536325Y-76046925D02*
X164478400Y-76046925D01*
X168676900Y-78187500D02*
X166536325Y-76046925D01*
%TO.N,Net-(LED53-DOUT)*%
X159378400Y-77546925D02*
X158201775Y-77546925D01*
X157761125Y-77987575D02*
X157761125Y-78582900D01*
X158201775Y-77546925D02*
X157761125Y-77987575D01*
X158342425Y-59532500D02*
X159378400Y-58496525D01*
X157761125Y-59532500D02*
X158342425Y-59532500D01*
%TO.N,Net-(LED54-DOUT)*%
X177787825Y-59137500D02*
X178428800Y-58496525D01*
X164478400Y-56996525D02*
X164918400Y-56996525D01*
X167059375Y-59137500D02*
X177787825Y-59137500D01*
X164918400Y-56996525D02*
X167059375Y-59137500D01*
%TO.N,Net-(LED55-DOUT)*%
X194216600Y-56996525D02*
X197479200Y-53733925D01*
X183528800Y-56996525D02*
X194216600Y-56996525D01*
%TO.N,/row4DOut*%
X215888625Y-59137500D02*
X216529600Y-58496525D01*
X203019200Y-52233925D02*
X209922775Y-59137500D01*
X209922775Y-59137500D02*
X215888625Y-59137500D01*
X202579200Y-52233925D02*
X203019200Y-52233925D01*
%TO.N,Net-(LED57-DOUT)*%
X222069600Y-56996525D02*
X228973075Y-63900000D01*
X228973075Y-63900000D02*
X234939125Y-63900000D01*
X234939125Y-63900000D02*
X235580000Y-63259125D01*
X221629600Y-56996525D02*
X222069600Y-56996525D01*
%TO.N,Net-(LED59-DOUT)*%
X251531250Y-68536960D02*
X251531250Y-68128636D01*
X240680000Y-61759125D02*
X240981589Y-61759125D01*
X254190400Y-53733925D02*
X254630400Y-53733925D01*
X247993739Y-68771275D02*
X251296935Y-68771275D01*
X251296935Y-68771275D02*
X251531250Y-68536960D01*
X240981589Y-61759125D02*
X247993739Y-68771275D01*
X251531250Y-68128636D02*
X251627150Y-68032736D01*
X251627150Y-68032736D02*
X251627150Y-56297175D01*
X251627150Y-56297175D02*
X254190400Y-53733925D01*
%TO.N,Net-(LED60-DOUT)*%
X260907025Y-52233925D02*
X261347675Y-51793275D01*
X261347675Y-33338200D02*
X259885075Y-33338200D01*
X259885075Y-33338200D02*
X259730400Y-33183525D01*
X259730400Y-52233925D02*
X260907025Y-52233925D01*
%TO.N,Net-(LED61-DOUT)*%
X253950375Y-34683525D02*
X254630400Y-34683525D01*
X245925175Y-42708725D02*
X253950375Y-34683525D01*
X240680000Y-42708725D02*
X245925175Y-42708725D01*
%TO.N,Net-(LED63-DOUT)*%
X221629600Y-37946125D02*
X222069600Y-37946125D01*
X234938725Y-44850000D02*
X235580000Y-44208725D01*
X222069600Y-37946125D02*
X228973475Y-44850000D01*
X228973475Y-44850000D02*
X234938725Y-44850000D01*
%TO.N,Net-(LED66-DOUT)*%
X203019200Y-33183525D02*
X209923175Y-40087500D01*
X209923175Y-40087500D02*
X215888225Y-40087500D01*
X202579200Y-33183525D02*
X203019200Y-33183525D01*
X215888225Y-40087500D02*
X216529600Y-39446125D01*
%TO.N,Net-(LED67-DOUT)*%
X194216600Y-37946125D02*
X197479200Y-34683525D01*
X183528800Y-37946125D02*
X194216600Y-37946125D01*
%TO.N,Net-(LED68-DOUT)*%
X164918400Y-37946125D02*
X167059775Y-40087500D01*
X164478400Y-37946125D02*
X164918400Y-37946125D01*
X167059775Y-40087500D02*
X177787425Y-40087500D01*
X177787425Y-40087500D02*
X178428800Y-39446125D01*
%TO.N,COL0*%
X114497725Y-17459750D02*
X120796300Y-23758325D01*
X120796300Y-23758325D02*
X120796300Y-24408325D01*
X25415250Y-17459750D02*
X114497725Y-17459750D01*
X18100000Y-5725000D02*
X18088000Y-5725000D01*
X18100000Y-24775000D02*
X25415250Y-17459750D01*
X18088000Y-5725000D02*
X17859750Y-5953250D01*
%TO.N,COL1*%
X114302400Y-1401275D02*
X45886373Y-1401275D01*
X44762648Y-5725000D02*
X37150000Y-5725000D01*
X114302400Y-8929875D02*
X114302400Y-7739225D01*
X45650000Y-4837648D02*
X44762648Y-5725000D01*
X37150000Y-72389800D02*
X37505475Y-72034325D01*
X114302400Y-1401275D02*
X114950000Y-2048875D01*
X132400000Y-5725000D02*
X128076275Y-1401275D01*
X45650000Y-1637648D02*
X45650000Y-4837648D01*
X114950000Y-2048875D02*
X114950000Y-8282275D01*
X128076275Y-1401275D02*
X114302400Y-1401275D01*
X45886373Y-1401275D02*
X45650000Y-1637648D01*
X37150000Y-72400000D02*
X37150000Y-72389800D01*
X114950000Y-8282275D02*
X114302400Y-8929875D01*
%TO.N,COL2*%
X56200000Y-5725000D02*
X56200000Y-5597375D01*
X56200000Y-5597375D02*
X55960550Y-5357925D01*
X119496300Y-23053650D02*
X119496300Y-24454086D01*
X57746525Y-17859750D02*
X114302400Y-17859750D01*
X57151200Y-18455075D02*
X57746525Y-17859750D01*
X114302400Y-17859750D02*
X119496300Y-23053650D01*
%TO.N,COL3*%
X118469675Y-22622350D02*
X118469675Y-24408325D01*
X77631250Y-86561125D02*
X77392250Y-86322125D01*
X77631250Y-86687500D02*
X77631250Y-86561125D01*
X76201600Y-19050400D02*
X114897725Y-19050400D01*
X114897725Y-19050400D02*
X118469675Y-22622350D01*
%TO.N,COL4*%
X94300000Y-5725000D02*
X94289600Y-5725000D01*
X104808175Y-86687500D02*
X123232275Y-68263400D01*
X94289600Y-5725000D02*
X94061350Y-5953250D01*
X101443750Y-86687500D02*
X104808175Y-86687500D01*
%TO.N,COL5*%
X126040900Y-70803400D02*
X123232275Y-70803400D01*
X141925000Y-86687500D02*
X126040900Y-70803400D01*
%TO.N,COL10*%
X206577775Y-19050400D02*
X205982450Y-18455075D01*
X228009475Y-18455075D02*
X227414150Y-19050400D01*
X242650000Y-1675000D02*
X246700000Y-5725000D01*
X147045275Y-18455075D02*
X146449950Y-19050400D01*
X205982450Y-18455075D02*
X147045275Y-18455075D01*
X245869225Y-18455075D02*
X228009475Y-18455075D01*
X167770675Y-1675000D02*
X242650000Y-1675000D01*
X227414150Y-19050400D02*
X206577775Y-19050400D01*
X151450000Y-5725000D02*
X163720675Y-5725000D01*
X246700000Y-72400000D02*
X246694200Y-72400000D01*
X246694200Y-72400000D02*
X246464550Y-72629650D01*
X163720675Y-5725000D02*
X167770675Y-1675000D01*
%TO.N,COL6*%
X168650000Y-46737500D02*
X170500000Y-48587500D01*
X147488175Y-49087500D02*
X163808705Y-49087500D01*
X184791200Y-86562575D02*
X184550750Y-86322125D01*
X184791200Y-86687500D02*
X184791200Y-86562575D01*
X163808705Y-49087500D02*
X166158705Y-46737500D01*
X143552275Y-53023400D02*
X147488175Y-49087500D01*
X166158705Y-46737500D02*
X168650000Y-46737500D01*
%TO.N,COL7*%
X148235400Y-60246525D02*
X182159025Y-60246525D01*
X182159025Y-60246525D02*
X189550000Y-67637500D01*
X189550000Y-5725000D02*
X189541600Y-5725000D01*
X189541600Y-5725000D02*
X189313350Y-5953250D01*
X143552275Y-55563400D02*
X148235400Y-60246525D01*
%TO.N,COL8*%
X145259300Y-17859750D02*
X145854625Y-17264425D01*
X145854625Y-17264425D02*
X207227775Y-17264425D01*
X227650000Y-86687500D02*
X227650000Y-86557975D01*
X227650000Y-86557975D02*
X227414150Y-86322125D01*
X207227775Y-17264425D02*
X207768425Y-17805075D01*
%TO.N,COL9*%
X226764150Y-18455075D02*
X226818825Y-18400400D01*
X146449950Y-17859750D02*
X206577775Y-17859750D01*
X227650000Y-67637500D02*
X227650000Y-67507575D01*
X206577775Y-17859750D02*
X207173100Y-18455075D01*
X145854625Y-18455075D02*
X146449950Y-17859750D01*
X227650000Y-67507575D02*
X227414150Y-67271725D01*
X207173100Y-18455075D02*
X226764150Y-18455075D01*
%TO.N,COL11*%
X147240600Y-19450400D02*
X247585890Y-19450400D01*
X265750000Y-81925000D02*
X265750000Y-81794575D01*
X247585890Y-19450400D02*
X247985890Y-19050400D01*
X265750000Y-81794575D02*
X265514950Y-81559525D01*
X247985890Y-19050400D02*
X258966375Y-19050400D01*
X147045275Y-19645725D02*
X147240600Y-19450400D01*
%TO.N,Net-(A1-SCL)*%
X270218196Y-19645725D02*
X270218196Y-94001996D01*
X145854625Y-98823950D02*
X145793175Y-98762500D01*
X270277550Y-94061350D02*
X265514950Y-98823950D01*
X265514950Y-98823950D02*
X145854625Y-98823950D01*
X270218196Y-94001996D02*
X270277550Y-94061350D01*
%TO.N,Net-(A1-SDA)*%
X270868200Y-15910400D02*
X269682225Y-14724425D01*
X144863975Y-99412500D02*
X266117050Y-99412500D01*
X270868200Y-94661350D02*
X270868200Y-15910400D01*
X270868200Y-11629450D02*
X270862500Y-11623750D01*
X144663975Y-99212500D02*
X144863975Y-99412500D01*
X266117050Y-99412500D02*
X270868200Y-94661350D01*
%TD*%
M02*
