%TF.GenerationSoftware,KiCad,Pcbnew,8.0.3*%
%TF.CreationDate,2024-11-08T10:21:23-08:00*%
%TF.ProjectId,return,72657475-726e-42e6-9b69-6361645f7063,rev?*%
%TF.SameCoordinates,Original*%
%TF.FileFunction,Soldermask,Bot*%
%TF.FilePolarity,Negative*%
%FSLAX46Y46*%
G04 Gerber Fmt 4.6, Leading zero omitted, Abs format (unit mm)*
G04 Created by KiCad (PCBNEW 8.0.3) date 2024-11-08 10:21:23*
%MOMM*%
%LPD*%
G01*
G04 APERTURE LIST*
G04 Aperture macros list*
%AMRoundRect*
0 Rectangle with rounded corners*
0 $1 Rounding radius*
0 $2 $3 $4 $5 $6 $7 $8 $9 X,Y pos of 4 corners*
0 Add a 4 corners polygon primitive as box body*
4,1,4,$2,$3,$4,$5,$6,$7,$8,$9,$2,$3,0*
0 Add four circle primitives for the rounded corners*
1,1,$1+$1,$2,$3*
1,1,$1+$1,$4,$5*
1,1,$1+$1,$6,$7*
1,1,$1+$1,$8,$9*
0 Add four rect primitives between the rounded corners*
20,1,$1+$1,$2,$3,$4,$5,0*
20,1,$1+$1,$4,$5,$6,$7,0*
20,1,$1+$1,$6,$7,$8,$9,0*
20,1,$1+$1,$8,$9,$2,$3,0*%
G04 Aperture macros list end*
%ADD10C,2.200000*%
%ADD11R,1.650000X0.820000*%
%ADD12RoundRect,0.205000X-0.620000X-0.205000X0.620000X-0.205000X0.620000X0.205000X-0.620000X0.205000X0*%
%ADD13RoundRect,0.205000X0.620000X0.205000X-0.620000X0.205000X-0.620000X-0.205000X0.620000X-0.205000X0*%
%ADD14R,1.700000X1.700000*%
%ADD15O,1.700000X1.700000*%
%ADD16RoundRect,0.250000X-1.050000X-0.550000X1.050000X-0.550000X1.050000X0.550000X-1.050000X0.550000X0*%
%ADD17O,2.600000X1.600000*%
%ADD18R,1.600000X1.600000*%
%ADD19O,1.600000X1.600000*%
%ADD20C,3.000000*%
%ADD21C,5.000000*%
%ADD22O,1.500000X2.000000*%
%ADD23RoundRect,0.200000X-1.100000X-1.100000X1.100000X-1.100000X1.100000X1.100000X-1.100000X1.100000X0*%
G04 APERTURE END LIST*
D10*
%TO.C,REF\u002A\u002A*%
X238130000Y-24408325D03*
%TD*%
%TO.C,REF\u002A\u002A*%
X28575600Y-23813000D03*
%TD*%
D11*
%TO.C,LED59*%
X240755000Y-61759125D03*
D12*
X235505000Y-61759125D03*
D11*
X235505000Y-63259125D03*
X240755000Y-63259125D03*
%TD*%
%TO.C,LED0*%
X254555400Y-15478450D03*
D13*
X259805400Y-15478450D03*
D11*
X259805400Y-13978450D03*
X254555400Y-13978450D03*
%TD*%
%TO.C,LED34*%
X107402200Y-76046925D03*
D12*
X102152200Y-76046925D03*
D11*
X102152200Y-77546925D03*
X107402200Y-77546925D03*
%TD*%
%TO.C,LED63*%
X235505000Y-44208725D03*
D13*
X240755000Y-44208725D03*
D11*
X240755000Y-42708725D03*
X235505000Y-42708725D03*
%TD*%
%TO.C,LED39*%
X45001000Y-96597325D03*
D13*
X50251000Y-96597325D03*
D11*
X50251000Y-95097325D03*
X45001000Y-95097325D03*
%TD*%
%TO.C,LED31*%
X50251000Y-76046925D03*
D12*
X45001000Y-76046925D03*
D11*
X45001000Y-77546925D03*
X50251000Y-77546925D03*
%TD*%
%TO.C,LED30*%
X31200600Y-80809525D03*
D12*
X25950600Y-80809525D03*
D11*
X25950600Y-82309525D03*
X31200600Y-82309525D03*
%TD*%
%TO.C,LED20*%
X107402200Y-37946125D03*
D12*
X102152200Y-37946125D03*
D11*
X102152200Y-39446125D03*
X107402200Y-39446125D03*
%TD*%
%TO.C,LED40*%
X6900200Y-91834725D03*
D13*
X12150200Y-91834725D03*
D11*
X12150200Y-90334725D03*
X6900200Y-90334725D03*
%TD*%
%TO.C,LED32*%
X69301400Y-71284325D03*
D12*
X64051400Y-71284325D03*
D11*
X64051400Y-72784325D03*
X69301400Y-72784325D03*
%TD*%
%TO.C,LED48*%
X216454600Y-77546925D03*
D13*
X221704600Y-77546925D03*
D11*
X221704600Y-76046925D03*
X216454600Y-76046925D03*
%TD*%
%TO.C,LED45*%
X259805400Y-90334725D03*
D12*
X254555400Y-90334725D03*
D11*
X254555400Y-91834725D03*
X259805400Y-91834725D03*
%TD*%
%TO.C,LED37*%
X90245700Y-96597325D03*
D13*
X95495700Y-96597325D03*
D11*
X95495700Y-95097325D03*
X90245700Y-95097325D03*
%TD*%
%TO.C,LED67*%
X197404200Y-34683525D03*
D13*
X202654200Y-34683525D03*
D11*
X202654200Y-33183525D03*
X197404200Y-33183525D03*
%TD*%
%TO.C,LED43*%
X200272900Y-95097325D03*
D12*
X195022900Y-95097325D03*
D11*
X195022900Y-96597325D03*
X200272900Y-96597325D03*
%TD*%
%TO.C,LED13*%
X25950600Y-15633125D03*
D13*
X31200600Y-15633125D03*
D11*
X31200600Y-14133125D03*
X25950600Y-14133125D03*
%TD*%
%TO.C,LED11*%
X64051400Y-15478450D03*
D13*
X69301400Y-15478450D03*
D11*
X69301400Y-13978450D03*
X64051400Y-13978450D03*
%TD*%
%TO.C,LED61*%
X254555400Y-34683525D03*
D13*
X259805400Y-34683525D03*
D11*
X259805400Y-33183525D03*
X254555400Y-33183525D03*
%TD*%
%TO.C,LED4*%
X197404200Y-15478450D03*
D13*
X202654200Y-15478450D03*
D11*
X202654200Y-13978450D03*
X197404200Y-13978450D03*
%TD*%
%TO.C,LED23*%
X102152200Y-58496525D03*
D13*
X107402200Y-58496525D03*
D11*
X107402200Y-56996525D03*
X102152200Y-56996525D03*
%TD*%
%TO.C,LED29*%
X12150200Y-71284325D03*
D12*
X6900200Y-71284325D03*
D11*
X6900200Y-72784325D03*
X12150200Y-72784325D03*
%TD*%
%TO.C,LED17*%
X50251000Y-37946125D03*
D12*
X45001000Y-37946125D03*
D11*
X45001000Y-39446125D03*
X50251000Y-39446125D03*
%TD*%
%TO.C,LED53*%
X159303400Y-77546925D03*
D13*
X164553400Y-77546925D03*
D11*
X164553400Y-76046925D03*
X159303400Y-76046925D03*
%TD*%
%TO.C,LED51*%
X197404200Y-72784325D03*
D13*
X202654200Y-72784325D03*
D11*
X202654200Y-71284325D03*
X197404200Y-71284325D03*
%TD*%
%TO.C,LED7*%
X140253000Y-15478450D03*
D13*
X145503000Y-15478450D03*
D11*
X145503000Y-13978450D03*
X140253000Y-13978450D03*
%TD*%
%TO.C,LED19*%
X88351800Y-37946125D03*
D12*
X83101800Y-37946125D03*
D11*
X83101800Y-39446125D03*
X88351800Y-39446125D03*
%TD*%
%TO.C,LED26*%
X45001000Y-58496525D03*
D13*
X50251000Y-58496525D03*
D11*
X50251000Y-56996525D03*
X45001000Y-56996525D03*
%TD*%
D14*
%TO.C,J1*%
X269682225Y-9644425D03*
D15*
X269682225Y-12184425D03*
X269682225Y-14724425D03*
X269682225Y-17264425D03*
%TD*%
D11*
%TO.C,LED57*%
X221704600Y-56996525D03*
D12*
X216454600Y-56996525D03*
D11*
X216454600Y-58496525D03*
X221704600Y-58496525D03*
%TD*%
%TO.C,LED47*%
X235505000Y-82309525D03*
D13*
X240755000Y-82309525D03*
D11*
X240755000Y-80809525D03*
X235505000Y-80809525D03*
%TD*%
%TO.C,LED54*%
X164553400Y-56996525D03*
D12*
X159303400Y-56996525D03*
D11*
X159303400Y-58496525D03*
X164553400Y-58496525D03*
%TD*%
%TO.C,LED3*%
X216454600Y-15478450D03*
D13*
X221704600Y-15478450D03*
D11*
X221704600Y-13978450D03*
X216454600Y-13978450D03*
%TD*%
%TO.C,LED10*%
X83101800Y-15478450D03*
D13*
X88351800Y-15478450D03*
D11*
X88351800Y-13978450D03*
X83101800Y-13978450D03*
%TD*%
D16*
%TO.C,A1*%
X123532275Y-35243400D03*
D17*
X123532275Y-37783400D03*
X123532275Y-40323400D03*
X123532275Y-42863400D03*
X123532275Y-45403400D03*
X123532275Y-47943400D03*
X123532275Y-50483400D03*
X123532275Y-53023400D03*
X123532275Y-55563400D03*
X123532275Y-58103400D03*
X123532275Y-60643400D03*
X123532275Y-63183400D03*
X123532275Y-65723400D03*
X123532275Y-68263400D03*
X123532275Y-70803400D03*
X123532275Y-73343400D03*
X143252275Y-73343400D03*
X143252275Y-70803400D03*
X143252275Y-68263400D03*
X143252275Y-65723400D03*
X143252275Y-63183400D03*
X143252275Y-60643400D03*
X143252275Y-58103400D03*
X143252275Y-55563400D03*
X143252275Y-53023400D03*
X143252275Y-50483400D03*
X143252275Y-47943400D03*
X143252275Y-45403400D03*
%TD*%
D11*
%TO.C,LED66*%
X216454600Y-39446125D03*
D13*
X221704600Y-39446125D03*
D11*
X221704600Y-37946125D03*
X216454600Y-37946125D03*
%TD*%
%TO.C,LED70*%
X159303400Y-39446125D03*
D13*
X164553400Y-39446125D03*
D11*
X164553400Y-37946125D03*
X159303400Y-37946125D03*
%TD*%
%TO.C,LED46*%
X254555400Y-73974975D03*
D13*
X259805400Y-73974975D03*
D11*
X259805400Y-72474975D03*
X254555400Y-72474975D03*
%TD*%
%TO.C,LED9*%
X102152200Y-15478450D03*
D13*
X107402200Y-15478450D03*
D11*
X107402200Y-13978450D03*
X102152200Y-13978450D03*
%TD*%
%TO.C,LED2*%
X235505000Y-15478450D03*
D13*
X240755000Y-15478450D03*
D11*
X240755000Y-13978450D03*
X235505000Y-13978450D03*
%TD*%
%TO.C,LED27*%
X25950600Y-63259125D03*
D13*
X31200600Y-63259125D03*
D11*
X31200600Y-61759125D03*
X25950600Y-61759125D03*
%TD*%
%TO.C,LED42*%
X178841200Y-95097325D03*
D12*
X173591200Y-95097325D03*
D11*
X173591200Y-96597325D03*
X178841200Y-96597325D03*
%TD*%
%TO.C,LED5*%
X178353800Y-15478450D03*
D13*
X183603800Y-15478450D03*
D11*
X183603800Y-13978450D03*
X178353800Y-13978450D03*
%TD*%
%TO.C,LED41*%
X135977800Y-95097325D03*
D12*
X130727800Y-95097325D03*
D11*
X130727800Y-96597325D03*
X135977800Y-96597325D03*
%TD*%
%TO.C,LED16*%
X31200600Y-42708725D03*
D12*
X25950600Y-42708725D03*
D11*
X25950600Y-44208725D03*
X31200600Y-44208725D03*
%TD*%
%TO.C,LED55*%
X183603800Y-56996525D03*
D12*
X178353800Y-56996525D03*
D11*
X178353800Y-58496525D03*
X183603800Y-58496525D03*
%TD*%
%TO.C,LED15*%
X12150200Y-33183525D03*
D12*
X6900200Y-33183525D03*
D11*
X6900200Y-34683525D03*
X12150200Y-34683525D03*
%TD*%
%TO.C,LED60*%
X259805400Y-52233925D03*
D12*
X254555400Y-52233925D03*
D11*
X254555400Y-53733925D03*
X259805400Y-53733925D03*
%TD*%
%TO.C,LED12*%
X45001000Y-15478450D03*
D13*
X50251000Y-15478450D03*
D11*
X50251000Y-13978450D03*
X45001000Y-13978450D03*
%TD*%
%TO.C,LED28*%
X6900200Y-53733925D03*
D13*
X12150200Y-53733925D03*
D11*
X12150200Y-52233925D03*
X6900200Y-52233925D03*
%TD*%
%TO.C,LED38*%
X66432700Y-96597325D03*
D13*
X71682700Y-96597325D03*
D11*
X71682700Y-95097325D03*
X66432700Y-95097325D03*
%TD*%
%TO.C,LED24*%
X83101800Y-58496525D03*
D13*
X88351800Y-58496525D03*
D11*
X88351800Y-56996525D03*
X83101800Y-56996525D03*
%TD*%
%TO.C,LED44*%
X221704600Y-95097325D03*
D12*
X216454600Y-95097325D03*
D11*
X216454600Y-96597325D03*
X221704600Y-96597325D03*
%TD*%
%TO.C,LED52*%
X178353800Y-77546925D03*
D13*
X183603800Y-77546925D03*
D11*
X183603800Y-76046925D03*
X178353800Y-76046925D03*
%TD*%
%TO.C,LED14*%
X6900200Y-15633125D03*
D13*
X12150200Y-15633125D03*
D11*
X12150200Y-14133125D03*
X6900200Y-14133125D03*
%TD*%
%TO.C,LED56*%
X202654200Y-52233925D03*
D12*
X197404200Y-52233925D03*
D11*
X197404200Y-53733925D03*
X202654200Y-53733925D03*
%TD*%
%TO.C,LED6*%
X159303400Y-15478450D03*
D13*
X164553400Y-15478450D03*
D11*
X164553400Y-13978450D03*
X159303400Y-13978450D03*
%TD*%
%TO.C,LED25*%
X64051400Y-53733925D03*
D13*
X69301400Y-53733925D03*
D11*
X69301400Y-52233925D03*
X64051400Y-52233925D03*
%TD*%
%TO.C,LED68*%
X178353800Y-39446125D03*
D13*
X183603800Y-39446125D03*
D11*
X183603800Y-37946125D03*
X178353800Y-37946125D03*
%TD*%
%TO.C,LED33*%
X88351800Y-76046925D03*
D12*
X83101800Y-76046925D03*
D11*
X83101800Y-77546925D03*
X88351800Y-77546925D03*
%TD*%
%TO.C,LED8*%
X121202600Y-15478450D03*
D13*
X126452600Y-15478450D03*
D11*
X126452600Y-13978450D03*
X121202600Y-13978450D03*
%TD*%
%TO.C,LED18*%
X69301400Y-33183525D03*
D12*
X64051400Y-33183525D03*
D11*
X64051400Y-34683525D03*
X69301400Y-34683525D03*
%TD*%
D18*
%TO.C,D13*%
X192881250Y-10597525D03*
D19*
X192881250Y-2977525D03*
%TD*%
D18*
%TO.C,D2*%
X21431250Y-10121275D03*
D19*
X21431250Y-2501275D03*
%TD*%
D20*
%TO.C,SW7*%
X90725000Y-5725000D03*
D21*
X85725000Y-9525000D03*
D20*
X85725000Y-3525000D03*
D22*
X80725000Y-14675000D03*
D23*
X94300000Y-5725000D03*
X82150000Y-3525000D03*
%TD*%
D20*
%TO.C,SW28*%
X52625000Y-29537500D03*
D21*
X47625000Y-33337500D03*
D20*
X47625000Y-27337500D03*
D22*
X42625000Y-38487500D03*
D23*
X56200000Y-29537500D03*
X44050000Y-27337500D03*
%TD*%
D20*
%TO.C,SW14*%
X224075000Y-5725000D03*
D21*
X219075000Y-9525000D03*
D20*
X219075000Y-3525000D03*
D22*
X214075000Y-14675000D03*
D23*
X227650000Y-5725000D03*
X215500000Y-3525000D03*
%TD*%
D20*
%TO.C,SW58*%
X138350000Y-86687500D03*
D21*
X133350000Y-90487500D03*
D20*
X133350000Y-84487500D03*
D22*
X128350000Y-95637500D03*
D23*
X141925000Y-86687500D03*
X129775000Y-84487500D03*
%TD*%
D20*
%TO.C,SW55*%
X52625000Y-86687500D03*
D21*
X47625000Y-90487500D03*
D20*
X47625000Y-84487500D03*
D22*
X42625000Y-95637500D03*
D23*
X56200000Y-86687500D03*
X44050000Y-84487500D03*
%TD*%
D20*
%TO.C,SW8*%
X109775000Y-5725000D03*
D21*
X104775000Y-9525000D03*
D20*
X104775000Y-3525000D03*
D22*
X99775000Y-14675000D03*
D23*
X113350000Y-5725000D03*
X101200000Y-3525000D03*
%TD*%
D18*
%TO.C,D17*%
X2381250Y-29647525D03*
D19*
X2381250Y-22027525D03*
%TD*%
D20*
%TO.C,SW51*%
X224075000Y-67637500D03*
D21*
X219075000Y-71437500D03*
D20*
X219075000Y-65437500D03*
D22*
X214075000Y-76587500D03*
D23*
X227650000Y-67637500D03*
X215500000Y-65437500D03*
%TD*%
D20*
%TO.C,SW61*%
X224075000Y-86687500D03*
D21*
X219075000Y-90487500D03*
D20*
X219075000Y-84487500D03*
D22*
X214075000Y-95637500D03*
D23*
X227650000Y-86687500D03*
X215500000Y-84487500D03*
%TD*%
D20*
%TO.C,SW27*%
X33575000Y-72400000D03*
D21*
X28575000Y-76200000D03*
D20*
X28575000Y-70200000D03*
D22*
X23575000Y-81350000D03*
D23*
X37150000Y-72400000D03*
X25000000Y-70200000D03*
%TD*%
D18*
%TO.C,D42*%
X154781250Y-72510025D03*
D19*
X154781250Y-64890025D03*
%TD*%
D18*
%TO.C,D53*%
X230981250Y-58222525D03*
D19*
X230981250Y-50602525D03*
%TD*%
D18*
%TO.C,D23*%
X250031250Y-67271275D03*
D19*
X250031250Y-59651275D03*
%TD*%
D18*
%TO.C,D44*%
X173831250Y-53460025D03*
D19*
X173831250Y-45840025D03*
%TD*%
D18*
%TO.C,D26*%
X21431250Y-58222525D03*
D19*
X21431250Y-50602525D03*
%TD*%
D18*
%TO.C,D45*%
X173831250Y-72510025D03*
D19*
X173831250Y-64890025D03*
%TD*%
D18*
%TO.C,D34*%
X78581250Y-34410025D03*
D19*
X78581250Y-26790025D03*
%TD*%
D18*
%TO.C,D24*%
X250031250Y-86797525D03*
D19*
X250031250Y-79177525D03*
%TD*%
D20*
%TO.C,SW19*%
X14525000Y-62875000D03*
D21*
X9525000Y-66675000D03*
D20*
X9525000Y-60675000D03*
D22*
X4525000Y-71825000D03*
D23*
X18100000Y-62875000D03*
X5950000Y-60675000D03*
%TD*%
D20*
%TO.C,SW24*%
X262175000Y-81925000D03*
D21*
X257175000Y-85725000D03*
D20*
X257175000Y-79725000D03*
D22*
X252175000Y-90875000D03*
D23*
X265750000Y-81925000D03*
X253600000Y-79725000D03*
%TD*%
D20*
%TO.C,SW60*%
X202647700Y-86689200D03*
D21*
X197647700Y-90489200D03*
D20*
X197647700Y-84489200D03*
D22*
X192647700Y-95639200D03*
D23*
X206222700Y-86689200D03*
X194072700Y-84489200D03*
%TD*%
D20*
%TO.C,SW3*%
X14525000Y-5725000D03*
D21*
X9525000Y-9525000D03*
D20*
X9525000Y-3525000D03*
D22*
X4525000Y-14675000D03*
D23*
X18100000Y-5725000D03*
X5950000Y-3525000D03*
%TD*%
D18*
%TO.C,D28*%
X40481250Y-34410025D03*
D19*
X40481250Y-26790025D03*
%TD*%
D18*
%TO.C,D39*%
X97631250Y-72510025D03*
D19*
X97631250Y-64890025D03*
%TD*%
D20*
%TO.C,SW22*%
X262175000Y-43825000D03*
D21*
X257175000Y-47625000D03*
D20*
X257175000Y-41625000D03*
D22*
X252175000Y-52775000D03*
D23*
X265750000Y-43825000D03*
X253600000Y-41625000D03*
%TD*%
D18*
%TO.C,D41*%
X154781250Y-53460025D03*
D19*
X154781250Y-45840025D03*
%TD*%
D20*
%TO.C,SW41*%
X166925000Y-48587500D03*
D21*
X161925000Y-52387500D03*
D20*
X161925000Y-46387500D03*
D22*
X156925000Y-57537500D03*
D23*
X170500000Y-48587500D03*
X158350000Y-46387500D03*
%TD*%
D20*
%TO.C,SW59*%
X181216200Y-86687500D03*
D21*
X176216200Y-90487500D03*
D20*
X176216200Y-84487500D03*
D22*
X171216200Y-95637500D03*
D23*
X184791200Y-86687500D03*
X172641200Y-84487500D03*
%TD*%
D20*
%TO.C,SW52*%
X243125000Y-34300000D03*
D21*
X238125000Y-38100000D03*
D20*
X238125000Y-32100000D03*
D22*
X233125000Y-43250000D03*
D23*
X246700000Y-34300000D03*
X234550000Y-32100000D03*
%TD*%
D18*
%TO.C,D56*%
X61912500Y-91560025D03*
D19*
X61912500Y-83940025D03*
%TD*%
D18*
%TO.C,D7*%
X78581250Y-10597525D03*
D19*
X78581250Y-2977525D03*
%TD*%
D20*
%TO.C,SW50*%
X224075000Y-48587500D03*
D21*
X219075000Y-52387500D03*
D20*
X219075000Y-46387500D03*
D22*
X214075000Y-57537500D03*
D23*
X227650000Y-48587500D03*
X215500000Y-46387500D03*
%TD*%
D18*
%TO.C,D6*%
X59531250Y-10121275D03*
D19*
X59531250Y-2501275D03*
%TD*%
D18*
%TO.C,D37*%
X97631250Y-34410025D03*
D19*
X97631250Y-26790025D03*
%TD*%
D18*
%TO.C,D14*%
X211931250Y-10597525D03*
D19*
X211931250Y-2977525D03*
%TD*%
D18*
%TO.C,D38*%
X97631250Y-53460025D03*
D19*
X97631250Y-45840025D03*
%TD*%
D18*
%TO.C,D25*%
X21431250Y-39172525D03*
D19*
X21431250Y-31552525D03*
%TD*%
D18*
%TO.C,D59*%
X169072450Y-91560025D03*
D19*
X169072450Y-83940025D03*
%TD*%
D18*
%TO.C,D57*%
X85725000Y-91560025D03*
D19*
X85725000Y-83940025D03*
%TD*%
D20*
%TO.C,SW15*%
X243125000Y-5725000D03*
D21*
X238125000Y-9525000D03*
D20*
X238125000Y-3525000D03*
D22*
X233125000Y-14675000D03*
D23*
X246700000Y-5725000D03*
X234550000Y-3525000D03*
%TD*%
D18*
%TO.C,D5*%
X40481250Y-10121275D03*
D19*
X40481250Y-2501275D03*
%TD*%
D18*
%TO.C,D49*%
X211931250Y-34410025D03*
D19*
X211931250Y-26790025D03*
%TD*%
D18*
%TO.C,D54*%
X230981250Y-77272525D03*
D19*
X230981250Y-69652525D03*
%TD*%
D18*
%TO.C,D61*%
X211931250Y-91560025D03*
D19*
X211931250Y-83940025D03*
%TD*%
D20*
%TO.C,SW4*%
X33575000Y-5725000D03*
D21*
X28575000Y-9525000D03*
D20*
X28575000Y-3525000D03*
D22*
X23575000Y-14675000D03*
D23*
X37150000Y-5725000D03*
X25000000Y-3525000D03*
%TD*%
D20*
%TO.C,SW49*%
X224075000Y-29537500D03*
D21*
X219075000Y-33337500D03*
D20*
X219075000Y-27337500D03*
D22*
X214075000Y-38487500D03*
D23*
X227650000Y-29537500D03*
X215500000Y-27337500D03*
%TD*%
D20*
%TO.C,SW43*%
X185975000Y-29537500D03*
D21*
X180975000Y-33337500D03*
D20*
X180975000Y-27337500D03*
D22*
X175975000Y-38487500D03*
D23*
X189550000Y-29537500D03*
X177400000Y-27337500D03*
%TD*%
D18*
%TO.C,D40*%
X154781250Y-34410025D03*
D19*
X154781250Y-26790025D03*
%TD*%
D18*
%TO.C,D20*%
X2381250Y-86797525D03*
D19*
X2381250Y-79177525D03*
%TD*%
D20*
%TO.C,SW17*%
X14525000Y-24775000D03*
D21*
X9525000Y-28575000D03*
D20*
X9525000Y-22575000D03*
D22*
X4525000Y-33725000D03*
D23*
X18100000Y-24775000D03*
X5950000Y-22575000D03*
%TD*%
D18*
%TO.C,D11*%
X154781250Y-10597525D03*
D19*
X154781250Y-2977525D03*
%TD*%
D18*
%TO.C,D1*%
X2380900Y-10121275D03*
D19*
X2380900Y-2501275D03*
%TD*%
D20*
%TO.C,SW25*%
X33575000Y-34300000D03*
D21*
X28575000Y-38100000D03*
D20*
X28575000Y-32100000D03*
D22*
X23575000Y-43250000D03*
D23*
X37150000Y-34300000D03*
X25000000Y-32100000D03*
%TD*%
D18*
%TO.C,D19*%
X2381250Y-67747525D03*
D19*
X2381250Y-60127525D03*
%TD*%
D20*
%TO.C,SW37*%
X109775000Y-29537500D03*
D21*
X104775000Y-33337500D03*
D20*
X104775000Y-27337500D03*
D22*
X99775000Y-38487500D03*
D23*
X113350000Y-29537500D03*
X101200000Y-27337500D03*
%TD*%
D18*
%TO.C,D50*%
X211931250Y-53460025D03*
D19*
X211931250Y-45840025D03*
%TD*%
D18*
%TO.C,D9*%
X116681250Y-10597525D03*
D19*
X116681250Y-2977525D03*
%TD*%
D20*
%TO.C,SW10*%
X147875000Y-5725000D03*
D21*
X142875000Y-9525000D03*
D20*
X142875000Y-3525000D03*
D22*
X137875000Y-14675000D03*
D23*
X151450000Y-5725000D03*
X139300000Y-3525000D03*
%TD*%
D18*
%TO.C,D8*%
X97631250Y-10597525D03*
D19*
X97631250Y-2977525D03*
%TD*%
D20*
%TO.C,SW46*%
X205025000Y-24775000D03*
D21*
X200025000Y-28575000D03*
D20*
X200025000Y-22575000D03*
D22*
X195025000Y-33725000D03*
D23*
X208600000Y-24775000D03*
X196450000Y-22575000D03*
%TD*%
D18*
%TO.C,D27*%
X21431250Y-77272525D03*
D19*
X21431250Y-69652525D03*
%TD*%
D18*
%TO.C,D33*%
X59531250Y-67747525D03*
D19*
X59531250Y-60127525D03*
%TD*%
D18*
%TO.C,D30*%
X40481250Y-72510025D03*
D19*
X40481250Y-64890025D03*
%TD*%
D20*
%TO.C,SW57*%
X97868750Y-86687500D03*
D21*
X92868750Y-90487500D03*
D20*
X92868750Y-84487500D03*
D22*
X87868750Y-95637500D03*
D23*
X101443750Y-86687500D03*
X89293750Y-84487500D03*
%TD*%
D20*
%TO.C,SW53*%
X243125000Y-53350000D03*
D21*
X238125000Y-57150000D03*
D20*
X238125000Y-51150000D03*
D22*
X233125000Y-62300000D03*
D23*
X246700000Y-53350000D03*
X234550000Y-51150000D03*
%TD*%
D20*
%TO.C,SW23*%
X262175000Y-62875000D03*
D21*
X257175000Y-66675000D03*
D20*
X257175000Y-60675000D03*
D22*
X252175000Y-71825000D03*
D23*
X265750000Y-62875000D03*
X253600000Y-60675000D03*
%TD*%
D20*
%TO.C,SW44*%
X185975000Y-48587500D03*
D21*
X180975000Y-52387500D03*
D20*
X180975000Y-46387500D03*
D22*
X175975000Y-57537500D03*
D23*
X189550000Y-48587500D03*
X177400000Y-46387500D03*
%TD*%
D20*
%TO.C,SW29*%
X52625000Y-48587500D03*
D21*
X47625000Y-52387500D03*
D20*
X47625000Y-46387500D03*
D22*
X42625000Y-57537500D03*
D23*
X56200000Y-48587500D03*
X44050000Y-46387500D03*
%TD*%
D18*
%TO.C,D15*%
X230981250Y-10597525D03*
D19*
X230981250Y-2977525D03*
%TD*%
D18*
%TO.C,D52*%
X230981250Y-39172525D03*
D19*
X230981250Y-31552525D03*
%TD*%
D18*
%TO.C,D16*%
X250031250Y-10597525D03*
D19*
X250031250Y-2977525D03*
%TD*%
D18*
%TO.C,D31*%
X59531250Y-29647525D03*
D19*
X59531250Y-22027525D03*
%TD*%
D18*
%TO.C,D43*%
X173831250Y-34410025D03*
D19*
X173831250Y-26790025D03*
%TD*%
D20*
%TO.C,SW45*%
X185975000Y-67637500D03*
D21*
X180975000Y-71437500D03*
D20*
X180975000Y-65437500D03*
D22*
X175975000Y-76587500D03*
D23*
X189550000Y-67637500D03*
X177400000Y-65437500D03*
%TD*%
D18*
%TO.C,D36*%
X78581250Y-72510025D03*
D19*
X78581250Y-64890025D03*
%TD*%
D20*
%TO.C,SW35*%
X90725000Y-48587500D03*
D21*
X85725000Y-52387500D03*
D20*
X85725000Y-46387500D03*
D22*
X80725000Y-57537500D03*
D23*
X94300000Y-48587500D03*
X82150000Y-46387500D03*
%TD*%
D20*
%TO.C,SW48*%
X205025000Y-62875000D03*
D21*
X200025000Y-66675000D03*
D20*
X200025000Y-60675000D03*
D22*
X195025000Y-71825000D03*
D23*
X208600000Y-62875000D03*
X196450000Y-60675000D03*
%TD*%
D20*
%TO.C,SW13*%
X205025000Y-5725000D03*
D21*
X200025000Y-9525000D03*
D20*
X200025000Y-3525000D03*
D22*
X195025000Y-14675000D03*
D23*
X208600000Y-5725000D03*
X196450000Y-3525000D03*
%TD*%
D20*
%TO.C,SW11*%
X166925000Y-5725000D03*
D21*
X161925000Y-9525000D03*
D20*
X161925000Y-3525000D03*
D22*
X156925000Y-14675000D03*
D23*
X170500000Y-5725000D03*
X158350000Y-3525000D03*
%TD*%
D18*
%TO.C,D32*%
X59531250Y-48697525D03*
D19*
X59531250Y-41077525D03*
%TD*%
D20*
%TO.C,SW36*%
X90725000Y-67637500D03*
D21*
X85725000Y-71437500D03*
D20*
X85725000Y-65437500D03*
D22*
X80725000Y-76587500D03*
D23*
X94300000Y-67637500D03*
X82150000Y-65437500D03*
%TD*%
D20*
%TO.C,SW38*%
X109775000Y-48587500D03*
D21*
X104775000Y-52387500D03*
D20*
X104775000Y-46387500D03*
D22*
X99775000Y-57537500D03*
D23*
X113350000Y-48587500D03*
X101200000Y-46387500D03*
%TD*%
D20*
%TO.C,SW21*%
X262175000Y-24775000D03*
D21*
X257175000Y-28575000D03*
D20*
X257175000Y-22575000D03*
D22*
X252175000Y-33725000D03*
D23*
X265750000Y-24775000D03*
X253600000Y-22575000D03*
%TD*%
D20*
%TO.C,SW33*%
X71675000Y-62875000D03*
D21*
X66675000Y-66675000D03*
D20*
X66675000Y-60675000D03*
D22*
X61675000Y-71825000D03*
D23*
X75250000Y-62875000D03*
X63100000Y-60675000D03*
%TD*%
D20*
%TO.C,SW31*%
X71675000Y-24775000D03*
D21*
X66675000Y-28575000D03*
D20*
X66675000Y-22575000D03*
D22*
X61675000Y-33725000D03*
D23*
X75250000Y-24775000D03*
X63100000Y-22575000D03*
%TD*%
D20*
%TO.C,SW34*%
X90725000Y-29537500D03*
D21*
X85725000Y-33337500D03*
D20*
X85725000Y-27337500D03*
D22*
X80725000Y-38487500D03*
D23*
X94300000Y-29537500D03*
X82150000Y-27337500D03*
%TD*%
D20*
%TO.C,SW47*%
X205025000Y-43825000D03*
D21*
X200025000Y-47625000D03*
D20*
X200025000Y-41625000D03*
D22*
X195025000Y-52775000D03*
D23*
X208600000Y-43825000D03*
X196450000Y-41625000D03*
%TD*%
D20*
%TO.C,SW56*%
X74056250Y-86687500D03*
D21*
X69056250Y-90487500D03*
D20*
X69056250Y-84487500D03*
D22*
X64056250Y-95637500D03*
D23*
X77631250Y-86687500D03*
X65481250Y-84487500D03*
%TD*%
D18*
%TO.C,D35*%
X78581250Y-53460025D03*
D19*
X78581250Y-45840025D03*
%TD*%
D18*
%TO.C,D18*%
X2381250Y-47268775D03*
D19*
X2381250Y-39648775D03*
%TD*%
D20*
%TO.C,SW26*%
X33575000Y-53350000D03*
D21*
X28575000Y-57150000D03*
D20*
X28575000Y-51150000D03*
D22*
X23575000Y-62300000D03*
D23*
X37150000Y-53350000D03*
X25000000Y-51150000D03*
%TD*%
D20*
%TO.C,SW54*%
X243125000Y-72400000D03*
D21*
X238125000Y-76200000D03*
D20*
X238125000Y-70200000D03*
D22*
X233125000Y-81350000D03*
D23*
X246700000Y-72400000D03*
X234550000Y-70200000D03*
%TD*%
D18*
%TO.C,D47*%
X192881250Y-48697525D03*
D19*
X192881250Y-41077525D03*
%TD*%
D18*
%TO.C,D21*%
X250031250Y-29647525D03*
D19*
X250031250Y-22027525D03*
%TD*%
D18*
%TO.C,D10*%
X135731250Y-10597525D03*
D19*
X135731250Y-2977525D03*
%TD*%
D20*
%TO.C,SW9*%
X128825000Y-5725000D03*
D21*
X123825000Y-9525000D03*
D20*
X123825000Y-3525000D03*
D22*
X118825000Y-14675000D03*
D23*
X132400000Y-5725000D03*
X120250000Y-3525000D03*
%TD*%
D20*
%TO.C,SW16*%
X262175000Y-5725000D03*
D21*
X257175000Y-9525000D03*
D20*
X257175000Y-3525000D03*
D22*
X252175000Y-14675000D03*
D23*
X265750000Y-5725000D03*
X253600000Y-3525000D03*
%TD*%
D18*
%TO.C,D12*%
X173831250Y-10597525D03*
D19*
X173831250Y-2977525D03*
%TD*%
D18*
%TO.C,D29*%
X40481250Y-53460025D03*
D19*
X40481250Y-45840025D03*
%TD*%
D20*
%TO.C,SW5*%
X52625000Y-5725000D03*
D21*
X47625000Y-9525000D03*
D20*
X47625000Y-3525000D03*
D22*
X42625000Y-14675000D03*
D23*
X56200000Y-5725000D03*
X44050000Y-3525000D03*
%TD*%
D20*
%TO.C,SW42*%
X166925000Y-67637500D03*
D21*
X161925000Y-71437500D03*
D20*
X161925000Y-65437500D03*
D22*
X156925000Y-76587500D03*
D23*
X170500000Y-67637500D03*
X158350000Y-65437500D03*
%TD*%
D20*
%TO.C,SW32*%
X71675000Y-43825000D03*
D21*
X66675000Y-47625000D03*
D20*
X66675000Y-41625000D03*
D22*
X61675000Y-52775000D03*
D23*
X75250000Y-43825000D03*
X63100000Y-41625000D03*
%TD*%
D18*
%TO.C,D48*%
X192881250Y-67747525D03*
D19*
X192881250Y-60127525D03*
%TD*%
D20*
%TO.C,SW6*%
X71675000Y-5725000D03*
D21*
X66675000Y-9525000D03*
D20*
X66675000Y-3525000D03*
D22*
X61675000Y-14675000D03*
D23*
X75250000Y-5725000D03*
X63100000Y-3525000D03*
%TD*%
D20*
%TO.C,SW12*%
X185975000Y-5725000D03*
D21*
X180975000Y-9525000D03*
D20*
X180975000Y-3525000D03*
D22*
X175975000Y-14675000D03*
D23*
X189550000Y-5725000D03*
X177400000Y-3525000D03*
%TD*%
D18*
%TO.C,D55*%
X40481250Y-91560025D03*
D19*
X40481250Y-83940025D03*
%TD*%
D18*
%TO.C,D60*%
X190503950Y-91561725D03*
D19*
X190503950Y-83941725D03*
%TD*%
D20*
%TO.C,SW40*%
X166925000Y-29537500D03*
D21*
X161925000Y-33337500D03*
D20*
X161925000Y-27337500D03*
D22*
X156925000Y-38487500D03*
D23*
X170500000Y-29537500D03*
X158350000Y-27337500D03*
%TD*%
D18*
%TO.C,D46*%
X192881250Y-29647525D03*
D19*
X192881250Y-22027525D03*
%TD*%
D18*
%TO.C,D51*%
X211931250Y-72510025D03*
D19*
X211931250Y-64890025D03*
%TD*%
D20*
%TO.C,SW18*%
X14525000Y-43825000D03*
D21*
X9525000Y-47625000D03*
D20*
X9525000Y-41625000D03*
D22*
X4525000Y-52775000D03*
D23*
X18100000Y-43825000D03*
X5950000Y-41625000D03*
%TD*%
D18*
%TO.C,D58*%
X126206250Y-91560025D03*
D19*
X126206250Y-83940025D03*
%TD*%
D20*
%TO.C,SW39*%
X109775000Y-67637500D03*
D21*
X104775000Y-71437500D03*
D20*
X104775000Y-65437500D03*
D22*
X99775000Y-76587500D03*
D23*
X113350000Y-67637500D03*
X101200000Y-65437500D03*
%TD*%
D20*
%TO.C,SW20*%
X14525000Y-81925000D03*
D21*
X9525000Y-85725000D03*
D20*
X9525000Y-79725000D03*
D22*
X4525000Y-90875000D03*
D23*
X18100000Y-81925000D03*
X5950000Y-79725000D03*
%TD*%
D18*
%TO.C,D22*%
X250031250Y-48697525D03*
D19*
X250031250Y-41077525D03*
%TD*%
D20*
%TO.C,SW30*%
X52625000Y-67637500D03*
D21*
X47625000Y-71437500D03*
D20*
X47625000Y-65437500D03*
D22*
X42625000Y-76587500D03*
D23*
X56200000Y-67637500D03*
X44050000Y-65437500D03*
%TD*%
M02*
