%TF.GenerationSoftware,KiCad,Pcbnew,8.0.3*%
%TF.CreationDate,2024-11-08T10:21:23-08:00*%
%TF.ProjectId,return,72657475-726e-42e6-9b69-6361645f7063,rev?*%
%TF.SameCoordinates,Original*%
%TF.FileFunction,Paste,Bot*%
%TF.FilePolarity,Positive*%
%FSLAX46Y46*%
G04 Gerber Fmt 4.6, Leading zero omitted, Abs format (unit mm)*
G04 Created by KiCad (PCBNEW 8.0.3) date 2024-11-08 10:21:23*
%MOMM*%
%LPD*%
G01*
G04 APERTURE LIST*
G04 Aperture macros list*
%AMRoundRect*
0 Rectangle with rounded corners*
0 $1 Rounding radius*
0 $2 $3 $4 $5 $6 $7 $8 $9 X,Y pos of 4 corners*
0 Add a 4 corners polygon primitive as box body*
4,1,4,$2,$3,$4,$5,$6,$7,$8,$9,$2,$3,0*
0 Add four circle primitives for the rounded corners*
1,1,$1+$1,$2,$3*
1,1,$1+$1,$4,$5*
1,1,$1+$1,$6,$7*
1,1,$1+$1,$8,$9*
0 Add four rect primitives between the rounded corners*
20,1,$1+$1,$2,$3,$4,$5,0*
20,1,$1+$1,$4,$5,$6,$7,0*
20,1,$1+$1,$6,$7,$8,$9,0*
20,1,$1+$1,$8,$9,$2,$3,0*%
G04 Aperture macros list end*
%ADD10R,1.650000X0.820000*%
%ADD11RoundRect,0.205000X-0.620000X-0.205000X0.620000X-0.205000X0.620000X0.205000X-0.620000X0.205000X0*%
%ADD12RoundRect,0.205000X0.620000X0.205000X-0.620000X0.205000X-0.620000X-0.205000X0.620000X-0.205000X0*%
%ADD13RoundRect,0.200000X-1.100000X-1.100000X1.100000X-1.100000X1.100000X1.100000X-1.100000X1.100000X0*%
G04 APERTURE END LIST*
D10*
%TO.C,LED59*%
X240755000Y-61759125D03*
D11*
X235505000Y-61759125D03*
D10*
X235505000Y-63259125D03*
X240755000Y-63259125D03*
%TD*%
%TO.C,LED0*%
X254555400Y-15478450D03*
D12*
X259805400Y-15478450D03*
D10*
X259805400Y-13978450D03*
X254555400Y-13978450D03*
%TD*%
%TO.C,LED34*%
X107402200Y-76046925D03*
D11*
X102152200Y-76046925D03*
D10*
X102152200Y-77546925D03*
X107402200Y-77546925D03*
%TD*%
%TO.C,LED63*%
X235505000Y-44208725D03*
D12*
X240755000Y-44208725D03*
D10*
X240755000Y-42708725D03*
X235505000Y-42708725D03*
%TD*%
%TO.C,LED39*%
X45001000Y-96597325D03*
D12*
X50251000Y-96597325D03*
D10*
X50251000Y-95097325D03*
X45001000Y-95097325D03*
%TD*%
%TO.C,LED31*%
X50251000Y-76046925D03*
D11*
X45001000Y-76046925D03*
D10*
X45001000Y-77546925D03*
X50251000Y-77546925D03*
%TD*%
%TO.C,LED30*%
X31200600Y-80809525D03*
D11*
X25950600Y-80809525D03*
D10*
X25950600Y-82309525D03*
X31200600Y-82309525D03*
%TD*%
%TO.C,LED20*%
X107402200Y-37946125D03*
D11*
X102152200Y-37946125D03*
D10*
X102152200Y-39446125D03*
X107402200Y-39446125D03*
%TD*%
%TO.C,LED40*%
X6900200Y-91834725D03*
D12*
X12150200Y-91834725D03*
D10*
X12150200Y-90334725D03*
X6900200Y-90334725D03*
%TD*%
%TO.C,LED32*%
X69301400Y-71284325D03*
D11*
X64051400Y-71284325D03*
D10*
X64051400Y-72784325D03*
X69301400Y-72784325D03*
%TD*%
%TO.C,LED48*%
X216454600Y-77546925D03*
D12*
X221704600Y-77546925D03*
D10*
X221704600Y-76046925D03*
X216454600Y-76046925D03*
%TD*%
%TO.C,LED45*%
X259805400Y-90334725D03*
D11*
X254555400Y-90334725D03*
D10*
X254555400Y-91834725D03*
X259805400Y-91834725D03*
%TD*%
%TO.C,LED37*%
X90245700Y-96597325D03*
D12*
X95495700Y-96597325D03*
D10*
X95495700Y-95097325D03*
X90245700Y-95097325D03*
%TD*%
%TO.C,LED67*%
X197404200Y-34683525D03*
D12*
X202654200Y-34683525D03*
D10*
X202654200Y-33183525D03*
X197404200Y-33183525D03*
%TD*%
%TO.C,LED43*%
X200272900Y-95097325D03*
D11*
X195022900Y-95097325D03*
D10*
X195022900Y-96597325D03*
X200272900Y-96597325D03*
%TD*%
%TO.C,LED13*%
X25950600Y-15633125D03*
D12*
X31200600Y-15633125D03*
D10*
X31200600Y-14133125D03*
X25950600Y-14133125D03*
%TD*%
%TO.C,LED11*%
X64051400Y-15478450D03*
D12*
X69301400Y-15478450D03*
D10*
X69301400Y-13978450D03*
X64051400Y-13978450D03*
%TD*%
%TO.C,LED61*%
X254555400Y-34683525D03*
D12*
X259805400Y-34683525D03*
D10*
X259805400Y-33183525D03*
X254555400Y-33183525D03*
%TD*%
%TO.C,LED4*%
X197404200Y-15478450D03*
D12*
X202654200Y-15478450D03*
D10*
X202654200Y-13978450D03*
X197404200Y-13978450D03*
%TD*%
%TO.C,LED23*%
X102152200Y-58496525D03*
D12*
X107402200Y-58496525D03*
D10*
X107402200Y-56996525D03*
X102152200Y-56996525D03*
%TD*%
%TO.C,LED29*%
X12150200Y-71284325D03*
D11*
X6900200Y-71284325D03*
D10*
X6900200Y-72784325D03*
X12150200Y-72784325D03*
%TD*%
%TO.C,LED17*%
X50251000Y-37946125D03*
D11*
X45001000Y-37946125D03*
D10*
X45001000Y-39446125D03*
X50251000Y-39446125D03*
%TD*%
%TO.C,LED53*%
X159303400Y-77546925D03*
D12*
X164553400Y-77546925D03*
D10*
X164553400Y-76046925D03*
X159303400Y-76046925D03*
%TD*%
%TO.C,LED51*%
X197404200Y-72784325D03*
D12*
X202654200Y-72784325D03*
D10*
X202654200Y-71284325D03*
X197404200Y-71284325D03*
%TD*%
%TO.C,LED7*%
X140253000Y-15478450D03*
D12*
X145503000Y-15478450D03*
D10*
X145503000Y-13978450D03*
X140253000Y-13978450D03*
%TD*%
%TO.C,LED19*%
X88351800Y-37946125D03*
D11*
X83101800Y-37946125D03*
D10*
X83101800Y-39446125D03*
X88351800Y-39446125D03*
%TD*%
%TO.C,LED26*%
X45001000Y-58496525D03*
D12*
X50251000Y-58496525D03*
D10*
X50251000Y-56996525D03*
X45001000Y-56996525D03*
%TD*%
%TO.C,LED57*%
X221704600Y-56996525D03*
D11*
X216454600Y-56996525D03*
D10*
X216454600Y-58496525D03*
X221704600Y-58496525D03*
%TD*%
%TO.C,LED47*%
X235505000Y-82309525D03*
D12*
X240755000Y-82309525D03*
D10*
X240755000Y-80809525D03*
X235505000Y-80809525D03*
%TD*%
%TO.C,LED54*%
X164553400Y-56996525D03*
D11*
X159303400Y-56996525D03*
D10*
X159303400Y-58496525D03*
X164553400Y-58496525D03*
%TD*%
%TO.C,LED3*%
X216454600Y-15478450D03*
D12*
X221704600Y-15478450D03*
D10*
X221704600Y-13978450D03*
X216454600Y-13978450D03*
%TD*%
%TO.C,LED10*%
X83101800Y-15478450D03*
D12*
X88351800Y-15478450D03*
D10*
X88351800Y-13978450D03*
X83101800Y-13978450D03*
%TD*%
%TO.C,LED66*%
X216454600Y-39446125D03*
D12*
X221704600Y-39446125D03*
D10*
X221704600Y-37946125D03*
X216454600Y-37946125D03*
%TD*%
%TO.C,LED70*%
X159303400Y-39446125D03*
D12*
X164553400Y-39446125D03*
D10*
X164553400Y-37946125D03*
X159303400Y-37946125D03*
%TD*%
%TO.C,LED46*%
X254555400Y-73974975D03*
D12*
X259805400Y-73974975D03*
D10*
X259805400Y-72474975D03*
X254555400Y-72474975D03*
%TD*%
%TO.C,LED9*%
X102152200Y-15478450D03*
D12*
X107402200Y-15478450D03*
D10*
X107402200Y-13978450D03*
X102152200Y-13978450D03*
%TD*%
%TO.C,LED2*%
X235505000Y-15478450D03*
D12*
X240755000Y-15478450D03*
D10*
X240755000Y-13978450D03*
X235505000Y-13978450D03*
%TD*%
%TO.C,LED27*%
X25950600Y-63259125D03*
D12*
X31200600Y-63259125D03*
D10*
X31200600Y-61759125D03*
X25950600Y-61759125D03*
%TD*%
%TO.C,LED42*%
X178841200Y-95097325D03*
D11*
X173591200Y-95097325D03*
D10*
X173591200Y-96597325D03*
X178841200Y-96597325D03*
%TD*%
%TO.C,LED5*%
X178353800Y-15478450D03*
D12*
X183603800Y-15478450D03*
D10*
X183603800Y-13978450D03*
X178353800Y-13978450D03*
%TD*%
%TO.C,LED41*%
X135977800Y-95097325D03*
D11*
X130727800Y-95097325D03*
D10*
X130727800Y-96597325D03*
X135977800Y-96597325D03*
%TD*%
%TO.C,LED16*%
X31200600Y-42708725D03*
D11*
X25950600Y-42708725D03*
D10*
X25950600Y-44208725D03*
X31200600Y-44208725D03*
%TD*%
%TO.C,LED55*%
X183603800Y-56996525D03*
D11*
X178353800Y-56996525D03*
D10*
X178353800Y-58496525D03*
X183603800Y-58496525D03*
%TD*%
%TO.C,LED15*%
X12150200Y-33183525D03*
D11*
X6900200Y-33183525D03*
D10*
X6900200Y-34683525D03*
X12150200Y-34683525D03*
%TD*%
%TO.C,LED60*%
X259805400Y-52233925D03*
D11*
X254555400Y-52233925D03*
D10*
X254555400Y-53733925D03*
X259805400Y-53733925D03*
%TD*%
%TO.C,LED12*%
X45001000Y-15478450D03*
D12*
X50251000Y-15478450D03*
D10*
X50251000Y-13978450D03*
X45001000Y-13978450D03*
%TD*%
%TO.C,LED28*%
X6900200Y-53733925D03*
D12*
X12150200Y-53733925D03*
D10*
X12150200Y-52233925D03*
X6900200Y-52233925D03*
%TD*%
%TO.C,LED38*%
X66432700Y-96597325D03*
D12*
X71682700Y-96597325D03*
D10*
X71682700Y-95097325D03*
X66432700Y-95097325D03*
%TD*%
%TO.C,LED24*%
X83101800Y-58496525D03*
D12*
X88351800Y-58496525D03*
D10*
X88351800Y-56996525D03*
X83101800Y-56996525D03*
%TD*%
%TO.C,LED44*%
X221704600Y-95097325D03*
D11*
X216454600Y-95097325D03*
D10*
X216454600Y-96597325D03*
X221704600Y-96597325D03*
%TD*%
%TO.C,LED52*%
X178353800Y-77546925D03*
D12*
X183603800Y-77546925D03*
D10*
X183603800Y-76046925D03*
X178353800Y-76046925D03*
%TD*%
%TO.C,LED14*%
X6900200Y-15633125D03*
D12*
X12150200Y-15633125D03*
D10*
X12150200Y-14133125D03*
X6900200Y-14133125D03*
%TD*%
%TO.C,LED56*%
X202654200Y-52233925D03*
D11*
X197404200Y-52233925D03*
D10*
X197404200Y-53733925D03*
X202654200Y-53733925D03*
%TD*%
%TO.C,LED6*%
X159303400Y-15478450D03*
D12*
X164553400Y-15478450D03*
D10*
X164553400Y-13978450D03*
X159303400Y-13978450D03*
%TD*%
%TO.C,LED25*%
X64051400Y-53733925D03*
D12*
X69301400Y-53733925D03*
D10*
X69301400Y-52233925D03*
X64051400Y-52233925D03*
%TD*%
%TO.C,LED68*%
X178353800Y-39446125D03*
D12*
X183603800Y-39446125D03*
D10*
X183603800Y-37946125D03*
X178353800Y-37946125D03*
%TD*%
%TO.C,LED33*%
X88351800Y-76046925D03*
D11*
X83101800Y-76046925D03*
D10*
X83101800Y-77546925D03*
X88351800Y-77546925D03*
%TD*%
%TO.C,LED8*%
X121202600Y-15478450D03*
D12*
X126452600Y-15478450D03*
D10*
X126452600Y-13978450D03*
X121202600Y-13978450D03*
%TD*%
%TO.C,LED18*%
X69301400Y-33183525D03*
D11*
X64051400Y-33183525D03*
D10*
X64051400Y-34683525D03*
X69301400Y-34683525D03*
%TD*%
D13*
%TO.C,SW7*%
X94300000Y-5725000D03*
X82150000Y-3525000D03*
%TD*%
%TO.C,SW28*%
X56200000Y-29537500D03*
X44050000Y-27337500D03*
%TD*%
%TO.C,SW14*%
X227650000Y-5725000D03*
X215500000Y-3525000D03*
%TD*%
%TO.C,SW58*%
X141925000Y-86687500D03*
X129775000Y-84487500D03*
%TD*%
%TO.C,SW55*%
X56200000Y-86687500D03*
X44050000Y-84487500D03*
%TD*%
%TO.C,SW8*%
X113350000Y-5725000D03*
X101200000Y-3525000D03*
%TD*%
%TO.C,SW51*%
X227650000Y-67637500D03*
X215500000Y-65437500D03*
%TD*%
%TO.C,SW61*%
X227650000Y-86687500D03*
X215500000Y-84487500D03*
%TD*%
%TO.C,SW27*%
X37150000Y-72400000D03*
X25000000Y-70200000D03*
%TD*%
%TO.C,SW19*%
X18100000Y-62875000D03*
X5950000Y-60675000D03*
%TD*%
%TO.C,SW24*%
X265750000Y-81925000D03*
X253600000Y-79725000D03*
%TD*%
%TO.C,SW60*%
X206222700Y-86689200D03*
X194072700Y-84489200D03*
%TD*%
%TO.C,SW3*%
X18100000Y-5725000D03*
X5950000Y-3525000D03*
%TD*%
%TO.C,SW22*%
X265750000Y-43825000D03*
X253600000Y-41625000D03*
%TD*%
%TO.C,SW41*%
X170500000Y-48587500D03*
X158350000Y-46387500D03*
%TD*%
%TO.C,SW59*%
X184791200Y-86687500D03*
X172641200Y-84487500D03*
%TD*%
%TO.C,SW52*%
X246700000Y-34300000D03*
X234550000Y-32100000D03*
%TD*%
%TO.C,SW50*%
X227650000Y-48587500D03*
X215500000Y-46387500D03*
%TD*%
%TO.C,SW15*%
X246700000Y-5725000D03*
X234550000Y-3525000D03*
%TD*%
%TO.C,SW4*%
X37150000Y-5725000D03*
X25000000Y-3525000D03*
%TD*%
%TO.C,SW49*%
X227650000Y-29537500D03*
X215500000Y-27337500D03*
%TD*%
%TO.C,SW43*%
X189550000Y-29537500D03*
X177400000Y-27337500D03*
%TD*%
%TO.C,SW17*%
X18100000Y-24775000D03*
X5950000Y-22575000D03*
%TD*%
%TO.C,SW25*%
X37150000Y-34300000D03*
X25000000Y-32100000D03*
%TD*%
%TO.C,SW37*%
X113350000Y-29537500D03*
X101200000Y-27337500D03*
%TD*%
%TO.C,SW10*%
X151450000Y-5725000D03*
X139300000Y-3525000D03*
%TD*%
%TO.C,SW46*%
X208600000Y-24775000D03*
X196450000Y-22575000D03*
%TD*%
%TO.C,SW57*%
X101443750Y-86687500D03*
X89293750Y-84487500D03*
%TD*%
%TO.C,SW53*%
X246700000Y-53350000D03*
X234550000Y-51150000D03*
%TD*%
%TO.C,SW23*%
X265750000Y-62875000D03*
X253600000Y-60675000D03*
%TD*%
%TO.C,SW44*%
X189550000Y-48587500D03*
X177400000Y-46387500D03*
%TD*%
%TO.C,SW29*%
X56200000Y-48587500D03*
X44050000Y-46387500D03*
%TD*%
%TO.C,SW45*%
X189550000Y-67637500D03*
X177400000Y-65437500D03*
%TD*%
%TO.C,SW35*%
X94300000Y-48587500D03*
X82150000Y-46387500D03*
%TD*%
%TO.C,SW48*%
X208600000Y-62875000D03*
X196450000Y-60675000D03*
%TD*%
%TO.C,SW13*%
X208600000Y-5725000D03*
X196450000Y-3525000D03*
%TD*%
%TO.C,SW11*%
X170500000Y-5725000D03*
X158350000Y-3525000D03*
%TD*%
%TO.C,SW36*%
X94300000Y-67637500D03*
X82150000Y-65437500D03*
%TD*%
%TO.C,SW38*%
X113350000Y-48587500D03*
X101200000Y-46387500D03*
%TD*%
%TO.C,SW21*%
X265750000Y-24775000D03*
X253600000Y-22575000D03*
%TD*%
%TO.C,SW33*%
X75250000Y-62875000D03*
X63100000Y-60675000D03*
%TD*%
%TO.C,SW31*%
X75250000Y-24775000D03*
X63100000Y-22575000D03*
%TD*%
%TO.C,SW34*%
X94300000Y-29537500D03*
X82150000Y-27337500D03*
%TD*%
%TO.C,SW47*%
X208600000Y-43825000D03*
X196450000Y-41625000D03*
%TD*%
%TO.C,SW56*%
X77631250Y-86687500D03*
X65481250Y-84487500D03*
%TD*%
%TO.C,SW26*%
X37150000Y-53350000D03*
X25000000Y-51150000D03*
%TD*%
%TO.C,SW54*%
X246700000Y-72400000D03*
X234550000Y-70200000D03*
%TD*%
%TO.C,SW9*%
X132400000Y-5725000D03*
X120250000Y-3525000D03*
%TD*%
%TO.C,SW16*%
X265750000Y-5725000D03*
X253600000Y-3525000D03*
%TD*%
%TO.C,SW5*%
X56200000Y-5725000D03*
X44050000Y-3525000D03*
%TD*%
%TO.C,SW42*%
X170500000Y-67637500D03*
X158350000Y-65437500D03*
%TD*%
%TO.C,SW32*%
X75250000Y-43825000D03*
X63100000Y-41625000D03*
%TD*%
%TO.C,SW6*%
X75250000Y-5725000D03*
X63100000Y-3525000D03*
%TD*%
%TO.C,SW12*%
X189550000Y-5725000D03*
X177400000Y-3525000D03*
%TD*%
%TO.C,SW40*%
X170500000Y-29537500D03*
X158350000Y-27337500D03*
%TD*%
%TO.C,SW18*%
X18100000Y-43825000D03*
X5950000Y-41625000D03*
%TD*%
%TO.C,SW39*%
X113350000Y-67637500D03*
X101200000Y-65437500D03*
%TD*%
%TO.C,SW20*%
X18100000Y-81925000D03*
X5950000Y-79725000D03*
%TD*%
%TO.C,SW30*%
X56200000Y-67637500D03*
X44050000Y-65437500D03*
%TD*%
M02*
